<svg id="giftpur" viewBox="0 0 177 27">
    <path
        d="M8.4 17.507H1.243c-.598 0-1.082.484-1.082 1.082v7.236c0 .598.484 1.082 1.082 1.082H8.4c.597 0 1.082-.484 1.082-1.082V18.59c0-.598-.485-1.082-1.082-1.082zM18.889 17.507H11.73c-.597 0-1.082.484-1.082 1.082v7.236c0 .598.485 1.082 1.082 1.082h7.159c.598 0 1.082-.484 1.082-1.082V18.59c0-.598-.484-1.082-1.082-1.082z"
        fill="#133463" />
    <path
        d="M8.4 6.863H1.243C.644 6.863.16 7.347.16 7.945v7.236c0 .598.484 1.083 1.082 1.083H8.4c.597 0 1.082-.485 1.082-1.083V7.945c0-.598-.485-1.082-1.082-1.082zM18.889 6.863H11.73c-.597 0-1.082.484-1.082 1.082v7.236c0 .598.485 1.083 1.082 1.083h7.159c.598 0 1.082-.485 1.082-1.083V7.945c0-.598-.484-1.082-1.082-1.082z"
        fill="#3EBBF0" />
    <path
        d="M14.475 2.687c-.674 1.648-3.194 3.347-4.362 3.986-.011-1.503.22-4.825 1.172-6.051 1.19-1.534 4.033.004 3.19 2.065z"
        fill="#133463" />
    <path
        d="M10.113 6.673c-.87-.703-2.686-2.458-2.985-3.862-.373-1.756 2.239-2.458 2.985-1.053.597 1.123.248 3.744 0 4.915zM38.373 27c-3.645 0-6.457-.969-8.437-2.907C27.979 22.133 27 19.101 27 15c0-2.727.472-4.969 1.417-6.727.945-1.78 2.318-3.098 4.117-3.955C34.334 3.44 36.494 3 39.014 3c1.507 0 2.924.169 4.252.507 1.327.338 2.497.856 3.51 1.555a7.256 7.256 0 012.395 2.637c.585 1.036.878 2.276.878 3.718h-5.096c0-.699-.158-1.318-.473-1.86a3.768 3.768 0 00-1.248-1.351 6.03 6.03 0 00-1.856-.812 8.73 8.73 0 00-2.194-.27c-1.17 0-2.193.158-3.07.473-.878.293-1.61.755-2.194 1.386-.563.609-.99 1.375-1.282 2.299-.293.924-.44 1.994-.44 3.211v1.014c0 1.69.248 3.076.743 4.158.495 1.082 1.238 1.893 2.228 2.434.99.518 2.216.777 3.678.777 1.215 0 2.283-.18 3.206-.54.945-.384 1.676-.925 2.193-1.623.54-.699.81-1.555.81-2.57v-.236h-6.918v-3.854H50.05v12.541h-3.307l-.44-2.501a10.049 10.049 0 01-2.193 1.622 9.145 9.145 0 01-2.564.947c-.945.225-2.003.338-3.172.338zM54.9 26.594V3.406h5.028v23.188H54.9zM65.05 26.594V3.406h17.076V7.53H70.078v5.746h10.765v4.09H70.078v9.228H65.05zM91.746 26.594V7.631h-7.424V3.406h19.944V7.63h-7.458v18.963h-5.062zM107.661 26.594V3.406h12.048c1.665 0 3.048.315 4.15.946a5.887 5.887 0 012.531 2.603c.585 1.104.878 2.422.878 3.955 0 1.532-.304 2.873-.911 4.022-.585 1.127-1.451 2.006-2.599 2.637-1.147.631-2.553.947-4.218.947h-6.85v8.078h-5.029zm5.029-12.203h6.175c1.057 0 1.867-.304 2.43-.912.585-.63.875-1.476.875-2.535 0-.744-.124-1.364-.371-1.86a2.612 2.612 0 00-1.114-1.149c-.472-.27-1.08-.405-1.822-.405h-6.175v6.895zM140.654 27c-2.115 0-3.937-.338-5.467-1.014-1.507-.676-2.666-1.69-3.476-3.042-.81-1.375-1.215-3.076-1.215-5.105V3.406h5.062v14.298c0 1.668.439 2.952 1.316 3.854.878.879 2.137 1.318 3.78 1.318 1.642 0 2.902-.44 3.779-1.318.9-.902 1.35-2.186 1.35-3.854V3.406h5.062v14.433c0 2.029-.405 3.73-1.215 5.105-.81 1.352-1.98 2.366-3.509 3.042-1.508.676-3.33 1.014-5.467 1.014zM155.875 26.594V3.406h12.688c1.71 0 3.128.304 4.252.912 1.148.609 2.003 1.465 2.565 2.57.563 1.081.844 2.332.844 3.751 0 1.51-.338 2.851-1.013 4.023-.674 1.15-1.653 2.028-2.935 2.637L177 26.594h-5.568l-4.083-8.45h-6.446v8.45h-5.028zm5.028-12.44h6.986c1.012 0 1.799-.303 2.362-.912.562-.63.843-1.476.843-2.535 0-.676-.123-1.25-.371-1.724a2.463 2.463 0 00-1.08-1.115c-.472-.248-1.057-.372-1.754-.372h-6.986v6.659z"
        fill="#133463" />
</svg>