<svg width="117" height="124" viewBox="0 0 117 124" fill="none" xmlns="http://www.w3.org/2000/svg">
<circle cx="58.2178" cy="61.571" r="58.2178" fill="#EAF9E4"/>
<path d="M86.1448 22.6408C89.0568 27.5036 90.2124 32.5521 89.3469 38.0657C88.073 46.1809 82.5584 51.6803 74.3395 52.1695C63.4587 52.8171 53.9344 49.079 46.3145 41.3743C38.0515 33.0194 39.9212 21.2002 49.959 15.018C60.9608 8.24198 78.7474 11.0292 86.1448 22.6408Z" fill="#FF8A00"/>
<path d="M77.8795 12.3289C77.8704 12.3473 77.8609 12.3651 77.851 12.3824C77.7346 12.5853 77.5591 12.7196 77.3835 12.854C77.3923 12.6237 77.401 12.3935 77.5285 12.117C77.5387 12.1177 77.5485 12.1185 77.5579 12.1195C77.7058 12.1348 77.7592 12.1932 77.8795 12.3289Z" fill="#FF8A00"/>
<path d="M49.2392 11.289C49.297 11.2957 49.3491 11.3056 49.3956 11.3185C49.7128 11.4062 49.7671 11.6313 49.5845 11.9267C49.5747 11.9425 49.3119 11.8008 49.0844 11.6376C49.0697 11.5642 49.0744 11.513 49.0982 11.4638C49.1236 11.4114 49.1707 11.3613 49.2392 11.289Z" fill="#FF8A00"/>
<path d="M93.176 49.0901C93.3732 49.5404 93.3011 49.7871 92.9384 49.5607C92.5918 49.3444 92.8083 49.1208 93.176 49.0901Z" fill="#FF8A00"/>
<path d="M50.8956 31.1441C50.365 30.0636 50.7603 29.3355 51.4453 28.716C52.5062 27.7564 53.5735 26.8025 54.6693 25.8837C55.5372 25.1559 55.7287 24.5882 54.5138 24.0171C53.403 23.4949 52.4684 22.7125 53.1362 21.3317C53.8419 19.8727 55.3548 19.9157 56.2601 20.6804C58.9339 22.9389 61.2015 21.746 63.5616 20.2717C64.0444 19.9701 64.5843 19.7521 65.115 19.538C65.907 19.2186 65.9216 18.8532 65.2732 18.3368C64.2912 17.5546 64.016 16.5652 64.7421 15.5002C65.5342 14.3385 66.6876 14.6312 67.6285 15.1739C69.9374 16.5055 72.2048 17.6027 75.0414 17.3843C76.6058 17.2639 77.271 19.1369 76.0917 20.3118C75.008 21.3914 75.3849 22.1357 76.0682 23.0759C76.4465 23.5963 76.8663 24.1319 77.0675 24.7286C78.1253 27.8658 79.8459 30.0053 83.5499 29.8511C84.9156 29.7943 85.6274 30.831 85.33 32.2101C85.0475 33.5199 84.0048 33.9235 82.8399 33.5651C80.7758 32.9302 80.6079 33.8011 81.1226 35.4621C81.4194 36.4198 81.6659 37.4039 81.5254 38.4304C81.3925 39.4021 80.8661 40.0052 79.8801 40.1322C78.8677 40.2626 78.1906 39.7557 77.9252 38.8306C77.5699 37.5921 77.3382 36.318 77.0489 35.0603C76.7854 33.9149 76.1355 33.4916 75.0047 33.9635C74.8072 34.0459 74.5941 34.0898 74.3906 34.1587C69.9747 35.6535 69.9735 35.6539 70.8264 40.1491C70.92 40.6426 71.0777 41.1269 71.1342 41.6237C71.2362 42.5214 70.8211 43.1869 69.9998 43.49C69.1167 43.8159 68.2708 43.6467 67.7165 42.8227C67.4437 42.4172 67.2911 41.917 67.1455 41.4407C66.1612 38.2225 66.1671 38.2215 63.7567 40.5434C63.0854 41.19 62.4459 41.8764 61.7275 42.4655C60.7666 43.2534 59.8019 43.3316 58.9112 42.282C58.0947 41.3198 58.2288 40.4216 59.0954 39.6312C60.6281 38.2331 62.1576 36.823 63.7841 35.5402C64.584 34.9093 64.6335 34.4653 64.1646 33.5882C63.1044 31.6049 61.6548 29.9247 60.2958 28.1701C59.6499 27.3363 58.9897 27.2238 58.1459 28.0029C56.8327 29.2153 55.4367 30.3373 54.0761 31.498C52.973 32.439 51.9264 32.5946 50.8956 31.1441Z" fill="#D55700"/>
<path d="M73.6749 26.5217C75.2712 29.6632 75.2712 29.6632 72.1213 30.8968C68.156 32.4495 68.1577 32.4484 65.7552 28.8948C65.3947 28.3617 65.0409 27.8191 64.6312 27.3251C62.6997 24.9967 62.6931 25.0022 65.3496 23.6928C70.3519 21.2272 70.5937 21.306 73.6749 26.5217Z" fill="#FF8A00"/>
<path d="M54.8316 57.9933C54.8087 58.0828 54.7398 58.258 54.6919 58.3537C54.5276 58.637 54.4344 58.8536 54.305 59.1546L54.2577 59.2643C53.6799 60.2187 53.0959 60.9918 52.2749 61.7581C52.0029 61.9576 51.8318 62.0408 51.5114 62.1214C51.3113 62.1447 51.2163 62.1488 51.0427 62.1327L51.0298 62.145L51.0126 62.1298L50.9656 62.1249C50.9316 62.1409 50.8977 62.1571 50.864 62.1734C50.8674 62.1941 50.8745 62.2213 50.8871 62.2565C48.6579 67.1152 47.5821 72.122 48.0706 77.2902C48.5294 82.1446 49.3587 86.9772 50.8224 91.669C51.4036 93.5321 51.8004 95.4532 52.3702 97.6988C49.2346 95.5866 46.01 94.5517 42.7178 93.2909C41.9887 94.1029 41.2058 93.8144 40.4336 93.5299C40.3235 93.4893 40.2135 93.4488 40.104 93.4116C35.9004 91.9832 32.2195 89.71 29.0258 86.6051C28.8949 86.4779 28.7592 86.3201 28.6179 86.1559C28.0174 85.458 27.3166 84.6435 26.4605 85.5578C25.6473 86.4262 26.4558 87.1157 27.1574 87.714C27.3283 87.8598 27.4929 88.0001 27.6261 88.1363C30.2134 90.7811 33.2927 92.723 36.648 94.2492C36.8119 94.3237 36.98 94.3936 37.1488 94.4638C38.0963 94.8576 39.0626 95.2593 39.3992 96.5361L39.2964 96.5931C39.3699 96.6337 39.4433 96.6746 39.5166 96.7157C40.7978 97.1815 41.9109 97.6348 43.0403 98.0425C47.3907 99.613 51.2409 101.724 53.7034 105.984C56.3344 110.536 56.8825 115.459 57.0174 120.519C57.0575 122.023 56.9667 123.492 59.0846 123.529C61.3242 123.567 61.2947 121.963 61.3264 120.43C61.4121 116.274 60.6498 112.228 59.73 108.201C57.3521 97.7903 53.3909 87.7469 52.4096 77.0186C52.0726 73.3341 52.3837 69.6664 54.2983 66.1538C53.0351 64.4 53.4937 62.704 53.9452 61.0343C54.062 60.6025 54.1783 60.1724 54.2642 59.7435C54.2916 59.6065 54.356 59.4747 54.4273 59.3287C54.523 59.1328 54.6312 58.9112 54.6796 58.6169C54.7035 58.5195 54.7247 58.4353 54.744 58.3586C54.778 58.2236 54.8052 58.1121 54.8316 57.9933Z" fill="#00AD2E"/>
<path fill-rule="evenodd" clip-rule="evenodd" d="M85.8562 10.3112C82.6957 9.39292 80.3042 10.5927 77.851 12.3824C77.7346 12.5853 77.5591 12.7196 77.3835 12.854C77.3923 12.6237 77.401 12.3935 77.5285 12.117C77.5387 12.1177 77.5485 12.1185 77.5579 12.1195C77.5794 12.0608 77.6141 11.9827 77.6629 11.8754C77.6799 10.6757 77.7106 9.6705 77.677 8.66749C77.5666 5.37121 75.3589 2.98548 71.7231 2.20024C68.8675 1.58351 65.8774 3.0894 64.4561 5.71603C63.9157 6.71471 64.142 7.99868 63.2381 8.89307C62.7292 7.9608 62.2858 7.09239 61.7921 6.25383C59.613 2.55241 56.8228 -0.226503 52.1269 0.014569C49.1715 0.166286 47.6281 1.8922 47.5429 4.81582C47.4747 7.15873 48.6901 9.08832 49.405 11.3015C49.402 11.3073 49.3989 11.313 49.3956 11.3185C49.7128 11.4062 49.7671 11.6313 49.5845 11.9267C49.5747 11.9425 49.3119 11.8008 49.0844 11.6376C49.0697 11.5642 49.0744 11.513 49.0982 11.4638C49.0371 11.4648 48.9675 11.4573 48.8885 11.4414C44.7665 8.84436 40.5769 6.82613 35.7193 6.94645C33.8045 6.99388 31.8686 7.37932 31.0364 9.48855C30.2124 11.5771 31.3065 13.1388 32.6276 14.6074C34.9615 17.2018 38.037 18.7663 40.9103 20.6677C38.9537 20.0826 36.9641 20.4501 35.0123 20.2757C33.622 20.1514 32.3635 20.6802 31.0209 20.7575C28.0928 20.9259 25.46 21.9781 23.1974 23.8418C21.2981 25.4061 21.2609 28.1945 22.9553 29.9517C24.483 31.536 26.4398 32.3489 28.4734 32.7828C31.5388 33.4369 34.6689 33.7856 38.086 34.3126C33.8862 35.7736 29.9681 37.0222 27.4611 40.6751C25.9573 42.8663 25.5079 45.2242 26.4358 47.6606C27.3861 50.1557 29.5766 50.5597 32.0033 50.5745C34.5807 50.5902 36.9494 50.0055 39.3597 49.1304C41.1326 48.4867 42.571 47.1084 44.9335 46.5981C42.1309 50.199 39.9941 53.6356 39.1006 57.6448C38.6326 59.7446 38.54 62.1391 40.3003 63.6319C42.2373 65.2748 44.6369 65.5975 47.1272 64.3984C48.427 63.7726 49.4987 62.8354 50.864 62.1734C50.8522 62.1012 50.8855 62.1076 50.8909 62.1276C50.9233 62.1201 50.9523 62.1102 50.9787 62.0982C50.5967 61.727 51.0666 61.6336 51.3505 61.4325C51.3593 61.4805 51.3621 61.5275 51.3593 61.5739C51.3719 61.5528 51.3854 61.5315 51.3997 61.5102C52.1849 60.6369 52.8556 59.8157 53.5893 58.8616C53.6315 58.8192 53.672 58.7789 53.7111 58.74C53.7496 58.7018 53.7868 58.6648 53.8229 58.6284C53.8689 58.3979 54.0349 58.1578 54.2943 57.889C54.3175 57.9115 54.3389 57.9332 54.3586 57.9542C54.3961 57.8925 54.4207 57.8768 54.4306 57.8705C54.4366 57.8666 54.4373 57.8662 54.4324 57.8611C54.457 57.8375 54.4824 57.816 54.5092 57.7971C54.4372 57.386 54.5013 57.0658 54.9291 56.7954C55.0061 56.7596 55.0731 56.7327 55.1315 56.7181C55.2193 56.3915 55.3713 56.1366 55.5233 55.8818C55.9136 56.1998 55.7149 56.5682 55.4877 56.9895L55.4844 56.9957C55.448 56.9964 55.4167 56.9947 55.3888 56.9904C55.349 57.2773 55.3427 57.4399 55.3266 57.6976C55.2744 57.7468 55.2228 57.7893 55.1703 57.8252C55.1839 59.081 54.9872 60.301 54.7885 61.5336C54.5583 62.9623 54.3253 64.408 54.4136 65.946C54.3746 66.0152 54.3361 66.0845 54.2983 66.1538C54.3367 66.2071 54.3766 66.2603 54.4181 66.3137C54.6446 68.11 54.9346 69.705 56.3817 70.7506C59.9986 73.3639 63.0555 71.4718 64.8838 68.3768C67.1322 64.5705 67.9413 60.2877 68.9459 56.0482C69.1066 58.1996 68.9685 60.3435 69.5019 62.4392C70.292 65.5441 70.7249 68.7822 73.3687 71.0714C75.7792 73.1587 80.962 72.293 81.9371 69.456C82.6824 67.2873 83.1201 65.1073 82.5604 62.6527C82.1624 60.9073 81.7909 59.0478 81.5973 57.1667C81.7953 57.2143 81.894 57.2074 81.9298 57.2518C82.1021 57.4652 82.2654 57.6871 82.4175 57.9156C84.6029 61.1987 86.7055 64.5421 90.3368 66.501C92.1137 67.4596 93.821 67.7207 95.7124 66.8084C98.2237 65.5971 99.4305 62.6051 98.1283 58.3321C97.164 55.1681 95.2735 52.4865 93.3499 49.8316C94.0078 49.451 94.3482 49.8282 94.7349 50.1616C96.554 51.7302 98.6147 52.8118 100.956 53.4067C104.902 54.4096 108.475 51.6281 108.203 47.5401C107.949 43.7215 105.3 41.4072 102.51 39.3066C99.7191 37.2046 96.4919 35.9996 93.1125 35.1399C95.127 34.9115 97.105 35.1229 99.0563 34.5768C101.983 33.7577 104.236 30.9321 103.448 28.5098C102.389 25.2527 100.139 23.0743 96.8034 22.0197C94.1418 21.1784 91.5974 21.8295 88.8565 22.578C89.445 21.36 89.9383 20.4292 90.3532 19.4645C92.1347 15.3219 90.161 11.562 85.8562 10.3112ZM89.3469 38.0657C90.2124 32.5521 89.0568 27.5036 86.1448 22.6408C78.7474 11.0292 60.9608 8.24198 49.959 15.018C39.9212 21.2002 38.0515 33.0194 46.3145 41.3743C53.9344 49.079 63.4587 52.8171 74.3395 52.1695C82.5584 51.6803 88.073 46.1809 89.3469 38.0657ZM93.176 49.0901C93.3732 49.5404 93.3011 49.7871 92.9384 49.5607C92.5918 49.3444 92.8083 49.1208 93.176 49.0901Z" fill="#FFB809"/>
<path d="M52.2749 61.7581C53.0959 60.9918 53.6799 60.2187 54.2577 59.2643L54.305 59.1546C54.4344 58.8536 54.5276 58.637 54.6919 58.3537C54.7398 58.258 54.8087 58.0828 54.8316 57.9933L54.8388 57.9602C54.7507 57.9748 54.6542 57.9766 54.5446 57.9661C54.5307 57.9081 54.5188 57.8518 54.5092 57.7971C54.4824 57.816 54.457 57.8375 54.4324 57.8611C54.4373 57.8662 54.4366 57.8666 54.4306 57.8705C54.4207 57.8768 54.3961 57.8925 54.3586 57.9542C54.8395 58.4661 54.2961 58.5355 53.811 58.7198C53.8128 58.6895 53.8168 58.659 53.8229 58.6284C53.7868 58.6648 53.7496 58.7018 53.7111 58.74C53.672 58.7789 53.6315 58.8192 53.5893 58.8616C52.8556 59.8157 52.1849 60.6369 51.3997 61.5102C51.3854 61.5315 51.3719 61.5528 51.3593 61.5739C51.3473 61.7666 51.2365 61.9472 51.0427 62.1327C51.2163 62.1488 51.3113 62.1447 51.5114 62.1214C51.8318 62.0408 52.0029 61.9576 52.2749 61.7581Z" fill="#00AD2E"/>
<path d="M54.2983 66.1538C54.3361 66.0845 54.3746 66.0152 54.4136 65.946C54.3253 64.408 54.5583 62.9623 54.7885 61.5336C54.9872 60.301 55.1839 59.081 55.1703 57.8252C55.0678 57.8952 54.9615 57.94 54.8388 57.9602L54.8352 57.978L54.8316 57.9933C54.8052 58.1121 54.778 58.2236 54.744 58.3586C54.7247 58.4353 54.7035 58.5195 54.6796 58.6169C54.6312 58.9112 54.523 59.1328 54.4273 59.3287C54.356 59.4747 54.2916 59.6065 54.2642 59.7435C54.1783 60.1724 54.062 60.6025 53.9452 61.0343C53.4937 62.704 53.0351 64.4 54.2983 66.1538Z" fill="#00AD2E"/>
<path fill-rule="evenodd" clip-rule="evenodd" d="M51.0427 62.1327C51.2365 61.9472 51.3473 61.7666 51.3593 61.5739C51.3217 61.6364 51.2908 61.6972 51.2617 61.7546C51.1845 61.9066 51.12 62.0335 50.9787 62.0982C50.9893 62.1085 51.0006 62.1191 51.0126 62.1298L51.0298 62.145L51.0427 62.1327Z" fill="#FF8A00"/>
<path d="M51.3593 61.5739C51.3621 61.5275 51.3593 61.4805 51.3505 61.4325C51.0666 61.6336 50.5967 61.727 50.9787 62.0982C51.12 62.0335 51.1845 61.9066 51.2617 61.7546C51.2908 61.6972 51.3217 61.6364 51.3593 61.5739Z" fill="#FFB809"/>
<path d="M53.811 58.7198C54.2961 58.5355 54.8395 58.4661 54.3586 57.9542C54.3537 57.9623 54.3485 57.9713 54.3431 57.9811C54.1756 58.2578 54.0143 58.4355 53.8229 58.6284C53.8168 58.659 53.8128 58.6895 53.811 58.7198Z" fill="#00AD2E"/>
<path d="M54.5092 57.7971C54.6607 57.6896 54.8541 57.6606 55.1692 57.7483L55.1703 57.8252C55.2228 57.7893 55.2744 57.7468 55.3266 57.6976C55.3427 57.4399 55.349 57.2773 55.3888 56.9904C55.2767 56.9728 55.2203 56.9119 55.1127 56.7936C55.1186 56.768 55.1248 56.7429 55.1315 56.7181C55.0731 56.7327 55.0061 56.7596 54.9291 56.7954C54.5013 57.0658 54.4372 57.386 54.5092 57.7971Z" fill="#FFB809"/>
<path d="M55.5233 55.8818C55.3713 56.1366 55.2193 56.3915 55.1315 56.7181C55.2609 56.686 55.3485 56.715 55.4103 56.8451L55.4004 56.9101L55.3888 56.9904C55.4167 56.9947 55.448 56.9964 55.4844 56.9957L55.4877 56.9895C55.7149 56.5682 55.9136 56.1998 55.5233 55.8818Z" fill="#FFB809"/>
<path d="M55.1127 56.7936C55.2203 56.9119 55.2767 56.9728 55.3888 56.9904L55.4004 56.9101L55.4103 56.8451C55.3485 56.715 55.2609 56.686 55.1315 56.7181C55.1248 56.7429 55.1186 56.768 55.1127 56.7936Z" fill="#FFB809"/>
<path d="M54.5446 57.9661C54.6542 57.9766 54.7507 57.9748 54.8388 57.9602C54.8444 57.9312 54.8489 57.899 54.8532 57.8688C54.861 57.8139 54.8679 57.7653 54.8782 57.7524C54.8871 57.7413 54.8855 57.7471 54.8806 57.7653C54.876 57.7823 54.8684 57.8103 54.8637 57.8454C54.8583 57.8727 54.8524 57.8991 54.8466 57.9249L54.8388 57.9602C54.9615 57.94 55.0678 57.8952 55.1703 57.8252L55.1692 57.7483C54.8541 57.6606 54.6607 57.6896 54.5092 57.7971C54.5188 57.8518 54.5307 57.9081 54.5446 57.9661Z" fill="#FFB809"/>
<path d="M53.8229 58.6284C54.0143 58.4355 54.1756 58.2578 54.3431 57.9811C54.3485 57.9713 54.3537 57.9623 54.3586 57.9542C54.3389 57.9332 54.3175 57.9115 54.2943 57.889C54.0349 58.1578 53.8689 58.3979 53.8229 58.6284Z" fill="#FFB809"/>
<path fill-rule="evenodd" clip-rule="evenodd" d="M20.4526 98.4108C26.9308 100.934 33.2256 99.9474 39.2964 96.5931C38.2359 96.0077 37.1565 95.4822 36.0857 94.9608C33.642 93.771 31.2427 92.6028 29.2145 90.7943C28.0965 89.7975 26.9897 88.7859 25.9186 87.7389C24.9525 86.7943 24.4404 85.7065 25.61 84.5798C26.7897 83.4433 27.8568 84.0602 28.7548 85.0304C32.5504 89.1309 37.2146 91.7525 42.7004 93.2843L42.7178 93.2909C42.7651 93.2382 42.8123 93.1808 42.8592 93.1185C43.8919 90.4421 44.0683 87.8771 43.3199 85.2702C42.0179 80.7352 38.7724 78.1191 34.6003 76.4146C32.1756 75.424 29.6631 74.8977 27.0667 74.5464C22.6618 73.9503 18.8362 71.9177 15.2558 69.3335C13.5781 68.1225 12.2684 68.7583 12.3093 70.767C12.348 72.6717 12.3098 74.5787 12.2716 76.4857C12.1922 80.4483 12.1128 84.411 12.7238 88.353C13.4611 93.1102 15.9803 96.669 20.4526 98.4108Z" fill="#82DA5F"/>
<path d="M29.0258 86.6051C32.2195 89.71 35.9004 91.9832 40.104 93.4116C40.2135 93.4488 40.3235 93.4893 40.4336 93.5299C41.2058 93.8144 41.9887 94.1029 42.7178 93.2909L42.7004 93.2843C37.2146 91.7525 32.5504 89.1309 28.7548 85.0304C27.8568 84.0602 26.7897 83.4433 25.61 84.5798C24.4404 85.7065 24.9525 86.7943 25.9186 87.7389C26.9897 88.7859 28.0965 89.7975 29.2145 90.7943C31.2427 92.6028 33.642 93.771 36.0857 94.9608C37.1565 95.4822 38.2359 96.0077 39.2964 96.5931L39.3992 96.5361C39.0626 95.2593 38.0963 94.8576 37.1488 94.4638C36.98 94.3936 36.8119 94.3237 36.648 94.2492C33.2927 92.723 30.2134 90.7811 27.6261 88.1363C27.4929 88.0001 27.3283 87.8598 27.1574 87.714C26.4558 87.1157 25.6473 86.4262 26.4605 85.5578C27.3166 84.6435 28.0174 85.458 28.6179 86.1559C28.7592 86.3201 28.8949 86.4779 29.0258 86.6051Z" fill="#00AD2E"/>
<path d="M61.2606 87.2808C61.2578 87.2755 61.255 87.2701 61.2523 87.2648C60.7949 86.3685 61.0089 85.4554 61.0397 84.584C61.1074 82.6724 61.5405 80.8249 62.6184 79.2172C64.2544 76.777 66.6921 75.5551 69.4039 74.761C71.0809 74.2699 72.8438 74.137 74.4794 73.4827C76.3952 72.7164 77.8927 71.4274 79.0409 69.7139C79.251 69.4004 79.4384 69.1141 79.8645 69.1727C80.3147 69.2347 80.2566 69.601 80.324 69.922C80.7496 71.9498 80.9228 74.013 81.2077 76.0607C81.4199 77.5858 81.423 79.1121 81.3545 80.6318C81.1689 84.747 79.2652 87.8953 75.7379 89.8947C72.1536 91.9264 68.4128 91.5634 64.7036 90.1645C63.8577 89.8455 63.0501 89.4224 62.1604 89.0336C62.1417 89.005 62.1248 88.9771 62.1097 88.9498C61.8174 88.4227 62.1733 88.1267 62.4892 87.8639C62.5292 87.8307 62.5685 87.7979 62.6058 87.7653C64.2226 86.3528 65.9182 85.0444 67.7639 83.945C68.7088 83.3821 69.6483 82.8096 70.576 82.2178C70.5822 82.2139 70.5884 82.21 70.5946 82.206C70.8703 82.0304 71.2068 81.816 70.9973 81.453C70.7886 81.0914 70.481 81.2803 70.2185 81.4416C70.1942 81.4564 70.1704 81.4711 70.1471 81.485C69.9587 81.5976 69.7703 81.7099 69.5818 81.8223C67.0384 83.3383 64.4951 84.8542 62.3151 86.9092C62.3033 86.9202 62.2916 86.9314 62.2798 86.9425C62.0124 87.1958 61.7333 87.4601 61.2606 87.2808Z" fill="#82DA5F"/>
<path d="M62.6058 87.7653C64.2226 86.3528 65.9182 85.0444 67.7639 83.945C68.7088 83.3821 69.6483 82.8096 70.576 82.2178L70.5946 82.206C70.8703 82.0304 71.2068 81.816 70.9973 81.453C70.7886 81.0914 70.481 81.2803 70.2185 81.4416C70.1942 81.4564 70.1704 81.4711 70.1471 81.485C69.9587 81.5976 69.7703 81.7099 69.5818 81.8223C67.0384 83.3383 64.4951 84.8542 62.3151 86.9092L62.2798 86.9425C62.0124 87.1958 61.7333 87.4601 61.2606 87.2808L61.2523 87.2648C61.2314 87.2738 61.2103 87.2825 61.1888 87.2909C59.6721 88.7609 56.4121 93.2061 55.2766 94.9412C54.7742 97.9434 54.7701 97.3968 54.6082 100.428C54.4821 102.79 54.6979 101.053 54.9236 103.412C55.248 106.8 56.4907 106.874 57.4728 110.118C57.7708 111.102 58.2559 111.478 58.8846 111.164C59.6167 110.798 59.4127 110.15 59.2222 109.545L59.2157 109.524C59.1979 109.468 59.1547 109.419 59.1367 109.363C57.7897 105.114 56.6292 108.053 56.3799 103.615C56.2409 101.142 56.687 98.7441 57.4728 96.4144C58.4285 93.5809 59.9375 91.0891 62.1066 88.9608L62.1097 88.9498C61.8174 88.4227 62.1733 88.1267 62.4892 87.8639C62.5292 87.8307 62.5685 87.7979 62.6058 87.7653Z" fill="#00AD2E"/>
<path d="M54.9236 98.8235C55.8648 96.3529 58.1001 92.4706 61.9825 88.5882C66.9236 83.6471 69.0413 82.7059 70.806 81.5294" stroke="#00AD2E" stroke-width="4" stroke-linecap="round" stroke-linejoin="round"/>
</svg>
