<svg width="489" height="78" viewBox="0 0 489 78" fill="none" xmlns="http://www.w3.org/2000/svg">
    <path d="M121.401 13.5385H95.7571V26.6538H117.993V37.6538H95.7571V60.9231H84V2.53846H121.401V13.5385Z"
        fill="#085B45" />
    <path
        d="M143.389 60.9231C134.018 60.9231 129.161 56.5231 129.161 48.1462V0H140.237V46.3692C140.237 49.1615 141.941 50.8538 145.008 50.8538H147.649V60.9231H143.389Z"
        fill="#085B45" />
    <path
        d="M174.075 61.9385C160.785 61.9385 150.731 52.2077 150.731 39.3462C150.731 26.4846 160.785 16.7538 174.075 16.7538C187.366 16.7538 197.419 26.4846 197.419 39.3462C197.419 52.2077 187.366 61.9385 174.075 61.9385ZM174.075 51.2769C180.976 51.2769 186.003 46.1154 186.003 39.3462C186.003 32.5769 180.976 27.4154 174.075 27.4154C167.259 27.4154 162.148 32.5769 162.148 39.3462C162.148 46.1154 167.259 51.2769 174.075 51.2769Z"
        fill="#085B45" />
    <path
        d="M318.807 39.4308C318.807 40.5308 318.722 42.1385 318.466 43.1538H283.962C285.41 48.6538 289.84 52.2077 295.804 52.2077C300.319 52.2077 304.238 50.2615 306.113 47.4692H318.125C314.803 56.1 306.198 61.9385 295.634 61.9385C282.173 61.9385 272.119 52.2077 272.119 39.3462C272.119 26.4846 282.173 16.7538 295.463 16.7538C308.754 16.7538 318.807 26.4846 318.807 39.4308ZM295.463 26.4C289.925 26.4 285.58 29.8692 284.132 35.1154H306.88C305.431 29.8692 300.916 26.4 295.463 26.4Z"
        fill="#085B45" />
    <path
        d="M337.669 24.3692C341.077 19.8 345.763 17.0923 351.471 17.0923V28.4308C342.611 28.4308 337.669 33.0846 337.669 40.3615V60.9231H326.594V17.7692H337.669V24.3692Z"
        fill="#085B45" />
    <path
        d="M383.761 16.7538C395.858 16.7538 404.889 26.4846 404.889 39.3462C404.889 52.2077 395.858 61.9385 383.761 61.9385C377.882 61.9385 373.026 59.4 369.618 55.2538V77H358.542V17.7692H369.618V23.4385C373.026 19.2923 377.882 16.7538 383.761 16.7538ZM381.545 51.2769C388.446 51.2769 393.473 46.1154 393.473 39.3462C393.473 32.5769 388.446 27.4154 381.545 27.4154C374.73 27.4154 369.618 32.5769 369.618 39.3462C369.618 46.1154 374.73 51.2769 381.545 51.2769Z"
        fill="#085B45" />
    <path
        d="M456.659 50.2615H457.511V60.9231H454.358C448.395 60.9231 444.476 58.7231 442.857 54.4923C439.534 59.3154 434.678 61.9385 428.714 61.9385C418.917 61.9385 412.357 55.4231 412.357 45.4385V17.7692H423.432V42.2231C423.432 47.7231 427.01 51.2769 432.378 51.2769C438.086 51.2769 441.92 47.6385 441.92 42.0538V17.7692H452.995V46.6231C452.995 48.9077 454.358 50.2615 456.659 50.2615Z"
        fill="#085B45" />
    <path
        d="M475.198 24.3692C478.606 19.8 483.292 17.0923 489 17.0923V28.4308C480.14 28.4308 475.198 33.0846 475.198 40.3615V60.9231H464.123V17.7692H475.198V24.3692Z"
        fill="#085B45" />
    <path
        d="M264.814 36.3L255.868 60.9231H244.452L234.91 30.9692L225.368 60.9231H213.952L198.276 17.7692H210.97L219.915 47.0462L229.372 17.7692H240.703L250.16 47.0462L254.42 33.9308L255.806 28.9496L266.374 31.3372L264.814 36.3Z"
        fill="#085B45" />
    <path
        d="M250.069 19.9961L252.182 11.0427C256.333 11.0428 260.637 11.341 264.26 16.4147C267.883 21.4883 267.581 27.4574 266.072 32.2326L255.504 29.845C257.617 22.0853 253.088 19.6977 250.069 19.9961Z"
        fill="#085B45" />
    <path
        d="M69 38.3824C69 57.9037 53.5538 73.7289 34.5 73.7289C15.4462 73.7289 0 57.9037 0 38.3824C0 18.861 15.4462 3.03583 34.5 3.03583C53.5538 3.03583 69 18.861 69 38.3824Z"
        fill="#EAF9E4" />
    <path
        d="M46.1515 8.48541C46.1462 8.49656 46.1405 8.50739 46.1346 8.51791C46.0657 8.64106 45.9616 8.72263 45.8576 8.8042C45.8628 8.66441 45.868 8.52462 45.9435 8.35678C45.9496 8.35716 45.9554 8.35765 45.961 8.35825C46.0486 8.36756 46.0802 8.40299 46.1515 8.48541Z"
        fill="#00AD2E" />
    <path
        d="M29.1793 7.85404C29.2135 7.85813 29.2444 7.86414 29.2719 7.87194C29.4599 7.92517 29.4921 8.06187 29.3838 8.24119C29.378 8.25082 29.2223 8.16475 29.0875 8.06568C29.0788 8.02111 29.0816 7.99004 29.0957 7.96019C29.1107 7.92836 29.1386 7.89793 29.1793 7.85404Z"
        fill="#00AD2E" />
    <path
        d="M55.2163 30.8047C55.3331 31.0781 55.2904 31.2279 55.0755 31.0904C54.8701 30.9591 54.9984 30.8233 55.2163 30.8047Z"
        fill="#00AD2E" />
    <path
        d="M30.1608 19.9089C29.8464 19.2529 30.0806 18.8108 30.4866 18.4347C31.1153 17.8521 31.7477 17.2729 32.3971 16.7151C32.9115 16.2733 33.0249 15.9285 32.305 15.5818C31.6467 15.2647 31.0928 14.7897 31.4886 13.9514C31.9068 13.0656 32.8033 13.0917 33.3398 13.556C34.9243 14.9272 36.2681 14.2029 37.6667 13.3078C37.9528 13.1247 38.2728 12.9923 38.5873 12.8624C39.0566 12.6684 39.0652 12.4466 38.681 12.133C38.0991 11.6582 37.936 11.0574 38.3663 10.4108C38.8357 9.70554 39.5192 9.88322 40.0768 10.2127C41.445 11.0212 42.7887 11.6874 44.4697 11.5548C45.3967 11.4817 45.7909 12.6188 45.0921 13.3322C44.4499 13.9877 44.6732 14.4395 45.0782 15.0103C45.3023 15.3263 45.5511 15.6515 45.6703 16.0138C46.2972 17.9185 47.3168 19.2175 49.5118 19.1239C50.3212 19.0894 50.7429 19.7188 50.5667 20.5561C50.3993 21.3514 49.7814 21.5964 49.0911 21.3788C47.8679 20.9933 47.7684 21.5221 48.0734 22.5306C48.2493 23.1121 48.3954 23.7095 48.3121 24.3327C48.2333 24.9227 47.9214 25.2889 47.3371 25.366C46.7372 25.4452 46.3359 25.1374 46.1786 24.5757C45.968 23.8238 45.8308 23.0502 45.6593 22.2866C45.5032 21.5912 45.118 21.3342 44.4479 21.6207C44.3309 21.6707 44.2046 21.6974 44.084 21.7392C41.4671 22.6467 41.4664 22.647 41.9719 25.3763C42.0273 25.6759 42.1208 25.9699 42.1542 26.2715C42.2147 26.8166 41.9687 27.2206 41.482 27.4046C40.9587 27.6025 40.4574 27.4998 40.1289 26.9995C39.9673 26.7533 39.8768 26.4496 39.7905 26.1604C39.2073 24.2065 39.2107 24.2059 37.7823 25.6156C37.3845 26.0082 37.0056 26.425 36.5798 26.7826C36.0104 27.261 35.4387 27.3085 34.9109 26.6712C34.427 26.087 34.5065 25.5417 35.02 25.0618C35.9283 24.2129 36.8347 23.3568 37.7986 22.578C38.2726 22.1949 38.3019 21.9254 38.0241 21.3928C37.3958 20.1887 36.5367 19.1686 35.7314 18.1033C35.3486 17.597 34.9574 17.5287 34.4573 18.0017C33.6792 18.7379 32.8519 19.4191 32.0456 20.1238C31.3919 20.6951 30.7717 20.7896 30.1608 19.9089Z"
        fill="#803400" />
    <path
        d="M43.6599 17.1025C44.6058 19.0098 44.6058 19.0098 42.7392 19.7587C40.3894 20.7015 40.3904 20.7008 38.9666 18.5433C38.753 18.2196 38.5434 17.8901 38.3005 17.5902C37.156 16.1765 37.1521 16.1799 38.7263 15.3849C41.6907 13.888 41.834 13.9358 43.6599 17.1025Z"
        fill="#D55700" />
    <path
        d="M32.4933 36.2102C32.4797 36.2645 32.4389 36.3709 32.4105 36.429C32.3131 36.601 32.2579 36.7325 32.1812 36.9153L32.1532 36.9819C31.8108 37.5613 31.4647 38.0308 30.9782 38.496C30.817 38.6171 30.7156 38.6676 30.5257 38.7166C30.4071 38.7307 30.3509 38.7332 30.248 38.7235L30.2403 38.7309L30.2302 38.7217L30.2023 38.7187C30.1821 38.7284 30.1621 38.7382 30.1421 38.7481C30.1441 38.7607 30.1483 38.7772 30.1558 38.7986C28.8348 41.7485 28.1972 44.7884 28.4867 47.9262C28.7586 50.8735 29.2501 53.8076 30.1174 56.6562C30.4618 57.7873 30.697 58.9537 31.0347 60.3171C29.1765 59.0347 27.2656 58.4064 25.3146 57.6409C24.8826 58.1339 24.4186 57.9588 23.961 57.786C23.8958 57.7614 23.8306 57.7368 23.7657 57.7142C21.2746 56.847 19.0933 55.4668 17.2007 53.5817C17.1232 53.5044 17.0427 53.4086 16.959 53.3089C16.6031 52.8852 16.1878 52.3907 15.6805 52.9458C15.1986 53.4731 15.6777 53.8917 16.0935 54.2549C16.1948 54.3434 16.2923 54.4286 16.3713 54.5113C17.9045 56.1171 19.7293 57.2961 21.7177 58.2227C21.8148 58.268 21.9144 58.3104 22.0144 58.353C22.5759 58.5921 23.1485 58.836 23.348 59.6112L23.2871 59.6458C23.3307 59.6705 23.3741 59.6953 23.4176 59.7203C24.1769 60.0031 24.8365 60.2783 25.5057 60.5258C28.0838 61.4793 30.3654 62.7611 31.8247 65.3477C33.3839 68.1114 33.7087 71.1 33.7886 74.1725C33.8123 75.0852 33.7586 75.9775 35.0136 75.9996C36.3408 76.0229 36.3234 75.0492 36.3421 74.1184C36.3929 71.5951 35.9412 69.1383 35.3961 66.6933C33.987 60.3727 31.6396 54.2749 31.058 47.7613C30.8583 45.5242 31.0427 43.2975 32.1773 41.1648C31.4287 40.1 31.7005 39.0703 31.968 38.0566C32.0372 37.7944 32.1061 37.5332 32.157 37.2728C32.1733 37.1896 32.2114 37.1096 32.2537 37.021C32.3104 36.902 32.3745 36.7675 32.4032 36.5888C32.4174 36.5297 32.43 36.4786 32.4414 36.432C32.4615 36.3501 32.4777 36.2824 32.4933 36.2102Z"
        fill="#085B45" />
    <path fill-rule="evenodd" clip-rule="evenodd"
        d="M50.8786 7.26039C49.0056 6.70284 47.5884 7.43129 46.1346 8.51791C46.0657 8.64106 45.9616 8.72263 45.8576 8.8042C45.8628 8.66441 45.868 8.52462 45.9435 8.35678C45.9496 8.35716 45.9554 8.35765 45.961 8.35825C45.9737 8.3226 45.9942 8.27523 46.0232 8.21004C46.0333 7.48166 46.0515 6.87138 46.0315 6.26241C45.9661 4.26109 44.6578 2.81262 42.5032 2.33586C40.811 1.96142 39.0391 2.87571 38.1968 4.47044C37.8766 5.07679 38.0107 5.85634 37.475 6.39937C37.1734 5.83334 36.9107 5.30609 36.6181 4.79697C35.3268 2.54967 33.6733 0.86248 30.8905 1.00885C29.1391 1.10096 28.2245 2.14884 28.174 3.92389C28.1336 5.34637 28.8538 6.51791 29.2775 7.86166C29.2757 7.86518 29.2739 7.8686 29.2719 7.87194C29.4599 7.92517 29.4921 8.06187 29.3838 8.24119C29.378 8.25082 29.2223 8.16475 29.0875 8.06568C29.0788 8.02111 29.0816 7.99004 29.0957 7.96019C29.0595 7.96074 29.0182 7.95622 28.9714 7.94656C26.5287 6.36979 24.0459 5.14444 21.1673 5.21749C20.0326 5.24629 18.8854 5.4803 18.3922 6.76091C17.9039 8.02896 18.5523 8.9771 19.3352 9.86875C20.7182 11.444 22.5408 12.3938 24.2435 13.5483C23.084 13.193 21.905 13.4162 20.7484 13.3102C19.9245 13.2348 19.1787 13.5559 18.3831 13.6028C16.6478 13.705 15.0876 14.3439 13.7468 15.4754C12.6213 16.4251 12.5992 18.1181 13.6033 19.185C14.5086 20.1468 15.6683 20.6404 16.8734 20.9039C18.69 21.301 20.5449 21.5127 22.5698 21.8327C20.081 22.7197 17.7591 23.4778 16.2735 25.6956C15.3823 27.026 15.116 28.4576 15.6659 29.9368C16.229 31.4517 17.5272 31.6969 18.9652 31.7059C20.4926 31.7155 21.8963 31.3605 23.3246 30.8292C24.3752 30.4384 25.2276 29.6015 26.6277 29.2917C24.9668 31.478 23.7006 33.5645 23.1711 35.9987C22.8937 37.2735 22.8389 38.7273 23.882 39.6337C25.0299 40.6311 26.4519 40.8271 27.9276 40.099C28.6979 39.7191 29.333 39.1501 30.1421 38.7481C30.1351 38.7043 30.1548 38.7082 30.1581 38.7203C30.1772 38.7158 30.1944 38.7098 30.2101 38.7025C29.9837 38.4771 30.2622 38.4204 30.4304 38.2983C30.4356 38.3274 30.4373 38.356 30.4356 38.3841C30.4431 38.3713 30.451 38.3584 30.4596 38.3455C30.9249 37.8153 31.3223 37.3167 31.7571 36.7374C31.7821 36.7116 31.8061 36.6872 31.8293 36.6636C31.8521 36.6404 31.8742 36.6179 31.8955 36.5958C31.9228 36.4558 32.0212 36.3101 32.1749 36.1469C32.1886 36.1605 32.2013 36.1737 32.213 36.1865C32.2352 36.149 32.2498 36.1395 32.2557 36.1356C32.2592 36.1333 32.2597 36.133 32.2567 36.13C32.2713 36.1156 32.2864 36.1026 32.3022 36.0911C32.2596 35.8415 32.2976 35.6471 32.5511 35.4829C32.5967 35.4612 32.6364 35.4448 32.671 35.436C32.7231 35.2377 32.8131 35.083 32.9032 34.9282C33.1345 35.1213 33.0168 35.345 32.8821 35.6008L32.8802 35.6045C32.8586 35.605 32.84 35.6039 32.8235 35.6013C32.7999 35.7755 32.7962 35.8742 32.7866 36.0307C32.7557 36.0606 32.7251 36.0864 32.694 36.1082C32.702 36.8706 32.5855 37.6113 32.4678 38.3597C32.3313 39.2271 32.1932 40.1048 32.2456 41.0386C32.2225 41.0807 32.1997 41.1227 32.1773 41.1648C32.2 41.1971 32.2237 41.2295 32.2483 41.2619C32.3825 42.3525 32.5543 43.3209 33.4119 43.9557C35.5553 45.5424 37.3668 44.3936 38.4502 42.5145C39.7827 40.2035 40.2621 37.6032 40.8574 35.0292C40.9527 36.3355 40.8709 37.6371 41.1869 38.9095C41.6552 40.7946 41.9117 42.7606 43.4784 44.1505C44.9069 45.4178 47.9782 44.8922 48.5561 43.1697C48.9978 41.853 49.2571 40.5294 48.9254 39.0391C48.6896 37.9794 48.4694 36.8505 48.3547 35.7083C48.472 35.7372 48.5305 35.7331 48.5518 35.76C48.6539 35.8896 48.7506 36.0243 48.8408 36.163C50.1359 38.1563 51.3818 40.1863 53.5338 41.3756C54.5868 41.9576 55.5985 42.1161 56.7194 41.5622C58.2075 40.8268 58.9227 39.0102 58.151 36.4159C57.5795 34.4949 56.4592 32.8668 55.3193 31.2549C55.7092 31.0238 55.9109 31.2528 56.1401 31.4553C57.2181 32.4076 58.4393 33.0643 59.8266 33.4255C62.1654 34.0344 64.2824 32.3456 64.1214 29.8637C63.9711 27.5452 62.4007 26.1401 60.7478 24.8647C59.0937 23.5885 57.1813 22.8569 55.1786 22.335C56.3724 22.1963 57.5446 22.3246 58.701 21.993C60.4351 21.4957 61.7704 19.7802 61.3035 18.3095C60.6757 16.332 59.3428 15.0094 57.3659 14.3691C55.7886 13.8583 54.2808 14.2536 52.6565 14.7081C53.0053 13.9686 53.2976 13.4035 53.5435 12.8177C54.5992 10.3026 53.4296 8.01978 50.8786 7.26039ZM52.9471 24.1113C53.46 20.7637 52.7752 17.6986 51.0495 14.7462C46.6659 7.69633 36.1255 6.00406 29.6058 10.1181C23.6574 13.8716 22.5494 21.0475 27.446 26.1201C31.9616 30.7979 37.6058 33.0675 44.0537 32.6743C48.9242 32.3773 52.1922 29.0384 52.9471 24.1113ZM55.2163 30.8047C55.3331 31.0781 55.2904 31.2279 55.0755 31.0904C54.8701 30.9591 54.9984 30.8233 55.2163 30.8047Z"
        fill="#FFA800" />
    <path
        d="M30.9782 38.496C31.4647 38.0308 31.8108 37.5613 32.1532 36.9819L32.1812 36.9153C32.2579 36.7325 32.3131 36.601 32.4105 36.429C32.4389 36.3709 32.4797 36.2645 32.4933 36.2102L32.4976 36.1901C32.4454 36.199 32.3882 36.2001 32.3232 36.1937C32.315 36.1585 32.3079 36.1243 32.3022 36.0911C32.2864 36.1026 32.2713 36.1156 32.2567 36.13C32.2597 36.133 32.2592 36.1333 32.2557 36.1356C32.2498 36.1395 32.2352 36.149 32.213 36.1865C32.498 36.4973 32.176 36.5394 31.8885 36.6513C31.8896 36.6329 31.8919 36.6144 31.8955 36.5958C31.8742 36.6179 31.8521 36.6404 31.8293 36.6636C31.8061 36.6872 31.7821 36.7116 31.7571 36.7374C31.3223 37.3167 30.9249 37.8153 30.4596 38.3455C30.451 38.3584 30.4431 38.3713 30.4356 38.3841C30.4285 38.5011 30.3628 38.6108 30.248 38.7235C30.3509 38.7332 30.4071 38.7307 30.5257 38.7166C30.7156 38.6676 30.817 38.6171 30.9782 38.496Z"
        fill="#085B45" />
    <path
        d="M32.1773 41.1648C32.1997 41.1227 32.2225 41.0807 32.2456 41.0386C32.1932 40.1048 32.3313 39.2271 32.4678 38.3597C32.5855 37.6113 32.702 36.8706 32.694 36.1082C32.6333 36.1507 32.5703 36.1779 32.4976 36.1901L32.4954 36.2009L32.4933 36.2102C32.4777 36.2824 32.4615 36.3501 32.4414 36.432C32.43 36.4786 32.4174 36.5297 32.4032 36.5888C32.3745 36.7675 32.3104 36.902 32.2537 37.021C32.2114 37.1096 32.1733 37.1896 32.157 37.2728C32.1061 37.5332 32.0372 37.7944 31.968 38.0566C31.7005 39.0703 31.4287 40.1 32.1773 41.1648Z"
        fill="#085B45" />
    <path fill-rule="evenodd" clip-rule="evenodd"
        d="M30.248 38.7235C30.3628 38.6108 30.4285 38.5011 30.4356 38.3841C30.4133 38.4221 30.395 38.459 30.3778 38.4938C30.332 38.5861 30.2938 38.6632 30.2101 38.7025C30.2164 38.7087 30.2231 38.7151 30.2302 38.7217L30.2403 38.7309L30.248 38.7235Z"
        fill="#00AD2E" />
    <path
        d="M30.4356 38.3841C30.4373 38.356 30.4356 38.3274 30.4304 38.2983C30.2622 38.4204 29.9837 38.4771 30.2101 38.7025C30.2938 38.6632 30.332 38.5861 30.3778 38.4938C30.395 38.459 30.4133 38.4221 30.4356 38.3841Z"
        fill="#FFA800" />
    <path
        d="M31.8885 36.6513C32.176 36.5394 32.498 36.4973 32.213 36.1865C32.2101 36.1914 32.207 36.1968 32.2038 36.2028C32.1046 36.3708 32.009 36.4787 31.8955 36.5958C31.8919 36.6144 31.8896 36.6329 31.8885 36.6513Z"
        fill="#085B45" />
    <path
        d="M32.3022 36.0911C32.392 36.0258 32.5066 36.0082 32.6934 36.0615L32.694 36.1082C32.7251 36.0864 32.7557 36.0606 32.7866 36.0307C32.7962 35.8742 32.7999 35.7755 32.8235 35.6013C32.7571 35.5906 32.7236 35.5536 32.6599 35.4819C32.6634 35.4663 32.6671 35.451 32.671 35.436C32.6364 35.4448 32.5967 35.4612 32.5511 35.4829C32.2976 35.6471 32.2596 35.8415 32.3022 36.0911Z"
        fill="#FFA800" />
    <path
        d="M32.9032 34.9282C32.8131 35.083 32.7231 35.2377 32.671 35.436C32.7477 35.4165 32.7996 35.4341 32.8362 35.5131L32.8304 35.5525L32.8235 35.6013C32.84 35.6039 32.8586 35.605 32.8802 35.6045L32.8821 35.6008C33.0168 35.345 33.1345 35.1213 32.9032 34.9282Z"
        fill="#FFA800" />
    <path
        d="M32.6599 35.4819C32.7236 35.5536 32.7571 35.5906 32.8235 35.6013L32.8304 35.5525L32.8362 35.5131C32.7996 35.4341 32.7477 35.4165 32.671 35.436C32.6671 35.451 32.6634 35.4663 32.6599 35.4819Z"
        fill="#FFA800" />
    <path
        d="M32.3232 36.1937C32.3882 36.2001 32.4454 36.199 32.4976 36.1901C32.5009 36.1725 32.5036 36.153 32.5061 36.1346C32.5107 36.1013 32.5148 36.0718 32.5209 36.0639C32.5262 36.0572 32.5253 36.0607 32.5223 36.0718C32.5196 36.0821 32.5151 36.0991 32.5123 36.1204C32.5091 36.137 32.5056 36.153 32.5022 36.1687L32.4976 36.1901C32.5703 36.1779 32.6333 36.1507 32.694 36.1082L32.6934 36.0615C32.5066 36.0082 32.392 36.0258 32.3022 36.0911C32.3079 36.1243 32.315 36.1585 32.3232 36.1937Z"
        fill="#FFA800" />
    <path
        d="M31.8955 36.5958C32.009 36.4787 32.1046 36.3708 32.2038 36.2028C32.207 36.1968 32.2101 36.1914 32.213 36.1865C32.2013 36.1737 32.1886 36.1605 32.1749 36.1469C32.0212 36.3101 31.9228 36.4558 31.8955 36.5958Z"
        fill="#FFA800" />
    <path fill-rule="evenodd" clip-rule="evenodd"
        d="M12.1202 60.7494C15.9592 62.2812 19.6896 61.6824 23.2871 59.6458C22.6587 59.2904 22.019 58.9713 21.3844 58.6548C19.9363 57.9324 18.5145 57.2231 17.3125 56.1251C16.65 55.5199 15.9941 54.9057 15.3594 54.27C14.7869 53.6966 14.4834 53.0361 15.1765 52.352C15.8756 51.662 16.508 52.0366 17.0401 52.6256C19.2894 55.1152 22.0534 56.7069 25.3043 57.6369L25.3146 57.6409C25.3427 57.6089 25.3706 57.5741 25.3984 57.5362C26.0104 55.9113 26.1149 54.3539 25.6714 52.7712C24.8999 50.0178 22.9766 48.4295 20.5042 47.3946C19.0673 46.7931 17.5784 46.4736 16.0398 46.2603C13.4294 45.8984 11.1624 44.6643 9.04061 43.0953C8.04636 42.3601 7.27028 42.7461 7.29449 43.9657C7.31745 45.1221 7.29481 46.2799 7.27216 47.4377C7.22512 49.8436 7.17808 52.2495 7.54013 54.6429C7.97705 57.5312 9.46993 59.6919 12.1202 60.7494Z"
        fill="#00AD2E" />
    <path
        d="M17.2007 53.5817C19.0933 55.4668 21.2746 56.847 23.7657 57.7142C23.8306 57.7368 23.8958 57.7614 23.961 57.786C24.4186 57.9588 24.8826 58.1339 25.3146 57.6409L25.3043 57.6369C22.0534 56.7069 19.2894 55.1152 17.0401 52.6256C16.508 52.0366 15.8756 51.662 15.1765 52.352C14.4834 53.0361 14.7869 53.6966 15.3594 54.27C15.9941 54.9057 16.65 55.5199 17.3125 56.1251C18.5145 57.2231 19.9363 57.9324 21.3844 58.6548C22.019 58.9713 22.6587 59.2904 23.2871 59.6458L23.348 59.6112C23.1485 58.836 22.5759 58.5921 22.0144 58.353C21.9144 58.3104 21.8148 58.268 21.7177 58.2227C19.7293 57.2961 17.9045 56.1171 16.3713 54.5113C16.2923 54.4286 16.1948 54.3434 16.0935 54.2549C15.6777 53.8917 15.1986 53.4731 15.6805 52.9458C16.1878 52.3907 16.6031 52.8852 16.959 53.3089C17.0427 53.4086 17.1232 53.5044 17.2007 53.5817Z"
        fill="#085B45" />
    <path
        d="M36.3031 53.9918C36.3015 53.9886 36.2998 53.9853 36.2982 53.9821C36.0272 53.4379 36.154 52.8835 36.1723 52.3545C36.2124 51.1938 36.469 50.0722 37.1078 49.096C38.0773 47.6145 39.5218 46.8727 41.1289 46.3905C42.1227 46.0923 43.1674 46.0117 44.1367 45.6144C45.2719 45.1491 46.1594 44.3665 46.8398 43.3262C46.9643 43.1358 47.0754 42.962 47.3279 42.9976C47.5947 43.0353 47.5602 43.2577 47.6001 43.4525C47.8523 44.6837 47.955 45.9364 48.1238 47.1796C48.2496 48.1056 48.2514 49.0323 48.2108 49.955C48.1008 52.4535 46.9727 54.3649 44.8824 55.5788C42.7583 56.8124 40.5416 56.5919 38.3435 55.7426C37.8422 55.5489 37.3636 55.2921 36.8364 55.056C36.8253 55.0387 36.8153 55.0217 36.8063 55.0052C36.6331 54.6851 36.844 54.5054 37.0312 54.3459C37.0549 54.3257 37.0782 54.3058 37.1003 54.286C38.0584 53.4284 39.0632 52.634 40.157 51.9665C40.717 51.6248 41.2737 51.2772 41.8235 50.9179C41.8271 50.9155 41.8308 50.9131 41.8345 50.9107C41.9979 50.8041 42.1973 50.6739 42.0731 50.4535C41.9494 50.234 41.7672 50.3487 41.6116 50.4466C41.5972 50.4556 41.5831 50.4645 41.5693 50.473C41.4577 50.5413 41.346 50.6095 41.2343 50.6777C39.7271 51.5981 38.2199 52.5185 36.928 53.7662C36.9211 53.7729 36.9141 53.7797 36.9071 53.7864C36.7487 53.9402 36.5833 54.1007 36.3031 53.9918Z"
        fill="#00AD2E" />
    <path
        d="M37.1003 54.286C38.0584 53.4284 39.0632 52.634 40.157 51.9665C40.717 51.6248 41.2737 51.2772 41.8235 50.9179L41.8345 50.9107C41.9979 50.8041 42.1973 50.6739 42.0731 50.4535C41.9494 50.234 41.7672 50.3487 41.6116 50.4466C41.5972 50.4556 41.5831 50.4645 41.5693 50.473C41.4577 50.5413 41.346 50.6095 41.2343 50.6777C39.7271 51.5981 38.2199 52.5185 36.928 53.7662L36.9071 53.7864C36.7487 53.9402 36.5833 54.1007 36.3031 53.9918L36.2982 53.9821C36.2859 53.9876 36.2733 53.9929 36.2606 53.998C35.3618 54.8905 33.4299 57.5893 32.757 58.6428C32.4593 60.4655 32.4568 60.1337 32.3609 61.974C32.2862 63.4078 32.4141 62.3536 32.5479 63.7856C32.74 65.8425 33.4765 65.8878 34.0585 67.8571C34.2351 68.4547 34.5226 68.6827 34.8951 68.4921C35.3289 68.2701 35.2081 67.8768 35.0952 67.5095L35.0913 67.4968C35.0808 67.4625 35.0552 67.4331 35.0445 67.3988C34.2463 64.8191 33.5586 66.6034 33.4108 63.909C33.3284 62.4075 33.5928 60.9517 34.0585 59.5372C34.6248 57.8169 35.5191 56.304 36.8045 55.0118L36.8063 55.0052C36.6331 54.6851 36.844 54.5054 37.0312 54.3459C37.0549 54.3257 37.0782 54.3058 37.1003 54.286Z"
        fill="#085B45" />
    <path fill-rule="evenodd" clip-rule="evenodd"
        d="M51.0495 14.7462C52.7752 17.6986 53.46 20.7637 52.9471 24.1113C52.1922 29.0384 48.9242 32.3773 44.0537 32.6743C37.6058 33.0675 31.9616 30.7979 27.446 26.1201C22.5494 21.0475 23.6574 13.8716 29.6058 10.1181C36.1255 6.00406 46.6659 7.69633 51.0495 14.7462ZM30.4866 18.4347C30.0806 18.8108 29.8464 19.2529 30.1608 19.9089C30.7717 20.7896 31.3919 20.6951 32.0456 20.1238C32.2871 19.9127 32.5305 19.7037 32.7739 19.4947C33.3431 19.006 33.9123 18.5174 34.4573 18.0017C34.9574 17.5287 35.3486 17.597 35.7314 18.1033C35.8859 18.3077 36.0425 18.5105 36.199 18.7132C36.858 19.5669 37.5164 20.4198 38.0241 21.3928C38.3019 21.9254 38.2726 22.1949 37.7986 22.578C36.897 23.3065 36.0458 24.1025 35.1962 24.897L35.02 25.0618C34.5065 25.5417 34.427 26.087 34.9109 26.6712C35.4387 27.3085 36.0104 27.261 36.5798 26.7826C36.8826 26.5283 37.1617 26.244 37.4408 25.9598C37.5541 25.8444 37.6674 25.729 37.7823 25.6156L37.787 25.611C38.4967 24.9106 38.8519 24.56 39.1019 24.6263C39.3524 24.6927 39.4972 25.1777 39.7871 26.1489L39.7905 26.1604L39.7912 26.1628C39.8773 26.4512 39.9677 26.7539 40.1289 26.9995C40.4574 27.4998 40.9587 27.6025 41.482 27.4046C41.9687 27.2206 42.2147 26.8166 42.1542 26.2715C42.1338 26.0871 42.0909 25.9055 42.048 25.7238C42.0207 25.6083 41.9934 25.4927 41.9719 25.3763C41.4664 22.647 41.4671 22.6467 44.084 21.7392C44.1313 21.7228 44.1794 21.7087 44.2276 21.6947C44.3022 21.6729 44.3768 21.6511 44.4479 21.6207C45.118 21.3342 45.5032 21.5912 45.6593 22.2866C45.7138 22.5294 45.7649 22.7732 45.816 23.017C45.9255 23.54 46.035 24.0629 46.1786 24.5757C46.3359 25.1374 46.7372 25.4452 47.3371 25.366C47.9214 25.2889 48.2333 24.9227 48.3121 24.3327C48.3954 23.7095 48.2493 23.1121 48.0734 22.5306C47.7684 21.5221 47.8679 20.9933 49.0911 21.3788C49.7814 21.5964 50.3993 21.3514 50.5667 20.5561C50.7429 19.7188 50.3212 19.0894 49.5118 19.1239C47.3168 19.2175 46.2972 17.9185 45.6703 16.0138C45.5634 15.6889 45.3523 15.3938 45.1482 15.1085C45.1247 15.0757 45.1013 15.043 45.0782 15.0103C44.6732 14.4395 44.4499 13.9877 45.0921 13.3322C45.7909 12.6188 45.3967 11.4817 44.4697 11.5548C42.7887 11.6874 41.445 11.0212 40.0768 10.2127C39.5192 9.88322 38.8357 9.70554 38.3663 10.4108C37.936 11.0574 38.0991 11.6582 38.681 12.133C39.0652 12.4466 39.0566 12.6684 38.5873 12.8624C38.2728 12.9923 37.9528 13.1247 37.6667 13.3078C36.2681 14.2029 34.9243 14.9272 33.3398 13.556C32.8033 13.0917 31.9068 13.0656 31.4886 13.9514C31.0928 14.7897 31.6467 15.2647 32.305 15.5818C33.0249 15.9285 32.9115 16.2733 32.3971 16.7151C31.7477 17.2729 31.1153 17.8521 30.4866 18.4347Z"
        fill="#D55700" />
    <path
        d="M37.8127 52.1221C35.8597 53.9005 33.7068 56.5244 32.9429 57.6983L32.0835 58.5789L32.6564 62.3942C32.8474 62.492 33.3439 62.3355 33.8023 60.9268C34.2606 59.518 36.6669 56.4266 37.8127 55.057C41.5367 50.9481 43.3782 51.8286 42.969 50.3611C42.5597 48.8936 40.3908 49.7742 37.8127 52.1221Z"
        fill="#085B45" />
</svg>