<svg width="288" height="288" viewBox="0 0 288 288" fill="none" xmlns="http://www.w3.org/2000/svg">
<rect width="288" height="288" fill="white"/>
<path d="M227 144.226C227 189.775 189.84 226.701 144 226.701C98.1604 226.701 61 189.775 61 144.226C61 98.6757 98.1604 61.7503 144 61.7503C189.84 61.7503 227 98.6757 227 144.226Z" fill="#EAF9E4"/>
<path d="M172.031 74.466C172.018 74.492 172.005 74.5172 171.991 74.5418C171.825 74.8291 171.574 75.0195 171.324 75.2098C171.337 74.8836 171.349 74.5574 171.531 74.1658C171.545 74.1667 171.559 74.1679 171.573 74.1692C171.784 74.191 171.86 74.2736 172.031 74.466Z" fill="#00AD2E"/>
<path d="M131.199 72.9928C131.282 73.0023 131.356 73.0163 131.422 73.0345C131.875 73.1587 131.952 73.4777 131.692 73.8961C131.678 73.9186 131.303 73.7177 130.979 73.4866C130.958 73.3826 130.964 73.3101 130.998 73.2404C131.034 73.1662 131.102 73.0952 131.199 72.9928Z" fill="#FFA800"/>
<path d="M193.839 126.544C194.12 127.182 194.018 127.532 193.5 127.211C193.006 126.905 193.315 126.588 193.839 126.544Z" fill="#00AD2E"/>
<path d="M133.561 101.121C132.804 99.5901 133.368 98.5586 134.344 97.681C135.857 96.3216 137.379 94.9702 138.941 93.6686C140.178 92.6376 140.451 91.8333 138.719 91.0242C137.136 90.2844 135.803 89.176 136.755 87.2199C137.761 85.153 139.918 85.214 141.209 86.2972C145.021 89.4968 148.254 87.8068 151.618 85.7182C152.307 85.2909 153.077 84.9821 153.833 84.6789C154.962 84.2264 154.983 83.7087 154.059 82.9771C152.659 81.869 152.266 80.4673 153.302 78.9586C154.431 77.3129 156.075 77.7275 157.417 78.4963C160.708 80.3829 163.941 81.9372 167.985 81.6278C170.215 81.4572 171.164 84.1106 169.482 85.7751C167.937 87.3045 168.475 88.3589 169.449 89.6908C169.988 90.428 170.587 91.1869 170.874 92.0322C172.382 96.4765 174.835 99.5075 180.115 99.2891C182.062 99.2085 183.077 100.677 182.653 102.631C182.251 104.487 180.764 105.058 179.103 104.551C176.16 103.651 175.921 104.885 176.655 107.238C177.078 108.595 177.429 109.989 177.229 111.443C177.04 112.82 176.289 113.674 174.883 113.854C173.44 114.039 172.475 113.321 172.096 112.01C171.59 110.255 171.26 108.451 170.847 106.669C170.471 105.046 169.545 104.446 167.933 105.115C167.651 105.232 167.347 105.294 167.057 105.391C160.761 107.509 160.76 107.51 161.976 113.878C162.109 114.577 162.334 115.263 162.415 115.967C162.56 117.239 161.968 118.181 160.797 118.611C159.538 119.073 158.332 118.833 157.542 117.665C157.153 117.091 156.936 116.382 156.728 115.708C155.325 111.149 155.333 111.147 151.897 114.436C150.94 115.352 150.028 116.325 149.004 117.159C147.634 118.276 146.258 118.386 144.988 116.899C143.824 115.536 144.016 114.264 145.251 113.144C147.436 111.163 149.617 109.166 151.936 107.349C153.076 106.455 153.147 105.826 152.478 104.583C150.967 101.774 148.9 99.3933 146.962 96.9077C146.042 95.7264 145.1 95.567 143.897 96.6707C142.025 98.3884 140.035 99.9779 138.095 101.622C136.523 102.955 135.03 103.176 133.561 101.121Z" fill="#803400"/>
<path d="M166.037 94.5724C168.313 99.0229 168.313 99.0229 163.822 100.77C158.169 102.97 158.171 102.969 154.746 97.9344C154.232 97.179 153.728 96.4103 153.143 95.7105C150.39 92.4119 150.38 92.4197 154.168 90.5648C161.299 87.0719 161.644 87.1835 166.037 94.5724Z" fill="#D55700"/>
<path d="M139.172 139.157C139.14 139.284 139.041 139.532 138.973 139.668C138.739 140.069 138.606 140.376 138.422 140.802L138.354 140.958C137.53 142.31 136.698 143.405 135.527 144.491C135.139 144.773 134.895 144.891 134.439 145.005C134.153 145.038 134.018 145.044 133.77 145.021L133.752 145.039L133.728 145.017L133.661 145.01C133.612 145.033 133.564 145.056 133.516 145.079C133.521 145.108 133.531 145.147 133.549 145.197C130.371 152.08 128.837 159.173 129.533 166.494C130.187 173.372 131.37 180.218 133.456 186.864C134.285 189.504 134.851 192.225 135.663 195.407C131.193 192.414 126.596 190.948 121.902 189.162C120.862 190.312 119.746 189.904 118.645 189.501C118.488 189.443 118.332 189.386 118.175 189.333C112.182 187.31 106.935 184.089 102.381 179.691C102.195 179.51 102.001 179.287 101.8 179.054C100.944 178.065 99.9446 176.912 98.7241 178.207C97.5648 179.437 98.7175 180.414 99.7177 181.262C99.9614 181.468 100.196 181.667 100.386 181.86C104.075 185.607 108.465 188.358 113.248 190.52C113.482 190.625 113.722 190.724 113.962 190.824C115.313 191.382 116.691 191.951 117.171 193.759L117.024 193.84C117.129 193.898 117.233 193.956 117.338 194.014C119.165 194.674 120.751 195.316 122.362 195.894C128.564 198.118 134.053 201.109 137.564 207.145C141.315 213.593 142.096 220.567 142.289 227.736C142.346 229.865 142.216 231.948 145.236 231.999C148.429 232.053 148.387 229.781 148.432 227.61C148.554 221.722 147.467 215.989 146.156 210.284C142.766 195.536 137.118 181.308 135.719 166.11C135.239 160.89 135.682 155.694 138.412 150.718C136.611 148.233 137.265 145.831 137.909 143.465C138.075 142.853 138.241 142.244 138.363 141.637C138.402 141.443 138.494 141.256 138.596 141.049C138.732 140.771 138.887 140.458 138.956 140.041C138.99 139.903 139.02 139.783 139.047 139.675C139.096 139.483 139.135 139.326 139.172 139.157Z" fill="#085B45"/>
<path fill-rule="evenodd" clip-rule="evenodd" d="M183.404 71.6076C178.898 70.3066 175.488 72.0063 171.991 74.5418C171.825 74.8291 171.574 75.0195 171.324 75.2098C171.337 74.8836 171.349 74.5574 171.531 74.1658C171.545 74.1667 171.559 74.1679 171.573 74.1692C171.603 74.0861 171.653 73.9755 171.722 73.8234C171.747 72.1239 171.79 70.6999 171.743 69.2789C171.585 64.6092 168.438 61.2294 163.254 60.117C159.183 59.2433 154.92 61.3767 152.894 65.0977C152.123 66.5125 152.446 68.3315 151.157 69.5985C150.432 68.2778 149.8 67.0475 149.096 65.8596C145.989 60.6159 142.011 56.6791 135.316 57.0206C131.103 57.2356 128.902 59.6806 128.781 63.8224C128.684 67.1415 130.416 69.8751 131.436 73.0105C131.431 73.0187 131.427 73.0267 131.422 73.0345C131.875 73.1587 131.952 73.4777 131.692 73.8961C131.678 73.9186 131.303 73.7177 130.979 73.4866C130.958 73.3826 130.964 73.3101 130.998 73.2404C130.911 73.2417 130.812 73.2312 130.699 73.2086C124.823 69.5295 118.85 66.6704 111.924 66.8408C109.194 66.908 106.434 67.454 105.248 70.4421C104.073 73.4009 105.633 75.6132 107.517 77.6938C110.844 81.3692 115.229 83.5856 119.325 86.2793C116.535 85.4503 113.699 85.971 110.916 85.7239C108.934 85.5478 107.14 86.297 105.226 86.4064C101.051 86.645 97.2978 88.1357 94.072 90.7759C91.3643 92.992 91.3112 96.9421 93.7269 99.4316C95.9049 101.676 98.6946 102.828 101.594 103.442C105.964 104.369 110.427 104.863 115.298 105.61C109.311 107.679 103.725 109.448 100.151 114.623C98.0067 117.727 97.3661 121.068 98.689 124.519C100.044 128.054 103.167 128.626 106.626 128.647C110.301 128.669 113.678 127.841 117.114 126.601C119.642 125.69 121.693 123.737 125.061 123.014C121.065 128.115 118.019 132.984 116.745 138.664C116.078 141.638 115.946 145.03 118.455 147.145C121.217 149.473 124.638 149.93 128.188 148.231C130.041 147.344 131.569 146.017 133.516 145.079C133.499 144.977 133.546 144.986 133.554 145.014C133.6 145.004 133.642 144.99 133.679 144.972C133.135 144.447 133.805 144.314 134.209 144.029C134.222 144.097 134.226 144.164 134.222 144.23C134.24 144.2 134.259 144.17 134.28 144.139C135.399 142.902 136.355 141.739 137.401 140.387C137.461 140.327 137.519 140.27 137.575 140.215C137.63 140.161 137.683 140.109 137.734 140.057C137.8 139.73 138.037 139.39 138.406 139.009C138.439 139.041 138.47 139.072 138.498 139.102C138.551 139.014 138.586 138.992 138.601 138.983C138.609 138.978 138.61 138.977 138.603 138.97C138.638 138.936 138.674 138.906 138.713 138.879C138.61 138.297 138.701 137.843 139.311 137.46C139.421 137.409 139.517 137.371 139.6 137.351C139.725 136.888 139.942 136.527 140.158 136.166C140.715 136.616 140.432 137.138 140.108 137.735L140.103 137.744C140.051 137.745 140.006 137.743 139.967 137.736C139.91 138.143 139.901 138.373 139.878 138.738C139.804 138.808 139.73 138.868 139.655 138.919C139.674 140.698 139.394 142.426 139.111 144.173C138.783 146.197 138.45 148.245 138.576 150.423C138.521 150.522 138.466 150.62 138.412 150.718C138.467 150.793 138.524 150.869 138.583 150.944C138.906 153.489 139.319 155.749 141.382 157.23C146.539 160.932 150.897 158.252 153.503 153.867C156.709 148.475 157.862 142.408 159.295 136.402C159.524 139.449 159.327 142.487 160.087 145.456C161.214 149.854 161.831 154.442 165.6 157.685C169.037 160.641 176.426 159.415 177.816 155.396C178.879 152.324 179.503 149.235 178.705 145.758C178.137 143.285 177.608 140.651 177.332 137.986C177.614 138.054 177.755 138.044 177.806 138.107C178.051 138.409 178.284 138.723 178.501 139.047C181.617 143.698 184.614 148.435 189.791 151.21C192.325 152.568 194.759 152.938 197.455 151.645C201.035 149.929 202.756 145.691 200.899 139.637C199.525 135.155 196.829 131.356 194.087 127.595C195.025 127.056 195.51 127.59 196.062 128.062C198.655 130.284 201.593 131.817 204.931 132.659C210.557 134.08 215.65 130.14 215.263 124.349C214.901 118.939 211.123 115.66 207.147 112.684C203.168 109.706 198.567 107.999 193.749 106.782C196.621 106.458 199.441 106.757 202.223 105.984C206.395 104.823 209.607 100.82 208.484 97.3889C206.973 92.7746 203.767 89.6887 199.011 88.1946C195.216 87.0027 191.589 87.9252 187.681 88.9855C188.52 87.26 189.223 85.9414 189.815 84.5747C192.355 78.706 189.541 73.3795 183.404 71.6076ZM188.38 110.926C189.614 103.115 187.966 95.9635 183.815 89.0745C173.269 72.6248 147.911 68.6761 132.225 78.2755C117.915 87.0336 115.249 103.778 127.03 115.614C137.893 126.529 151.472 131.824 166.984 130.907C178.702 130.214 186.564 122.423 188.38 110.926ZM193.839 126.544C194.12 127.182 194.018 127.532 193.5 127.211C193.006 126.905 193.315 126.588 193.839 126.544Z" fill="#FFA800"/>
<path d="M135.527 144.491C136.698 143.405 137.53 142.31 138.354 140.958L138.422 140.802C138.606 140.376 138.739 140.069 138.973 139.668C139.041 139.532 139.14 139.284 139.172 139.157L139.183 139.11C139.057 139.131 138.919 139.134 138.763 139.119C138.743 139.036 138.726 138.957 138.713 138.879C138.674 138.906 138.638 138.936 138.603 138.97C138.61 138.977 138.609 138.978 138.601 138.983C138.586 138.992 138.551 139.014 138.498 139.102C139.184 139.827 138.409 139.925 137.717 140.186C137.72 140.143 137.726 140.1 137.734 140.057C137.683 140.109 137.63 140.161 137.575 140.215C137.519 140.27 137.461 140.327 137.401 140.387C136.355 141.739 135.399 142.902 134.28 144.139C134.259 144.17 134.24 144.2 134.222 144.23C134.205 144.503 134.047 144.759 133.77 145.021C134.018 145.044 134.153 145.038 134.439 145.005C134.895 144.891 135.139 144.773 135.527 144.491Z" fill="#085B45"/>
<path d="M138.412 150.718C138.466 150.62 138.521 150.522 138.576 150.423C138.45 148.245 138.783 146.197 139.111 144.173C139.394 142.426 139.674 140.698 139.655 138.919C139.509 139.018 139.357 139.082 139.183 139.11L139.177 139.135L139.172 139.157C139.135 139.326 139.096 139.483 139.047 139.675C139.02 139.783 138.99 139.903 138.956 140.041C138.887 140.458 138.732 140.771 138.596 141.049C138.494 141.256 138.402 141.443 138.363 141.637C138.241 142.244 138.075 142.853 137.909 143.465C137.265 145.831 136.611 148.233 138.412 150.718Z" fill="#085B45"/>
<path fill-rule="evenodd" clip-rule="evenodd" d="M133.77 145.021C134.047 144.759 134.205 144.503 134.222 144.23C134.168 144.318 134.124 144.404 134.083 144.486C133.973 144.701 133.881 144.881 133.679 144.972C133.694 144.987 133.711 145.002 133.728 145.017L133.752 145.039L133.77 145.021Z" fill="#00AD2E"/>
<path d="M134.222 144.23C134.226 144.164 134.222 144.097 134.209 144.029C133.805 144.314 133.135 144.447 133.679 144.972C133.881 144.881 133.973 144.701 134.083 144.486C134.124 144.404 134.168 144.318 134.222 144.23Z" fill="#FFA800"/>
<path d="M137.717 140.186C138.409 139.925 139.184 139.827 138.498 139.102C138.491 139.113 138.484 139.126 138.476 139.14C138.237 139.532 138.007 139.784 137.734 140.057C137.726 140.1 137.72 140.143 137.717 140.186Z" fill="#085B45"/>
<path d="M138.713 138.879C138.929 138.727 139.204 138.686 139.654 138.81L139.655 138.919C139.73 138.868 139.804 138.808 139.878 138.738C139.901 138.373 139.91 138.143 139.967 137.736C139.807 137.711 139.726 137.625 139.573 137.458C139.581 137.421 139.59 137.386 139.6 137.351C139.517 137.371 139.421 137.409 139.311 137.46C138.701 137.843 138.61 138.297 138.713 138.879Z" fill="#FFA800"/>
<path d="M140.158 136.166C139.942 136.527 139.725 136.888 139.6 137.351C139.784 137.305 139.909 137.346 139.997 137.531L139.983 137.623L139.967 137.736C140.006 137.743 140.051 137.745 140.103 137.744L140.108 137.735C140.432 137.138 140.715 136.616 140.158 136.166Z" fill="#FFA800"/>
<path d="M139.573 137.458C139.726 137.625 139.807 137.711 139.967 137.736L139.983 137.623L139.997 137.531C139.909 137.346 139.784 137.305 139.6 137.351C139.59 137.386 139.581 137.421 139.573 137.458Z" fill="#FFA800"/>
<path d="M138.763 139.119C138.919 139.134 139.057 139.131 139.183 139.11C139.191 139.069 139.197 139.024 139.203 138.981C139.214 138.903 139.224 138.834 139.239 138.816C139.251 138.8 139.249 138.808 139.242 138.834C139.236 138.858 139.225 138.898 139.218 138.948C139.21 138.986 139.202 139.024 139.194 139.06L139.183 139.11C139.357 139.082 139.509 139.018 139.655 138.919L139.654 138.81C139.204 138.686 138.929 138.727 138.713 138.879C138.726 138.957 138.743 139.036 138.763 139.119Z" fill="#FFA800"/>
<path d="M137.734 140.057C138.007 139.784 138.237 139.532 138.476 139.14C138.484 139.126 138.491 139.113 138.498 139.102C138.47 139.072 138.439 139.041 138.406 139.009C138.037 139.39 137.8 139.73 137.734 140.057Z" fill="#FFA800"/>
<path fill-rule="evenodd" clip-rule="evenodd" d="M90.1588 196.415C99.3946 199.989 108.369 198.592 117.024 193.84C115.512 193.011 113.973 192.266 112.447 191.528C108.963 189.842 105.542 188.187 102.65 185.625C101.057 184.213 99.4786 182.78 97.9517 181.297C96.5742 179.959 95.8442 178.418 97.5116 176.821C99.1935 175.211 100.715 176.085 101.995 177.46C107.406 183.269 114.056 186.983 121.877 189.153L121.902 189.162C121.969 189.087 122.037 189.006 122.103 188.918C123.576 185.126 123.827 181.493 122.76 177.799C120.904 171.375 116.277 167.669 110.329 165.254C106.872 163.851 103.29 163.105 99.5884 162.607C93.3085 161.763 87.8544 158.883 82.7499 155.222C80.3579 153.507 78.4908 154.408 78.5491 157.253C78.6043 159.952 78.5498 162.653 78.4954 165.355C78.3822 170.968 78.269 176.582 79.14 182.167C80.1912 188.906 83.7827 193.948 90.1588 196.415Z" fill="#00AD2E"/>
<path d="M102.381 179.691C106.935 184.089 112.182 187.31 118.175 189.333C118.332 189.386 118.488 189.443 118.645 189.501C119.746 189.904 120.862 190.312 121.902 189.162L121.877 189.153C114.056 186.983 107.406 183.269 101.995 177.46C100.715 176.085 99.1935 175.211 97.5116 176.821C95.8442 178.418 96.5742 179.959 97.9517 181.297C99.4786 182.78 101.057 184.213 102.65 185.625C105.542 188.187 108.963 189.842 112.447 191.528C113.973 192.266 115.512 193.011 117.024 193.84L117.171 193.759C116.691 191.951 115.313 191.382 113.962 190.824C113.722 190.724 113.482 190.625 113.248 190.52C108.465 188.358 104.075 185.607 100.386 181.86C100.196 181.667 99.9614 181.468 99.7177 181.262C98.7175 180.414 97.5648 179.437 98.7241 178.207C99.9446 176.912 100.944 178.065 101.8 179.054C102.001 179.287 102.195 179.51 102.381 179.691Z" fill="#085B45"/>
<path d="M148.338 180.648C148.334 180.64 148.33 180.632 148.326 180.625C147.674 179.355 147.979 178.062 148.023 176.827C148.12 174.119 148.737 171.502 150.274 169.224C152.606 165.767 156.082 164.036 159.948 162.911C162.339 162.215 164.852 162.027 167.184 161.1C169.915 160.015 172.05 158.189 173.687 155.761C173.987 155.317 174.254 154.911 174.861 154.994C175.503 155.082 175.42 155.601 175.516 156.056C176.123 158.929 176.37 161.852 176.776 164.752C177.079 166.913 177.083 169.075 176.985 171.228C176.721 177.058 174.007 181.518 168.978 184.351C163.868 187.229 158.535 186.715 153.247 184.733C152.041 184.281 150.889 183.682 149.621 183.131C149.594 183.09 149.57 183.051 149.548 183.012C149.132 182.265 149.639 181.846 150.09 181.474C150.147 181.427 150.203 181.38 150.256 181.334C152.561 179.333 154.978 177.479 157.61 175.922C158.957 175.124 160.296 174.313 161.619 173.475C161.628 173.47 161.636 173.464 161.645 173.458C162.038 173.21 162.518 172.906 162.219 172.392C161.922 171.879 161.483 172.147 161.109 172.375C161.075 172.396 161.041 172.417 161.007 172.437C160.739 172.596 160.47 172.756 160.201 172.915C156.575 175.062 152.949 177.21 149.841 180.121C149.825 180.137 149.808 180.153 149.791 180.168C149.41 180.527 149.012 180.902 148.338 180.648Z" fill="#00AD2E"/>
<path d="M150.256 181.334C152.561 179.333 154.978 177.479 157.61 175.922C158.957 175.124 160.296 174.313 161.619 173.475L161.645 173.458C162.038 173.21 162.518 172.906 162.219 172.392C161.922 171.879 161.483 172.147 161.109 172.375C161.075 172.396 161.041 172.417 161.007 172.437C160.739 172.596 160.47 172.756 160.201 172.915C156.575 175.062 152.949 177.21 149.841 180.121L149.791 180.168C149.41 180.527 149.012 180.902 148.338 180.648L148.326 180.625C148.296 180.638 148.266 180.65 148.236 180.662C146.073 182.744 141.426 189.042 139.807 191.5C139.09 195.753 139.085 194.979 138.854 199.273C138.674 202.618 138.982 200.158 139.304 203.5C139.766 208.299 141.538 208.405 142.938 213C143.363 214.394 144.054 214.926 144.951 214.482C145.994 213.964 145.703 213.046 145.432 212.189L145.423 212.159C145.397 212.079 145.336 212.011 145.31 211.931C143.39 205.911 141.735 210.075 141.38 203.788C141.181 200.284 141.818 196.887 142.938 193.587C144.3 189.573 146.452 186.043 149.544 183.028L149.548 183.012C149.132 182.265 149.639 181.846 150.09 181.474C150.147 181.427 150.203 181.38 150.256 181.334Z" fill="#085B45"/>
<path fill-rule="evenodd" clip-rule="evenodd" d="M183.815 89.0745C187.966 95.9635 189.614 103.115 188.38 110.926C186.564 122.423 178.702 130.214 166.984 130.907C151.472 131.824 137.893 126.529 127.03 115.614C115.249 103.778 117.915 87.0336 132.225 78.2755C147.911 68.6761 173.269 72.6248 183.815 89.0745ZM134.344 97.681C133.368 98.5586 132.804 99.5901 133.561 101.121C135.03 103.176 136.523 102.955 138.095 101.622C138.676 101.13 139.262 100.642 139.847 100.154C141.217 99.0141 142.586 97.8738 143.897 96.6707C145.1 95.567 146.042 95.7264 146.962 96.9077C147.334 97.3847 147.711 97.8578 148.087 98.3308C149.673 100.323 151.257 102.313 152.478 104.583C153.147 105.826 153.076 106.455 151.936 107.349C149.767 109.048 147.719 110.906 145.675 112.76L145.251 113.144C144.016 114.264 143.824 115.536 144.988 116.899C146.258 118.386 147.634 118.276 149.004 117.159C149.732 116.566 150.404 115.903 151.075 115.24C151.348 114.97 151.62 114.701 151.897 114.436L151.908 114.426C153.615 112.791 154.47 111.973 155.071 112.128C155.674 112.283 156.022 113.415 156.72 115.681L156.728 115.708L156.73 115.713C156.937 116.386 157.154 117.093 157.542 117.665C158.332 118.833 159.538 119.073 160.797 118.611C161.968 118.181 162.56 117.239 162.415 115.967C162.365 115.537 162.262 115.113 162.159 114.689C162.093 114.419 162.028 114.15 161.976 113.878C160.76 107.51 160.761 107.509 167.057 105.391C167.171 105.353 167.287 105.32 167.403 105.288C167.582 105.237 167.761 105.186 167.933 105.115C169.545 104.446 170.471 105.046 170.847 106.669C170.978 107.235 171.101 107.804 171.224 108.373C171.487 109.593 171.751 110.813 172.096 112.01C172.475 113.321 173.44 114.039 174.883 113.854C176.289 113.674 177.04 112.82 177.229 111.443C177.429 109.989 177.078 108.595 176.655 107.238C175.921 104.885 176.16 103.651 179.103 104.551C180.764 105.058 182.251 104.487 182.653 102.631C183.077 100.677 182.062 99.2085 180.115 99.2891C174.835 99.5075 172.382 96.4765 170.874 92.0322C170.616 91.2742 170.108 90.5856 169.617 89.9199C169.561 89.8432 169.505 89.7669 169.449 89.6908C168.475 88.3589 167.937 87.3045 169.482 85.7751C171.164 84.1106 170.215 81.4572 167.985 81.6278C163.941 81.9372 160.708 80.3829 157.417 78.4963C156.075 77.7275 154.431 77.3129 153.302 78.9586C152.266 80.4673 152.659 81.869 154.059 82.9771C154.983 83.7087 154.962 84.2264 153.833 84.6789C153.077 84.9821 152.307 85.2909 151.618 85.7182C148.254 87.8068 145.021 89.4968 141.209 86.2972C139.918 85.214 137.761 85.153 136.755 87.2199C135.803 89.176 137.136 90.2844 138.719 91.0242C140.451 91.8333 140.178 92.6376 138.941 93.6686C137.379 94.9702 135.857 96.3216 134.344 97.681Z" fill="#D55700"/>
<path d="M151.97 176.285C147.271 180.435 142.092 186.557 140.254 189.296L138.186 191.351L139.565 200.253C140.024 200.481 141.219 200.116 142.321 196.829C143.424 193.542 149.213 186.329 151.97 183.133C160.929 173.546 165.359 175.6 164.375 172.176C163.39 168.752 158.172 170.807 151.97 176.285Z" fill="#085B45"/>
</svg>
