<svg width="288" height="288" viewBox="0 0 288 288" fill="none" xmlns="http://www.w3.org/2000/svg">
<rect width="288" height="288" fill="white"/>
<path d="M280 143.548C280 218.51 219.111 279.279 144 279.279C68.8893 279.279 8 218.51 8 143.548C8 68.5863 68.8893 7.8176 144 7.8176C219.111 7.8176 280 68.5863 280 143.548Z" fill="#EAF9E4"/>
<path d="M189.931 28.744C189.909 28.7868 189.887 28.8284 189.864 28.8688C189.592 29.3417 189.182 29.6549 188.772 29.9681C188.792 29.4313 188.813 28.8945 189.111 28.25C189.135 28.2515 189.157 28.2534 189.179 28.2557C189.525 28.2914 189.65 28.4275 189.931 28.744Z" fill="#00AD2E"/>
<path d="M123.025 26.3195C123.16 26.3352 123.282 26.3583 123.391 26.3882C124.132 26.5926 124.259 27.1176 123.832 27.8062C123.809 27.8431 123.195 27.5126 122.664 27.1322C122.629 26.9611 122.64 26.8417 122.696 26.7271C122.755 26.6049 122.865 26.4881 123.025 26.3195Z" fill="#FFA800"/>
<path d="M225.664 114.45C226.125 115.5 225.956 116.075 225.109 115.547C224.299 115.043 224.805 114.522 225.664 114.45Z" fill="#00AD2E"/>
<path d="M126.895 72.6102C125.655 70.0911 126.579 68.3936 128.179 66.9493C130.657 64.7121 133.15 62.4881 135.71 60.346C137.738 58.6493 138.185 57.3256 135.347 55.9941C132.752 54.7766 130.569 52.9526 132.129 49.7333C133.777 46.3317 137.312 46.4321 139.426 48.2149C145.673 53.4804 150.97 50.6992 156.483 47.2619C157.611 46.5587 158.872 46.0505 160.112 45.5516C161.962 44.8068 161.996 43.9549 160.482 42.7509C158.188 40.9273 157.545 38.6205 159.241 36.1376C161.091 33.4293 163.786 34.1116 165.984 35.3768C171.377 38.4815 176.674 41.0395 183.301 40.5304C186.955 40.2495 188.509 44.6163 185.754 47.3556C183.223 49.8726 184.103 51.6078 185.699 53.7997C186.583 55.013 187.564 56.2619 188.034 57.653C190.505 64.9671 194.524 69.9551 203.177 69.5957C206.367 69.4632 208.03 71.8802 207.335 75.0956C206.676 78.1494 204.24 79.0903 201.518 78.2547C196.697 76.7743 196.304 78.8048 197.507 82.6773C198.2 84.9103 198.776 87.2045 198.448 89.5977C198.137 91.8633 196.907 93.2693 194.604 93.5654C192.239 93.8694 190.657 92.6877 190.037 90.5307C189.207 87.6433 188.666 84.6729 187.99 81.7406C187.375 79.0701 185.857 78.0832 183.215 79.1835C182.754 79.3757 182.256 79.478 181.78 79.6385C171.465 83.1235 171.462 83.1245 173.454 93.6048C173.673 94.7553 174.041 95.8845 174.173 97.0426C174.411 99.1357 173.442 100.687 171.523 101.394C169.46 102.154 167.484 101.759 166.189 99.838C165.552 98.8926 165.196 97.7264 164.855 96.6161C162.556 89.1131 162.57 89.1106 156.939 94.524C155.371 96.0315 153.877 97.6319 152.199 99.0053C149.954 100.842 147.7 101.025 145.62 98.5774C143.712 96.3342 144.026 94.24 146.05 92.3973C149.631 89.1376 153.203 85.8503 157.003 82.8595C158.872 81.3886 158.987 80.3534 157.892 78.3084C155.415 73.6845 152.029 69.7672 148.854 65.6766C147.345 63.7325 145.803 63.4702 143.832 65.2867C140.764 68.1134 137.503 70.7293 134.325 73.4354C131.748 75.6293 129.303 75.9921 126.895 72.6102Z" fill="#803400"/>
<path d="M180.108 61.8334C183.837 69.1577 183.838 69.1577 176.479 72.0336C167.216 75.6538 167.22 75.6511 161.608 67.3663C160.765 66.1232 159.939 64.8582 158.982 63.7064C154.47 58.2779 154.455 58.2908 160.66 55.2381C172.346 49.4898 172.911 49.6734 180.108 61.8334Z" fill="#D55700"/>
<path d="M136.089 135.207C136.036 135.416 135.875 135.824 135.763 136.047C135.379 136.708 135.162 137.213 134.859 137.915L134.749 138.171C133.399 140.396 132.035 142.198 130.117 143.985C129.482 144.45 129.082 144.644 128.333 144.832C127.866 144.886 127.644 144.895 127.238 144.858L127.208 144.887L127.168 144.851L127.058 144.84C126.979 144.877 126.9 144.915 126.821 144.953C126.829 145.001 126.846 145.065 126.875 145.147C121.668 156.474 119.154 168.147 120.295 180.197C121.367 191.514 123.305 202.781 126.724 213.72C128.081 218.063 129.008 222.542 130.34 227.778C123.015 222.853 115.482 220.441 107.791 217.501C106.088 219.394 104.259 218.722 102.455 218.058C102.198 217.964 101.941 217.869 101.685 217.782C91.8652 214.452 83.2665 209.152 75.8058 201.914C75.5 201.617 75.1829 201.249 74.8528 200.866C73.45 199.239 71.8129 197.34 69.8131 199.472C67.9134 201.497 69.8021 203.104 71.4411 204.499C71.8403 204.839 72.2247 205.166 72.536 205.483C78.58 211.65 85.7735 216.177 93.6117 219.735C93.9945 219.909 94.3873 220.072 94.7814 220.235C96.9949 221.154 99.2522 222.09 100.039 225.067L99.7984 225.2C99.9701 225.295 100.142 225.39 100.313 225.486C103.306 226.572 105.906 227.629 108.544 228.579C118.707 232.241 127.701 237.163 133.454 247.095C139.6 257.708 140.881 269.184 141.196 280.982C141.289 284.487 141.077 287.914 146.025 287.998C151.257 288.088 151.188 284.349 151.262 280.775C151.462 271.085 149.681 261.651 147.532 252.262C141.978 227.991 132.724 204.576 130.432 179.563C129.644 170.973 130.371 162.422 134.844 154.233C131.893 150.144 132.964 146.19 134.019 142.297C134.292 141.29 134.563 140.288 134.764 139.288C134.828 138.968 134.978 138.661 135.145 138.321C135.369 137.864 135.621 137.347 135.734 136.661C135.79 136.434 135.84 136.238 135.885 136.059C135.964 135.744 136.028 135.484 136.089 135.207Z" fill="#085b45"/>
<path fill-rule="evenodd" clip-rule="evenodd" d="M208.565 24.0399C201.182 21.8989 195.595 24.6961 189.864 28.8688C189.592 29.3417 189.182 29.6549 188.772 29.9681C188.792 29.4313 188.813 28.8945 189.111 28.25C189.135 28.2515 189.157 28.2534 189.179 28.2557C189.23 28.1188 189.311 27.9369 189.425 27.6865C189.464 24.8896 189.536 22.5461 189.458 20.2076C189.2 12.5226 184.042 6.96044 175.549 5.12971C168.878 3.69184 161.893 7.20273 158.573 13.3265C157.31 15.6549 157.839 18.6483 155.728 20.7336C154.539 18.56 153.503 16.5354 152.35 14.5804C147.259 5.95075 140.741 -0.528075 129.771 0.0339666C122.867 0.387684 119.262 4.41153 119.063 11.2277C118.903 16.6901 121.743 21.1888 123.413 26.3488C123.406 26.3623 123.398 26.3754 123.391 26.3882C124.132 26.5926 124.259 27.1176 123.832 27.8062C123.809 27.8431 123.195 27.5126 122.664 27.1322C122.629 26.9611 122.64 26.8417 122.696 26.7271C122.553 26.7292 122.391 26.7119 122.206 26.6748C112.577 20.62 102.79 15.9146 91.4421 16.1952C86.969 16.3057 82.4467 17.2044 80.5027 22.1219C78.5778 26.9912 81.1337 30.6321 84.2198 34.056C89.6719 40.1048 96.8563 43.7523 103.569 48.1853C98.9978 46.8211 94.3501 47.678 89.7906 47.2713C86.5428 46.9815 83.6029 48.2145 80.4665 48.3946C73.6263 48.7872 67.4759 51.2405 62.1903 55.5854C57.7536 59.2325 57.6665 65.7334 61.6248 69.8302C65.1935 73.5239 69.7647 75.4192 74.5153 76.4308C81.6764 77.9557 88.9884 78.7688 96.9709 79.9975C87.1599 83.4037 78.007 86.3146 72.1504 94.8312C68.6375 99.9397 67.5878 105.437 69.7555 111.117C71.9753 116.935 77.0925 117.876 82.7615 117.911C88.7823 117.947 94.3158 116.584 99.9462 114.544C104.088 113.043 107.448 109.83 112.967 108.64C106.42 117.035 101.428 125.048 99.341 134.395C98.2477 139.29 98.0316 144.873 102.144 148.353C106.669 152.184 112.274 152.936 118.092 150.14C121.128 148.681 123.631 146.496 126.821 144.953C126.793 144.785 126.871 144.799 126.884 144.846C126.959 144.829 127.027 144.806 127.089 144.777C126.197 143.912 127.294 143.694 127.957 143.225C127.978 143.337 127.985 143.447 127.978 143.555C128.008 143.506 128.039 143.456 128.072 143.407C129.907 141.371 131.473 139.456 133.187 137.232C133.286 137.133 133.381 137.039 133.472 136.948C133.562 136.859 133.649 136.773 133.733 136.688C133.841 136.15 134.228 135.591 134.834 134.964C134.889 135.016 134.939 135.067 134.985 135.116C135.072 134.972 135.13 134.936 135.153 134.921C135.167 134.912 135.168 134.911 135.157 134.899C135.214 134.844 135.274 134.794 135.336 134.75C135.168 133.791 135.318 133.045 136.317 132.414C136.497 132.331 136.654 132.268 136.79 132.234C136.995 131.473 137.35 130.879 137.705 130.284C138.617 131.026 138.153 131.885 137.622 132.867L137.615 132.881C137.53 132.883 137.456 132.879 137.391 132.869C137.298 133.538 137.283 133.917 137.246 134.518C137.124 134.633 137.003 134.732 136.881 134.815C136.912 137.743 136.453 140.587 135.989 143.461C135.451 146.792 134.907 150.163 135.113 153.748C135.022 153.91 134.932 154.071 134.844 154.233C134.933 154.357 135.027 154.481 135.124 154.606C135.653 158.794 136.33 162.512 139.711 164.95C148.16 171.043 155.301 166.631 159.572 159.416C164.824 150.542 166.714 140.556 169.061 130.672C169.437 135.688 169.114 140.687 170.36 145.573C172.206 152.811 173.217 160.361 179.393 165.698C185.024 170.564 197.132 168.546 199.409 161.932C201.151 156.876 202.173 151.793 200.866 146.07C199.936 142.001 199.068 137.666 198.616 133.28C199.078 133.391 199.309 133.375 199.392 133.478C199.795 133.976 200.176 134.493 200.532 135.026C205.637 142.68 210.549 150.475 219.032 155.042C223.183 157.277 227.171 157.886 231.589 155.759C237.456 152.935 240.275 145.959 237.233 135.997C234.98 128.62 230.564 122.368 226.07 116.179C227.607 115.291 228.403 116.171 229.306 116.948C233.555 120.605 238.369 123.127 243.838 124.514C253.058 126.852 261.403 120.367 260.769 110.836C260.176 101.934 253.985 96.5379 247.47 91.6405C240.949 86.7398 233.41 83.9304 225.516 81.9262C230.222 81.3938 234.843 81.8866 239.401 80.6132C246.237 78.7036 251.501 72.1159 249.66 66.4686C247.185 58.8748 241.931 53.7962 234.138 51.3374C227.92 49.3758 221.976 50.894 215.574 52.639C216.948 49.7993 218.101 47.6293 219.07 45.3801C223.232 35.7219 218.621 26.9559 208.565 24.0399ZM216.719 88.7474C218.741 75.8928 216.041 64.1228 209.239 52.7855C191.958 25.7139 150.408 19.2156 124.707 35.0133C101.258 49.4268 96.8903 76.9825 116.193 96.4611C133.994 114.424 156.243 123.139 181.661 121.629C200.861 120.489 213.743 107.667 216.719 88.7474ZM225.664 114.45C226.125 115.5 225.956 116.075 225.109 115.547C224.299 115.043 224.805 114.522 225.664 114.45Z" fill="#FFA800"/>
<path d="M130.117 143.985C132.035 142.198 133.399 140.396 134.749 138.171L134.859 137.915C135.162 137.213 135.379 136.708 135.763 136.047C135.875 135.824 136.036 135.416 136.089 135.207L136.106 135.13C135.901 135.164 135.675 135.168 135.419 135.144C135.387 135.009 135.359 134.877 135.336 134.75C135.274 134.794 135.214 134.844 135.157 134.899C135.168 134.911 135.167 134.912 135.153 134.921C135.13 134.936 135.072 134.972 134.985 135.116C136.108 136.31 134.839 136.471 133.705 136.901C133.71 136.83 133.719 136.759 133.733 136.688C133.649 136.773 133.562 136.859 133.472 136.948C133.381 137.039 133.286 137.133 133.187 137.232C131.473 139.456 129.907 141.371 128.072 143.407C128.039 143.456 128.008 143.506 127.978 143.555C127.95 144.004 127.691 144.425 127.238 144.858C127.644 144.895 127.866 144.886 128.333 144.832C129.082 144.644 129.482 144.45 130.117 143.985Z" fill="#085b45"/>
<path d="M134.844 154.233C134.932 154.071 135.022 153.91 135.113 153.748C134.907 150.163 135.451 146.792 135.989 143.461C136.453 140.587 136.912 137.743 136.881 134.815C136.641 134.979 136.393 135.083 136.106 135.13L136.098 135.172L136.089 135.207C136.028 135.484 135.964 135.744 135.885 136.059C135.84 136.238 135.79 136.434 135.734 136.661C135.621 137.347 135.369 137.864 135.145 138.321C134.978 138.661 134.828 138.968 134.764 139.288C134.563 140.288 134.292 141.29 134.019 142.297C132.964 146.19 131.893 150.144 134.844 154.233Z" fill="#085b45"/>
<path fill-rule="evenodd" clip-rule="evenodd" d="M127.238 144.858C127.691 144.425 127.95 144.004 127.978 143.555C127.89 143.701 127.818 143.843 127.75 143.976C127.57 144.331 127.419 144.627 127.089 144.777C127.114 144.802 127.14 144.826 127.168 144.851L127.208 144.887L127.238 144.858Z" fill="#00AD2E"/>
<path d="M127.978 143.555C127.985 143.447 127.978 143.337 127.957 143.225C127.294 143.694 126.197 143.912 127.089 144.777C127.419 144.627 127.57 144.331 127.75 143.976C127.818 143.843 127.89 143.701 127.978 143.555Z" fill="#FFA800"/>
<path d="M133.705 136.901C134.839 136.471 136.108 136.31 134.985 135.116C134.973 135.135 134.961 135.156 134.948 135.179C134.557 135.824 134.18 136.238 133.733 136.688C133.719 136.759 133.71 136.83 133.705 136.901Z" fill="#085b45"/>
<path d="M135.336 134.75C135.69 134.499 136.142 134.432 136.878 134.636L136.881 134.815C137.003 134.732 137.124 134.633 137.246 134.518C137.283 133.917 137.298 133.538 137.391 132.869C137.129 132.828 136.998 132.686 136.746 132.41C136.76 132.351 136.775 132.292 136.79 132.234C136.654 132.268 136.497 132.331 136.317 132.414C135.318 133.045 135.168 133.791 135.336 134.75Z" fill="#FFA800"/>
<path d="M137.705 130.284C137.35 130.879 136.995 131.473 136.79 132.234C137.093 132.159 137.297 132.227 137.441 132.53L137.418 132.682L137.391 132.869C137.456 132.879 137.53 132.883 137.615 132.881L137.622 132.867C138.153 131.885 138.617 131.026 137.705 130.284Z" fill="#FFA800"/>
<path d="M136.746 132.41C136.998 132.686 137.129 132.828 137.391 132.869L137.418 132.682L137.441 132.53C137.297 132.227 137.093 132.159 136.79 132.234C136.775 132.292 136.76 132.351 136.746 132.41Z" fill="#FFA800"/>
<path d="M135.419 135.144C135.675 135.168 135.901 135.164 136.106 135.13C136.119 135.062 136.13 134.987 136.14 134.917C136.158 134.789 136.174 134.676 136.198 134.646C136.219 134.62 136.216 134.633 136.204 134.676C136.193 134.715 136.176 134.781 136.165 134.862C136.152 134.926 136.138 134.988 136.125 135.048L136.106 135.13C136.393 135.083 136.641 134.979 136.881 134.815L136.878 134.636C136.142 134.432 135.69 134.499 135.336 134.75C135.359 134.877 135.387 135.009 135.419 135.144Z" fill="#FFA800"/>
<path d="M133.733 136.688C134.18 136.238 134.557 135.824 134.948 135.179C134.961 135.156 134.973 135.135 134.985 135.116C134.939 135.067 134.889 135.016 134.834 134.964C134.228 135.591 133.841 136.15 133.733 136.688Z" fill="#FFA800"/>
<path fill-rule="evenodd" clip-rule="evenodd" d="M55.7782 229.438C70.9116 235.32 85.6168 233.02 99.7984 225.2C97.3212 223.835 94.7996 222.61 92.2981 221.394C86.5894 218.62 80.9846 215.897 76.2465 211.68C73.6349 209.356 71.0493 206.998 68.5473 204.557C66.2902 202.355 65.0941 199.819 67.8262 197.192C70.5821 194.542 73.0748 195.98 75.1726 198.242C84.0395 207.802 94.9353 213.915 107.75 217.486L107.791 217.501C107.902 217.378 108.012 217.244 108.121 217.099C110.534 210.859 110.946 204.879 109.197 198.801C106.156 188.228 98.5743 182.129 88.8282 178.155C83.1639 175.846 77.2945 174.619 71.2292 173.8C60.9392 172.41 52.0024 167.671 43.6384 161.646C39.719 158.823 36.6596 160.305 36.7551 164.988C36.8456 169.429 36.7563 173.875 36.6671 178.321C36.4816 187.56 36.2962 196.798 37.7234 205.989C39.4457 217.08 45.3307 225.377 55.7782 229.438Z" fill="#00AD2E"/>
<path d="M75.8058 201.914C83.2665 209.152 91.8652 214.452 101.685 217.782C101.941 217.869 102.198 217.964 102.455 218.058C104.259 218.722 106.088 219.394 107.791 217.501L107.75 217.486C94.9353 213.915 84.0395 207.802 75.1726 198.242C73.0748 195.98 70.5821 194.542 67.8262 197.192C65.0941 199.819 66.2902 202.355 68.5473 204.557C71.0493 206.998 73.6349 209.356 76.2465 211.68C80.9846 215.897 86.5894 218.62 92.2981 221.394C94.7996 222.61 97.3212 223.835 99.7984 225.2L100.039 225.067C99.2522 222.09 96.9949 221.154 94.7814 220.235C94.3873 220.072 93.9945 219.909 93.6117 219.735C85.7735 216.177 78.58 211.65 72.536 205.483C72.2247 205.166 71.8403 204.839 71.4411 204.499C69.8021 203.104 67.9134 201.497 69.8131 199.472C71.8129 197.34 73.45 199.239 74.8528 200.866C75.1829 201.249 75.5 201.617 75.8058 201.914Z" fill="#085b45"/>
<path d="M151.108 203.489C151.101 203.476 151.095 203.464 151.089 203.451C150.02 201.362 150.52 199.233 150.592 197.201C150.75 192.744 151.762 188.437 154.28 184.689C158.102 179 163.796 176.151 170.131 174.3C174.049 173.155 178.167 172.845 181.988 171.319C186.463 169.533 189.962 166.527 192.644 162.533C193.135 161.802 193.572 161.134 194.568 161.271C195.62 161.415 195.484 162.27 195.641 163.018C196.635 167.745 197.04 172.556 197.705 177.33C198.201 180.885 198.209 184.444 198.048 187.987C197.615 197.581 193.168 204.921 184.928 209.583C176.555 214.319 167.816 213.473 159.151 210.212C157.175 209.468 155.288 208.482 153.21 207.575C153.166 207.509 153.127 207.443 153.091 207.38C152.409 206.151 153.24 205.461 153.978 204.848C154.071 204.771 154.163 204.694 154.251 204.618C158.027 201.325 161.988 198.275 166.3 195.711C168.507 194.399 170.702 193.064 172.869 191.685C172.884 191.676 172.898 191.666 172.913 191.657C173.557 191.248 174.343 190.748 173.853 189.902C173.366 189.059 172.647 189.499 172.034 189.875C171.978 189.909 171.922 189.944 171.867 189.976C171.427 190.239 170.987 190.5 170.547 190.762C164.605 194.297 158.664 197.831 153.571 202.622C153.544 202.648 153.516 202.674 153.489 202.7C152.864 203.29 152.212 203.907 151.108 203.489Z" fill="#00AD2E"/>
<path d="M154.251 204.618C158.027 201.325 161.988 198.275 166.3 195.711C168.507 194.399 170.702 193.064 172.869 191.685L172.913 191.657C173.557 191.248 174.343 190.748 173.853 189.902C173.366 189.059 172.647 189.499 172.034 189.875C171.978 189.909 171.922 189.944 171.867 189.976C171.427 190.239 170.987 190.5 170.547 190.762C164.605 194.297 158.664 197.831 153.571 202.622L153.489 202.7C152.864 203.29 152.212 203.907 151.108 203.489L151.089 203.451C151.04 203.472 150.991 203.493 150.94 203.512C147.397 206.939 139.782 217.303 137.129 221.348C135.955 228.348 135.946 227.073 135.568 234.14C135.273 239.646 135.777 235.598 136.305 241.097C137.062 248.995 139.965 249.169 142.259 256.731C142.956 259.026 144.089 259.902 145.558 259.17C147.268 258.317 146.791 256.807 146.346 255.396L146.331 255.348C146.289 255.216 146.188 255.103 146.147 254.971C143 245.065 140.289 251.917 139.706 241.571C139.382 235.805 140.424 230.215 142.259 224.783C144.492 218.177 148.017 212.367 153.084 207.405L153.091 207.38C152.409 206.151 153.24 205.461 153.978 204.848C154.071 204.771 154.163 204.694 154.251 204.618Z" fill="#085b45"/>
<path fill-rule="evenodd" clip-rule="evenodd" d="M209.239 52.7855C216.041 64.1228 218.741 75.8928 216.719 88.7474C213.743 107.667 200.861 120.489 181.661 121.629C156.243 123.139 133.994 114.424 116.193 96.4611C96.8903 76.9825 101.258 49.4268 124.707 35.0133C150.408 19.2156 191.958 25.7139 209.239 52.7855ZM128.179 66.9493C126.579 68.3936 125.655 70.0911 126.895 72.6102C129.303 75.9921 131.748 75.6293 134.325 73.4354C135.277 72.6248 136.236 71.8222 137.196 71.0197C139.44 69.1432 141.683 67.2667 143.832 65.2867C145.803 63.4702 147.345 63.7325 148.854 65.6766C149.463 66.4616 150.08 67.2402 150.697 68.0187C153.295 71.2967 155.891 74.5719 157.892 78.3084C158.987 80.3534 158.872 81.3886 157.003 82.8595C153.449 85.6569 150.094 88.7137 146.745 91.7646L146.05 92.3973C144.026 94.24 143.712 96.3342 145.62 98.5774C147.7 101.025 149.954 100.842 152.199 99.0053C153.392 98.0286 154.493 96.937 155.593 95.8457C156.039 95.4025 156.486 94.9594 156.939 94.524L156.958 94.5061C159.755 91.8166 161.155 90.4704 162.141 90.7248C163.128 90.9798 163.699 92.8424 164.842 96.5717L164.855 96.6161L164.858 96.625C165.198 97.7326 165.554 98.8952 166.189 99.838C167.484 101.759 169.46 102.154 171.523 101.394C173.442 100.687 174.411 99.1357 174.173 97.0426C174.093 96.3345 173.924 95.6373 173.754 94.9394C173.647 94.4958 173.539 94.0519 173.454 93.6048C171.462 83.1245 171.465 83.1235 181.78 79.6385C181.967 79.5756 182.157 79.5215 182.346 79.4676C182.641 79.3839 182.934 79.3003 183.215 79.1835C185.857 78.0832 187.375 79.0701 187.99 81.7406C188.205 82.673 188.407 83.6092 188.608 84.5454C189.04 86.5534 189.471 88.5614 190.037 90.5307C190.657 92.6877 192.239 93.8694 194.604 93.5654C196.907 93.2693 198.137 91.8633 198.448 89.5977C198.776 87.2045 198.2 84.9103 197.507 82.6773C196.304 78.8048 196.697 76.7743 201.518 78.2547C204.24 79.0903 206.676 78.1494 207.335 75.0956C208.03 71.8802 206.367 69.4632 203.177 69.5957C194.524 69.9551 190.505 64.9671 188.034 57.653C187.612 56.4055 186.78 55.2723 185.976 54.1767C185.883 54.0506 185.791 53.925 185.699 53.7997C184.103 51.6078 183.223 49.8726 185.754 47.3556C188.509 44.6163 186.955 40.2495 183.301 40.5304C176.674 41.0395 171.377 38.4815 165.984 35.3768C163.786 34.1116 161.091 33.4293 159.241 36.1376C157.545 38.6205 158.188 40.9273 160.482 42.7509C161.996 43.9549 161.962 44.8068 160.112 45.5516C158.872 46.0505 157.611 46.5587 156.483 47.2619C150.97 50.6992 145.673 53.4804 139.426 48.2149C137.312 46.4321 133.777 46.3317 132.129 49.7333C130.569 52.9526 132.752 54.7766 135.347 55.9941C138.185 57.3256 137.738 58.6493 135.71 60.346C133.15 62.4881 130.657 64.7121 128.179 66.9493Z" fill="#D55700"/>
<path d="M157.059 196.309C149.36 203.138 140.873 213.214 137.862 217.722L134.474 221.103L136.733 235.754C137.485 236.129 139.443 235.528 141.249 230.119C143.056 224.709 152.542 212.838 157.059 207.579C171.739 191.801 178.998 195.182 177.385 189.547C175.772 183.911 167.222 187.293 157.059 196.309Z" fill="#085b45"/>
</svg>
