<svg width="100" height="100" viewBox="0 0 100 100" fill="none" xmlns="http://www.w3.org/2000/svg">
<path d="M5 53.6084V85.2274C5 89.5201 8.4968 93 12.8106 93H82.625C86.4961 93 89.794 90.1981 90.3952 86.3923C91.726 77.9675 93.8906 61.6585 91.9643 50.7346C91.7116 49.3018 90.957 48.0047 89.8389 47.0674L57.492 21.9159C55.3914 20.1549 52.3819 19.9676 50.0772 21.4545C41.7604 26.8206 21.9584 39.4174 9.91286 45.5993C6.89856 47.1463 5 50.2331 5 53.6084Z" fill="#951C39"/>
<path d="M78.89 37.6062L79.0596 37.8948L78.8619 38.0071L78.7686 38.1698L78.6383 38.3127L78.6863 38.553L78.4479 38.634L78.269 38.7447L78.3802 39.03L78.0989 39.0757L78.103 39.2999L77.9541 39.4255L77.9184 39.6277L77.7125 39.7116L77.5486 39.8226L77.5192 40.0325L77.2887 40.0895L77.2036 40.2579L77.2541 40.5395L77.0783 40.6374L76.8217 40.6617L76.9217 40.9998L76.6628 41.0182L76.4363 41.0597L76.4342 41.3159L76.3017 41.4481L76.1271 41.5366L75.9905 41.6632L75.8122 41.744L75.8532 42.0705L75.6048 42.0715L75.4255 42.1484L75.416 42.433L75.1823 42.4416L75.0558 42.5853L74.8723 42.6533L74.7594 42.8172L74.5661 42.8689L74.5075 43.1172L74.292 43.1344L74.1833 43.3148L73.89 43.198L73.7058 43.2516L73.6825 43.5854L73.3739 43.4165L73.2515 43.5804L73.1262 43.7449L73.0137 43.9411L72.6977 43.7159L72.5996 43.9456L72.4562 44.0843L72.2529 44.0845L72.1497 44.33L71.9221 44.2657L71.7622 44.3745L71.5421 44.3142L71.3576 44.3482L71.1684 44.366L71.0608 44.6561L70.8543 44.6184L70.6519 44.5856L70.4576 44.5742L70.3094 44.7601L70.1315 44.826L69.9394 44.8231L69.7267 44.695L69.5604 44.8264L69.364 44.7704L69.2019 44.965L69.0016 44.8605L68.8108 44.8137L68.6251 44.8079L68.4542 45.0482L68.2638 44.9911L68.0737 44.8746L67.8889 44.9047L67.7039 44.8618L67.5162 44.9782L67.3322 44.9067L67.145 44.9256L66.9502 45.0311L66.7736 44.8999L66.5945 44.8282L66.414 44.7793L66.1889 45.0375L66.0452 44.7458L65.8084 45.0078L65.6664 44.7505L65.4924 44.6751L65.2575 44.8593L65.1351 44.5738L64.9248 44.6395L64.6971 44.7495L64.5161 44.6894L64.4508 44.2834L64.2247 44.372L64.0274 44.3677L63.9277 44.1075L63.7511 44.053L63.4559 44.2715L63.3904 43.9562L63.1684 43.9914L63.0734 43.7602L62.7754 43.9345L62.6692 43.732L62.4223 43.789L62.3898 43.4679L62.1643 43.4812L61.9437 43.4785L61.9093 43.1857L61.6028 43.3051L61.509 43.108L61.3256 43.0389L61.1649 42.9377L61.0368 42.7944L60.8953 42.6684L60.7823 42.5101L60.8007 42.2043L60.4618 42.3042L60.3351 42.1635L60.3893 41.8378L60.0278 41.9375L59.888 41.8097L59.8375 41.5983L59.759 41.4169L59.7054 41.2169L59.5575 41.0995L59.5139 40.8968L59.3223 40.8133L59.0154 40.8127L59.1687 40.4665L58.9346 40.4064L58.7275 40.3217L58.7787 40.063L58.5556 39.9848L58.4968 39.8007L58.2915 39.7047L58.1687 39.557L58.3356 39.2508L58.1555 39.1367L57.9255 39.0438L58.0634 38.7675L57.7178 38.724L57.6967 38.5259L57.8251 38.2665L57.7705 38.0888L57.5255 37.986L57.4399 37.8176L57.6244 37.553L57.2934 37.4707L57.5003 37.2068L57.1847 37.1101L57.1638 36.9205L57.2196 36.7112L56.9727 36.582L57.1241 36.3518L57.1227 36.1616L57.0077 35.9961L57.0188 35.8042L56.8383 35.6472L56.8321 35.458L56.8944 35.2595L56.7902 35.0851L57.0193 34.8703L56.6901 34.7186L56.9117 34.5108L56.9597 34.3223L56.776 34.1484L56.6429 33.9674L56.6122 33.7801L56.6981 33.5909L56.6748 33.4037L56.634 33.2155L56.8764 33.0351L56.9518 32.8538L56.8109 32.6615L56.8585 32.4786L56.7457 32.2824L56.902 32.1105L56.6652 31.896L56.9168 31.7388L57.0506 31.5708L56.955 31.3688L56.8105 31.1545L57.0607 31.0103L57.2054 30.8508L57.0028 30.6178L57.2606 30.4862L57.1524 30.2693L57.3107 30.1185L57.1159 29.8721L57.1913 29.6979L57.2975 29.5342L57.3735 29.3618L57.5466 29.2232L57.6627 29.0679L57.7122 28.8893L57.6308 28.6595L57.9037 28.5679L57.639 28.257L57.977 28.1981L58.0376 28.0222L58.077 27.8353L58.0786 27.629L58.1267 27.4436L58.1899 27.2646L58.4187 27.174L58.6096 27.0673L58.6462 26.8757L58.5945 26.6294L58.5931 26.4089L58.7922 26.3105L58.7868 26.083L58.8903 25.9244L59.0589 25.8106L59.3559 25.7909L59.3347 25.5456L59.544 25.4686L59.6629 25.3258L59.8406 25.2301L59.9497 25.0809L60.0541 24.9272L60.016 24.6484L60.3035 24.6539L60.2714 24.3722L60.5032 24.3335L60.6428 24.21L60.6448 23.9477L60.7362 23.7714L61.0156 23.7927L61.0218 23.5226L61.3633 23.6234L61.3417 23.3145L61.4697 23.1735L61.7768 23.2528L61.7578 22.9284L61.9101 22.8163L62.2073 22.9004L62.2201 22.5992L62.4885 22.6547L62.5039 22.3437L62.6828 22.2706L62.9979 22.4156L63.0744 22.1858L63.2049 22.0383L63.4357 22.0634L63.5027 21.7988L63.6546 21.681L63.9485 21.8403L64.1377 21.8046L64.2904 21.6953L64.4312 21.5579L64.5555 21.3762L64.8195 21.5212L64.9106 21.2523L65.0477 21.0853L65.3035 21.2351L65.3981 20.9405L65.6674 21.1525L65.8251 21.0364L65.9842 20.9175L66.1848 20.9407L66.3391 20.7947L66.5642 20.9268L66.674 20.5738L66.895 20.7045L67.0483 20.511L67.2534 20.5833L67.4233 20.4557L67.631 20.5701L67.801 20.4199L67.9962 20.4679L68.1945 20.569L68.3872 20.6523L68.5674 20.5769L68.7464 20.4122L68.9357 20.4721L69.1228 20.4381L69.3104 20.4004L69.4924 20.6266L69.6826 20.4992L69.8654 20.5661L70.0606 20.4503L70.2306 20.6482L70.4419 20.4217L70.5919 20.7321L70.8057 20.5448L71.005 20.4903L71.1701 20.6378L71.3661 20.6125L71.5237 20.7704L71.7255 20.7261L71.904 20.7843L72.0885 20.8193L72.2474 20.9434L72.4807 20.8218L72.6682 20.8589L72.7554 21.1814L72.9502 21.1879L73.1225 21.2579L73.3309 21.2409L73.4366 21.4686L73.6134 21.5256L73.8078 21.5475L74.0632 21.4512L74.1157 21.7624L74.3886 21.6462L74.4983 21.8368L74.6941 21.8726L74.8785 21.9312L75.0578 22.001L75.159 22.1925L75.2664 22.3675L75.5597 22.2751L75.7125 22.3881L75.6807 22.7438L75.9066 22.756L75.9375 23.0135L76.1531 23.0432L76.3994 23.0442L76.4287 23.2926L76.5051 23.4821L76.6984 23.5474L76.9295 23.5793L77.1399 23.638L77.0317 23.9968L77.184 24.1078L77.3205 24.234L77.5748 24.2626L77.5243 24.5448L77.7207 24.6254L77.9967 24.6504L77.8516 24.9902L78.0418 25.0816L78.1354 25.2425L78.3475 25.3252L78.5118 25.4433L78.4322 25.7126L78.5122 25.8804L78.8357 25.9099L78.8842 26.099L78.9473 26.2786L78.9963 26.4643L78.9604 26.6897L79.2624 26.7535L79.1789 26.9975L79.3248 27.1376L79.3794 27.3178L79.281 27.5567L79.532 27.6599L79.3757 27.9139L79.5734 28.0411L79.649 28.212L79.863 28.3417L79.8158 28.5514L79.7253 28.7697L80.058 28.8758L79.9327 29.1002L79.9675 29.2837L79.8572 29.4969L79.8918 29.6778L80.135 29.8222L80.2904 29.9871L80.2169 30.1889L80.3045 30.3667L80.0122 30.5902L80.0814 30.7681L80.3131 30.9337L80.2068 31.1295L80.3071 31.3103L80.139 31.5047L80.1806 31.6882L80.3797 31.871L80.4096 32.0591L80.3251 32.2461L80.4283 32.4366L80.3576 32.6224L80.088 32.7943L80.0642 32.9773L80.3708 33.1896L80.0798 33.3488L79.9959 33.5249L80.1117 33.726L80.0839 33.9098L80.0652 34.095L80.2028 34.3082L80.1466 34.4895L79.9044 34.6318L79.8294 34.805L79.7667 34.9799L79.7894 35.1754L79.7014 35.3439L79.8628 35.5811L79.6389 35.7106L79.5037 35.8628L79.5969 36.0872L79.6008 36.2855V36.4842L79.3475 36.5907L79.4248 36.82L79.2979 36.9714L79.2851 37.1683L79.0443 37.2683L78.9897 37.4471L78.89 37.6062Z" fill="#FDBC43"/>
<path d="M91.6906 76.991C91.4243 79.0982 90.7963 83.8534 90.3952 86.3923C89.794 90.1981 86.4961 93 82.625 93H12.8106C8.4968 93 5 89.5201 5 85.2274L5.00019 77.7599C5.00019 77.7599 15.6827 70.2899 34.2512 78.2842C49.3383 84.7796 59.2959 80.2008 62.4996 78.2554C64.4045 77.0989 66.4152 76.1221 68.5236 75.3943C74.1241 73.4611 83.5624 71.6291 91.6906 76.991Z" fill="#FF8A00"/>
<path d="M92.6628 64.6615C92.6541 62.4988 92.6898 54.8492 91.9643 50.7346C91.7116 49.3018 90.957 48.0047 89.8389 47.0674L57.492 21.9159C55.3914 20.1549 52.3819 19.9676 50.0772 21.4545C41.7604 26.8206 21.9584 39.4174 9.91286 45.5993C6.89856 47.1463 5 50.2331 5 53.6084V68.0727C5 68.0727 17.6034 53.9716 40.3375 66.6782C40.3375 66.6782 50.1475 71.4818 57.7775 66.5232C57.7775 66.5232 77.4085 55.5167 92.6628 64.6615Z" fill="#FF8A00"/>
<path d="M91.9643 50.7346C91.7116 49.3018 90.957 48.0047 89.8389 47.0674L57.492 21.9159C55.3914 20.1549 52.3819 19.9676 50.0772 21.4545C41.7604 26.8206 21.9584 39.4174 9.91286 45.5993C8.40551 46.3729 7.17748 47.5313 6.3261 48.9183L91.9643 50.7346Z" fill="#FDBC43"/>
<path d="M54.802 23.8225C54.802 23.8225 47.6167 13.9787 55.5633 7.56504C57.0658 6.35225 59.0092 5.7793 60.9204 6.07796C63.1315 6.42358 65.5287 7.91512 65.1736 12.8629C65.1736 12.8629 64.9597 16.5869 70.1989 15.6293C75.4381 14.6717 87.4134 15.3763 87.8411 28.6968C87.8411 28.6968 86.9376 34.1099 90.8691 36.8662C91.4121 37.2468 91.9284 37.6655 92.3761 38.1538C93.8654 39.7777 96.5553 44.3807 93.8287 48.8274C89.9795 55.1051 79.385 53.4072 76.4363 47.5255C74.1957 43.0567 73.4114 38.4101 70.8405 31.3771C67.927 23.407 57.2612 27.121 57.2612 27.121L54.802 23.8225Z" fill="#9777C9"/>
<path d="M62.3341 33.6135C59.3901 39.8239 52.3143 42.6574 46.5303 39.9418C40.7462 37.2265 38.4436 29.9906 41.3878 23.7801C44.3318 17.5695 51.4074 14.7362 57.1916 17.4516C62.9757 20.1671 65.2783 27.403 62.3341 33.6135Z" fill="#FF3008"/>
</svg>
