<svg width="60" height="60" fill="none" xmlns="http://www.w3.org/2000/svg"><path d="M44.952 55.96l-.061-.013-.063.046-.061-.045-.062-.052-.062.096-.062-.043-.061-.036-.062.001-.062.076-.062-.031-.062.01-.061-.018-.063.035-.061-.09-.062.014-.062.034-.061.003-.063-.046-.061.045-.062-.038-.062.02-.062.069-.062-.066-.061.016-.062-.005-.062-.07-.062.008-.062.004-.061.081-.062.026-.062-.09-.062.097-.062-.123-.062.071-.062-.024-.061.052-.062-.086-.062.022-.062-.015-.062.095-.062-.104-.062.027-.061.059-.063-.065-.061.062h-.062l-.062-.061-.062.039-.062-.058-.062.015-.062-.018-.062-.008-.061.065-.063.03-.062.004-.061-.022-.063-.015-.061.043-.062-.09-.063.084-.061-.102-.062.015-.062.101-.062-.002-.062-.061-.062-.026-.062.018-.062-.036-.062.073-.062-.03-.062.034-.063-.083-.061.1-.062-.089-.063.03-.062-.03-.062.09-.062.004-.062.01-.062-.056-.062-.02-.062.002-.063.08-.062-.03-.061-.032-.063-.057-.062.079-.062-.026-.062.036-.063-.087-.062-.007-.062.06-.062-.015-.062-.036-.063-.011-.062.006-.062.107-.062-.058-.063.016-.061.026-.062.007-.063-.037-.062.046-.062-.051-.062-.01-.062-.033-.062.096-.062-.097-.062.024-.062.04-.062-.044-.062.029-.063-.05-.061.03-.062-.028-.063.098-.061-.03-.062.016-.063-.071-.062.092-.061-.009-.063-.054h-.123l-.063.01-.062.05-.061-.097-.063.01-.061-.023-.062.022-.063.08-.061-.09-.062-.014-.063.005-.061.012-.062.009-.062.08-.062.008-.062-.04-.062-.075-.062.074-.062-.047-.062.067-.062-.084-.062-.011-.062.068-.062-.01-.062.042-.062-.03-.062-.069-.062.02-.062.012h-.062l-.062.01-.062-.017-.062.082-.062-.045-.061.04-.063-.03-.062.006-.061-.03-.063-.019-.062-.017-.061.053-.063-.067-.062.093-.061-.032-.063.028-.062.024-.062-.038-.062.023-.062-.053-.062-.016-.062.089-.062-.095-.062-.013-.062.021-.063.079-.062-.008-.061-.029-.063-.08-.062.123-.062-.04-.062-.083-.062-.001-.063.09-.062-.086-.062.082-.062-.029-.062-.048-.062.098-.062-.016-.062.035-.063-.038-.063-.068-.062.098-.062-.05-.062-.056-.062.001-.063.054-.062.043-.062-.002-.062-.045-.062-.002-.062.059-.062.002-.063-.01-.062-.04-.062.022-.062-.003-.062.018-.063-.091-.061.074-.062-.02-.063.054-.062-.027-.062-.023-.062.024-.062-.062-.062.023-.062.004-.063.04-.061-.01-.062-.09-.063.043-.062-.041-.062.056-.061.06-.063-.072-.062.04-.062-.016-.062-.015-.062.021-.062.012-.062-.01-.062-.04-.062.014-.062.004-.063-.019-.062.053-.061.016-.063.004-.062-.102-.062-.009-.062.09-.062-.09-.062.005-.062.073-.062-.031-.063.022-.062-.007-.061.036-.063-.083-.062.03-.062.04-.062-.005-.063.041-.062-.046-.062.015-.062-.062-.062.068-.063-.065-.062-.03-.062.093-.062.018-.063.01-.062-.1-.062.084-.062-.006-.062.005-.063-.023-.062-.049-.062.075-.062.01-.063-.106-.062.08-.062-.069-.062.044-.062-.044-.063.092-.062-.07-.062.02-.062-.062-.062.105-.063.013-.062-.115-.062.05-.062.044-.062-.003-.062-.09-.062.031-.063-.027-.062.1-.062-.053-.062.063-.062-.013-.062.011-.062-.013-.062.017-.063-.039-.062-.064-.062.026-.062-.008-.063-.026-.062.06-.062.032-.061-.066-.063.021-.062.001-.062-.022-.062-.033-.063.02-.062-.006-.062.065-.062-.066-.063.074-.062-.008-.063-.057-.062-.007-.062-.018-.062.055-.062.031-.063-.008-.062.002-.062-.067-.062-.01-.063.022-.062.036-.062.029-.062-.085-.062.077-.063-.056-.062.083-.062-.056-.062-.035-.063.03-.062.013-.062-.056-.062-.007-.062.029-.063-.026-.062.07-.062.02-.062-.045-.062-.045-.063.061-.062-.063-.062.026-.062-.007-.063.01-.062.022-.062-.032-.062.022-.062-.009-.063.089-.062-.025-.062-.088-.063.09-.062-.084-.061.075-.062.019-.062.015-.062-.008-.062-.022-.062-.047-.061.006-.063.009-.061.014-.062.021-.063-.004-.061-.04-.062.05-.062-.04-.062.017-.062.013-.063-.014-.061.038-.062-.104-.063.078-.062.028-.062-.055-.062-.001-.063-.044-.062.02-.062.008-.062-.035-.063.044-.062-.043-.063.042-.062-.004-.062-.006-.062.053-.062-.024-.063-.03-.062-.016-.062-.006-.062.014-.062.06-.063.025-.062-.062-.062-.038-.062.027-.062.04-.062.006-.062-.012-.063.013-.061.023-.062-.075-.063.008-.062-.046-.061.022-.063.002-.062.084-.062-.057-.062.043-.062.01-.062-.084-.062-.02-.062.018-.063-.005-.062-.012-.062.094-.062-.097-.063.03-.062.073-.063-.033-.062-.066-.063.034-.062.01-.062.06-.062-.034-.063-.075-.062.02-.063-.005-.062.092-.062-.062-.062.008-.063-.02-.062.046-.062-.048-.062.062-.062-.037-.063-.007-.062-.015-.062.048-.062-.016-.062-.064-.063.051-.062-.042-.063.045-.062-.035-.062-.01-.062.112-.063-.03-.063-.012-.062-.078-.063.016-.062.044-.062.03-.063-.003-.062-.008-.062-.052-.063.092-.062-.053-.062.045-.063-.034-.062.026h-.062l-.063.015-.062-.05H15.7l-.062-.024-.063.058-.062.017-.062-.113-.063-.006-.062.039-.062-.009-.063-.016-.063-.017h-.062l-.062.032-.063.006-.062-.042-.062.048-.063-.026-.062-.005-.063.019-.062.072-.063-.03-.063-.007-.062.02-.062-.072-.062.038-.062.062-.063-.03-.062-.073-.062-.007-.062.059-.062-.063-.063.058-.063-.057-.062.106-.063-.111-.062.03-.062.071-.063.023-.062-.096-.062.051-.063-.052-.062.064-.063.016-.063-.034-.062.045-.063-.067-.062.026-.063-.005-.062.054-.063-.025-.062-.056-.063.046-.063.007-.062-.023-.063-.026-.063-.036-.062.108-.063-.023-.063-.066-.062-.003-.063-.015-.062.066-.063.001-.063-.028-.062-.039-.063-.013-.063.084-.062-.066-.063.06-.063.002-.063-.04-.063-.002-.063.074-.063-.023-.062-.044-.065.075-.057-.082-.058-.036-.067.04-.052-.065-.06-.005-.067.02-.048-.06-.07.026-.065.003-.079.035-.046-.056-.072.011-.027-.095-.047-.044-.067-.004-.049-.037-.032-.066-.107.056-.002-.11-.065-.012-.042-.046-.108.036.016-.115-.067-.018-.066-.02-.036-.053-.044-.044-.017-.067-.09-.007-.003-.077-.025-.058-.004-.071-.029-.053-.033-.05-.021-.058-.08-.028-.03-.053-.078-.034.071-.097-.109-.024-.009-.064.009-.068.03-.072-.02-.058-.019-.058-.017-.059-.042-.056.046-.067-.057-.056-.022-.06-.008-.063-.03-.062.004-.063.111-.058-.09-.068.017-.06-.01-.063.068-.058.017-.06.032-.06-.104-.069.107-.055-.002-.062-.069-.066.064-.058-.087-.069.069-.056-.033-.064.059-.059.017-.06.004-.062-.008-.063.01-.06-.015-.063-.008-.063-.023-.064.044-.058-.035-.065.029-.06.054-.058.017-.061-.082-.067.031-.06.047-.06-.062-.065.084-.056-.092-.069.102-.054-.024-.064.027-.06-.105-.07.065-.057.01-.061.002-.062-.03-.064-.002-.062.076-.057-.09-.068.063-.057-.014-.063.037-.06-.067-.066.053-.059-.052-.065.02-.06.1-.056-.075-.066.073-.057-.01-.063.018-.06.012-.062-.008-.062.002-.062.01-.061.006-.062-.097-.068.126-.053.002-.062-.105-.07.08-.056-.069-.067.101-.055-.028-.064.03-.06-.01-.062.001-.062-.068-.067.084-.056.015-.06-.032-.065-.056-.066.08-.056-.06-.066.046-.06.062-.057-.004-.062-.01-.063-.021-.063-.06-.066.03-.06.005-.062.079-.057-.075-.067.075-.057-.042-.064.012-.062.014-.061-.017-.064.007-.061-.002-.062.077-.057.013-.06.002-.063-.067-.067-.05-.065.03-.06.088-.057-.071-.066.03-.06-.024-.064.001-.062.004-.062.072-.057.017-.061-.082-.069.014-.06-.014-.064.043-.06.008-.06-.048-.066.01-.062.054-.058.021-.06.016-.062-.076-.067.07-.058-.059-.067.017-.06.03-.06.033-.061-.069-.067.031-.06.029-.06.041-.06-.038-.065.02-.06-.054-.066.12-.055-.09-.068.09-.056-.094-.069.067-.057.035-.06.021-.06-.087-.07.035-.059.01-.061-.04-.065.056-.058-.053-.066.051-.06.04-.059-.007-.062-.08-.068.11-.054-.088-.068.047-.06-.048-.065.03-.06.068-.057-.079-.068.002-.062.012-.06.006-.063-.013-.063.001-.061.119-.055-.094-.068.082-.057-.081-.067-.003-.063.085-.056-.003-.062.048-.059.01-.061-.029-.064-.015-.063-.066-.067.014-.061.09-.056-.001-.062.037-.06-.018-.063-.043-.065.026-.06-.002-.063-.024-.063.055-.058-.039-.065.04-.06-.069-.067.026-.06.082-.056-.072-.067-.01-.063.038-.06.078-.056-.064-.067.02-.06-.004-.063-.017-.063.032-.06-.005-.062-.015-.064-.021-.064.08-.056-.038-.064.02-.061.047-.059-.017-.063v-.062l.043-.06-.052-.066-.053-.066.067-.057.016-.06v-.063l-.039-.065-.013-.063.043-.06-.003-.062.08-.056-.117-.07.094-.056.023-.061-.072-.067.005-.062.07-.058-.077-.068.103-.055.003-.062-.004-.062-.06-.067-.02-.063.081-.057-.054-.066.06-.058.022-.062-.057-.066.02-.06.005-.062.015-.062.055-.059-.07-.066.051-.06-.094-.068.072-.057-.034-.065.079-.057-.044-.065.006-.062.067-.057-.014-.064-.095-.068.008-.062.044-.06.043-.059-.063-.066.092-.056-.01-.063-.063-.066.061-.058.04-.06-.052-.066-.003-.062.013-.061.066-.058-.057-.066-.052-.066.065-.057.022-.06.042-.06-.094-.069.073-.057.022-.06-.06-.067.086-.056-.033-.065.037-.06-.108-.07.062-.057-.052-.066.043-.059.017-.06.029-.06-.057-.067.064-.058-.02-.064.068-.057-.022-.064-.095-.069.028-.06.036-.06-.03-.064.11-.054-.015-.064-.044-.065.073-.058-.098-.069.03-.06.016-.061-.031-.065.026-.06-.028-.065.076-.056.022-.061.022-.061-.046-.066-.026-.064.008-.062.02-.06-.04-.066.018-.06-.015-.064-.006-.063.115-.054-.009-.063-.07-.068.075-.056-.04-.066.046-.059.018-.06-.1-.07.105-.055.022-.06-.063-.067-.042-.066.052-.058.026-.06.053-.059-.052-.066-.042-.065.003-.062.088-.056-.072-.068.036-.059-.05-.066.069-.058.06-.058-.063-.066.042-.06-.017-.063-.037-.065.033-.06.032-.06-.066-.066.033-.06.024-.061.007-.062-.063-.067.09-.056-.007-.063-.063-.066.109-.055-.109-.07.102-.055-.034-.065.026-.06-.013-.064.051-.059-.088-.068.057-.059.06-.058-.056-.066.054-.059-.044-.065-.027-.065.03-.06.013-.061-.022-.064.031-.06-.068-.067.116-.054-.07-.067.085-.057-.08-.068.077-.057.006-.061-.04-.066.001-.062-.03-.065-.009-.062.036-.06.042-.06-.023-.063-.006-.063-.02-.064.095-.055-.033-.065-.012-.063-.028-.065.092-.056-.017-.063.01-.062-.019-.063.03-.061-.06-.067.092-.055-.094-.069.08-.057-.005-.062-.01-.062-.029-.064.065-.058-.094-.068.094-.056-.024-.063.034-.06.011-.061-.027-.064-.022-.064-.003-.062.051-.059-.063-.067-.007-.062.02-.061.027-.06.018-.06.013-.062-.003-.063v-.062l.048-.06-.041-.064-.02-.064-.022-.064.05-.059-.011-.063.074-.058-.03-.064.058-.059.007-.062-.115-.07.021-.06.033-.061.067-.058-.108-.07.05-.058.03-.06.013-.062-.043-.065-.027-.064.074-.057.049-.059-.084-.067.045-.06-.037-.064.054-.059.047-.059-.03-.064-.045-.065-.007-.063.05-.059.058-.058-.005-.062.014-.062-.014-.063-.09-.068.004-.063.118-.054-.106-.069.078-.057.016-.061-.076-.068-.007-.063.113-.055-.01-.062-.002-.063-.038-.065.03-.061.014-.061-.053-.067.004-.061-.019-.064.117-.055-.108-.07V24.5l.026-.06.076-.058-.061-.067.07-.056-.04-.066.05-.058-.069-.068.067-.057.028-.061-.051-.066-.039-.065.075-.057-.062-.067.042-.06.03-.06.03-.06-.047-.066-.048-.066.099-.055.004-.062-.086-.069.078-.058-.015-.063-.006-.063-.005-.062.023-.062.06-.058-.079-.068.073-.056-.015-.064.02-.061-.079-.068.081-.057-.019-.064.031-.06-.012-.064.037-.06-.017-.064-.01-.063-.065-.067.063-.058-.008-.063.025-.06.035-.06-.02-.065.021-.06-.076-.069.067-.058-.046-.066.06-.058-.048-.066-.018-.064.121-.054-.043-.065-.002-.063.049-.06-.02-.063-.022-.064.006-.062.054-.058-.085-.068.032-.06.055-.059-.042-.065.056-.059-.026-.064-.043-.066.032-.06.003-.063.03-.06-.044-.066.017-.061.078-.057-.108-.07.06-.059-.006-.062-.036-.065.02-.062.008-.062.064-.058-.069-.068.099-.056-.043-.065-.053-.066.024-.062.005-.062.029-.06.008-.063.04-.06.014-.062-.031-.064.053-.06-.035-.065.048-.059-.109-.07.08-.057-.062-.067.05-.06.003-.063.006-.062.057-.06-.093-.068.02-.062-.026-.064.005-.063.018-.062.068-.059.03-.06-.027-.064.059-.054.002-.062-.093-.081.025-.06.045-.054-.029-.073.135-.024-.021-.072.058-.045-.026-.076-.011-.073.005-.067.099-.022.046-.046-.056-.101.07-.032.057-.038-.002-.076.09-.014.032-.053.05-.038v-.08l.072-.02-.034-.113.075-.016.044-.045.091.005-.014-.106.073-.012.003-.094.073-.01.026-.07.109.042.05-.037.004-.106.1.04.01-.104.087.027.076.012.012-.116.096.059.025-.1.044-.06.065-.01.09.07.057-.021.043-.075.064-.007.073.042.048-.078.07.047.061-.011.052-.097.063-.008.07.106.059-.098.063.067.062-.002h.062l.062.033.061-.023.062-.054.062.009.062.052.062-.044.061.026.063.028.061-.073.062.007.062.034.062-.022.062-.034.061.01.062-.027.062-.004.062.117.062-.086h.061l.062.054.062-.03.062.035.062.016.062.002.061-.02.062-.039.062-.041.062-.009.062.06.061.055.063-.007.061-.068.062.082.062-.078.062.031h.062l.062-.019.061.017.062-.037.062-.03.062.098.062-.002.062.012h.062l.061-.11.063.108.061-.09.062.016.063.014.061-.007.062.022.062-.04.062.061.062-.056.062.042.061-.07.063-.003.062.097.061-.073.063.066.062-.014.061.04.063-.015.062-.02.061-.073.063.046.062-.009.061.028.063.015.062-.017.062-.027.062.073.062-.115.062.053.062.031.063.015.061-.046.062.012.063.054.062-.08.062-.033.062.097.063-.06.062-.03.061.048.063-.024.062-.015.062.082.062-.003.062-.064.063.013.062.019.062-.032.062.013.063-.017.062-.041.062.092.062-.042.062.038.062-.075.062.059.062.02.063-.022.061-.03.062.017.063.024.062.02.062.01.062-.07.062.07.062-.02.062-.057.062-.004.062.066.062-.089.062.09.062-.035.062.016.062-.028.062.008.062.06.062-.04.062-.049.062.008.062.048.062.039.062-.108.062.012.062.09.062-.004.062.008.062-.002.062-.103.062-.01.062.045.062.026.062-.057.061-.021.063.042.062.052.061-.003.063-.061.061.046.062.018.063.008.061-.047.062-.025.063.017.061-.002.062.03.062.012.062-.018.063.036.061-.053.062.016.063.009.061.023.062.007.063.017.061-.017.062-.034.063-.072.061.017.062-.015.063.108.061-.036h.062l.063.036.062-.096.061.063.063-.072.062.027.062.094.061-.002.063-.014.062-.1.062.052.062.022.062-.072.062.05.062-.043.063.067h.062l.062-.03.062.045.063.023.062-.027.062-.048.062-.031.062.018.063.032.062.054.062-.095.062-.004.062.061.063-.035.062-.003.062-.035.062.067.063.012.062.029.062-.014.062-.095.062.036.062.04.062-.06.062.064.063-.064.062.068.062-.027.062-.027.062.048.062-.073.062-.005.063.111.062-.11.061.095h.125l.062-.025.062-.026.062-.007.062.015.062-.03.062-.013h.062l.062.031.062-.033.063.042.062-.03.061-.024.063.04.062.073.062-.073.062-.037.062-.002.062.068.062.045.063-.087.061.043.062.012.063-.03.062.068.062-.046.062.01.062.024.062-.116.062.002.062.079.063.032.061-.102.062.04.063.016.062-.065.062.063.062-.056.062.044.063-.047.062.087.062-.027.062-.031.063.03.062-.012.062.03.062-.06.062.014.063-.022.063.046.062.027.062.038.062-.039.062-.042.063-.018h.062l.062.065.062-.085.062.069.062.053.062-.087.062-.002.063.035.062-.03h.062l.062.057.063-.039.062.056.062-.102.062.014.062.053.062-.05.062.02.062.045.063-.099.062.025.062-.008.062.104.062-.064.062.072.062-.033.063.002.062-.076.062.104.062.002.062-.113.063.095.062.006.062-.05.062.038.062-.024.062-.062.063.03.062.039.062.02.063-.005.062.017.062-.106.062.073.062.004.063.036.062-.093.062.01.062.034.063.024.062-.06.063-.017.062.04.062.022.062-.053.063-.005.062.003.062-.03.062.03.062.03.062-.004.062-.018.062-.014.063.096.062.007.062-.007.062-.014.062.014.063-.002.062-.047.062-.02.062-.021.063-.01.062.05.062.013.062-.01.062.024.063-.025.062-.05.062.058.062-.055.063.047.062.01.062-.015.062-.012.062-.002.062-.03.062.067.061-.078.062.037.062-.014.062-.003.062.062.062-.016.062-.022.062.002.062-.024.062.09.062-.105.062.089.062-.007.062-.065.062.014.062-.003.062.042.063-.027.062.05.062.015.062-.077.062.002.063.033.063-.036.062.018.062-.067.062.04.062.082.063-.012.062-.011.063.02.062-.01.061-.106.063.108.062-.064.062-.002.062-.039.063.112.062-.08.061-.017.063.095.062-.11.062.112.062-.004.062-.114.062.118.062-.102.062.048.062-.063.062.053.062-.017.063.074.062-.019.062.035h.062l.062-.1.062.024.062.05.063-.098.062.076.063-.019.062-.052.062.022.062.006.063.065.062.01.063-.1.062.1.063-.055.062-.031.062.085.062-.045.063-.017.062-.031.062.026.062.066.062-.017.063.008.062-.013.062-.004.062-.076.063.062.062-.001.062-.017.062.038.063.008.062.03.062-.072.063.072.063-.117.062.06.062.047.063-.011.062-.025.062-.016.063-.015.062.015.063-.026.062-.028h.062l.062.088.063-.052.062.047.063-.01.062-.019.062.013.063.015.062-.006.062.026.063-.092.062.072.063-.023.062-.054.063.042.062-.02.063-.038.062.015h.124l.063-.009.063.094.062-.035.063.027.062-.04.063-.012.062.054.063-.005.062-.057.062.05.063-.012.062-.052.062.052.062.029.062-.057.062-.019.063.042.062-.002.062-.022.063.022.062.013.063-.036.062.005.063.021.062.015.063.03.062-.074.062.016.063-.014.062.045.063-.025.062-.007.063.056.062-.027.063-.059.062.045.063.05.062-.096.063.059.063-.033.062.038.063-.083.063.054.062-.044.063.112.063-.122.063.121.062-.118.062.08.063.022.063-.025.062-.064.063-.017.063.086.063-.015.063.046.063-.11.063.021.062.051.064.018.063-.08.06.084.066-.08.06.048.064-.024.054.07.063-.004.051.055.074-.055.06.016.058.023.053.037.08-.045.031.098.081-.038.024.099.089-.045.019.1.106-.067.012.102.072.002.054.03.057.029.055.03.025.068.056.03h.084l.013.078.011.075.058.03.048.04.053.036.013.069.01.068.073.024.021.059.044.045.012.064-.007.072.107.016.023.058.042.051-.038.081.052.047-.054.081.083.04-.04.073.046.052-.008.063.01.06.039.057.04.058-.08.068.069.058-.035.062.015.061.06.064.007.064-.117.054-.015.061.09.068-.043.06.012.062.014.063-.093.056.116.07-.1.054.025.064.008.063.026.064-.055.058-.003.062-.04.06-.014.06.104.069-.096.056.093.068-.099.055.043.065.006.062-.05.058.008.063.068.067-.034.06-.076.056.05.065-.01.062-.052.058.01.063.02.063.024.063-.003.062-.083.057.091.068-.03.06-.047.059-.005.06.042.066.005.061-.064.058-.007.061.006.063.007.062.033.065-.081.056.046.065.053.066-.114.054.098.068.002.063-.086.056.042.064-.058.059.039.064-.001.062-.078.056.033.064.045.066-.073.057-.015.06.025.064.078.068-.049.058-.033.06-.024.06-.008.061-.006.062-.016.06.037.065-.017.06.056.067-.002.062-.078.056.017.063.03.064-.067.058.07.067-.005.06-.05.06.047.065-.047.059-.037.06-.013.06-.012.062.018.063-.037.06.088.067.013.064-.072.056.044.066-.028.06-.045.059.03.063.01.063.021.064-.07.057.016.063.054.066-.073.057.046.066-.037.059-.03.06-.013.061.031.065-.005.061-.053.06.014.062.008.063.071.067-.06.058-.042.06-.008.061.048.066-.055.058.03.064.002.063-.035.06-.034.06.069.067.02.064-.068.057-.044.059.052.066-.002.063-.057.058.07.067-.063.057.093.07-.099.054.075.068-.015.061.002.063-.061.058.079.067-.021.061-.096.056.004.062-.005.062.071.067-.03.06-.037.06.033.065-.04.059.02.064-.023.06.03.064-.075.057.038.065-.055.058.018.063.05.066.026.064-.042.06.007.062-.051.059.044.065-.084.056.053.066.026.063-.057.058-.005.063.03.064-.025.06.02.064-.01.061.048.065-.06.059.045.065-.01.06-.11.055.039.065-.035.06.021.063-.036.06.083.068-.038.06-.032.059-.042.06.056.065-.038.06-.029.06.015.063-.008.06.037.066.035.064-.051.059-.055.058.071.067-.038.06.057.066-.046.059.044.065v.062l-.057.058-.048.059.056.066-.007.061-.074.057.012.063.035.065-.03.06.054.066v.062l-.066.058-.01.061-.02.06.052.067-.044.059-.026.06.034.064.016.064-.048.06.044.064.024.064-.03.06-.026.06.05.066-.03.06-.081.057.106.07-.054.058-.03.06.019.064-.024.06-.009.063.014.062-.05.06-.01.061.067.068-.065.057.07.067.013.064-.05.058-.073.058.019.063-.01.062-.016.061v.062l.088.069-.072.057.06.066-.03.06.026.065-.028.06.016.063-.094.056.041.065-.057.058-.005.062.05.066-.007.062-.035.06-.022.06.115.07-.016.061-.114.054.024.064-.023.061-.008.062.004.062.057.066-.041.06-.029.06.041.064.05.066-.101.055.013.064.038.064-.024.061-.02.06.014.064-.014.06.017.064.035.065-.094.055.038.066-.016.06-.043.06-.01.061.09.069-.015.06-.043.06.013.063.03.064-.113.055.093.069-.016.06-.032.06.012.064v.062l-.051.059.072.067-.074.058.059.066-.057.058-.031.06-.016.062.02.063.015.064.035.065-.08.056.058.067.022.064-.106.055.008.063.039.065-.03.06.085.068-.103.055.006.063-.028.06.098.07-.02.06-.101.055.066.068-.043.06.01.062.065.066-.12.055.076.067-.022.06.044.066-.06.058-.039.06-.002.062.09.068-.062.058-.044.06.093.068-.122.054.041.065-.021.061.012.063.039.065.027.064-.016.061-.08.057-.038.06.01.062.091.069-.05.059.056.066-.13.053.082.068-.068.058-.002.062.098.07-.034.059.019.064-.02.061-.094.056-.015.061.063.067-.016.061-.063.059-.002.061.073.068-.051.059.025.064-.051.058.063.068.004.062-.037.06.053.066-.084.056.024.064-.069.057.119.072-.114.054.095.068-.078.057-.04.06.058.066.035.065-.068.057-.046.06.028.064.042.065.034.065-.063.058-.044.059-.023.06.014.064.034.064v.063l.008.063.025.064-.086.057.062.066-.027.061-.005.062-.056.058.074.067-.047.059.022.063-.031.06.054.066-.088.056.006.062.082.068-.114.054.003.063-.024.06.032.064-.004.062.041.065.01.063-.076.056.059.066-.01.063-.084.056.06.066-.022.06-.03.061.022.063-.035.06.024.065-.04.06.013.062.01.064-.016.061.033.065.01.063-.013.062.035.064-.03.06-.075.058.003.063.06.065-.095.057.121.07-.038.06.02.064-.057.058.038.064-.086.057.036.064-.029.06.064.067-.002.062-.077.057-.014.061.025.064.054.066-.032.06-.071.057-.019.06.086.07-.033.059-.004.062-.05.059-.018.061.11.07-.086.056-.04.06.04.065-.033.06.09.069-.114.055.092.068-.066.058-.002.063-.001.062.025.065-.017.06-.039.06.09.069-.088.056.05.066.021.064-.09.056-.028.06.02.064-.04.06.11.07-.054.058.047.066.003.063-.07.057-.022.06.03.065-.074.057.01.064.094.069-.09.055-.031.061.104.07-.008.062.002.063-.12.054.096.07-.035.06.053.065-.028.06-.007.063-.058.058-.031.06.026.064-.035.06-.007.062.017.064.053.066-.005.062-.056.06-.04.059.02.064.037.065-.062.058.067.067v.063l.02.064-.086.056.014.064v.062l-.053.059.018.064.005.063.083.068-.087.057.026.064.002.063-.009.062-.042.06.045.065-.004.062-.08.058.054.066-.054.058.026.064.024.064-.002.062-.087.056.036.065-.026.061.102.07-.062.058-.019.062.066.067-.093.055.027.065-.01.061.03.065.001.063-.04.06-.04.06.001.062.026.065-.018.061-.033.06.06.067.001.063-.004.062-.06.059.086.068-.109.056.026.064-.02.061-.02.062-.018.062.063.066-.07.059.019.064-.01.062-.006.062.056.066v.064l-.002.062.022.064-.08.058.042.066-.06.059-.003.062.02.064.001.064-.01.062-.03.061.02.064.016.065-.028.06.005.063-.01.062-.002.064-.074.046.047.078-.111.03-.009.062.023.074.019.074-.074.038-.068.036.056.095-.046.048-.064.036-.033.052-.038.049.042.101-.13-.012-.025.057.032.102-.094.004-.05.04.018.097-.076.016.008.095-.071.018-.046.043-.072.014-.057.028.002.102-.092-.016-.03.063-.097-.03-.038.055-.004.11-.097-.041-.035.066-.075-.01-.04.059-.046.05-.053.037-.082-.034-.035.086-.056.031-.077-.034h-.065l-.064-.001-.055.037-.067-.02-.047.095-.073-.066-.051.102-.069-.048-.063-.019-.064-.046-.06.088z" fill="#9777C9"/><path d="M23.344 15.508l.061-.015.063.032.061.072.062-.093.063.052.062.03.062-.051.062.016.062-.02.062.058.062.011.062-.11.063.118.062-.025.061-.03.063-.018.062.05.062-.002.062-.026.062-.022.062.002.062.008.062.03.062-.007.062-.061.062.06.062-.047.062-.007.063.023.061.023.062.051.063.002.061-.033.062-.048.063.042.062-.021.061.034.063.007.062-.08.062-.009.062.057.062-.034.062-.02.062.089.062-.105.062.003.062.105.062.007.063-.013.062-.073.062.07h.062l.063.027.062-.016.062-.103h.062l.062.095.062.017.062-.028.062-.056.063.07.062-.047.062-.035.062-.01.062.11.062-.01.062-.012.063.011.062-.049.061-.056.063.077.062.035.062-.02.061-.004.063-.01.062.01.062-.03.062-.01.062-.022.062.007.062.01.063.048.062-.064.062.057.062-.075.062.006.062.084.062-.054h.063l.062-.054.062.077.061-.063.063.105.061-.006.062-.093.061.1.063-.107.061.04.062.064.062-.066.062.025.061-.052.062.03.062-.012.062-.037.062.11.062-.071.061.068.063-.063.061.05.063.03.062-.016.061-.1.063.005.062.087.062-.101.062.086.062-.075.063.053.062-.002.062.037.062-.052h.063l.062.075.062-.109.062.007.062.036.062.017.062.048.062-.118.063.117.061-.043.062.036.063.01.061-.005.062-.039.063.041.061-.1.062.015.063.058.061-.012.062-.08.062.006.062.09.062-.093.062.103.062-.041.062.058.062-.05.062.002.062-.01.062-.046.062.024.062.01.063.068.062-.036.062-.081.062-.006.063.078.062-.037.062-.042.062.09.062-.054.063.04.062-.019.062.012.062.006.062-.052.063.074.062.006.062-.091.062.042.063.007.062-.001h.061l.063-.033.062-.026.062.019.062.1.062-.069.063.061.062-.001.061-.09.063.01.063-.01.062.003.062.044h.062l.062-.016.063-.021.062.096.063-.087.062-.005.062.09.062-.055.063.035.062-.065.062-.022.062.05.062-.033.063-.001.062.053.062-.006.062-.028.063-.041.062.06.063.046.062-.074.062-.003.062-.039.063.11.062-.046.063.02.062-.053.062.03.062-.001.062.04.063-.05.063.031.062-.054.062.093.062-.002.063-.025.062-.006.062-.036.063-.032.062.077.062-.06.062.05.062-.05.062.063.062-.08.062.094.062-.06.062-.042.063.075.062.02.063-.11.063.007.062.034.062.078.062-.103.062.053.063-.063.062.025.063.024.062.005.063.024.062-.02.062.014.063-.051.062-.026.063.072.062-.022.063.07.062-.046.063.01.063-.041.062-.004.063.022.062.046.063-.013.062-.064.063-.02.062.074.062-.032.063-.038.063.075.062-.072.063.068.063-.045.062-.016.063.017.063.07.063-.057.063-.034.067.092.04-.11.089.067.039-.075.04-.07.098.09.036-.083.062-.01.045-.058.053-.036.072.014.04-.067.095.073.03-.094.087.051.03-.091.05-.041.07.007.069.002.04-.067.053-.032.083.04.051-.04.047-.047.066-.004.067-.002.023-.105.06-.017.088.049.04-.064.062-.013.062-.014.08.03.034-.077.047-.048.064-.006.073.01.032-.079.086.042.058-.024.06-.018.046-.045.06-.017.015-.117.067-.001.056-.028.062-.013.035-.07.053-.032.076.015.056-.026.076.014.045-.049.08.022.036-.066.077.014.029-.08.048-.043.047-.044.095.05.04-.058.04-.058.077.013.025-.085.046-.047.098.054.027-.08.066-.01.072.003.033-.069.061-.017h.071l.004-.123.083.022.084.025.048-.043.014-.102.092.037.032-.07.07-.002.013-.103.057-.025.047-.043.102.052.046-.045.065-.011.066-.013.02-.086.083.016.014-.097.033-.065.105.053.04-.055.051-.035.079.008.052-.034.043-.048.03-.07.035-.06.045-.044.088.022.053-.034.054-.032.026-.072.068-.012.028-.068.034-.061.066-.014.038-.053.092.023.055-.031.043-.047.08.006-.005-.114.092.02.024-.072.082.006.02-.076.061-.025.019-.077.075-.004.036-.056.04-.05.086.008.029-.064.029-.063.111.038.025-.068.062-.024v-.097l.038-.05.11.033.013-.082.006-.087.12.041-.03-.126.044-.044.093.01.025-.064.033-.057.035-.052.071-.016.022-.067.068-.019.046-.042.053-.036.061-.026.052-.038-.021-.105.11.018.031-.057.06-.03-.024-.104.058-.032.05-.039.045-.044.054-.036-.002-.082.018-.065.136.028.039-.05-.053-.118.041-.046.067-.028.006-.072.059-.034.009-.07.111.001.023-.06.055-.04.036-.051-.002-.074-.034-.093.07-.03.01-.065.057-.04.005-.067.112-.012.001-.07.045-.047.041-.05-.027-.082.072-.036.008-.065.042-.05-.013-.073-.02-.074.005-.063.04-.052.026-.056.06-.046.032-.057-.075-.084.015-.06.005-.061.035-.055.105-.042-.086-.08.078-.049-.036-.068.005-.062V8.1l.083-.053-.039-.066-.01-.063.057-.06-.004-.062-.034-.063-.01-.062.058-.063-.03-.062.004-.062-.008-.062-.093-.054.028-.065.04-.067.014-.065-.04-.057-.081-.048.052-.073-.062-.05-.023-.057.097-.088-.05-.052-.082-.041.04-.076-.038-.054.006-.068-.008-.064-.038-.052-.075-.038.002-.068-.032-.053-.003-.067.005-.07-.047-.048-.093-.023.007-.073.023-.083-.045-.047-.004-.07-.06-.038-.102-.008-.013-.065.035-.1-.101-.004-.065-.028.024-.097-.103.004.042-.117-.035-.053-.087-.005-.048-.04-.039-.048-.08-.005-.004-.086-.067-.018-.047-.04-.065-.017-.023-.07-.054-.03-.014-.087-.058-.027-.063-.018-.05-.036-.089.026-.03-.071-.027-.079-.068-.006-.059-.021-.04-.062-.063-.013-.047-.048-.098.072-.043-.06-.056-.026-.076.031-.05-.043-.035-.097-.076.037-.047-.06-.077.045-.04-.097-.068.014-.055-.038-.076.057-.056-.037-.059-.024-.064.006-.056-.043-.074.078-.053-.077h-.063l-.066.042-.059-.035-.06-.023-.06-.028-.067.065-.062.01-.06-.101-.063.08-.061-.047-.063-.003-.062-.014-.062.022-.06.07-.062.004-.063-.022-.06.037-.064-.041-.066-.053-.055.09-.066-.037-.055.066-.061.002-.063-.002-.063-.002-.065-.019-.063-.003-.052.069-.066-.02-.06.009-.076-.074-.04.131-.072-.047-.06.018-.055.037-.055.043-.086-.109-.06.017-.046.079-.07-.025h-.064l-.054.042-.054.037-.06.013-.057.028-.073-.034-.04.086-.074-.031-.054.037-.079-.05-.032.11-.068-.013-.066-.004-.049.05-.044.066-.078-.042-.054.036-.083-.053-.028.11-.05.044-.095-.081-.063.009-.042.064-.065.002-.033.09-.068-.005-.084-.045-.035.08-.035.081-.1-.083-.026.1-.088-.05-.043.06-.03.086-.084-.039-.066.002-.042.06-.053.034-.072-.011-.032.083-.062.011-.09-.046-.046.048-.035.072-.077-.019-.063.013-.028.086-.063.01-.03.082-.11-.085-.018.103-.06.02-.073-.009-.03.078-.098-.054-.012.112-.085-.029-.015.105-.055.028-.077-.012-.033.07h-.07l-.078-.013-.018.096-.075-.007-.047.042-.09-.034-.014.103-.065.01-.062.018-.044.047-.087-.027-.021.088-.089-.028-.017.093-.05.038-.055.027-.038.058h-.146l-.026.076-.04.053-.095-.035-.025.077-.048.04-.09-.026-.05.038-.05.037-.04.053-.075-.002-.003.108-.077-.004-.035.06-.07.008-.054.031-.017.085-.044.047-.093-.028-.054.032-.004.104-.118-.062.009.122-.049.038-.091-.022-.012.09-.08-.005-.06.022-.043.048-.04.048-.044.046h-.077v.105l-.071.008-.032.06-.045.045-.112-.048-.018.08-.071.009-.056.028-.04.05-.072.01.003.104-.072.01-.023.07-.043.047-.059.024-.085-.006-.04.047-.04.05-.067.016-.014.082-.063.021-.056.03-.003.094-.064.02-.032.058-.07.013-.08.002-.003.092-.063.022-.07.013-.04.05-.01.083-.116-.04.006.103-.094-.015-.03.06-.069.016-.027.064-.061.025.001.095-.031.058-.074.01-.018.074-.071.012-.016.075-.115-.033.01.103-.076.008-.013.078-.084.001-.013.077-.094-.01-.037.052-.007.083-.074.012-.016.074-.105-.02-.01.08-.032.056-.016.072-.108-.021-.061.026.024.114-.088-.003-.076.013.019.107-.05.038-.078.01-.002.085-.103-.015-.016.072-.041.047-.019.069-.048.04-.012.074-.083.007-.016.07-.103-.014.009.095-.054.035-.033.055-.069.02-.017.07-.032.054-.111-.019-.022.065.012.097-.056.032-.101-.01-.032.056-.069.022-.006.078.011.095-.063.026-.089.004.023.104-.108-.013-.056.034.03.11-.076.014.006.09-.037.05-.092.002-.065.026-.005.077-.057.034-.03.055-.07.023.017.096-.083.011-.045.044-.012.07-.044.044-.02.065-.096.002-.055.035.058.127-.12-.017.02.096-.044.045-.067.026-.055.035-.063.03-.015.068.008.085-.103-.002.021.097-.024.06-.115-.011.004.081-.068.027-.057.035.062.126-.048.041-.079.018.013.088-.111-.006-.04.049-.036.05-.06.033.017.09-.003.076-.035.051-.12-.01.014.087-.035.052-.072.025-.017.1-.018-.09.013-.074-.01-.064-.1-.021.015-.075-.017-.061-.095-.023-.003-.067.001-.07.003-.07-.046-.047-.083-.027.034-.087-.036-.052-.1-.018.068-.105-.128-.004-.018-.06-.006-.067.036-.088-.112-.01.035-.09-.06-.038-.017-.061-.067-.035.033-.088h-.127l.034-.09-.04-.05.021-.082-.105-.011-.048-.045-.025-.056.047-.098-.084-.023-.057-.038.051-.101-.04-.048-.065-.033-.069-.03-.04-.048.034-.092-.06-.036.01-.078-.01-.066-.131.007-.044-.045.071-.116-.033-.053-.08-.022-.04-.049-.046-.043-.064-.033.012-.08-.03-.054.018-.086-.037-.049-.05-.041-.079-.023-.045-.044-.043-.046.016-.085-.034-.05-.083-.02-.027-.057-.053-.038.036-.1-.088-.015.008-.08-.08-.02-.037-.05.017-.087-.026-.057-.066-.03-.008-.07-.03-.056-.035-.05-.07-.026-.001-.075-.063-.032-.048-.042-.06-.032-.062-.03.018-.091-.077-.02.041-.109-.05-.04-.09-.01.005-.082-.039-.048-.092-.007-.009-.072-.002-.078-.049-.04-.051-.039-.07-.023-.02-.064-.005-.075-.067-.026-.09-.007.005-.084-.08-.013.003-.084-.074-.02-.004-.077-.1.004.016-.097-.048-.04-.007-.075-.059-.032-.106.01-.026-.06-.02-.065-.078-.013.046-.125-.115.02.017-.1-.092.001v-.085l-.046-.043-.024-.062-.04-.048-.129.037.035-.12-.116.027-.023-.065.017-.104-.044-.043-.102.013-.009-.08-.038-.05-.113.027-.034-.053-.036-.053-.026-.062-.064-.022-.002-.09-.05-.038-.038-.05-.057-.03-.071-.014-.014-.076-.08-.004.009-.105-.086.004-.08-.002.019-.118-.105.027-.001-.094-.05-.04-.046-.04-.107.031.005-.104-.08-.001-.06-.023-.025-.069-.086.008-.002-.097-.037-.053-.071-.011-.072-.008-.061-.021-.043-.047-.057-.028.01-.117-.06-.025-.075-.001-.047-.042-.024-.074-.096.029-.034-.06-.02-.083-.067-.011-.072-.005-.049-.038-.025-.076-.09.024-.06-.02-.061-.019-.003-.114-.099.043-.027-.077-.055-.028-.021-.087-.107.06-.05-.037-.037-.062-.052-.035-.083.022-.01-.11-.1.053-.002-.13-.089.037-.048-.043-.032-.075-.099.06-.061-.016-.035-.07-.043-.057-.091.05-.058-.021-.04-.064-.025-.1-.066-.004-.092.058-.058-.021-.027-.097-.054-.035h-.067l-.05-.046-.065-.002-.055-.032-.06-.017-.083.046h-.065l-.048-.05-.044-.067-.048-.053-.058-.027-.096.102-.039-.088-.06-.016-.057-.029-.06-.015-.065-.002-.05-.056-.07.024-.07.028-.057-.029-.045-.085-.073.04-.057-.029-.076.06-.062-.007-.06-.012-.042-.117-.08.093-.044-.111-.072.058-.059-.03-.053-.07h-.063l-.072.069-.053-.081-.067.036-.056-.065-.07.087-.064.016-.062.005-.055-.109-.063-.003-.063.01-.062-.01-.065.073-.06-.102-.064.093-.06-.07-.064-.016-.062.03-.063-.022L20.042 4l-.06.114-.063-.04-.065-.062-.063.002-.056.11-.064-.024-.061.02-.066-.05-.056.072-.072-.1-.057.058-.056.07-.063-.01-.07-.052-.062.006-.057.043-.07-.04-.063.003-.066-.01-.053.059-.056.035-.06.016-.058.028-.078-.057-.049.062-.048.061-.078-.048-.058.022-.055.035-.043.07-.076-.033-.052.04-.074-.02-.028.1h-.066l-.06.016-.08-.027-.07-.002-.058.024-.01.124-.054.028-.058.022-.056.027-.055.027-.08-.015-.058.026-.045.045-.022.08-.112-.056.017.134-.11-.046-.005.096-.058.027-.052.033-.036.054-.033.055-.117-.038.032.126-.061.025-.035.052h-.088l-.064.027-.011.074-.062.03-.048.04v.08l-.092.008.054.117-.126-.014.054.113-.027.055-.107.005-.019.062.008.075-.11.01.045.095-.031.053-.061.039-.058.041.005.07-.028.056-.067.04-.004.066.052.086-.032.054-.069.042-.053.048.02.072-.008.062.015.068-.058.05-.04.054.04.073.007.064.007.064-.055.053.002.062-.035.058.057.07-.11.05.102.072-.035.058.007.063-.05.058-.042.06.095.066-.067.06.018.062.016.061-.053.063.02.061.015.062.03.06-.002.062-.011.063.043.058-.099.072.1.051-.031.066-.002.062.087.05-.022.066-.076.075.035.057.097.045-.093.08.084.047-.05.074.018.06.1.04-.072.081.037.055.051.05.043.052.031.055-.07.085.006.064.071.042.026.056.008.063-.038.08.042.05.024.058.037.051.072.039-.028.078.018.06.063.04.03.054.01.064.069.036.019.06-.019.076-.015.076.084.028.046.046-.035.089.078.028-.04.092.03.055.138-.006-.004.073-.009.076.02.061.087.02-.003.074.097.013-.009.079.066.031-.02.087.017.063.064.032.04.048.03.054.076.022-.023.092.086.014.048.041-.03.1.063.03.06.033-.01.088.074.019.053.037-.022.099.031.055.063.028.088.006.067.024-.023.102.032.055.101-.008-.007.091.077.012.013.073.079.01.032.056.005.082.074.013.031.057.03.06.044.044.056.03.087-.002.038.05-.013.107.103-.022.046.042.02.07.05.037h.082l.007.088.029.064.047.041.102-.029.063.02.012.085.094-.02.044.042.037.055.057.026-.009.12.1-.033.035.057.02.083.06.021.048.04.087-.018.066.012.064.013.021.083.06.02.042.053.037.06.086-.025.027.077.04.059.084-.025.031.073.092-.038.037.06.037.065.105-.07.02.098.063.013.084-.03.038.064.036.069.059.02.077-.02.028.089.095-.06.015.12h.069l.089-.053.045.052.035.078.07-.006.073-.018.057.026.039.071.042.067.094-.076.03.098.058.025.083-.05.057.024.043.068.08-.048.044.07.077-.041.058.022.045.068.071-.022.051.047h.064l.066-.005.064-.001.034.119.058.026.07-.026.064.001.06.017.05.068.068-.02.071-.038.067-.017.052.054.065-.009.06.024.063-.004.05.078.073-.064.06.018.064.002.051.075.068-.031.061-.02z" fill="#6C87F8"/><path d="M48.8 33.144l-.016-.011-.061-.076-.063.026-.062.021-.061.033-.063-.042-.062-.02-.061.009-.063.032-.062-.048-.062.017-.062.05-.062-.095-.062.003-.062.04-.062.01-.062.054-.062-.095-.063.005-.062.048-.061-.045-.063.022-.062.083-.062-.093-.062-.005-.062.07-.063.018-.062-.107-.062-.004-.062.037-.063-.04-.062.121-.061-.097-.063.005-.062.074-.062.005-.062-.053-.062.03-.063.035h-.061l-.062-.01-.063-.096-.062-.012-.062.046-.062-.008-.062-.011-.062.053-.062-.016-.062-.004-.062-.036-.062-.002-.062.01-.063.052-.061.022-.062-.013-.063-.045-.062.022-.062-.043-.062.048-.062-.019-.062.063-.062-.115-.063.074-.062-.025-.062.033-.062.005-.062-.087-.062.044-.062-.034-.061-.005-.062-.01-.062.06-.062.054-.061-.106-.062.018-.062.039-.061-.004-.063.06-.061-.094-.062.021-.062.039-.062-.01-.062.012-.062.008-.062.015-.062-.044-.062-.065-.062.002-.062.08-.062.023-.062-.01-.062-.066-.063.055-.061-.081-.063.018-.062.063-.063.024-.062.01-.062-.045-.062-.07-.062.048-.062-.007-.062.014-.062-.048-.063.056-.061-.057-.062.014-.063-.016-.062.113-.061-.042-.063-.02-.062-.025-.061.063-.063-.068-.061-.03-.062.018-.063.022-.061.081-.062-.004-.062-.005-.062-.035-.062.024-.062-.1-.062.017-.062.001-.062.003-.062.069-.062-.093-.063.099-.062-.032-.062.014-.062-.042-.062.069-.062.013-.062-.053-.063-.068-.062.01-.063.057-.062-.07-.062.074-.062-.058-.063.06-.062-.075-.062.072-.062-.002-.062-.015-.063-.035-.061.006-.062.039-.063-.01-.062.03-.062-.007-.062.034-.063-.043-.061.02-.062-.038-.063-.022-.062-.014-.062.033-.062.045-.062.017-.063-.065-.062.08-.063-.11-.062.086-.062-.099-.062.06-.063-.011-.062-.025-.063.095-.062-.099-.061.099-.063-.098-.062.078-.062-.034-.062-.003-.063-.051-.062.069-.063.015-.062-.084-.062.081-.062-.09-.063.075-.062.037-.063-.077-.062.062-.062-.017-.062.009-.062-.024-.063-.038-.063.023-.062-.031-.062.102-.062-.048-.063-.064-.062-.013-.062.072-.063.003-.062.025-.063-.037-.062.063-.062-.1-.062-.023-.062.09-.062-.05-.062-.035-.062.11-.062-.053-.062-.063-.063.09-.062-.075-.063.07-.062-.05-.062.051-.062-.042-.063.024-.062-.042-.063.041-.062.003-.062-.019-.062.042-.063.005-.062-.053-.063.053-.063-.052-.062.046-.062-.074-.063-.018-.062.05-.063.002-.062-.045-.063.064-.062.042-.063-.054-.062.001-.063.063-.062-.04-.063-.081-.062.027-.063.095-.063-.09-.062.063-.063-.064-.062-.008-.063.022-.063-.045-.062.073-.063-.035-.063-.002-.062-.023-.064.067-.063-.043h-.057l-.07.028-.066-.016-.064-.03-.031-.063-.003-.073-.081-.038.015-.072.04-.063.048-.058-.005-.063-.097-.069.014-.06.09-.057.013-.061-.015-.063.024-.06.015-.062-.08-.067.05-.06.016-.06.015-.06-.074-.068.03-.06.072-.057-.057-.067.048-.058.022-.06-.076-.068.078-.057-.092-.068.017-.06-.006-.063.009-.061.036-.06.065-.057-.012-.064-.085-.067-.002-.063.091-.055-.049-.065-.025-.064-.002-.062.009-.062.1-.055.016-.061-.012-.063-.067-.066.023-.061.047-.058-.04-.066.075-.056-.077-.068.02-.06-.042-.066.11-.054-.019-.063-.008-.063.036-.06-.05-.066-.026-.063.065-.058-.045-.065.016-.061.023-.06-.01-.064.017-.06-.021-.064.073-.058-.006-.062.007-.062v-.062l.024-.06.015-.061-.069-.067-.036-.065.048-.058.058-.059-.059-.066.076-.056-.108-.07.038-.06.019-.06-.01-.063-.018-.064.12-.053-.095-.069-.003-.062.1-.055-.077-.067v-.063l-.006-.062.021-.061.092-.056-.066-.066.024-.06-.025-.064.021-.061-.037-.065.061-.058-.025-.064.06-.057-.053-.066-.035-.064.048-.058.032-.06.008-.061.01-.061.02-.06-.063-.067.095-.055-.055-.066-.046-.065.112-.054-.025-.063-.059-.066.057-.058-.03-.064-.018-.063.097-.055-.005-.063-.005-.062.004-.062-.054-.066.013-.06.015-.062.047-.059-.099-.07.083-.055-.02-.064-.014-.063.017-.061-.018-.064.037-.06.005-.061-.05-.066.017-.06.035-.06.005-.062.015-.061.007-.062.035-.059-.023-.064-.006-.062-.038-.065.023-.06.048-.059-.038-.064.088-.056-.102-.069.09-.056-.07-.067.086-.056-.03-.064.054-.058.008-.062-.021-.063-.033-.064.053-.059-.083-.067.013-.061.015-.061.02-.06-.046-.066.077-.057-.002-.062-.068-.067.065-.058.003-.062.052-.059-.094-.068-.005-.063.074-.057-.024-.064-.028-.064.046-.06.01-.06.062-.059.015-.06-.025-.065-.027-.063-.02-.064.084-.057-.063-.066-.027-.064.006-.062-.013-.062.009-.063.024-.06.098-.055-.073-.067-.036-.065.03-.06.035-.06-.05-.066.125-.053-.061-.067.03-.06-.054-.066.047-.06.032-.06-.007-.062.04-.06-.022-.063-.014-.063.045-.06-.1-.069.066-.057.017-.061.013-.062-.003-.062-.083-.068.075-.057.053-.059-.098-.069.058-.058-.02-.064.025-.06-.027-.065.05-.059-.046-.065.053-.059-.02-.063-.046-.066.091-.056-.035-.064.002-.062.02-.062-.029-.064-.019-.064.088-.056-.092-.068.083-.057.044-.06-.091-.068.012-.062.098-.055-.1-.069.044-.058.042-.06-.02-.063-.062-.066.066-.058v-.063l.06-.057-.025-.065-.055-.066-.01-.063-.006-.063.095-.055.007-.062-.005-.063.037-.06-.116-.07.087-.056-.056-.066.105-.056.003-.062-.037-.065-.07-.067.008-.062.099-.055-.039-.065.065-.059-.044-.066.023-.06-.002-.063.029-.06-.052-.067-.015-.063.005-.062-.032-.065.106-.055-.082-.068.113-.055-.062-.067.067-.058v-.063l-.075-.067.092-.057-.015-.063-.091-.07.034-.06-.023-.064.108-.055-.08-.069.063-.086-.09-.015-.061.073-.063.026-.062-.087-.062-.016-.062.03-.063.003-.062-.024-.062.089-.062-.043-.062-.014-.063.033-.062.023-.062-.05-.063.013-.062.039-.062.007-.063-.033-.062-.038-.062.018-.062.033-.062-.05-.063-.01-.062-.017-.062.038h-.062l-.063.054-.062-.079-.063-.014-.062.054-.062.02-.063.026-.062-.1-.062-.024-.062.013-.062.056-.062.039-.062.01-.062-.1-.062.079-.062-.034-.062-.056-.062-.002-.063.044-.062.042-.063.017-.062-.005-.063-.067-.062-.022-.062-.01-.062.096-.063.007-.062-.102-.062.072-.062-.046-.063.03-.062.004-.063-.049-.062.055-.063.003-.062-.026-.062.054-.063-.043-.062-.045-.063.054-.062-.026-.063-.026-.062.049-.063.035-.062-.015-.063-.05-.063-.015-.062.013-.062-.031-.063.022-.062.083-.063-.078-.063.093-.062-.014-.063-.023-.062.028-.063-.095-.063.106-.063-.022-.099-.08.03.1-.026.06.004.063.04.065-.083.057.096.068-.11.054.064.068-.052.058.031.064.033.064-.055.059-.04.06.026.063.038.065.008.062-.084.057.09.067-.107.055.003.063.03.064.047.065-.016.061-.082.056.058.066-.013.061-.008.062-.044.059.083.068-.027.06-.028.06.015.063-.058.058-.005.061.011.063-.01.061-.001.063.037.064-.027.06-.066.058.101.069-.008.061-.01.062-.04.06.018.063.029.063-.033.06-.014.061-.04.06-.001.062.063.066-.04.06-.061.057.054.066.026.065-.105.054.11.07-.005.062-.01.062-.049.058.048.066-.064.057-.044.06.056.066-.012.061-.069.057.062.066-.072.057.078.068-.029.06.024.064.01.062-.115.055.073.067-.022.06-.058.058.01.063.069.067-.055.058-.027.06.046.066-.027.06.011.063.02.063-.084.057v.062l.01.062.076.068-.034.06-.021.06.02.064-.09.056.01.062.073.067-.062.058.083.067-.05.058-.052.058.092.069-.089.055-.039.06.107.068-.001.063-.069.056.015.063-.02.06-.055.059.108.07-.024.06-.035.059.007.062-.042.06.031.064.037.064-.044.06.037.064-.01.061-.048.06.044.064-.1.055.044.066.023.064-.079.056-.02.061.1.07-.064.057-.028.06.018.063.031.065-.069.057.083.068-.013.061.016.063-.011.061-.094.056-.035.06.092.068-.08.056.013.063.016.063.008.063.034.064-.023.06-.085.056.076.067-.061.059.034.064-.016.06-.03.06-.03.06.03.064.078.068-.097.055.069.067-.026.06.029.065-.02.06-.035.06.038.065-.111.054.093.069.011.063-.062.058.053.066-.113.055.054.066-.074.056.105.07-.105.055.084.068-.031.06-.021.06-.012.062.061.066-.015.061-.07.058.003.062.064.066-.088.056.075.068-.023.06-.038.06.046.065.014.063-.073.057.04.066-.014.061-.086.056.011.063.062.067.033.064-.033.06-.08.057.044.065-.004.062-.01.062.041.065-.054.058.034.065-.058.058.023.064v.062l.035.065-.092.056-.024.06.073.068-.05.059.073.067-.055.059-.003.062-.044.059-.011.062.05.065-.049.06.09.067-.13.054.033.065-.027.06.075.068-.01.061-.05.059-.009.062.028.064-.005.062-.013.061-.003.063-.002.062.057.066-.042.059-.063.057-.008.062.083.068-.034.06-.043.059-.038.059.086.068-.051.06-.05.058.104.07-.118.054.077.067-.042.06.058.067-.09.056.017.063.074.067-.053.06-.074.056.054.067.02.064.018.063-.051.059-.005.062.012.063.018.064-.049.06.046.065-.047.06-.008.061-.03.06.074.068-.102.056-.001.063.086.068-.094.056.095.069-.058.058.003.063-.067.058.08.068-.059.058.042.066-.02.061.022.065-.098.055.003.064.014.064.062.067-.034.061-.087.032-.018.05.01.081-.024.07-.062.029-.059.033-.068.005-.065-.074-.062.066-.063.027-.062-.018-.062-.052-.062.09-.062-.03-.062-.056-.062.049-.063.013-.061-.05-.062.028-.063-.044-.062.045-.061.008-.063-.077-.062.055-.062.062-.062-.068-.062-.009-.062.003-.062.033-.062-.03-.062.025-.062.052-.062-.017-.062-.055-.062.072-.062-.015-.063-.108-.061.01-.062.008-.063.075-.062.022-.062-.102-.062-.005-.062.003-.062.093-.062-.09-.063.035-.062.042-.062.03-.062-.025-.062-.01-.063.023-.062-.08-.062.03-.062-.048-.063.031-.062.07-.062-.01-.061-.1h-.063l-.062-.004-.062.111-.062-.089-.063-.017-.062.064-.061-.019-.063.035-.062-.07-.062.083-.062-.035-.062.032-.062-.022-.062.013-.063-.051-.062.029-.062-.033-.062.044-.062-.034-.062-.006-.062.068-.062-.096-.063.06-.062-.055-.062.098-.062-.024-.062-.082-.062.118-.062-.091-.062.057-.063.016-.062-.096-.061-.01-.062.013-.062.075-.062-.074-.061.01-.063-.007-.061.015-.062.034-.062-.03-.061.057-.063.004-.061-.002-.063-.052-.061.087-.062-.01-.062-.028-.062-.046-.062-.011-.062-.015-.062.015-.062.004-.062.036-.062-.066-.062.102-.063-.088-.062.032-.062.022-.062-.036-.062.026-.063-.001-.062.041-.062.012-.062-.019-.063-.075-.062.062-.062-.003-.062.03-.062-.03-.062-.004-.062.009-.062-.008-.063-.052-.061.046-.062-.04-.063.086-.061-.114-.062.017-.063.085-.061-.008-.062-.044-.062.001-.062.016-.062.032-.062-.097-.062.02-.062.005-.062.03-.062.013-.062-.037-.063.048-.062.001-.061-.019-.063.016-.062-.038-.062.024-.062-.052-.063.063-.062.033-.062-.006-.063-.085-.062.047-.062.014-.062-.063-.063-.003-.062.062-.062-.051-.062.036-.063-.059-.062.07-.062-.038-.062.035-.062-.045-.063.094-.061-.102-.062-.003-.063-.002-.062.016-.062.088-.062-.102-.063.087-.062-.07-.062.012-.062.009-.062-.053-.063.07-.062-.013-.063-.032-.062.022-.062-.014-.062.056-.063.03-.062-.01-.063-.043-.062-.045-.062.052-.062.04-.063-.058-.062-.013-.062-.002-.062-.008-.062-.023-.063.092-.062-.049-.063-.014h-.062l-.062.064-.062-.078-.063.025-.062.055-.063-.01-.062-.087-.062.024-.062.03-.063-.005-.062.02-.063-.051-.062-.003-.063.046-.062-.033-.062.067-.062-.08-.063.075-.062-.077-.063.085-.062-.054-.062-.015-.062-.018-.062.03-.062.012-.062-.054-.063.096-.062.02-.062-.12-.062.037-.063.047-.062.024-.063-.101-.062-.002-.063.001-.062.059-.062-.067-.062.116-.062.006-.063-.044-.063.032-.062-.008-.063-.076-.062.026-.062.019-.063-.042-.062.089-.063-.007h-.062l-.063-.049-.062.027-.063-.058-.062.027-.063-.02-.062.07-.063-.095-.063-.004-.062.073-.063-.016-.062-.01-.063-.038-.063-.007-.062.033-.063.036-.063.012-.062-.06-.063-.03-.063.027-.062.008-.064.072-.099-.087-.014.098.006.063-.022.06.04.065.066.067-.108.055.031.065.067.066-.058.059.02.063-.089.057.092.068-.068.058v.063l.05.065-.069.058-.038.06.059.067-.056.058.005.063-.023.06.068.067.003.063-.08.057.091.069-.035.06-.02.061-.01.061-.03.061.04.066-.038.059.003.063.018.064-.044.06.052.064-.027.06-.045.06.08.067-.072.058.075.067-.07.057-.042.06.055.066-.07.057.033.065-.018.061.048.066.011.064-.014.061-.097.056.042.065.048.066-.077.057-.03.06.113.07-.092.056.002.063-.043.06.077.068.026.064-.08.057-.024.06.023.065.013.064-.041.06.05.066.026.064.013.064-.063.058.04.065-.07.058.07.068-.062.058-.035.06.06.067-.093.056.062.067-.003.063-.07.058.017.064-.01.061.04.066.04.066-.09.057.008.086.085.008.062-.078.062.019.062.057.062.03.062-.038.063.044.061-.018.062-.061.063.06.062-.057.062-.03.061.008.063.03.062.016.062.009.062-.07.062.08.062-.064.062.057.062.013.062.015.062-.057.062.037.062.002.062-.024.063.025.062.024.061-.014.063.005.062-.087.062.018.062-.017.062-.02.062.095.062-.06.063-.028.062.1.062-.081.062.009.062.061.063-.027.061-.038.062-.02.063.082.062-.038.062-.015.062.066.062.013.063-.01.062-.102.062.109.062-.006.063.009.062-.06.062-.037.062.029.062.01.062.058.062-.05.062-.04.062.067.062-.082.062-.004.063.068.062-.058.062-.02.062.014.062.048.062.04.062.008.063-.078.062.045.062-.074.062.076.062.025.062-.018.062-.011.062-.024.063.028.062-.051.062.076.062-.036.062.015.061-.063.062.022.062-.046.062.066.061.033.063.004.061-.041.062-.053.062.114.062-.007.062-.1.061.06.063.036.061-.033.062-.07.063.03.061-.002.062.029.063.03.061.017.062-.114.063.018.062.014.062.083.062-.013.062-.026.063.016.062-.029.062-.054.062-.008.062.109.063-.017.062.01.062-.078.062.066.062-.06.062.05.062-.064.063.08.062-.066.061-.004.063.04.062-.007.061-.031.063.007.062-.023.061.03.063.003.062.034.061-.063.063.046.061-.039.062.046.063-.02.062-.024.061.013.063.073.062-.078.061.088.063-.014.062-.092.062.047.062.007.062-.027.063.082.062-.027.062-.077.062.102.063-.06.062.058.063-.048.062-.028.062.008.062-.042.063.03.062.017.062.053.062-.095.062.05.062-.026.062.061.062-.089.063.066.062-.045.062.038.062-.059.063.112.062-.044.062.033.062-.017.062-.002.063-.08.062.077.062-.07.062.05.063-.03.062-.036.063.073.062.03.062-.083.062.029.062-.007.063-.043.062.018.062-.017.062.041.063.045.062-.004.063-.06.062.088.062-.022.062-.006.062-.065.063-.014.063.05.062-.044.062.099.063-.076.062.004.062.064.063.003.062-.063.062.02.062.026.063-.002.062-.014.062-.057.063.094.063-.056.062.004.062.066.063-.065.062-.051.062.03.062.042.062.038.062-.031.063-.056.062.03.062-.026.062.031.062-.023.063.006.062.002.063-.018.062.08.062-.086.062.067.063-.098.062.09.063-.032.062-.01.062.07.062-.035.063-.013.063.058.062-.05.062-.07.063.111.063-.026.062-.002.063-.046.062.049.063-.058.062.059.063-.048.063-.02.062.015.063-.037.062.115.063-.071.062.033.062-.006.063-.057.063.023.062.083.063-.04.063.001.063.042.062-.11.063.104.063-.022.063.003.063-.078.064.016.06.026.015.096.099-.039.026.062.02.058-.012.063.116.04-.054.067v.062l.045.065-.008.062-.026.06-.082.057-.013.061.046.065-.048.06.006.061-.024.06.111.07-.1.056.011.063-.002.061.046.066-.103.055.036.064.006.063.047.065-.029.06-.042.06.054.065-.063.058.049.065-.032.06-.04.059-.019.06-.017.061.01.064.086.068-.034.059.001.062.034.065-.084.056.058.066-.106.054.03.064.066.067.007.062-.116.055.079.067-.027.06-.035.06-.04.059.008.063.017.063.016.063.068.068-.06.057-.048.059-.012.061.034.065.024.064-.08.056.023.064.046.065.006.063-.069.058.083.067-.048.06v.061l-.033.06-.055.058.087.069-.092.055.073.067.028.064v.062l-.1.055-.021.061.093.069-.024.06-.013.061.007.063-.091.055.01.063.011.063.031.064-.052.059.027.064-.02.06.075.068-.108.054.08.068-.008.062-.013.061-.035.06-.04.059-.02.06.056.067.058.066-.074.057.038.064.025.064-.043.058.028.064-.11.055.045.064.046.066v.06l-.065.058.023.064-.007.061.038.064-.007.062-.06.057.052.066-.066.057-.026.06.084.068-.048.059-.048.059.029.064.05.065-.038.06-.095.055.002.062.06.066.032.064-.06.059.015.063-.032.06.073.067-.125.054.07.067-.062.058.04.065-.04.059-.032.06.058.066-.013.061.033.064.013.063-.107.055.032.064.054.066-.047.059-.058.058.108.069-.089.056.091.068-.113.054-.008.062.066.066-.063.058.004.062-.004.062v.062l.05.065-.016.06-.04.06.065.067-.042.059-.011.061.022.064-.058.058.026.064-.041.06.086.067-.063.058-.012.062-.007.061-.034.06.031.065-.006.062-.021.06v.063l.06.066-.031.06-.024.06.018.064-.077.057.024.064-.027.06.013.063-.003.061.059.067-.03.06.04.065-.005.061-.014.062-.077.056-.024.061.072.067-.096.055.102.07-.088.056.065.067-.055.058-.005.062-.03.06.063.068-.09.055.042.065-.048.06.105.069-.023.06-.053.059.057.066.012.063-.007.062-.08.056-.02.061-.008.062.065.067.015.063-.05.059-.065.058.089.069-.096.055-.011.062.09.069-.092.055.076.068-.084.056v.063l.056.066-.043.059-.011.061-.03.061.11.07-.121.054.067.067-.028.06.062.067-.071.058.027.064.026.064-.08.056.026.064-.039.06.038.064-.035.06-.035.059.035.065.064.066-.03.06v.063l-.026.06-.006.063-.042.06.073.066-.019.061.016.063-.109.055.052.066-.02.061-.057.059.088.068.022.064-.033.06-.053.06.014.063.006.062-.04.06-.005.063-.017.06.07.068v.063l-.002.062-.107.055.105.07-.026.061-.07.057.066.068-.045.059-.04.059-.002.063.001.062.089.07-.019.06-.054.059-.027.06.013.064.012.064-.064.058-.002.063.03.08.078.036.062-.043.062-.044.062.084.062-.07.063.048.062-.043.062.082.062-.124.063.003.062.023.062.098.062-.055.062-.022.063.046h.062l.063-.077.062.073.062-.075.062.08.063-.028.062.026.062-.017.062.025.062.006.063-.003.062-.042.063.041.062-.063.062.059.062-.018.063.037.062-.048.063.035.061-.074.062.063.062.03.062-.107.063.094.061-.098.062.023.063-.006.062.073.062-.06.063.04.062-.004h.062l.062-.077.063.023.062.096.062-.002.062-.059.063.03.062-.068.063.022.062-.04.063.005.062.104.062-.04.062-.054.063.043.062-.028.063.028.063.003.062.017.063-.078.062.066.063-.06.062.017.063.051.062.046.063-.059.062.04.062.013.063-.103.062.052.063.008.062-.045.063.068.063.015.062-.014.063-.062.063.012.063.023.049-.027-.039-.05.035-.06.057-.057.034-.06-.059-.066.032-.06.021-.061-.028-.064.011-.062-.004-.062-.057-.066.092-.056-.016-.063-.004-.062-.038-.065-.017-.063.044-.059.001-.062.004-.062.021-.06.06-.058-.105-.07.087-.056-.023-.063-.021-.063-.004-.063.062-.058.01-.061.003-.062-.011-.063.028-.06-.047-.065.07-.057-.054-.066.083-.056-.007-.063-.08-.067.055-.058.008-.062.044-.06-.064-.065.011-.061-.004-.063.048-.059.007-.061-.01-.063-.077-.067.03-.06-.027-.064.023-.061.09-.056-.059-.066.068-.058-.043-.065.022-.06-.048-.066-.002-.062.043-.06.055-.058-.093-.068.12-.054-.052-.066-.014-.063.03-.06.006-.062-.03-.064.026-.06.066-.057-.098-.07.067-.057.004-.062-.036-.064-.012-.063.097-.055-.118-.07.042-.06.002-.062.088-.056-.027-.064.023-.06-.09-.069.073-.056.035-.06-.072-.068.07-.057-.002-.062-.074-.067.102-.056-.095-.068.112-.054-.055-.066.04-.06-.051-.065.07-.057.02-.06-.12-.07.012-.061.073-.057-.05-.065.066-.057-.048-.066-.011-.062.05-.058-.036-.065.1-.055-.099-.068.042-.06-.015-.063.054-.058-.043-.064.076-.057-.023-.064-.003-.062-.001-.062.008-.061-.006-.063.045-.059-.056-.066.082-.056-.05-.066.061-.058-.012-.063.02-.06.002-.063.008-.061-.104-.07.077-.056-.025-.064.01-.062-.018-.063.003-.062.076-.057-.04-.065.014-.061.014-.06.034-.06-.107-.07.122-.053-.037-.065-.066-.066.073-.057.053-.058-.105-.07.044-.059.074-.057-.08-.067.003-.062.038-.059.048-.059.002-.062-.062-.066.081-.057v-.062l-.011-.062.002-.063-.076-.067-.015-.063.024-.06.046-.06.026-.06.014-.061-.05-.066.023-.06.068-.058-.103-.07.094-.055-.03-.065.05-.058-.019-.064-.08-.068.12-.053-.039-.065.049-.059-.054-.066-.058-.066.01-.061.058-.058-.026-.064.092-.056-.023-.064-.04-.064.002-.063.064-.057-.074-.068-.015-.063.06-.058-.047-.066.08-.056.042-.06-.099-.069.03-.06.019-.061-.02-.064-.004-.062.059-.058.031-.06-.061-.067.071-.057-.055-.066.036-.06.016-.061.03-.06-.101-.07.029-.06.05-.058-.004-.063.041-.06-.067-.067.08-.057-.078-.067.043-.06-.001-.062.002-.062.05-.059-.053-.066-.035-.065.102-.054-.093-.07.014-.061-.013-.063.027-.06.026-.061-.042-.066.084-.056-.052-.066.02-.061-.017-.063.1-.055-.042-.066-.07-.066.046-.059.03-.06-.006-.062.032-.06-.06-.067-.02-.063.101-.056-.065-.066.09-.056.018-.062-.04-.065-.062-.067.09-.055-.08-.068.088-.056.01-.062-.074-.068.055-.059-.004-.062.027-.061.019-.06-.05-.067.006-.062.005-.062-.034-.064.112-.055-.09-.07.072-.056.005-.063.032-.06-.089-.069.059-.058-.055-.066.086-.057-.005-.063-.09-.069.052-.058.07-.059-.086-.068.024-.06.076-.058-.034-.066-.011-.063-.055-.066.03-.06.1-.057-.052-.066.02-.063.044-.049-.049-.078.064-.035.05-.031.047-.03-.003-.114.058-.042.088.09h.053l.062.002.061-.065.063-.05.062.025.062-.008.062.084.062-.048.062.038.062.012.062-.09.062.057.062-.009.062.039.062-.072.062.024.063.054.061-.118.062.018.063.011h.062l.062-.01.062.044.062-.028.062.009.062-.002.062.05.063-.09.062.122.062-.068.062.072.062-.013.063-.006.062-.053.062.052.062.005.062-.094.062.04.062-.046.063.042.062.034.061.033.063-.014.062-.019h.062l.062-.077.062.028.062-.02.062.05.062.025.062-.01.062-.026.062-.033.063-.017.062.023.061.046.063.04.062-.1.062.045.062-.026.063.04.062.003.061.046.063-.062.062.052.062.004.062-.023.062-.063.062-.032.062.113.061-.03.062-.015.062-.026.062-.01.062.02.061-.027.062-.005.062.016.062.037.061-.058.062.024.062.017.062.044.062-.065.062-.032.062.09.062-.015.062.037.062-.114.062.07.062-.004h.062l.062.05.063-.029.062.035.062-.104.062-.013h.063l.062.024.062-.011.062.099.062-.094.063.021.061-.022.062-.019h.063l.062.027.061.081.063-.016.062-.014.061-.006.063-.02.062.024.061.01.063.02.062.014.061-.006.063-.05.061-.01.062.018.063.04.061-.076.062.08.063-.083.061.006.062-.036.063.118.061-.064.062-.045.063.033.062.072.062-.099.062.008.063.039.062-.051.062.098.062.002.062-.056.063-.033.062-.013.062.05.062.037.063.018.062-.081.062.049.062-.082.062.095.063-.04.062-.009.062-.004.062.046.062-.05.062.031.062-.07.062.047.063.06.061-.033.062-.003.063-.062.062.026.062.058.063-.04.062-.051.062.078.063.003.062-.02.062-.068.063.06.062.063.062-.03.063.013.062-.094.062.103.062-.002.062-.081.063-.008.062.049.062-.07.062.011.063.052.062-.015.062.029.063-.014.062-.06.062-.007.063.052.062-.02.062.004.063.075.062-.024.062-.01.062.018.063-.038.062.043.062-.045.063.032.062-.044.062-.005.063-.03.063.107.062-.116.062.118.062-.096.062.065.062-.001.062-.025.062-.022.062.061.062-.075.062-.009.063.105.062-.056.063-.05.062-.002.062.112.063-.022.062.011.062.013.063-.087.062-.012.062.036.062-.051.063.082.062-.094.063.063.062.041.063-.049.063.07.062-.052.062-.027.063.019.062-.02.063.04.062-.073.063.103.062-.065.063.068.062-.04.063.04h.062l.063-.083.063.063.062.023.063-.05.062-.056.063-.005.063.027.062.078.063-.013.063-.057.063-.035.063.003.047.032-.024-.048.101-.055-.032-.065-.064-.066-.008-.064.016-.06.002-.063.015-.06.085-.058-.014-.063-.04-.065.032-.06-.014-.064-.004-.062.04-.06-.05-.066.092-.056-.095-.069.091-.056-.033-.064v-.063l.009-.061.018-.062-.021-.064.004-.062.07-.058.008-.062-.085-.068-.013-.063.079-.057-.06-.067.043-.06.025-.06.002-.062-.035-.065-.001-.062.069-.057.033-.06-.1-.069.004-.062-.013-.063.107-.055-.057-.066.07-.058-.014-.064-.056-.066.003-.062-.01-.063.005-.062.086-.057-.023-.063-.051-.066.043-.06-.009-.063-.033-.065.009-.062.015-.062-.001-.062.058-.059-.017-.063.04-.06.006-.062-.056-.067.029-.06.042-.06-.032-.064.078-.058-.012-.063-.047-.066-.016-.064-.009-.064-.013-.063.011-.061.065-.059-.019-.064.073-.057-.093-.07.008-.062-.006-.063.121-.055-.004-.062-.1-.07.105-.056-.038-.07-.05-.017z" fill="#D2DEFF"/></svg>