<svg xmlns="http://www.w3.org/2000/svg" xmlns:xlink="http://www.w3.org/1999/xlink" version="1.1">
    <defs>
        <symbol id="giftpur" viewBox="0 0 177 27">
            <path
                d="M8.4 17.507H1.243c-.598 0-1.082.484-1.082 1.082v7.236c0 .598.484 1.082 1.082 1.082H8.4c.597 0 1.082-.484 1.082-1.082V18.59c0-.598-.485-1.082-1.082-1.082zM18.889 17.507H11.73c-.597 0-1.082.484-1.082 1.082v7.236c0 .598.485 1.082 1.082 1.082h7.159c.598 0 1.082-.484 1.082-1.082V18.59c0-.598-.484-1.082-1.082-1.082z"
                fill="#133463" />
            <path
                d="M8.4 6.863H1.243C.644 6.863.16 7.347.16 7.945v7.236c0 .598.484 1.083 1.082 1.083H8.4c.597 0 1.082-.485 1.082-1.083V7.945c0-.598-.485-1.082-1.082-1.082zM18.889 6.863H11.73c-.597 0-1.082.484-1.082 1.082v7.236c0 .598.485 1.083 1.082 1.083h7.159c.598 0 1.082-.485 1.082-1.083V7.945c0-.598-.484-1.082-1.082-1.082z"
                fill="#3EBBF0" />
            <path
                d="M14.475 2.687c-.674 1.648-3.194 3.347-4.362 3.986-.011-1.503.22-4.825 1.172-6.051 1.19-1.534 4.033.004 3.19 2.065z"
                fill="#133463" />
            <path
                d="M10.113 6.673c-.87-.703-2.686-2.458-2.985-3.862-.373-1.756 2.239-2.458 2.985-1.053.597 1.123.248 3.744 0 4.915zM38.373 27c-3.645 0-6.457-.969-8.437-2.907C27.979 22.133 27 19.101 27 15c0-2.727.472-4.969 1.417-6.727.945-1.78 2.318-3.098 4.117-3.955C34.334 3.44 36.494 3 39.014 3c1.507 0 2.924.169 4.252.507 1.327.338 2.497.856 3.51 1.555a7.256 7.256 0 012.395 2.637c.585 1.036.878 2.276.878 3.718h-5.096c0-.699-.158-1.318-.473-1.86a3.768 3.768 0 00-1.248-1.351 6.03 6.03 0 00-1.856-.812 8.73 8.73 0 00-2.194-.27c-1.17 0-2.193.158-3.07.473-.878.293-1.61.755-2.194 1.386-.563.609-.99 1.375-1.282 2.299-.293.924-.44 1.994-.44 3.211v1.014c0 1.69.248 3.076.743 4.158.495 1.082 1.238 1.893 2.228 2.434.99.518 2.216.777 3.678.777 1.215 0 2.283-.18 3.206-.54.945-.384 1.676-.925 2.193-1.623.54-.699.81-1.555.81-2.57v-.236h-6.918v-3.854H50.05v12.541h-3.307l-.44-2.501a10.049 10.049 0 01-2.193 1.622 9.145 9.145 0 01-2.564.947c-.945.225-2.003.338-3.172.338zM54.9 26.594V3.406h5.028v23.188H54.9zM65.05 26.594V3.406h17.076V7.53H70.078v5.746h10.765v4.09H70.078v9.228H65.05zM91.746 26.594V7.631h-7.424V3.406h19.944V7.63h-7.458v18.963h-5.062zM107.661 26.594V3.406h12.048c1.665 0 3.048.315 4.15.946a5.887 5.887 0 012.531 2.603c.585 1.104.878 2.422.878 3.955 0 1.532-.304 2.873-.911 4.022-.585 1.127-1.451 2.006-2.599 2.637-1.147.631-2.553.947-4.218.947h-6.85v8.078h-5.029zm5.029-12.203h6.175c1.057 0 1.867-.304 2.43-.912.585-.63.875-1.476.875-2.535 0-.744-.124-1.364-.371-1.86a2.612 2.612 0 00-1.114-1.149c-.472-.27-1.08-.405-1.822-.405h-6.175v6.895zM140.654 27c-2.115 0-3.937-.338-5.467-1.014-1.507-.676-2.666-1.69-3.476-3.042-.81-1.375-1.215-3.076-1.215-5.105V3.406h5.062v14.298c0 1.668.439 2.952 1.316 3.854.878.879 2.137 1.318 3.78 1.318 1.642 0 2.902-.44 3.779-1.318.9-.902 1.35-2.186 1.35-3.854V3.406h5.062v14.433c0 2.029-.405 3.73-1.215 5.105-.81 1.352-1.98 2.366-3.509 3.042-1.508.676-3.33 1.014-5.467 1.014zM155.875 26.594V3.406h12.688c1.71 0 3.128.304 4.252.912 1.148.609 2.003 1.465 2.565 2.57.563 1.081.844 2.332.844 3.751 0 1.51-.338 2.851-1.013 4.023-.674 1.15-1.653 2.028-2.935 2.637L177 26.594h-5.568l-4.083-8.45h-6.446v8.45h-5.028zm5.028-12.44h6.986c1.012 0 1.799-.303 2.362-.912.562-.63.843-1.476.843-2.535 0-.676-.123-1.25-.371-1.724a2.463 2.463 0 00-1.08-1.115c-.472-.248-1.057-.372-1.754-.372h-6.986v6.659z"
                fill="#133463" />
        </symbol>

        <symbol id="lacoste" viewBox="0 0 104 23">
            <path fill="currentColor"
                d="M20.3186 7.20822l3.01388 6.39755h-5.83954l2.82566-6.39755zM2.63718 4.68588H0v14.4035h10.52304v-2.30287H2.63718V4.68588zM81.4923 6.989V19.0894h2.63718V6.989h5.19896V4.68588H76.44307V6.989h5.04924zM53.38597 16.823c-2.93875 0-5.16126-2.15708-5.16126-4.93572s2.2225-4.93495 5.16126-4.93495 5.16153 2.15682 5.16153 4.93495-2.22278 4.93572-5.16153 4.93572zm-15.7859-9.87067c2.22278 0 3.46597 1.16946 4.18194 1.7913L43.6281 6.989c-.60262-.65815-2.3733-2.59576-6.06572-2.59576-4.25734 0-8.0249 2.77813-8.0249 7.49412s3.72985 7.49464 7.9872 7.49464c3.27802 0 5.5008-1.7184 6.21624-2.33997l-1.46938-2.0105c-1.1678.95077-3.01388 1.79155-4.70917 1.79155-2.93848 0-5.16153-2.15708-5.16153-4.93572s2.22304-4.93495 5.19923-4.93495zm25.84534 10.7112c.60288.47552 2.41126 1.7184 5.5762 1.7184 3.2021 0 5.80157-1.68156 5.80157-4.3139 0-5.48362-8.17514-3.729-8.17514-6.7265 0-.84078.7157-1.5355 2.59948-1.5355 2.26047 0 3.72958.9871 4.2945 1.42577l1.0932-2.1205c-.67854-.6213-2.75053-1.71814-5.3877-1.71814-3.95603 0-5.57593 2.15708-5.57593 4.27732 0 4.97178 8.1754 3.54627 8.1754 6.50755 0 1.24288-1.2809 1.79078-2.75027 1.79078-2.22278 0-3.99373-.95-4.74713-1.49867l-.9042 2.1934zm39.48385-12.97774H91.66432v14.4035h11.49086v-2.30287h-8.8534v-3.76548h7.53483v-2.3034h-7.53483V6.989h8.6275V4.68588zm-76.9973 14.4035h3.108L21.9008 4.68588h-2.97645l-6.59294 14.4035h2.75027l1.43168-3.25364h7.874l1.5445 3.25364zm27.454.29263c4.25734 0 8.0249-2.7784 8.0249-7.49464s-3.76755-7.49412-8.0249-7.49412-8.0249 2.77813-8.0249 7.49412 3.7678 7.49464 8.0249 7.49464z" />
        </symbol>

        <symbol id="gift" viewBox="0 0 20 27" fill="currentColor">
            <path
                d="M8.4 17.507H1.243c-.598 0-1.082.484-1.082 1.082v7.236c0 .598.484 1.082 1.082 1.082H8.4c.597 0 1.082-.484 1.082-1.082V18.59c0-.598-.485-1.082-1.082-1.082zM18.889 17.507H11.73c-.597 0-1.082.484-1.082 1.082v7.236c0 .598.485 1.082 1.082 1.082h7.159c.598 0 1.082-.484 1.082-1.082V18.59c0-.598-.484-1.082-1.082-1.082z"
                fill="currentColor" />
            <path
                d="M8.4 6.863H1.243C.644 6.863.16 7.347.16 7.945v7.236c0 .598.484 1.083 1.082 1.083H8.4c.597 0 1.082-.485 1.082-1.083V7.945c0-.598-.485-1.082-1.082-1.082zM18.889 6.863H11.73c-.597 0-1.082.484-1.082 1.082v7.236c0 .598.485 1.083 1.082 1.083h7.159c.598 0 1.082-.485 1.082-1.083V7.945c0-.598-.484-1.082-1.082-1.082z"
                fill="currentColor" />
            <path
                d="M14.475 2.687c-.674 1.648-3.194 3.347-4.362 3.986-.011-1.503.22-4.825 1.172-6.051 1.19-1.534 4.033.004 3.19 2.065z"
                fill="currentColor" />
            <path
                d="M10.113 6.673c-.87-.703-2.686-2.458-2.985-3.862-.373-1.756 2.239-2.458 2.985-1.053.597 1.123.248 3.744 0 4.915z"
                fill="currentColor" />
        </symbol>

        <symbol id="gift-colored" viewBox="0 0 20 27" fill="none">
            <path
                d="M8.4 17.507H1.243c-.598 0-1.082.484-1.082 1.082v7.236c0 .598.484 1.082 1.082 1.082H8.4c.597 0 1.082-.484 1.082-1.082V18.59c0-.598-.485-1.082-1.082-1.082zM18.889 17.507H11.73c-.597 0-1.082.484-1.082 1.082v7.236c0 .598.485 1.082 1.082 1.082h7.159c.598 0 1.082-.484 1.082-1.082V18.59c0-.598-.484-1.082-1.082-1.082z"
                fill="#133463" />
            <path
                d="M8.4 6.863H1.243C.644 6.863.16 7.347.16 7.945v7.236c0 .598.484 1.083 1.082 1.083H8.4c.597 0 1.082-.485 1.082-1.083V7.945c0-.598-.485-1.082-1.082-1.082zM18.889 6.863H11.73c-.597 0-1.082.484-1.082 1.082v7.236c0 .598.485 1.083 1.082 1.083h7.159c.598 0 1.082-.485 1.082-1.083V7.945c0-.598-.484-1.082-1.082-1.082z"
                fill="#3EBBF0" />
            <path
                d="M14.475 2.687c-.674 1.648-3.194 3.347-4.362 3.986-.011-1.503.22-4.825 1.172-6.051 1.19-1.534 4.033.004 3.19 2.065z"
                fill="#133463" />
            <path
                d="M10.113 6.673c-.87-.703-2.686-2.458-2.985-3.862-.373-1.756 2.239-2.458 2.985-1.053.597 1.123.248 3.744 0 4.915z"
                fill="#133463" />
        </symbol>

        <symbol id="gift-colored-line" viewBox="0 0 20 27" fill="none">
            <g clipPath="url(#prefix__clip0_12_2)" stroke="#133463">
                <path
                    d="M1.243 18.007H8.4c.32 0 .582.26.582.583v7.235c0 .322-.26.582-.582.582H1.243a.581.581 0 01-.582-.582v-7.236c0-.322.26-.582.582-.582zm10.487 0h7.159c.321 0 .582.26.582.583v7.235c0 .322-.26.582-.582.582H11.73a.582.582 0 01-.582-.582v-7.236c0-.322.26-.582.582-.582z" />
                <path
                    d="M1.243 7.363H8.4c.321 0 .582.26.582.582v7.236a.583.583 0 01-.582.583H1.242a.582.582 0 01-.582-.583V7.945c0-.322.26-.582.583-.582zm10.487 0h7.159c.322 0 .582.26.582.582v7.236c0 .323-.26.583-.582.583H11.73a.583.583 0 01-.582-.583V7.945c0-.322.26-.582.582-.582z"
                    strokeLinejoin="round" />
                <path
                    d="M14.012 2.498h0c-.288.704-1.004 1.475-1.851 2.175a15.85 15.85 0 01-1.53 1.11c.027-.646.089-1.414.201-2.165.086-.571.199-1.122.345-1.598.148-.483.319-.854.503-1.091h0c.392-.506 1.094-.559 1.706-.193.592.353.934 1.01.626 1.762zM9.671 1.992h0c.107.202.188.505.232.899.043.387.048.829.027 1.283a15.531 15.531 0 01-.154 1.538 13.316 13.316 0 01-.99-1.032c-.59-.691-1.047-1.4-1.169-1.973-.065-.305.001-.536.124-.712.13-.185.346-.336.61-.419.552-.173 1.097-.005 1.32.416z" />
            </g>
            <defs>
                <clipPath id="prefix__clip0_12_2">
                    <path fill="#fff" d="M0 0h20v27H0z" />
                </clipPath>
            </defs>
        </symbol>

        <symbol id="croco-loader" viewBox="0 0 400 200">
            <path
                d="M112.2,160c0,0,27,6.9,38,4 M61.2,92c0,0-27.7,29.2,0,60c0.4,4.2-0.7,19.2,12,21c2.1,0.2,6-0.9,7-3             c-0.3-2.2-1-6-1-6l0.8,4c0,0,4.4,6.5,8.2,5c3.3-1.9,5.4-4.8,3.3-10.3c-0.1-0.1,0.1-0.2,0.2-0.1c1.9,2.1,8.4,8.7,13.5,6.4             c3.9-1.3,6.5-5.5,7-9c0-3.7,5.9-36.5-25-27 M186.2,148c0,0-22.4-15.2-35-1c-2.3,5.2-6.2,14.3,10,31c4.6,3.4,8.8,7.4,16-1             c-1-9-1-9-1-9l1,9c0,0,10.5,10.6,18-4c2-3.1,1.1-3.4,0-6c0.3,0.6,2.4,7.3,7,7c4.5-0.3,9.5-5.2,15-11c3.9-2.6,0.8-3.7,24-4             c24.1-0.4,88,0,88,0c2.6-0.7,10.6-0.5,22-12c1.2-1.5,0.9-6.3-3-7c-2,0.1-3,0-3,0v-3v3h-21v-4v4l-23-1v-6v6c0,0-18.9-1.2-23-2             c0-2.1,0-5,0-5v5c0,0-15.7-0.1-22-15c-5.4,1.2-13.8,3.4-22-1c0,0,7.8,4.9,22,1c1-2.8,4.8-17.8,20-8c0.4-0.3,1,4,1,4l-1-4             c0,0,2.1-11.4,5-12c0.1,0.2,2-4.4,14,5c0.2,0.2,1,7,1,7l-1-8l22-10l1,9l-1-9l26-10v8v-8c0,0,19.5-11.9-4-11c-6.6,1.1-37,5.6-46,10             c-3.8-1.2-18.1-15.5-34,2c-0.1,3.8,1.5,13.2-11.2,11.2c0.3-1.7,0.1-7.3,8.5-1c1.9-2,3.6-5.7,2.7-10.2c-2.7-2.4-20.5-14.7-32,8             c-6.8-2.9-47.6-20.9-80-8c-8.9,3.1-17.8,6.4-22,7c-3.3-0.1-20.5-10.3-8-20c9.5-6,39.9-21.6,63-28c19.8-6.7,32.3-14,36-20             c2.6-4,3.7-7.1,2-9s-13.8,0.5-22.2,3.8c-10.6,3.9-60.3,15.8-68.8,18.2c-8.6,2.7-27.5,8.3-49,24c-5.1,3.8-19.6,13.2-17,29             c1.4,2.4,3.3,13.3,22,13c-0.8,2.6-5,10-5,10s23.3-3.4,25-4c1,1.9,3,8,3,8l25-4l4,10c0,0,13.1-4.5,19-9c0.5,0.1,7,13,7,13             s2.2,0.4,6-2c4.3-3,14-10,14-10l7,12c0,0,3.2,2,13-6c6.7-4.9,8-6.4,11-7" />
        </symbol>

        <symbol id="icon-accessibility" viewBox="0 0 40 40">
            <path fill="currentColor"
                d="M39.186 19.857c-4.295-6.013-9.163-9.736-14.175-11.31L27.875.958c.143-.43 0-.716-.43-.86s-.716 0-.86.43L23.722 8.26c-1.145-.286-2.434-.43-3.58-.43-6.73 0-13.46 4.152-19.186 12.17v.858c4.152 5.44 9.163 9.163 14.175 10.738h.143l-2.864 7.588c-.143.43 0 .716.43.86h.286c.286 0 .573-.143.716-.43l5.01-13.602c.43.143 1.002.143 1.432.143.286 0 .573 0 .86-.143l-2.148 6.013c-.143.43 0 .716.43.86h.286c.286 0 .573-.143.716-.43l2.577-7.016c2.148-1.002 3.58-3.15 3.58-5.584 0-.86-.143-1.718-.573-2.577l2.29-6.157c.573.286 1.29.716 1.86 1.145l-6.443 18.04c-.143.43 0 .716.43.86h.286c.286 0 .573-.143.716-.43l6.3-17.754c.573.43 1.002.86 1.575 1.29l-5.154 14.46c-.143.43.143.716.43.86h.286c.286 0 .573-.143.716-.43l5.01-13.888c.573.573 1.145 1.145 1.718 1.86L33.17 25.58c-.143.43.143.716.43.86h.286c.286 0 .573-.143.716-.43l2.577-7.588c.573.573 1.002 1.29 1.432 2.004.143.143.286.286.573.286.143 0 .286 0 .43-.143-.286 0-.143-.43-.43-.716zm-36.94.43c2.72-3.58 5.584-6.443 8.59-8.304C8.976 14.13 7.83 16.85 7.83 20c0 3.007 1.145 5.87 3.15 8.16-3.007-1.86-6.013-4.438-8.734-7.875zm13.316 9.45c-3.723-1.718-6.3-5.584-6.3-9.736C9.262 14.13 14.13 9.262 20 9.262c1.002 0 2.148.143 3.15.286l-1.718 4.438c-.43-.143-1.002-.143-1.432-.143-3.436 0-6.157 2.72-6.157 6.157 0 2.434 1.432 4.438 3.436 5.44l-1.718 4.295zm5.44-14.318l-3.293 8.734c-1.432-.86-2.434-2.29-2.434-4.152 0-2.577 2.148-4.725 4.725-4.725.286 0 .573 0 1.002.143zM20 24.725c-.286 0-.573 0-1.002-.143l3.293-8.734c1.432.86 2.434 2.29 2.434 4.152 0 2.577-2.148 4.725-4.725 4.725zm4.582-8.734c-.573-.573-1.145-1.145-1.86-1.432l1.718-4.725c.716.143 1.432.43 2.148.716l-2.004 5.44z" />
        </symbol>

        <symbol id="icon-basket" viewBox="0 0 40 40">
            <use xlink:href="#gift" color="currentColor" fill="currentColor" x="40" y="65" transform="scale(0.28)" />
            <path fill="currentColor"
                d="M37 33.9l-3.4-19.4c-.2-1.3-1.5-2.4-2.8-2.4h-3.5V8.5c0-2.7-2.2-4.9-4.9-4.9-.8 0-1.7.2-2.4.6-2.3-1.3-5.2-.5-6.5 1.8-.5.7-.7 1.6-.7 2.4V12H9.5c-1.5 0-2.7 1.1-2.9 2.4L3 33.9c-.2 1.1.5 2.2 1.5 2.4H35c1.1 0 2.1-.8 2.1-1.9-.1-.1-.1-.3-.1-.5zM22.4 4.8c2.1 0 3.6 1.6 3.6 3.6V12h-3.6V8.5c0-1.2-.5-2.4-1.3-3.4.4-.1.8-.3 1.3-.3zm-1.2 3.7v3.6h-2.4V8.5c0-1 .5-2.1 1.2-2.7.7.6 1.2 1.6 1.2 2.7zm-7.4 0c0-2.1 1.6-3.6 3.6-3.6.5 0 1 .1 1.3.2-.8 1-1.2 2.1-1.2 3.4v3.6h-3.6l-.1-3.6zm11.3 26.7H5c-.2 0-.5-.1-.6-.2-.2-.2-.2-.5-.2-.7l3.4-19.4c.2-.8 1-1.5 1.8-1.5h3.3v2.4h1.2v-2.4h7.3v2.4h1.2v-2.4h5.8l-3.1 21.8zm10.4-.3c-.1.1-.4.2-.6.2h-8.7l3.3-21.8h1.1c.8 0 1.5.6 1.7 1.5l3.4 19.4c.1.2.1.5-.2.7z" />
        </symbol>

        <symbol id="icon-cart" viewBox="0 0 24 24">
            <path
                d="M5.196 19.9444C6.036 19.9444 6.696 20.6044 6.696 21.46C6.696 22.3156 6.036 23 5.196 23C4.356 23 3.696 22.3278 3.696 21.4722C3.696 20.6167 4.356 19.9444 5.196 19.9444ZM19.38 19.9444C20.22 19.9444 20.88 20.6044 20.88 21.46C20.88 22.3156 20.22 23 19.38 23C18.54 23 17.88 22.3278 17.88 21.4722C17.88 20.6167 18.54 19.9444 19.38 19.9444ZM0.3 1L3.528 1.61111L24 4.50778L21.504 13.2344L6.384 13.7844L6.78 16.1922C6.888 16.8033 7.38 17.28 7.98 17.3411H21.168V19.0156H8.124C7.44812 19.0144 6.79242 18.7808 6.26316 18.3527C5.73391 17.9246 5.3621 17.3269 5.208 16.6567L5.172 16.4733L4.704 13.6622L2.724 3.13889L0 2.63778L0.3 1ZM4.44 3.42L6.084 12.1344L20.256 11.6211L21.9 5.90111L4.44 3.42Z"
                fill="currentColor" />
        </symbol>

        <symbol id="icon-person" viewBox="0 0 24 24">
            <path xmlns="http://www.w3.org/2000/svg" fill="currentColor"
                d="M12 2a10 10 0 1 1 0 20 10 10 0 0 1 0-20m0 1.3a8.7 8.7 0 1 0 0 17.4 8.7 8.7 0 0 0 0-17.4m5.21 12.74.18.17-.92.92c-2.25-2.25-6.44-2.3-8.78-.15l-.16.15-.92-.92c2.75-2.75 7.76-2.8 10.6-.17M12 6.42a3.55 3.55 0 1 1 0 7.1 3.55 3.55 0 0 1 0-7.1m0 1.3a2.25 2.25 0 1 0 0 4.5 2.25 2.25 0 0 0 0-4.5" />
        </symbol>

        <symbol id="icon-burger" viewBox="0 0 40 40">
            <path fill="currentColor"
                d="M12 30.3c0-.4.3-.8.8-.8h26.4c.4 0 .8.3.8.8 0 .4-.3.8-.8.8H12.8c-.5 0-.8-.3-.8-.8zm.8-9.5h26.4c.4 0 .8-.3.8-.8 0-.4-.3-.8-.8-.8H12.8c-.5 0-.8.4-.8.8s.3.8.8.8zm0-10.3h26.4c.4 0 .8-.3.8-.8s-.3-.8-.8-.8H12.8c-.5 0-.8.3-.8.8 0 .4.3.8.8.8z" />
        </symbol>

        <symbol id="icon-burger-search" viewBox="0 0 40 40">
            <path fill="currentColor"
                d="M36.666 32.5c0 .458-.375.833-.833.833H4.166c-.458 0-.833-.375-.833-.833s.375-.833.833-.833h31.667c.458 0 .833.375.833.833zM35.833 20H24.166c-.458 0-.833.375-.833.833s.375.833.833.833h11.667c.458 0 .833-.375.833-.833S36.291 20 35.833 20zm-15-10h15c.458 0 .833-.375.833-.833s-.375-.833-.833-.833h-15c-.458 0-.833.375-.833.833s.375.833.833.833zm-17.5 6.183c0-4.325 3.525-7.85 7.85-7.85s7.85 3.525 7.85 7.85a7.8 7.8 0 0 1-1.75 4.925l4.133 4.133a.83.83 0 0 1 0 1.175c-.158.167-.367.25-.583.25s-.425-.083-.592-.242l-4.133-4.133a7.8 7.8 0 0 1-4.925 1.75c-4.325-.008-7.85-3.525-7.85-7.858zm1.667 0c0 3.408 2.775 6.183 6.183 6.183s6.183-2.775 6.183-6.183S14.591 10 11.183 10 5 12.775 5 16.183z" />
        </symbol>

        <symbol id="icon-close" viewBox="0 0 40 40">
            <path fill="currentColor"
                d="M27.2 27.3c-.2.1-.3.2-.5.2s-.4-.1-.5-.2L20 21l-6.3 6.3c-.2.1-.3.2-.5.2s-.4-.1-.5-.2c-.3-.3-.3-.7 0-1L19 20l-6.3-6.3c-.3-.3-.3-.7 0-1s.7-.3 1 0L20 19l6.3-6.3c.3-.3.7-.3 1 0a.91.91 0 0 1 0 1L21 20l6.3 6.3c.2.3.2.7-.1 1z" />
        </symbol>

        <symbol id="icon-my-account" viewBox="0 0 40 40">
            <use xlink:href="#gift" color="currentColor" fill="currentColor" x="138" y="165" transform="scale(0.16)" />
            <path fill="currentColor"
                d="M20 20.4c-4.4 0-7.9-4.4-7.9-9.8 0-5 3.2-8.3 7.9-8.3s7.9 3.3 7.9 8.3c0 5.4-3.5 9.8-7.9 9.8zm0-16.7c-3.1 0-6.5 1.8-6.5 6.9 0 4.6 2.9 8.4 6.5 8.4s6.5-3.7 6.5-8.4c0-5.1-3.4-6.9-6.5-6.9zm0 34c-11.5 0-14.8-5.7-14.9-6-.1-.1-.1-.2-.1-.3 0-4.3 3.9-9 15-9s15 4.6 15 9c0 .1 0 .2-.1.3-.1.3-3.4 6-14.9 6zM6.4 31.2c.6.8 4 5.1 13.6 5.1s13-4.2 13.6-5.1c-.1-4.5-5.3-7.4-13.6-7.4S6.5 26.7 6.4 31.2z" />
        </symbol>

        <symbol id="icon-my-account-logged" viewBox="0 0 40 40">
            <use xlink:href="#gift" color="currentColor" fill="currentColor" x="138" y="165" transform="scale(0.16)" />
            <path fill="currentColor"
                d="M20 20.4c-4.4 0-7.9-4.4-7.9-9.8 0-5 3.2-8.3 7.9-8.3 4.2-.2 7.7 3 7.9 7.2v.1c0 .4-.2.7-.6.7s-.7-.2-.8-.6c-.1-3.4-2.9-6.1-6.3-6H20c-3.1 0-6.5 1.8-6.5 6.9 0 4.6 2.9 8.4 6.5 8.4 1.6 0 3-.7 4.1-1.9.3-.3.7-.3 1 0s.3.7 0 1c-1.3 1.4-3.2 2.2-5.1 2.3zm14.9 11.3c.1-.1.1-.2.1-.3 0-4.3-3.9-9-15-9S5 27 5 31.4c0 .1 0 .2.1.3.1.2 3.4 5.9 14.9 5.9s14.8-5.6 14.9-5.9zM20 23.8c8.3 0 13.5 2.8 13.6 7.4-.6.8-4 5.1-13.6 5.1S7 32 6.4 31.2c.1-4.5 5.3-7.4 13.6-7.4zm14.3 7.6zm.4-23c.2-.3.2-.7-.1-1a.61.61 0 0 0-.8 0l-7.2 6.5-4.1-3.4c-.3-.3-.7-.2-1 .1s-.2.7.1 1l5.1 4.2 8-7.4z" />
        </symbol>

        <symbol id="icon-search" viewBox="0 0 40 40">
            <path fill="currentColor"
                d="M37.7 36.8L27.5 26.6c2.6-2.7 4-6.2 4-10 0-3.9-1.5-7.5-4.3-10.3S20.8 2.1 16.9 2c-4 0-7.5 1.6-10.3 4.3s-4.3 6.4-4.3 10.3 1.5 7.5 4.3 10.3c2.7 2.8 6.4 4.3 10.3 4.3 3.6 0 6.9-1.3 9.6-3.6l10.2 10.2c.1.1.3.2.5.2s.4-.1.5-.2c.1-.3.1-.8 0-1zm-20.8-7c-3.5 0-6.8-1.4-9.3-3.9s-3.9-5.8-3.8-9.3c0-3.5 1.4-6.8 3.9-9.3s5.8-3.8 9.3-3.8 6.8 1.4 9.3 3.9 3.9 5.8 3.8 9.3c0 3.5-1.4 6.8-3.9 9.3-2.6 2.4-5.8 3.8-9.3 3.8z" />
        </symbol>

        <symbol id="icon-store-locator" viewBox="0 0 40 40">
            <use xlink:href="#gift" color="currentColor" fill="currentColor" x="40" y="20" transform="scale(0.32)" />
            <path fill="currentColor"
                d="M20 2.4c6.7 0 12.1 5.4 12.1 12.1 0 2.3-.6 4.5-1.8 6.4l-.1.1L20 36.5 9.9 21l-.1-.1C6.2 15.2 8 7.8 13.6 4.2c2-1.2 4.2-1.8 6.4-1.8M20 1C12.6 1 6.6 7 6.6 14.4c0 2.5.7 5 2 7.1L20 39l11.4-17.4c3.9-6.3 2-14.6-4.2-18.5C25 1.7 22.5 1 20 1z" />
        </symbol>

        <symbol id="icon-world-map" viewBox="0 0 40 40">
            <path fill="currentColor"
                d="M20,1A19,19,0,1,0,39,20,19,19,0,0,0,20,1ZM34.06,30.58a2.07,2.07,0,0,1-.92-.06c-.48-.1-1-.81-1.39-2.1a8.39,8.39,0,0,1,.61-3.7,5.33,5.33,0,0,1,1.27-1.65c.53-.52.95-.94,1-1.47.09-1-1.07-1.18-1.7-1.28l-.2,0a.51.51,0,0,1,0-.13c-.09-.6-.28-1.87-1.49-1.95s-1.76-.34-1.87-.9a3.55,3.55,0,0,0-1.84-2.64c-.24-.13-.26-.14-.2-.77,0-.22,0-.47,0-.75s.69-.59,1.84-.91l1-.29c1.25-.39,4.18-.11,5.53.07A17.53,17.53,0,0,1,34.07,30.6ZM15.6,2.94V4.4a4.19,4.19,0,0,0,.7,1.74,14,14,0,0,1,.95,2,.68.68,0,0,1,0,.57c-.2.41-1,.67-1.37.8l-.22.08a2.3,2.3,0,0,1-.76-.22,2.46,2.46,0,0,0-1.47-.24c-.77.21-.78,1-.79,1.51a2,2,0,0,1-.14.89c-.18.22-1.43.1-1.84.06a5.61,5.61,0,0,0-.94-.05,1.27,1.27,0,0,0-1.18.89c-.13.4-.26,1.45,1.33,2.72,1.41,1.13,3.1.84,4.33.64a5.61,5.61,0,0,1,1-.12c.06,0,.54.16,1.25,2.75.05.19.09.32.11.37.23.57.81.43,1.43.27,1-.24,2.85-.7,3.72.34a1.79,1.79,0,0,1,.42,1.46,4.57,4.57,0,0,1-1.74,2.66,5,5,0,0,0-1.69,2.42c-.15.33-.3.7-.5,1.08a2.78,2.78,0,0,1-1.16,1.17,3.18,3.18,0,0,0-1.16,1.08,4.28,4.28,0,0,0-.39,2.27,5.19,5.19,0,0,1-.12,1.42c0,.13-.08.19-.07.19s-.48-.14-1-.71c-.34-.36-.13-1.66,0-2.53a9.28,9.28,0,0,0,.16-1.44,12.74,12.74,0,0,0-.66-3,14.3,14.3,0,0,1-.45-1.77c-.1-.84-1.09-1.5-2.14-2.2A6.64,6.64,0,0,1,10,20.51,2.69,2.69,0,0,1,10,20c.09-1,.26-2.87-2.56-5-2.26-1.7-2.82-3-3-3.45A17.66,17.66,0,0,1,15.6,2.94ZM20,37.64A17.64,17.64,0,0,1,3.8,13a10.89,10.89,0,0,0,2.92,3C9,17.73,8.88,19,8.8,19.92a2.38,2.38,0,0,0,0,1c.18.51.76.92,1.7,1.54.54.36,1.54,1,1.6,1.33a15,15,0,0,0,.5,2,13.29,13.29,0,0,1,.61,2.68,10.31,10.31,0,0,1-.14,1.25c-.21,1.29-.43,2.76.31,3.55a2.93,2.93,0,0,0,1.89,1.1,1.43,1.43,0,0,0,.29,0,1.31,1.31,0,0,0,1-1,6,6,0,0,0,.17-1.79A3.51,3.51,0,0,1,17,29.87a2.24,2.24,0,0,1,.77-.68,4.06,4.06,0,0,0,1.59-1.63c.21-.41.38-.8.53-1.16a3.88,3.88,0,0,1,1.27-1.9A5.76,5.76,0,0,0,23.37,21a3,3,0,0,0-.69-2.4c-1.36-1.63-3.79-1-4.95-.74l-.13,0c-.49-1.79-1.13-3.4-2.3-3.46a5.68,5.68,0,0,0-1.29.13c-1.12.19-2.38.4-3.37-.39s-1-1.24-.85-1.43a5.85,5.85,0,0,1,.76,0c1.12.1,2.5.24,3-.68a3,3,0,0,0,.3-1.47c0-.1,0-.24,0-.34a4.06,4.06,0,0,1,.59.19,2.36,2.36,0,0,0,1.62.23l.19-.07a3.38,3.38,0,0,0,2.08-1.43,1.88,1.88,0,0,0,0-1.51,16.18,16.18,0,0,0-1-2.16,5.53,5.53,0,0,1-.55-1.15V2.66A17.52,17.52,0,0,1,35,10.7a16,16,0,0,0-5.14.08c-.34.11-.67.2-1,.28-1.41.4-2.74.77-2.74,2.09a5.92,5.92,0,0,1,0,.64,1.7,1.7,0,0,0,.83,2,2.36,2.36,0,0,1,1.23,1.8c.33,1.72,2.26,1.84,3,1.89.19,0,.28.36.36.91a1.38,1.38,0,0,0,.31.87,1.69,1.69,0,0,0,.94.32,5.12,5.12,0,0,1,.57.11c-.13.16-.36.39-.54.57a6.41,6.41,0,0,0-1.55,2.06,9.18,9.18,0,0,0-.63,4.54c.27.78.89,2.61,2.3,2.91l.23,0A17.56,17.56,0,0,1,20,37.64Z" />
        </symbol>
    </defs>
</svg>