<svg xmlns="http://www.w3.org/2000/svg" xmlns:xlink="http://www.w3.org/1999/xlink" version="1.1">
    <defs>
        <symbol id="giftpur" viewBox="0 0 153 27">
            <path
                d="M8.24001 17.507H1.08301C0.485007 17.507 0.00100708 17.991 0.00100708 18.589V25.825C0.00100708 26.423 0.485007 26.907 1.08301 26.907H8.24001C8.83701 26.907 9.32201 26.423 9.32201 25.825V18.59C9.32201 17.992 8.83701 17.507 8.24001 17.507ZM18.729 17.507H11.57C10.973 17.507 10.488 17.991 10.488 18.589V25.825C10.488 26.423 10.973 26.907 11.57 26.907H18.729C19.327 26.907 19.811 26.423 19.811 25.825V18.59C19.811 17.992 19.327 17.507 18.729 17.507Z"
                fill="#133463" />
            <path
                d="M8.24 6.86304H1.083C0.484 6.86304 0 7.34704 0 7.94504V15.181C0 15.779 0.484 16.264 1.082 16.264H8.24C8.837 16.264 9.322 15.779 9.322 15.181V7.94504C9.322 7.34704 8.837 6.86304 8.24 6.86304ZM18.729 6.86304H11.57C10.973 6.86304 10.488 7.34704 10.488 7.94504V15.181C10.488 15.779 10.973 16.264 11.57 16.264H18.729C19.327 16.264 19.811 15.779 19.811 15.181V7.94504C19.811 7.34704 19.327 6.86304 18.729 6.86304Z"
                fill="#3EBBF0" />
            <path
                d="M14.315 2.68704C13.641 4.33504 11.121 6.03404 9.95301 6.67304C9.94201 5.17004 10.173 1.84804 11.125 0.622039C12.315 -0.911961 15.158 0.62604 14.315 2.68704Z"
                fill="#133463" />
            <path
                d="M9.953 6.67302C9.083 5.97002 7.267 4.21502 6.968 2.81102C6.595 1.05502 9.207 0.353024 9.953 1.75802C10.55 2.88102 10.201 5.50202 9.953 6.67302Z"
                fill="#133463" />
            <path
                d="M36.0286 25C33.871 25 32.0331 24.5442 30.5148 23.6326C28.9965 22.7008 27.8378 21.4144 27.0387 19.7735C26.2395 18.1124 25.84 16.1777 25.84 13.9696C25.84 12.3288 26.0597 10.8398 26.4993 9.50279C26.9587 8.14552 27.618 6.98069 28.477 6.00832C29.3561 5.03594 30.4249 4.29653 31.6834 3.79008C32.942 3.26338 34.3704 3.00003 35.9686 3.00003C37.5868 3.00003 39.0352 3.26338 40.3138 3.79008C41.5923 4.31679 42.6511 5.10684 43.4902 6.16025C44.3492 7.1934 44.9086 8.4899 45.1683 10.0498H40.8232C40.6634 9.38125 40.3737 8.83428 39.9542 8.40887C39.5346 7.9632 39.0052 7.62894 38.3659 7.40611C37.7466 7.18327 37.0374 7.07185 36.2383 7.07185C35.1396 7.07185 34.2106 7.2643 33.4515 7.6492C32.6923 8.0341 32.073 8.5608 31.5935 9.22931C31.1341 9.87756 30.7944 10.6271 30.5747 11.4779C30.3749 12.3085 30.275 13.1695 30.275 14.0608C30.275 15.2763 30.4748 16.4107 30.8743 17.4641C31.2739 18.4973 31.9032 19.338 32.7622 19.9862C33.6213 20.6142 34.76 20.9282 36.1784 20.9282C37.1173 20.9282 37.9464 20.7864 38.6656 20.5028C39.4048 20.1989 39.9941 19.7533 40.4336 19.1658C40.8931 18.558 41.1528 17.8288 41.2128 16.9779H35.4292V13.2404H45.6178V14.4254C45.6178 16.6133 45.2582 18.4973 44.539 20.0774C43.8198 21.6575 42.751 22.873 41.3326 23.7238C39.9142 24.5746 38.1462 25 36.0286 25Z"
                fill="#133463" />
            <path d="M48.9567 24.7569V3.24312H53.2419V24.7569H48.9567Z" fill="#133463" />
            <path d="M57.7359 24.7569V3.24312H72.839V7.28456H62.0211V12.8453H71.1609V16.8564H62.0211V24.7569H57.7359Z"
                fill="#133463" />
            <path d="M80.9014 24.7569V7.28456H74.4286V3.24312H91.7192V7.28456H85.2165V24.7569H80.9014Z"
                fill="#133463" />
            <path
                d="M94.2282 24.7569V3.24312H102.499C104.117 3.24312 105.526 3.49635 106.724 4.00279C107.943 4.48898 108.882 5.27904 109.541 6.37296C110.2 7.44662 110.53 8.88493 110.53 10.6879C110.53 12.3693 110.16 13.7772 109.421 14.9116C108.702 16.0461 107.713 16.8969 106.454 17.4641C105.196 18.0111 103.768 18.2846 102.169 18.2846H98.5134V24.7569H94.2282ZM98.5134 14.3951H102.109C103.388 14.3951 104.397 14.0912 105.136 13.4835C105.895 12.8555 106.275 11.9135 106.275 10.6575C106.275 9.54331 105.955 8.70261 105.316 8.13539C104.696 7.56817 103.698 7.28456 102.319 7.28456H98.5134V14.3951Z"
                fill="#133463" />
            <path
                d="M122.646 25C120.568 25 118.86 24.605 117.522 23.8149C116.203 23.0249 115.224 21.8905 114.585 20.4116C113.966 18.9328 113.656 17.1603 113.656 15.094V3.24312H117.941V15.3067C117.941 16.279 118.081 17.2008 118.361 18.0719C118.66 18.9227 119.15 19.6216 119.829 20.1685C120.528 20.6952 121.477 20.9586 122.676 20.9586C123.895 20.9586 124.833 20.6952 125.493 20.1685C126.152 19.6216 126.612 18.9126 126.871 18.0415C127.131 17.1704 127.261 16.2588 127.261 15.3067V3.24312H131.546V15.094C131.546 17.14 131.236 18.9126 130.617 20.4116C129.998 21.8905 129.029 23.0249 127.71 23.8149C126.392 24.605 124.704 25 122.646 25Z"
                fill="#133463" />
            <path
                d="M135.9 24.7569V3.24312H144.441C145.499 3.24312 146.508 3.35454 147.467 3.57738C148.446 3.77996 149.325 4.13447 150.104 4.64091C150.883 5.14736 151.493 5.85638 151.932 6.76799C152.392 7.65933 152.621 8.8039 152.621 10.2017C152.621 11.2348 152.452 12.1667 152.112 12.9973C151.772 13.8278 151.273 14.5369 150.614 15.1243C149.954 15.7118 149.165 16.1676 148.246 16.4917L152.951 24.7569H148.127L143.991 17.1906H140.185V24.7569H135.9ZM140.185 13.3315H144.141C144.76 13.3315 145.32 13.2809 145.819 13.1796C146.339 13.058 146.778 12.8757 147.138 12.6326C147.517 12.3895 147.807 12.0654 148.007 11.6603C148.226 11.2551 148.336 10.7588 148.336 10.1713C148.356 9.42176 148.196 8.84441 147.857 8.43926C147.537 8.01384 147.078 7.7201 146.478 7.55804C145.899 7.37572 145.21 7.28456 144.411 7.28456H140.185V13.3315Z"
                fill="#133463" />
        </symbol>


        <symbol id="flowerpur" viewBox="0 0 810 130">
            <path d="M200.934 23.6813H158.469V45.6538H195.291V64.0824H158.469V103.066H139V5.25274H200.934V23.6813Z"
                fill="#010E36" />
            <path
                d="M237.345 103.066C221.826 103.066 213.785 95.6945 213.785 81.6604V1H232.125V78.6835C232.125 83.3615 234.947 86.1967 240.025 86.1967H244.399V103.066H237.345Z"
                fill="#010E36" />
            <path
                d="M288.159 104.767C266.151 104.767 249.503 88.4648 249.503 66.9176C249.503 45.3703 266.151 29.0681 288.159 29.0681C310.168 29.0681 326.815 45.3703 326.815 66.9176C326.815 88.4648 310.168 104.767 288.159 104.767ZM288.159 86.9055C299.587 86.9055 307.91 78.2582 307.91 66.9176C307.91 55.5769 299.587 46.9297 288.159 46.9297C276.873 46.9297 268.408 55.5769 268.408 66.9176C268.408 78.2582 276.873 86.9055 288.159 86.9055Z"
                fill="#010E36" />
            <path
                d="M527.827 67.0593C527.827 68.9022 527.686 71.5956 527.262 73.2967H470.125C472.523 82.511 479.859 88.4648 489.735 88.4648C497.212 88.4648 503.702 85.2044 506.806 80.5264H526.698C521.196 94.9857 506.947 104.767 489.453 104.767C467.162 104.767 450.515 88.4648 450.515 66.9176C450.515 45.3703 467.162 29.0681 489.171 29.0681C511.179 29.0681 527.827 45.3703 527.827 67.0593ZM489.171 45.2286C480.001 45.2286 472.805 51.0407 470.407 59.8297H508.075C505.677 51.0407 498.2 45.2286 489.171 45.2286Z"
                fill="#010E36" />
            <path
                d="M559.062 41.8264C564.705 34.1714 572.464 29.6352 581.917 29.6352V48.6308C567.244 48.6308 559.062 56.4275 559.062 68.6187V103.066H540.721V30.7692H559.062V41.8264Z"
                fill="#010E36" />
            <path
                d="M635.386 29.0681C655.419 29.0681 670.374 45.3703 670.374 66.9176C670.374 88.4648 655.419 104.767 635.386 104.767C625.651 104.767 617.61 100.514 611.967 93.5681V130H593.626V30.7692H611.967V40.267C617.61 33.3209 625.651 29.0681 635.386 29.0681ZM631.718 86.9055C643.145 86.9055 651.469 78.2582 651.469 66.9176C651.469 55.5769 643.145 46.9297 631.718 46.9297C620.432 46.9297 611.967 55.5769 611.967 66.9176C611.967 78.2582 620.432 86.9055 631.718 86.9055Z"
                fill="#010E36" />
            <path
                d="M756.101 85.2044H757.512V103.066H752.292C742.416 103.066 735.927 99.3802 733.246 92.2923C727.744 100.373 719.702 104.767 709.827 104.767C693.602 104.767 682.739 93.8517 682.739 77.1242V30.7692H701.08V71.7374C701.08 80.9516 707.005 86.9055 715.893 86.9055C725.345 86.9055 731.694 80.8099 731.694 71.4538V30.7692H750.035V79.1088C750.035 82.9363 752.292 85.2044 756.101 85.2044Z"
                fill="#010E36" />
            <path
                d="M786.801 41.8264C792.444 34.1714 800.204 29.6352 809.656 29.6352V48.6308C794.984 48.6308 786.801 56.4275 786.801 68.6187V103.066H768.461V30.7692H786.801V41.8264Z"
                fill="#010E36" />
            <path
                d="M438.417 61.8143L423.604 103.066H404.699L388.898 52.8835L373.097 103.066H354.192L328.234 30.7692H349.255L364.068 79.8176L379.728 30.7692H398.492L414.151 79.8176L421.205 57.8451L423.5 49.5L441 53.5L438.417 61.8143Z"
                fill="#010E36" />
            <path
                d="M414 34.5L417.5 19.5C424.373 19.5002 431.5 19.9999 437.5 28.4999C443.5 36.9999 443 47 440.5 55L423 51C426.5 38 419 34 414 34.5Z"
                fill="#010E36" />
            <path
                d="M125 65.5C125 100.018 97.0178 128 62.5 128C27.9822 128 0 100.018 0 65.5C0 30.9822 27.9822 3 62.5 3C97.0178 3 125 30.9822 125 65.5Z"
                fill="#010E36" />
            <path d="M72.486 35.8175L62.5163 63.4609L53.4529 35.8175L62.5163 12.4793L72.486 35.8175Z" fill="#FBDA38" />
            <path d="M72.486 95.1826L62.5163 67.5393L53.4529 95.1826L62.5163 118.521L72.486 95.1826Z" fill="#FBDA38" />
            <path d="M85.8764 54.0233L64.5321 63.9538L74.9815 43.1284L93.3716 35.1143L85.8764 54.0233Z"
                fill="#90EE90" />
            <path d="M93.1872 77.0559L65.5439 67.0862L93.1872 58.0228L116.525 67.0862L93.1872 77.0559Z"
                fill="#FBDA38" />
            <path d="M74.9814 90.4465L65.0509 69.1022L85.8763 79.5516L93.8904 97.9417L74.9814 90.4465Z"
                fill="#90EE90" />
            <path d="M39.2381 54.0232L60.5824 63.9537L50.133 43.1283L31.7429 35.1142L39.2381 54.0232Z" fill="#90EE90" />
            <path d="M31.9275 77.0558L59.5708 67.0861L31.9275 58.0227L8.58926 67.0861L31.9275 77.0558Z"
                fill="#FBDA38" />
            <path d="M50.1335 90.4464L60.064 69.1021L39.2385 79.5515L31.2245 97.9417L50.1335 90.4464Z" fill="#90EE90" />
        </symbol>


        <symbol id="lacoste" viewBox="0 0 104 23">
            <path fill="currentColor"
                d="M20.3186 7.20822l3.01388 6.39755h-5.83954l2.82566-6.39755zM2.63718 4.68588H0v14.4035h10.52304v-2.30287H2.63718V4.68588zM81.4923 6.989V19.0894h2.63718V6.989h5.19896V4.68588H76.44307V6.989h5.04924zM53.38597 16.823c-2.93875 0-5.16126-2.15708-5.16126-4.93572s2.2225-4.93495 5.16126-4.93495 5.16153 2.15682 5.16153 4.93495-2.22278 4.93572-5.16153 4.93572zm-15.7859-9.87067c2.22278 0 3.46597 1.16946 4.18194 1.7913L43.6281 6.989c-.60262-.65815-2.3733-2.59576-6.06572-2.59576-4.25734 0-8.0249 2.77813-8.0249 7.49412s3.72985 7.49464 7.9872 7.49464c3.27802 0 5.5008-1.7184 6.21624-2.33997l-1.46938-2.0105c-1.1678.95077-3.01388 1.79155-4.70917 1.79155-2.93848 0-5.16153-2.15708-5.16153-4.93572s2.22304-4.93495 5.19923-4.93495zm25.84534 10.7112c.60288.47552 2.41126 1.7184 5.5762 1.7184 3.2021 0 5.80157-1.68156 5.80157-4.3139 0-5.48362-8.17514-3.729-8.17514-6.7265 0-.84078.7157-1.5355 2.59948-1.5355 2.26047 0 3.72958.9871 4.2945 1.42577l1.0932-2.1205c-.67854-.6213-2.75053-1.71814-5.3877-1.71814-3.95603 0-5.57593 2.15708-5.57593 4.27732 0 4.97178 8.1754 3.54627 8.1754 6.50755 0 1.24288-1.2809 1.79078-2.75027 1.79078-2.22278 0-3.99373-.95-4.74713-1.49867l-.9042 2.1934zm39.48385-12.97774H91.66432v14.4035h11.49086v-2.30287h-8.8534v-3.76548h7.53483v-2.3034h-7.53483V6.989h8.6275V4.68588zm-76.9973 14.4035h3.108L21.9008 4.68588h-2.97645l-6.59294 14.4035h2.75027l1.43168-3.25364h7.874l1.5445 3.25364zm27.454.29263c4.25734 0 8.0249-2.7784 8.0249-7.49464s-3.76755-7.49412-8.0249-7.49412-8.0249 2.77813-8.0249 7.49412 3.7678 7.49464 8.0249 7.49464z" />
        </symbol>

        <symbol id="gift" viewBox="0 0 20 27" fill="currentColor">
            <path
                d="M8.4 17.507H1.243c-.598 0-1.082.484-1.082 1.082v7.236c0 .598.484 1.082 1.082 1.082H8.4c.597 0 1.082-.484 1.082-1.082V18.59c0-.598-.485-1.082-1.082-1.082zM18.889 17.507H11.73c-.597 0-1.082.484-1.082 1.082v7.236c0 .598.485 1.082 1.082 1.082h7.159c.598 0 1.082-.484 1.082-1.082V18.59c0-.598-.484-1.082-1.082-1.082z"
                fill="currentColor" />
            <path
                d="M8.4 6.863H1.243C.644 6.863.16 7.347.16 7.945v7.236c0 .598.484 1.083 1.082 1.083H8.4c.597 0 1.082-.485 1.082-1.083V7.945c0-.598-.485-1.082-1.082-1.082zM18.889 6.863H11.73c-.597 0-1.082.484-1.082 1.082v7.236c0 .598.485 1.083 1.082 1.083h7.159c.598 0 1.082-.485 1.082-1.083V7.945c0-.598-.484-1.082-1.082-1.082z"
                fill="currentColor" />
            <path
                d="M14.475 2.687c-.674 1.648-3.194 3.347-4.362 3.986-.011-1.503.22-4.825 1.172-6.051 1.19-1.534 4.033.004 3.19 2.065z"
                fill="currentColor" />
            <path
                d="M10.113 6.673c-.87-.703-2.686-2.458-2.985-3.862-.373-1.756 2.239-2.458 2.985-1.053.597 1.123.248 3.744 0 4.915z"
                fill="currentColor" />
        </symbol>

        <symbol id="gift-colored" viewBox="0 0 20 27" fill="none">
            <path
                d="M8.4 17.507H1.243c-.598 0-1.082.484-1.082 1.082v7.236c0 .598.484 1.082 1.082 1.082H8.4c.597 0 1.082-.484 1.082-1.082V18.59c0-.598-.485-1.082-1.082-1.082zM18.889 17.507H11.73c-.597 0-1.082.484-1.082 1.082v7.236c0 .598.485 1.082 1.082 1.082h7.159c.598 0 1.082-.484 1.082-1.082V18.59c0-.598-.484-1.082-1.082-1.082z"
                fill="#133463" />
            <path
                d="M8.4 6.863H1.243C.644 6.863.16 7.347.16 7.945v7.236c0 .598.484 1.083 1.082 1.083H8.4c.597 0 1.082-.485 1.082-1.083V7.945c0-.598-.485-1.082-1.082-1.082zM18.889 6.863H11.73c-.597 0-1.082.484-1.082 1.082v7.236c0 .598.485 1.083 1.082 1.083h7.159c.598 0 1.082-.485 1.082-1.083V7.945c0-.598-.484-1.082-1.082-1.082z"
                fill="#3EBBF0" />
            <path
                d="M14.475 2.687c-.674 1.648-3.194 3.347-4.362 3.986-.011-1.503.22-4.825 1.172-6.051 1.19-1.534 4.033.004 3.19 2.065z"
                fill="#133463" />
            <path
                d="M10.113 6.673c-.87-.703-2.686-2.458-2.985-3.862-.373-1.756 2.239-2.458 2.985-1.053.597 1.123.248 3.744 0 4.915z"
                fill="#133463" />
        </symbol>

        <symbol id="gift-colored-line" viewBox="0 0 20 27" fill="none">
            <g clipPath="url(#prefix__clip0_12_2)" stroke="#133463">
                <path
                    d="M1.243 18.007H8.4c.32 0 .582.26.582.583v7.235c0 .322-.26.582-.582.582H1.243a.581.581 0 01-.582-.582v-7.236c0-.322.26-.582.582-.582zm10.487 0h7.159c.321 0 .582.26.582.583v7.235c0 .322-.26.582-.582.582H11.73a.582.582 0 01-.582-.582v-7.236c0-.322.26-.582.582-.582z" />
                <path
                    d="M1.243 7.363H8.4c.321 0 .582.26.582.582v7.236a.583.583 0 01-.582.583H1.242a.582.582 0 01-.582-.583V7.945c0-.322.26-.582.583-.582zm10.487 0h7.159c.322 0 .582.26.582.582v7.236c0 .323-.26.583-.582.583H11.73a.583.583 0 01-.582-.583V7.945c0-.322.26-.582.582-.582z"
                    strokeLinejoin="round" />
                <path
                    d="M14.012 2.498h0c-.288.704-1.004 1.475-1.851 2.175a15.85 15.85 0 01-1.53 1.11c.027-.646.089-1.414.201-2.165.086-.571.199-1.122.345-1.598.148-.483.319-.854.503-1.091h0c.392-.506 1.094-.559 1.706-.193.592.353.934 1.01.626 1.762zM9.671 1.992h0c.107.202.188.505.232.899.043.387.048.829.027 1.283a15.531 15.531 0 01-.154 1.538 13.316 13.316 0 01-.99-1.032c-.59-.691-1.047-1.4-1.169-1.973-.065-.305.001-.536.124-.712.13-.185.346-.336.61-.419.552-.173 1.097-.005 1.32.416z" />
            </g>
            <defs>
                <clipPath id="prefix__clip0_12_2">
                    <path fill="#fff" d="M0 0h20v27H0z" />
                </clipPath>
            </defs>
        </symbol>

        <symbol id="croco-loader" viewBox="0 0 400 200">
            <path
                d="M112.2,160c0,0,27,6.9,38,4 M61.2,92c0,0-27.7,29.2,0,60c0.4,4.2-0.7,19.2,12,21c2.1,0.2,6-0.9,7-3             c-0.3-2.2-1-6-1-6l0.8,4c0,0,4.4,6.5,8.2,5c3.3-1.9,5.4-4.8,3.3-10.3c-0.1-0.1,0.1-0.2,0.2-0.1c1.9,2.1,8.4,8.7,13.5,6.4             c3.9-1.3,6.5-5.5,7-9c0-3.7,5.9-36.5-25-27 M186.2,148c0,0-22.4-15.2-35-1c-2.3,5.2-6.2,14.3,10,31c4.6,3.4,8.8,7.4,16-1             c-1-9-1-9-1-9l1,9c0,0,10.5,10.6,18-4c2-3.1,1.1-3.4,0-6c0.3,0.6,2.4,7.3,7,7c4.5-0.3,9.5-5.2,15-11c3.9-2.6,0.8-3.7,24-4             c24.1-0.4,88,0,88,0c2.6-0.7,10.6-0.5,22-12c1.2-1.5,0.9-6.3-3-7c-2,0.1-3,0-3,0v-3v3h-21v-4v4l-23-1v-6v6c0,0-18.9-1.2-23-2             c0-2.1,0-5,0-5v5c0,0-15.7-0.1-22-15c-5.4,1.2-13.8,3.4-22-1c0,0,7.8,4.9,22,1c1-2.8,4.8-17.8,20-8c0.4-0.3,1,4,1,4l-1-4             c0,0,2.1-11.4,5-12c0.1,0.2,2-4.4,14,5c0.2,0.2,1,7,1,7l-1-8l22-10l1,9l-1-9l26-10v8v-8c0,0,19.5-11.9-4-11c-6.6,1.1-37,5.6-46,10             c-3.8-1.2-18.1-15.5-34,2c-0.1,3.8,1.5,13.2-11.2,11.2c0.3-1.7,0.1-7.3,8.5-1c1.9-2,3.6-5.7,2.7-10.2c-2.7-2.4-20.5-14.7-32,8             c-6.8-2.9-47.6-20.9-80-8c-8.9,3.1-17.8,6.4-22,7c-3.3-0.1-20.5-10.3-8-20c9.5-6,39.9-21.6,63-28c19.8-6.7,32.3-14,36-20             c2.6-4,3.7-7.1,2-9s-13.8,0.5-22.2,3.8c-10.6,3.9-60.3,15.8-68.8,18.2c-8.6,2.7-27.5,8.3-49,24c-5.1,3.8-19.6,13.2-17,29             c1.4,2.4,3.3,13.3,22,13c-0.8,2.6-5,10-5,10s23.3-3.4,25-4c1,1.9,3,8,3,8l25-4l4,10c0,0,13.1-4.5,19-9c0.5,0.1,7,13,7,13             s2.2,0.4,6-2c4.3-3,14-10,14-10l7,12c0,0,3.2,2,13-6c6.7-4.9,8-6.4,11-7" />
        </symbol>

        <symbol id="icon-accessibility" viewBox="0 0 40 40">
            <path fill="currentColor"
                d="M39.186 19.857c-4.295-6.013-9.163-9.736-14.175-11.31L27.875.958c.143-.43 0-.716-.43-.86s-.716 0-.86.43L23.722 8.26c-1.145-.286-2.434-.43-3.58-.43-6.73 0-13.46 4.152-19.186 12.17v.858c4.152 5.44 9.163 9.163 14.175 10.738h.143l-2.864 7.588c-.143.43 0 .716.43.86h.286c.286 0 .573-.143.716-.43l5.01-13.602c.43.143 1.002.143 1.432.143.286 0 .573 0 .86-.143l-2.148 6.013c-.143.43 0 .716.43.86h.286c.286 0 .573-.143.716-.43l2.577-7.016c2.148-1.002 3.58-3.15 3.58-5.584 0-.86-.143-1.718-.573-2.577l2.29-6.157c.573.286 1.29.716 1.86 1.145l-6.443 18.04c-.143.43 0 .716.43.86h.286c.286 0 .573-.143.716-.43l6.3-17.754c.573.43 1.002.86 1.575 1.29l-5.154 14.46c-.143.43.143.716.43.86h.286c.286 0 .573-.143.716-.43l5.01-13.888c.573.573 1.145 1.145 1.718 1.86L33.17 25.58c-.143.43.143.716.43.86h.286c.286 0 .573-.143.716-.43l2.577-7.588c.573.573 1.002 1.29 1.432 2.004.143.143.286.286.573.286.143 0 .286 0 .43-.143-.286 0-.143-.43-.43-.716zm-36.94.43c2.72-3.58 5.584-6.443 8.59-8.304C8.976 14.13 7.83 16.85 7.83 20c0 3.007 1.145 5.87 3.15 8.16-3.007-1.86-6.013-4.438-8.734-7.875zm13.316 9.45c-3.723-1.718-6.3-5.584-6.3-9.736C9.262 14.13 14.13 9.262 20 9.262c1.002 0 2.148.143 3.15.286l-1.718 4.438c-.43-.143-1.002-.143-1.432-.143-3.436 0-6.157 2.72-6.157 6.157 0 2.434 1.432 4.438 3.436 5.44l-1.718 4.295zm5.44-14.318l-3.293 8.734c-1.432-.86-2.434-2.29-2.434-4.152 0-2.577 2.148-4.725 4.725-4.725.286 0 .573 0 1.002.143zM20 24.725c-.286 0-.573 0-1.002-.143l3.293-8.734c1.432.86 2.434 2.29 2.434 4.152 0 2.577-2.148 4.725-4.725 4.725zm4.582-8.734c-.573-.573-1.145-1.145-1.86-1.432l1.718-4.725c.716.143 1.432.43 2.148.716l-2.004 5.44z" />
        </symbol>

        <symbol id="icon-basket" viewBox="0 0 40 40">
            <path fill-rule="evenodd" clip-rule="evenodd"
                d="M35.383 16.083L38.283 33.866L38.284 33.867H38.267C38.3002 34.0932 38.3169 34.3214 38.317 34.55C38.3188 34.9451 38.2626 35.3383 38.15 35.717C37.967 36.317 37.667 36.883 37.25 37.35C36.833 37.817 36.333 38.2 35.75 38.45C35.183 38.7 34.567 38.833 33.95 38.833H7.685C7.05812 38.8274 6.43928 38.6912 5.868 38.433C5.30096 38.1761 4.79534 37.8011 4.385 37.333C3.985 36.866 3.669 36.316 3.502 35.716C3.3883 35.3321 3.33203 34.9334 3.335 34.533C3.33508 34.3154 3.35179 34.0981 3.385 33.883L6.235 16.033C6.451 14.716 7.135 13.533 8.168 12.666C9.20437 11.8088 10.5061 11.3377 11.851 11.333H15.001V7.85V7.8C15.001 7.067 15.151 6.333 15.434 5.65C15.734 4.967 16.151 4.333 16.701 3.8C17.2463 3.26709 17.8922 2.84796 18.601 2.567C19.3108 2.28137 20.0688 2.13439 20.834 2.134C21.599 2.13586 22.3567 2.28279 23.067 2.567C23.7758 2.84796 24.4217 3.26709 24.967 3.8C25.5147 4.32733 25.9463 4.96324 26.234 5.667C26.5177 6.34246 26.6649 7.06739 26.667 7.8V7.867V11.367H29.75C31.102 11.3609 32.4125 11.8331 33.45 12.7C34.483 13.566 35.166 14.766 35.383 16.083ZM16.666 7.833V7.866H16.684V11.366H25.017V7.866V7.816C25.017 7.316 24.917 6.8 24.717 6.333C24.5 5.833 24.2 5.399 23.817 5.016C23.417 4.633 22.967 4.333 22.45 4.133C21.9375 3.92083 21.3877 3.81306 20.833 3.816C20.283 3.816 19.733 3.933 19.216 4.133C18.716 4.333 18.249 4.633 17.866 5.016C17.4778 5.38774 17.1713 5.83627 16.966 6.333C16.766 6.816 16.666 7.316 16.666 7.833ZM36.016 36.232C36.2776 35.9547 36.4666 35.617 36.566 35.249L36.563 35.25L36.58 35.233C36.647 35.016 36.68 34.766 36.68 34.533L36.647 34.116L33.747 16.333C33.5962 15.4073 33.117 14.567 32.397 13.966C31.664 13.349 30.731 13.016 29.764 13.016H26.681V16.299C26.681 16.765 26.314 17.132 25.848 17.132C25.382 17.132 25.015 16.766 25.015 16.299V13.016H16.682V16.299C16.682 16.765 16.315 17.132 15.849 17.132C15.383 17.132 15.016 16.766 15.016 16.299V13.016H11.866C10.9 13.016 9.966 13.349 9.233 13.966C8.51851 14.5716 8.04047 15.4097 7.883 16.333L5.033 34.116L5 34.516C5 34.75 5.033 35 5.1 35.232C5.2166 35.5928 5.40354 35.9269 5.65 36.215C5.90676 36.5019 6.21862 36.7341 6.567 36.898C6.92124 37.065 7.3084 37.1504 7.7 37.148H33.933H33.95C34.3396 37.148 34.7251 37.0688 35.083 36.915C35.449 36.749 35.766 36.515 36.016 36.232Z"
                fill="currentColor" />
            <path
                d="M20.2 27.4293H16.6215C16.3225 27.4293 16.0805 27.6623 16.0805 27.9502V31.4342C16.0805 31.7222 16.3225 31.9552 16.6215 31.9552H20.2C20.4985 31.9552 20.741 31.7222 20.741 31.4342V27.9507C20.741 27.6628 20.4985 27.4293 20.2 27.4293ZM25.4445 27.4293H21.865C21.5665 27.4293 21.324 27.6623 21.324 27.9502V31.4342C21.324 31.7222 21.5665 31.9552 21.865 31.9552H25.4445C25.7435 31.9552 25.9855 31.7222 25.9855 31.4342V27.9507C25.9855 27.6628 25.7435 27.4293 25.4445 27.4293Z"
                fill="currentColor" />
            <path
                d="M20.2 22.3044H16.6215C16.322 22.3044 16.08 22.5374 16.08 22.8254V26.3094C16.08 26.5973 16.322 26.8308 16.621 26.8308H20.2C20.4985 26.8308 20.741 26.5973 20.741 26.3094V22.8254C20.741 22.5374 20.4985 22.3044 20.2 22.3044ZM25.4445 22.3044H21.865C21.5665 22.3044 21.324 22.5374 21.324 22.8254V26.3094C21.324 26.5973 21.5665 26.8308 21.865 26.8308H25.4445C25.7435 26.8308 25.9855 26.5973 25.9855 26.3094V22.8254C25.9855 22.5374 25.7435 22.3044 25.4445 22.3044Z"
                fill="currentColor" />
            <path
                d="M23.2375 20.2937C22.9005 21.0872 21.6405 21.9052 21.0565 22.2129C21.051 21.4892 21.1665 19.8898 21.6425 19.2995C22.2375 18.5609 23.659 19.3014 23.2375 20.2937Z"
                fill="currentColor" />
            <path
                d="M21.0565 22.2129C20.6215 21.8744 19.7135 21.0294 19.564 20.3534C19.3775 19.508 20.6835 19.17 21.0565 19.8464C21.355 20.3871 21.1805 21.6491 21.0565 22.2129Z"
                fill="currentColor" />
        </symbol>

        <symbol id="icon-cart" viewBox="0 0 24 24">
            <path
                d="M5.196 19.9444C6.036 19.9444 6.696 20.6044 6.696 21.46C6.696 22.3156 6.036 23 5.196 23C4.356 23 3.696 22.3278 3.696 21.4722C3.696 20.6167 4.356 19.9444 5.196 19.9444ZM19.38 19.9444C20.22 19.9444 20.88 20.6044 20.88 21.46C20.88 22.3156 20.22 23 19.38 23C18.54 23 17.88 22.3278 17.88 21.4722C17.88 20.6167 18.54 19.9444 19.38 19.9444ZM0.3 1L3.528 1.61111L24 4.50778L21.504 13.2344L6.384 13.7844L6.78 16.1922C6.888 16.8033 7.38 17.28 7.98 17.3411H21.168V19.0156H8.124C7.44812 19.0144 6.79242 18.7808 6.26316 18.3527C5.73391 17.9246 5.3621 17.3269 5.208 16.6567L5.172 16.4733L4.704 13.6622L2.724 3.13889L0 2.63778L0.3 1ZM4.44 3.42L6.084 12.1344L20.256 11.6211L21.9 5.90111L4.44 3.42Z"
                fill="currentColor" />
        </symbol>

        <symbol id="icon-person" viewBox="0 0 24 24">
            <path xmlns="http://www.w3.org/2000/svg" fill="currentColor"
                d="M12 2a10 10 0 1 1 0 20 10 10 0 0 1 0-20m0 1.3a8.7 8.7 0 1 0 0 17.4 8.7 8.7 0 0 0 0-17.4m5.21 12.74.18.17-.92.92c-2.25-2.25-6.44-2.3-8.78-.15l-.16.15-.92-.92c2.75-2.75 7.76-2.8 10.6-.17M12 6.42a3.55 3.55 0 1 1 0 7.1 3.55 3.55 0 0 1 0-7.1m0 1.3a2.25 2.25 0 1 0 0 4.5 2.25 2.25 0 0 0 0-4.5" />
        </symbol>

        <symbol id="icon-burger" viewBox="0 0 40 40">
            <path fill="currentColor"
                d="M12 30.3c0-.4.3-.8.8-.8h26.4c.4 0 .8.3.8.8 0 .4-.3.8-.8.8H12.8c-.5 0-.8-.3-.8-.8zm.8-9.5h26.4c.4 0 .8-.3.8-.8 0-.4-.3-.8-.8-.8H12.8c-.5 0-.8.4-.8.8s.3.8.8.8zm0-10.3h26.4c.4 0 .8-.3.8-.8s-.3-.8-.8-.8H12.8c-.5 0-.8.3-.8.8 0 .4.3.8.8.8z" />
        </symbol>

        <symbol id="icon-burger-search" viewBox="0 0 40 40">
            <path fill="currentColor"
                d="M36.666 32.5c0 .458-.375.833-.833.833H4.166c-.458 0-.833-.375-.833-.833s.375-.833.833-.833h31.667c.458 0 .833.375.833.833zM35.833 20H24.166c-.458 0-.833.375-.833.833s.375.833.833.833h11.667c.458 0 .833-.375.833-.833S36.291 20 35.833 20zm-15-10h15c.458 0 .833-.375.833-.833s-.375-.833-.833-.833h-15c-.458 0-.833.375-.833.833s.375.833.833.833zm-17.5 6.183c0-4.325 3.525-7.85 7.85-7.85s7.85 3.525 7.85 7.85a7.8 7.8 0 0 1-1.75 4.925l4.133 4.133a.83.83 0 0 1 0 1.175c-.158.167-.367.25-.583.25s-.425-.083-.592-.242l-4.133-4.133a7.8 7.8 0 0 1-4.925 1.75c-4.325-.008-7.85-3.525-7.85-7.858zm1.667 0c0 3.408 2.775 6.183 6.183 6.183s6.183-2.775 6.183-6.183S14.591 10 11.183 10 5 12.775 5 16.183z" />
        </symbol>

        <symbol id="icon-close" viewBox="0 0 40 40">
            <path fill="currentColor"
                d="M27.2 27.3c-.2.1-.3.2-.5.2s-.4-.1-.5-.2L20 21l-6.3 6.3c-.2.1-.3.2-.5.2s-.4-.1-.5-.2c-.3-.3-.3-.7 0-1L19 20l-6.3-6.3c-.3-.3-.3-.7 0-1s.7-.3 1 0L20 19l6.3-6.3c.3-.3.7-.3 1 0a.91.91 0 0 1 0 1L21 20l6.3 6.3c.2.3.2.7-.1 1z" />
        </symbol>

        <symbol id="icon-my-account" viewBox="0 0 40 40">
            <path
                d="M20 18C24.4148 18 28 14.4148 28 10C28 5.58521 24.4148 2 20 2C15.5852 2 12 5.58521 12 10C12 14.4148 15.5852 18 20 18ZM15.5185 5.51849C16.6638 4.37321 18.2403 3.65916 20 3.65916C21.7597 3.65916 23.3362 4.37321 24.4815 5.51849C25.6268 6.66376 26.3408 8.24026 26.3408 10C26.3408 11.7597 25.6268 13.3362 24.4815 14.4815C23.3362 15.6268 21.7597 16.3408 20 16.3408C18.2403 16.3408 16.6638 15.6268 15.5185 14.4815C14.3732 13.3362 13.6592 11.7597 13.6592 10C13.6592 8.24026 14.3732 6.66376 15.5185 5.51849Z"
                fill="currentColor" />
            <path
                d="M22.4956 29.5545H20.328C20.1469 29.5545 20.0003 29.6805 20.0003 29.836V31.7185C20.0003 31.8741 20.1469 32 20.328 32H22.4956C22.6764 32 22.8233 31.8741 22.8233 31.7185V29.8363C22.8233 29.6807 22.6764 29.5545 22.4956 29.5545ZM25.6723 29.5545H23.5041C23.3233 29.5545 23.1764 29.6805 23.1764 29.836V31.7185C23.1764 31.8741 23.3233 32 23.5041 32H25.6723C25.8534 32 26 31.8741 26 31.7185V29.8363C26 29.6807 25.8534 29.5545 25.6723 29.5545Z"
                fill="currentColor" />
            <path
                d="M22.4956 26.7855H20.328C20.1466 26.7855 20 26.9114 20 27.0669V28.9494C20 29.105 20.1466 29.2312 20.3277 29.2312H22.4956C22.6764 29.2312 22.8233 29.105 22.8233 28.9494V27.0669C22.8233 26.9114 22.6764 26.7855 22.4956 26.7855ZM25.6723 26.7855H23.5041C23.3233 26.7855 23.1764 26.9114 23.1764 27.0669V28.9494C23.1764 29.105 23.3233 29.2312 23.5041 29.2312H25.6723C25.8534 29.2312 26 29.105 26 28.9494V27.0669C26 26.9114 25.8534 26.7855 25.6723 26.7855Z"
                fill="currentColor" />
            <path
                d="M24.3355 25.699C24.1313 26.1278 23.3681 26.5698 23.0144 26.736C23.0111 26.345 23.081 25.4808 23.3693 25.1618C23.7297 24.7627 24.5908 25.1629 24.3355 25.699Z"
                fill="currentColor" />
            <path
                d="M23.0144 26.736C22.7509 26.5531 22.2009 26.0966 22.1103 25.7313C21.9974 25.2745 22.7885 25.0918 23.0144 25.4574C23.1952 25.7495 23.0895 26.4314 23.0144 26.736Z"
                fill="currentColor" />
            <path
                d="M33.0336 31.0958C33.3333 31.9399 33.5727 32.81 33.75 33.6972C34.0509 35.2027 32.7858 36.625 31 36.625L9 36.625C7.21418 36.625 5.94906 35.2027 6.24996 33.6972C6.4273 32.81 6.6667 31.9399 6.96638 31.0958C7.68616 29.0685 8.73845 27.2343 10.0577 25.6951C11.3768 24.1561 12.9355 22.9439 14.6405 22.1199C16.3448 21.2963 18.1655 20.875 20 20.875C21.8345 20.875 23.6552 21.2963 25.3595 22.1199C27.0645 22.9439 28.6232 24.1561 29.9423 25.6951C31.2615 27.2343 32.3138 29.0685 33.0336 31.0958Z"
                stroke="currentColor" stroke-width="1.75" />
        </symbol>

        <symbol id="icon-my-account-logged" viewBox="0 0 40 40">
            <use xlink:href="#icon-my-account" x="0" y="0" />
            <path fill="currentColor"
                d="M40.533 3.566c-0.333-0.317-0.85-0.317-1.183 0.017l-5.217 5.367-2.717-2.8c-0.317-0.333-0.85-0.333-1.183-0.017s-0.333 0.85-0.017 1.183l3.317 3.417c0.15 0.167 0.367 0.25 0.6 0.25s0.433-0.083 0.6-0.25l5.8-5.983c0.317-0.333 0.317-0.85-0.017-1.183h0.017z" />
        </symbol>

        <symbol id="icon-search" viewBox="0 0 40 40">
            <path fill="currentColor"
                d="M37.7 36.8L27.5 26.6c2.6-2.7 4-6.2 4-10 0-3.9-1.5-7.5-4.3-10.3S20.8 2.1 16.9 2c-4 0-7.5 1.6-10.3 4.3s-4.3 6.4-4.3 10.3 1.5 7.5 4.3 10.3c2.7 2.8 6.4 4.3 10.3 4.3 3.6 0 6.9-1.3 9.6-3.6l10.2 10.2c.1.1.3.2.5.2s.4-.1.5-.2c.1-.3.1-.8 0-1zm-20.8-7c-3.5 0-6.8-1.4-9.3-3.9s-3.9-5.8-3.8-9.3c0-3.5 1.4-6.8 3.9-9.3s5.8-3.8 9.3-3.8 6.8 1.4 9.3 3.9 3.9 5.8 3.8 9.3c0 3.5-1.4 6.8-3.9 9.3-2.6 2.4-5.8 3.8-9.3 3.8z" />
        </symbol>

        <symbol id="icon-store-locator" viewBox="0 0 40 40">
            <use xlink:href="#gift" color="currentColor" fill="currentColor" x="40" y="20" transform="scale(0.32)" />
            <path fill="currentColor"
                d="M20 2.4c6.7 0 12.1 5.4 12.1 12.1 0 2.3-.6 4.5-1.8 6.4l-.1.1L20 36.5 9.9 21l-.1-.1C6.2 15.2 8 7.8 13.6 4.2c2-1.2 4.2-1.8 6.4-1.8M20 1C12.6 1 6.6 7 6.6 14.4c0 2.5.7 5 2 7.1L20 39l11.4-17.4c3.9-6.3 2-14.6-4.2-18.5C25 1.7 22.5 1 20 1z" />
        </symbol>

        <symbol id="icon-world-map" viewBox="0 0 40 40">
            <path fill="currentColor"
                d="M20,1A19,19,0,1,0,39,20,19,19,0,0,0,20,1ZM34.06,30.58a2.07,2.07,0,0,1-.92-.06c-.48-.1-1-.81-1.39-2.1a8.39,8.39,0,0,1,.61-3.7,5.33,5.33,0,0,1,1.27-1.65c.53-.52.95-.94,1-1.47.09-1-1.07-1.18-1.7-1.28l-.2,0a.51.51,0,0,1,0-.13c-.09-.6-.28-1.87-1.49-1.95s-1.76-.34-1.87-.9a3.55,3.55,0,0,0-1.84-2.64c-.24-.13-.26-.14-.2-.77,0-.22,0-.47,0-.75s.69-.59,1.84-.91l1-.29c1.25-.39,4.18-.11,5.53.07A17.53,17.53,0,0,1,34.07,30.6ZM15.6,2.94V4.4a4.19,4.19,0,0,0,.7,1.74,14,14,0,0,1,.95,2,.68.68,0,0,1,0,.57c-.2.41-1,.67-1.37.8l-.22.08a2.3,2.3,0,0,1-.76-.22,2.46,2.46,0,0,0-1.47-.24c-.77.21-.78,1-.79,1.51a2,2,0,0,1-.14.89c-.18.22-1.43.1-1.84.06a5.61,5.61,0,0,0-.94-.05,1.27,1.27,0,0,0-1.18.89c-.13.4-.26,1.45,1.33,2.72,1.41,1.13,3.1.84,4.33.64a5.61,5.61,0,0,1,1-.12c.06,0,.54.16,1.25,2.75.05.19.09.32.11.37.23.57.81.43,1.43.27,1-.24,2.85-.7,3.72.34a1.79,1.79,0,0,1,.42,1.46,4.57,4.57,0,0,1-1.74,2.66,5,5,0,0,0-1.69,2.42c-.15.33-.3.7-.5,1.08a2.78,2.78,0,0,1-1.16,1.17,3.18,3.18,0,0,0-1.16,1.08,4.28,4.28,0,0,0-.39,2.27,5.19,5.19,0,0,1-.12,1.42c0,.13-.08.19-.07.19s-.48-.14-1-.71c-.34-.36-.13-1.66,0-2.53a9.28,9.28,0,0,0,.16-1.44,12.74,12.74,0,0,0-.66-3,14.3,14.3,0,0,1-.45-1.77c-.1-.84-1.09-1.5-2.14-2.2A6.64,6.64,0,0,1,10,20.51,2.69,2.69,0,0,1,10,20c.09-1,.26-2.87-2.56-5-2.26-1.7-2.82-3-3-3.45A17.66,17.66,0,0,1,15.6,2.94ZM20,37.64A17.64,17.64,0,0,1,3.8,13a10.89,10.89,0,0,0,2.92,3C9,17.73,8.88,19,8.8,19.92a2.38,2.38,0,0,0,0,1c.18.51.76.92,1.7,1.54.54.36,1.54,1,1.6,1.33a15,15,0,0,0,.5,2,13.29,13.29,0,0,1,.61,2.68,10.31,10.31,0,0,1-.14,1.25c-.21,1.29-.43,2.76.31,3.55a2.93,2.93,0,0,0,1.89,1.1,1.43,1.43,0,0,0,.29,0,1.31,1.31,0,0,0,1-1,6,6,0,0,0,.17-1.79A3.51,3.51,0,0,1,17,29.87a2.24,2.24,0,0,1,.77-.68,4.06,4.06,0,0,0,1.59-1.63c.21-.41.38-.8.53-1.16a3.88,3.88,0,0,1,1.27-1.9A5.76,5.76,0,0,0,23.37,21a3,3,0,0,0-.69-2.4c-1.36-1.63-3.79-1-4.95-.74l-.13,0c-.49-1.79-1.13-3.4-2.3-3.46a5.68,5.68,0,0,0-1.29.13c-1.12.19-2.38.4-3.37-.39s-1-1.24-.85-1.43a5.85,5.85,0,0,1,.76,0c1.12.1,2.5.24,3-.68a3,3,0,0,0,.3-1.47c0-.1,0-.24,0-.34a4.06,4.06,0,0,1,.59.19,2.36,2.36,0,0,0,1.62.23l.19-.07a3.38,3.38,0,0,0,2.08-1.43,1.88,1.88,0,0,0,0-1.51,16.18,16.18,0,0,0-1-2.16,5.53,5.53,0,0,1-.55-1.15V2.66A17.52,17.52,0,0,1,35,10.7a16,16,0,0,0-5.14.08c-.34.11-.67.2-1,.28-1.41.4-2.74.77-2.74,2.09a5.92,5.92,0,0,1,0,.64,1.7,1.7,0,0,0,.83,2,2.36,2.36,0,0,1,1.23,1.8c.33,1.72,2.26,1.84,3,1.89.19,0,.28.36.36.91a1.38,1.38,0,0,0,.31.87,1.69,1.69,0,0,0,.94.32,5.12,5.12,0,0,1,.57.11c-.13.16-.36.39-.54.57a6.41,6.41,0,0,0-1.55,2.06,9.18,9.18,0,0,0-.63,4.54c.27.78.89,2.61,2.3,2.91l.23,0A17.56,17.56,0,0,1,20,37.64Z" />
        </symbol>
    </defs>
</svg>