<svg xmlns="http://www.w3.org/2000/svg" xmlns:xlink="http://www.w3.org/1999/xlink" version="1.1">
    <defs>
        <symbol id="icon-home" viewBox="0 0 100 100">
            <path
                d="M15 42.2997C15 40.3275 15.9692 38.4813 17.5924 37.3612L46.5924 17.3512C48.6437 15.9359 51.3563 15.9359 53.4076 17.3512L82.4075 37.3612C84.0308 38.4813 85 40.3275 85 42.2997V79C85 82.3137 82.3137 85 79 85H68.7703C65.4566 85 62.7703 82.3137 62.7703 79V59.0625C62.7703 55.7488 60.084 53.0625 56.7703 53.0625H43.2297C39.916 53.0625 37.2297 55.7488 37.2297 59.0625V79C37.2297 82.3137 34.5434 85 31.2297 85H21C17.6863 85 15 82.3137 15 79V42.2997Z"
                fill="none" stroke="currentColor" stroke-width="3.5" stroke-linejoin="round" />
        </symbol>

        <symbol id="icon-user" viewBox="0 0 100 100">
            <path
                d="M60.432 71.3809H56.9966C56.7096 71.3809 56.4773 71.596 56.4773 71.8618V75.0778C56.4773 75.3436 56.7096 75.5587 56.9966 75.5587H60.432C60.7186 75.5587 60.9514 75.3436 60.9514 75.0778V71.8622C60.9514 71.5965 60.7186 71.3809 60.432 71.3809ZM65.4667 71.3809H62.0304C61.7438 71.3809 61.511 71.596 61.511 71.8618V75.0778C61.511 75.3436 61.7438 75.5587 62.0304 75.5587H65.4667C65.7538 75.5587 65.9861 75.3436 65.9861 75.0778V71.8622C65.9861 71.5965 65.7538 71.3809 65.4667 71.3809Z"
                fill="currentColor" />
            <path
                d="M60.432 66.6502H56.9966C56.7091 66.6502 56.4768 66.8653 56.4768 67.1311V70.3471C56.4768 70.6129 56.7091 70.8285 56.9962 70.8285H60.432C60.7186 70.8285 60.9514 70.6129 60.9514 70.3471V67.1311C60.9514 66.8653 60.7186 66.6502 60.432 66.6502ZM65.4667 66.6502H62.0304C61.7438 66.6502 61.511 66.8653 61.511 67.1311V70.3471C61.511 70.6129 61.7438 70.8285 62.0304 70.8285H65.4667C65.7538 70.8285 65.9861 70.6129 65.9861 70.3471V67.1311C65.9861 66.8653 65.7538 66.6502 65.4667 66.6502Z"
                fill="currentColor" />
            <path
                d="M63.348 64.7942C63.0245 65.5267 61.8149 66.2818 61.2542 66.5658C61.249 65.8978 61.3598 64.4213 61.8168 63.8764C62.388 63.1947 63.7526 63.8782 63.348 64.7942Z"
                fill="currentColor" />
            <path
                d="M61.2542 66.5658C60.8366 66.2533 59.965 65.4733 59.8214 64.8493C59.6424 64.0689 60.8962 63.7569 61.2542 64.3813C61.5408 64.8804 61.3733 66.0453 61.2542 66.5658Z"
                fill="currentColor" />
            <path
                d="M50 50.8C41.2 50.8 34.2 42 34.2 31.2C34.2 21.2 40.6 14.6 50 14.6C59.4 14.6 65.8 21.2 65.8 31.2C65.8 42 58.8 50.8 50 50.8ZM50 17.4C43.8 17.4 37 21 37 31.2C37 40.4 42.8 48 50 48C57.2 48 63 40.6 63 31.2C63 21 56.2 17.4 50 17.4ZM50 85.4C27 85.4 20.4 74 20.2 73.4C20 73.2 20 73 20 72.8C20 64.2 27.8 54.8 50 54.8C72.2 54.8 80 64 80 72.8C80 73 80 73.2 79.8 73.4C79.6 74 73 85.4 50 85.4ZM22.8 72.4C24 74 30.8 82.6 50 82.6C69.2 82.6 76 74.2 77.2 72.4C77 63.4 66.6 57.6 50 57.6C33.4 57.6 23 63.4 22.8 72.4Z"
                fill="currentColor" />
        </symbol>

        <symbol id="icon-menu" viewBox="0 0 100 100">
            <rect x="14" y="17" width="72" height="3.22185" rx="1.61093" fill="currentColor" />
            <rect x="14" y="48.2219" width="72" height="3.22185" rx="1.61093" fill="currentColor" />
            <rect x="14" y="79.4437" width="72" height="3.22185" rx="1.61093" fill="currentColor" />
        </symbol>

        <symbol id="icon-basket" viewBox="0 0 100 100">
            <path
                d="M41.4112 64.478H34.4832C33.9044 64.478 33.4359 64.9512 33.4359 65.5359V72.6111C33.4359 73.1958 33.9044 73.6691 34.4832 73.6691H41.4112C41.9891 73.6691 42.4586 73.1958 42.4586 72.6111V65.5369C42.4586 64.9522 41.9891 64.478 41.4112 64.478ZM51.5646 64.478H44.6346C44.0567 64.478 43.5873 64.9512 43.5873 65.5359V72.6111C43.5873 73.1958 44.0567 73.6691 44.6346 73.6691H51.5646C52.1434 73.6691 52.6119 73.1958 52.6119 72.6111V65.5369C52.6119 64.9522 52.1434 64.478 51.5646 64.478Z"
                fill="currentColor" />
            <path
                d="M41.4112 54.0705H34.4832C33.9034 54.0705 33.4349 54.5437 33.4349 55.1284V62.2036C33.4349 62.7884 33.9034 63.2626 34.4823 63.2626H41.4112C41.9891 63.2626 42.4586 62.7884 42.4586 62.2036V55.1284C42.4586 54.5437 41.9891 54.0705 41.4112 54.0705ZM51.5646 54.0705H44.6346C44.0567 54.0705 43.5873 54.5437 43.5873 55.1284V62.2036C43.5873 62.7884 44.0567 63.2626 44.6346 63.2626H51.5646C52.1434 63.2626 52.6119 62.7884 52.6119 62.2036V55.1284C52.6119 54.5437 52.1434 54.0705 51.5646 54.0705Z"
                fill="currentColor" />
            <path
                d="M47.2918 49.9873C46.6394 51.5987 44.2 53.2599 43.0694 53.8847C43.0587 52.4151 43.2823 49.1669 44.2039 47.9682C45.3558 46.4683 48.1078 47.9721 47.2918 49.9873Z"
                fill="currentColor" />
            <path
                d="M43.0694 53.8847C42.2272 53.1973 40.4693 51.4813 40.1799 50.1085C39.8188 48.3916 42.3473 47.7052 43.0694 49.0789C43.6473 50.177 43.3094 52.7397 43.0694 53.8847Z"
                fill="currentColor" />
            <path
                d="M87.4 80.58L79.92 37.9C79.48 35.04 76.62 32.62 73.76 32.62H66.06V24.7C66.06 18.76 61.22 13.92 55.28 13.92C53.52 13.92 51.54 14.36 50 15.24C44.94 12.38 38.56 14.14 35.7 19.2C34.6 20.74 34.16 22.72 34.16 24.48V32.4H26.9C23.6 32.4 20.96 34.82 20.52 37.68L12.6 80.58C12.16 83 13.7 85.42 15.9 85.86H83C85.42 85.86 87.62 84.1 87.62 81.68C87.4 81.46 87.4 81.02 87.4 80.58ZM55.28 16.56C59.9 16.56 63.2 20.08 63.2 24.48V32.4H55.28V24.7C55.28 22.06 54.18 19.42 52.42 17.22C53.3 17 54.18 16.56 55.28 16.56ZM52.64 24.7V32.62H47.36V24.7C47.36 22.5 48.46 20.08 50 18.76C51.54 20.08 52.64 22.28 52.64 24.7ZM36.36 24.7C36.36 20.08 39.88 16.78 44.28 16.78C45.38 16.78 46.48 17 47.14 17.22C45.38 19.42 44.5 21.84 44.5 24.7V32.62H36.58L36.36 24.7ZM61.22 83.44H17C16.56 83.44 15.9 83.22 15.68 83C15.24 82.56 15.24 81.9 15.24 81.46L22.72 38.78C23.16 37.02 24.92 35.48 26.68 35.48H33.94V39.44C33.94 40.169 34.531 40.76 35.26 40.76C35.989 40.76 36.58 40.169 36.58 39.44V35.48H52.64V39.44C52.64 40.169 53.231 40.76 53.96 40.76C54.689 40.76 55.28 40.169 55.28 39.44V35.48H68.04L61.22 83.44ZM84.1 82.78C83.88 83 83.22 83.22 82.78 83.22H63.64L70.9 35.26H73.32C75.08 35.26 76.62 36.58 77.06 38.56L84.54 81.24C84.76 81.68 84.76 82.34 84.1 82.78Z"
                fill="currentColor" />
        </symbol>

        <symbol id="icon-wishlist" viewBox="0 0 100 100">
            <path
                d="M50 85.49L18.5 53.99C9.67999 45.17 9.67999 30.68 18.5 21.65C27.11 13.04 40.97 12.83 50 20.81C59.03 13.04 72.89 13.25 81.5 21.86C85.91 26.27 88.22 31.94 88.22 38.03C88.22 44.12 85.91 49.79 81.5 54.2L50 85.49ZM34.67 17.66C29.42 17.66 24.38 19.55 20.39 23.54C12.62 31.52 12.62 44.33 20.6 52.1L50 81.71L79.4 52.31C83.18 48.53 85.28 43.49 85.28 38.03C85.28 32.57 83.18 27.53 79.4 23.75C71.63 15.98 58.82 15.98 51.05 23.75L50 24.8L48.74 23.54C44.96 19.76 39.92 17.66 34.67 17.66Z"
                fill="currentColor" />
        </symbol>
    </defs>
</svg>