<svg version="1.1" xmlns="http://www.w3.org/2000/svg" xmlns:xlink="http://www.w3.org/1999/xlink">
    <defs>
        <symbol id="icon-drop" viewBox="0 0 40 40" fill="none">
            <rect width="40" height="40" fill="white" />
            <path
                d="M6 34C7 33.1667 9.7 31.7 12.5 32.5C16 33.5 17.5 33.5 19.5 33C21.5 32.5 22 33.5 25 33.5C28 33.5 27.5 32.5 29.5 32.5C31.5 32.5 33.5 34 34 33.5"
                stroke="#292929" stroke-linecap="round" stroke-linejoin="round" />
            <path d="M29 27.5L25 30" stroke="#292929" stroke-linecap="round" stroke-linejoin="round" />
            <path d="M10.5 27.5L14.5 30.5" stroke="#292929" stroke-linecap="round" stroke-linejoin="round" />
            <path
                d="M19.5 6L8.99996 16.5C7.99996 17.3333 6.79996 19.7 9.99996 22.5C13.2 25.3 16.3333 28.3333 17.5 29.5C18.5 30.3333 21.1 31.3 23.5 28.5C25.9 25.7 30.5 21 32.5 19"
                stroke="#292929" stroke-width="1.5" stroke-linecap="round" stroke-linejoin="round" />
            <path
                d="M21.5001 8.5L12.5001 17.5C12.0001 18 11.4001 19.4 13.0001 21C14.6001 22.6 17 25 18 26C18.6667 26.5 20.3002 27.1 21.5001 25.5C22.7 23.9 28 18.8333 30.5 16.5"
                stroke="#767676" stroke-linecap="round" stroke-linejoin="round" />
            <path d="M14 21L17 24" stroke="#767676" stroke-width="1.5" stroke-linecap="round" stroke-linejoin="round" />
        </symbol>

        <symbol id="icon-lightweight" viewBox="0 0 40 40" fill="none">
            <rect width="40" height="40" fill="white" />
            <path
                d="M10.8507 16.9817C5.10234 17.4607 4.06443 23.9676 4.26403 27.1611C5.46159 26.9615 8.45552 26.6821 10.8507 27.1611C13.8448 27.7599 15.0422 28.9575 19.8325 28.5832C24.6229 28.209 27.018 21.772 27.018 22.9696C27.018 23.9276 26.6188 26.1631 26.4192 27.1611C27.2176 26.9615 29.4132 25.8438 31.8084 22.9696C34.2035 20.0954 33.6047 16.1833 33.0059 14.5865C32.8024 14.4644 32.5076 14.3124 32.1266 14.1437C30.6391 13.4853 27.8376 12.5727 24.0241 12.1913C19.2337 11.7123 17.6971 15.1853 17.5276 16.9817C16.0698 16.7991 13.8977 16.7278 10.8507 16.9817Z"
                fill="white" />
            <path
                d="M19.8325 17.5805C19.5511 17.3929 18.8201 17.1435 17.5276 16.9817M17.5276 16.9817C16.0698 16.7991 13.8977 16.7278 10.8507 16.9817C5.10234 17.4607 4.06443 23.9676 4.26403 27.1611C5.46159 26.9615 8.45552 26.6821 10.8507 27.1611C13.8448 27.7599 15.0422 28.9575 19.8325 28.5832C24.6229 28.209 27.018 21.772 27.018 22.9696C27.018 23.9276 26.6188 26.1631 26.4192 27.1611C27.2176 26.9615 29.4132 25.8438 31.8084 22.9696C34.2035 20.0954 33.6047 16.1833 33.0059 14.5865C32.0079 13.9877 28.8144 12.6704 24.0241 12.1913C19.2337 11.7123 17.6971 15.1853 17.5276 16.9817ZM9.65309 23.5683C11.1104 22.9696 14.7256 21.772 17.5276 21.772C21.0301 21.772 22.2277 21.772 24.0241 19.9756C25.8204 18.1792 34.2035 12.7901 35.9999 11.5925"
                stroke="#292929" stroke-width="1.5" stroke-linecap="round" stroke-linejoin="round" />
        </symbol>

        <symbol id="icon-magsafe" viewBox="0 0 40 40" fill="none">
            <rect width="40" height="40" fill="white" />
            <path
                d="M17.5 30.5002H22.5V33.5003C22.5 34.0526 22.0523 34.5003 21.5 34.5003H18.5C17.9477 34.5003 17.5 34.0526 17.5 33.5003V30.5002Z"
                stroke="#292929" />
            <path d="M16 18L19 20.5L24.5 15.5" stroke="#292929" stroke-width="1.5" stroke-linecap="round"
                stroke-linejoin="round" />
            <mask id="path-3-inside-1_221_66" fill="white">
                <path
                    d="M33.0001 18.0001C33.0001 25.1798 27.1798 31.0001 20.0001 31.0001C12.8203 31.0001 7 25.1798 7 18.0001C7 10.8203 12.8203 5 20.0001 5C27.1798 5 33.0001 10.8203 33.0001 18.0001ZM10.64 18.0001C10.64 23.1695 14.8307 27.3601 20.0001 27.3601C25.1695 27.3601 29.3601 23.1695 29.3601 18.0001C29.3601 12.8307 25.1695 8.64002 20.0001 8.64002C14.8307 8.64002 10.64 12.8307 10.64 18.0001Z" />
            </mask>
            <path
                d="M33.0001 18.0001C33.0001 25.1798 27.1798 31.0001 20.0001 31.0001C12.8203 31.0001 7 25.1798 7 18.0001C7 10.8203 12.8203 5 20.0001 5C27.1798 5 33.0001 10.8203 33.0001 18.0001ZM10.64 18.0001C10.64 23.1695 14.8307 27.3601 20.0001 27.3601C25.1695 27.3601 29.3601 23.1695 29.3601 18.0001C29.3601 12.8307 25.1695 8.64002 20.0001 8.64002C14.8307 8.64002 10.64 12.8307 10.64 18.0001Z"
                stroke="#292929" stroke-width="2" mask="url(#path-3-inside-1_221_66)" />
            <rect x="18" y="29.0002" width="4.00002" height="2.00001" fill="white" />
        </symbol>

        <symbol id="icon-precise_cut" viewBox="0 0 40 40" fill="none">
            <rect width="40" height="40" fill="white" />
            <path d="M4 20.5H36.66" stroke="#848484" stroke-width="2" stroke-linecap="round" stroke-dasharray="2 4" />
            <path d="M8.6001 9L30.6801 28.78" stroke="#292929" stroke-width="2" stroke-linecap="round" />
            <circle cx="32.52" cy="27.8601" r="1.76" stroke="#292929" stroke-width="2" />
            <path d="M8.6001 32L30.6801 12.22" stroke="#292929" stroke-width="2" stroke-linecap="round" />
            <circle cx="2.76" cy="2.76" r="1.76" transform="matrix(1 0 0 -1 29.76 15.8999)" stroke="#292929"
                stroke-width="2" />
        </symbol>
    </defs>
</svg>