<svg xmlns="http://www.w3.org/2000/svg" xmlns:xlink="http://www.w3.org/1999/xlink" viewBox="0 0 192 192"><defs><style>.cls-1{fill:none;}.cls-2{fill:#fff;}.cls-3{fill:#ddd;}.cls-4{fill:#bb032a;}.cls-5{fill:#f83446;}.cls-6{clip-path:url(#clip-path);}.cls-7{fill:#ffcac7;}</style><clipPath id="clip-path"><path class="cls-1" d="M124,58.46c-13.26,0-24.54,8.69-29,20.89-4.42-12.2-15.7-20.89-29-20.89-17.12,0-31,14.45-31,32.26,0,33.76,42.7,77.28,59.81,77.28h.29C112.3,168,155,124.48,155,90.72,155,72.91,141.13,58.46,124,58.46Z"/></clipPath></defs><g id="Layer_2" data-name="Layer 2"><g id="anniversary"><rect class="cls-2" width="192" height="192"/><path class="cls-3" d="M167.42,61.05l-5.09-32.17A5.79,5.79,0,0,0,156.61,24H113.88a5.78,5.78,0,0,0-5.74,5l-4.33,32.83c-2.38,18,11.68,34.18,29.35,36.08v66.62c-5.2.33-10,1.34-10,2.55,0,1.48,5.6.67,12.51.67s12.52.81,12.52-.67c0-1.21-4.8-2.22-10-2.55V97.94C156.17,96,170.31,79.35,167.42,61.05Z"/><path class="cls-4" d="M108,62.25a27.9,27.9,0,1,0,55.43,0Z"/><path class="cls-4" d="M144.91,90.72a32.49,32.49,0,0,0-15.85-28.14h0a4.05,4.05,0,0,0-4-4.12H114.64v0c-.24,0-.47,0-.72,0-13.26,0-24.54,8.69-29,20.89A32,32,0,0,0,70,61.94h0a3.41,3.41,0,0,0-3.34-3.48H55.55v0C38.64,58.73,25,73.06,25,90.72c0,33.49,42,76.55,59.38,77.25v0H94.63a7.19,7.19,0,0,0,7-7.33h0C120.9,146.84,144.91,116,144.91,90.72Z"/><path class="cls-5" d="M124,58.46c-13.26,0-24.54,8.69-29,20.89-4.42-12.2-15.7-20.89-29-20.89-17.12,0-31,14.45-31,32.26,0,33.76,42.7,77.28,59.81,77.28h.29C112.3,168,155,124.48,155,90.72,155,72.91,141.13,58.46,124,58.46Z"/><g class="cls-6"><rect class="cls-7" x="26.72" y="104.58" width="129.72" height="15.85" rx="2.72"/><path class="cls-7" d="M115.82,163.17l10.63-9.65a3.15,3.15,0,0,0,1.17-2.5V58.58a2.83,2.83,0,0,0-2.62-3H114.37a2.82,2.82,0,0,0-2.61,3V160.67C111.76,163.07,114.09,164.5,115.82,163.17Z"/></g><path class="cls-7" d="M48.6,104.58H26.46a.8.8,0,0,0-.75,1.19l4.91,13.48a1.87,1.87,0,0,0,1.61,1.19H54.37a.8.8,0,0,0,.75-1.19l-4.91-13.48A1.86,1.86,0,0,0,48.6,104.58Z"/><path class="cls-7" d="M111.76,61.09s-2.11-2.28-7.54-1c0,0,2.47-3.06,12.21-3.06s11.19,1.44,11.19,1.44v4.33H111.76Z"/><path class="cls-7" d="M108,85a11.21,11.21,0,1,0-15.85,15.85c4.38,4.38,17.57,10.48,22,6.1S112.37,89.34,108,85ZM113.2,106c-3.16,3.17-12.69-1.24-15.85-4.4A8.1,8.1,0,0,1,108.8,90.17C112,93.33,116.36,102.86,113.2,106Z"/><path class="cls-7" d="M126.4,106.91c4.38,4.38,17.57-1.72,21.95-6.1A11.21,11.21,0,1,0,132.49,85C128.12,89.34,122,102.53,126.4,106.91Zm5.29-16.74a8.1,8.1,0,0,1,11.45,11.45c-3.16,3.16-12.69,7.57-15.86,4.4S128.53,93.33,131.69,90.17Z"/><path class="cls-7" d="M114.21,119.64,97.19,142a1.07,1.07,0,0,1-1.92-.65v-7.64L86.66,135a1.07,1.07,0,0,1-.77-1.93l24.33-17.38Z"/><path class="cls-7" d="M122.62,116.1l17,22.38a1.07,1.07,0,0,0,1.92-.65v-7.65l8.61,1.24a1.07,1.07,0,0,0,.78-1.93L126.6,112.11Z"/></g></g></svg>