<svg xmlns="http://www.w3.org/2000/svg" viewBox="0 0 192 192"><defs><style>.cls-1{fill:#fff;}.cls-2{fill:#f83446;}</style></defs><g id="Layer_2" data-name="Layer 2"><g id="Layer_5" data-name="Layer 5"><rect class="cls-1" width="192" height="192"/><path class="cls-2" d="M69.64,145.05c-8.9-3.81-31.79-5.08-31.79-5.08s11.45,17.8,30.52,21.61,35.6-3.81,35.6-3.81-7.63,0-11.44-.94S78.54,148.87,69.64,145.05Z"/><path class="cls-2" d="M167.55,108.18,165,112c-2.54,3.82-11.44,7.63-26.7,15.26S118,156.5,118,156.5s6.36-3.82,30.52-15.26S167.55,108.18,167.55,108.18Z"/><path class="cls-2" d="M119.23,128.52s-22.89,7.63-34.33,2.55-3.81-17.81-16.53-25.44-14-3.81-14,5.09S67.1,140,86.17,141.24s24.16,0,29.25-5.09S119.23,128.52,119.23,128.52Z"/><path class="cls-2" d="M123.05,54.77c2.54,5.09,1.27,16.53,6.36,19.07s14,2.55,12.71,19.08-16.53,24.16-16.53,24.16,6.36,0,15.26-6.36,17.8-14,20.35-26.7-8.91-12.72-16.54-19.08-2.54-19.07-11.44-28-30.52,1.27-30.52,1.27,6.36,0,10.18,3.81S120.5,49.68,123.05,54.77Z"/><path class="cls-2" d="M73.46,80.2c-5.09-6.36-6.36-1.27-6.36,7.63S73.46,98,79,101.54s5.92,13,10.93,15.54,16.61-1.27,16.61-1.27a45.07,45.07,0,0,0,10.22-7.63c5.13-5.09,11.39-16.53,6.31-21.62s-12.72,6.36-24.16,7.63S78.54,86.56,73.46,80.2Z"/><path class="cls-2" d="M96,79.42c2.87-1.76,4.49-3.63,8.76-2.06S116.69,79.09,118,75.2s-3.81-7.71-7.63-10.26S104,63.67,104,63.67,88.72,62.4,84.9,72.57,93.14,81.17,96,79.42Z"/><path class="cls-2" d="M77.27,70s3.82,5.09,5.09-1.27,5.7-13.2,13.66-13,11.77-1,9.23-3.57-14.81-5.09-23.94,0S77.27,70,77.27,70Z"/><path class="cls-2" d="M50.57,82.75s5.08,6.35,6.36,5.08-6.36-22.89,3.81-33.06,12.72-11.44,20.35-14S90,39.51,90,38.24s-22.37-10.17-37.25,0S42.4,65,44.57,72A28.22,28.22,0,0,0,50.57,82.75Z"/><path class="cls-2" d="M53.11,128.52c0-1.27-9.14-7.76-10.93-16.59s4.57-15.2,3.3-17.74-7.63-8.9-10.17-15.26,0-14-3.82-11.44S26.41,80.2,29,85.29s1.27,7.63-2.54,14-2.55,17.34,0,23.29,15.26,7.22,15.26,7.22S53.11,129.79,53.11,128.52Z"/></g></g></svg>