<svg xmlns="http://www.w3.org/2000/svg" viewBox="0 0 192 192"><defs><style>.cls-1{fill:#fff;}.cls-2{fill:#ff8a00;}.cls-3{fill:#770c2b;}.cls-4{fill:#fdbc43;}.cls-5{fill:#951c39;}.cls-6{fill:#9777c9;}.cls-7{fill:#6f5ba7;}.cls-8{fill:#de1135;}.cls-9{fill:#ff3008;}.cls-10{fill:#a0bff8;}.cls-11{fill:#276ef1;}.cls-12{fill:#fc823a;}</style></defs><g id="Layer_2" data-name="Layer 2"><g id="cake"><rect class="cls-1" width="192" height="192"/><rect class="cls-2" x="24" y="90" width="144" height="78" rx="6.86"/><rect class="cls-3" x="24" y="117" width="144" height="24"/><rect class="cls-4" x="24" y="90" width="126" height="78" rx="6.41"/><rect class="cls-5" x="24" y="117" width="126" height="24"/><path class="cls-6" d="M161.06,90H30.94A6.94,6.94,0,0,0,24,96.94v3.75A2.68,2.68,0,0,1,26.69,98H30v0a4.07,4.07,0,0,1,.5,0,5.5,5.5,0,0,1,5.5,5.5,4.07,4.07,0,0,1,0,.5h0v13.31A4.63,4.63,0,0,0,40.06,122,4.51,4.51,0,0,0,45,117.5v-.08a3.38,3.38,0,0,1,3.93-3.28,4.86,4.86,0,0,0,1,0A4.64,4.64,0,0,0,54,109.48V101h0a2.73,2.73,0,0,1,0-.5A2.5,2.5,0,0,1,56.5,98a2.73,2.73,0,0,1,.5,0v0H165.31a2.68,2.68,0,0,1,2.69,2.69V96.94A6.94,6.94,0,0,0,161.06,90Z"/><path class="cls-7" d="M161.06,90H143.59A6.41,6.41,0,0,1,150,96.41V98h15.31a2.68,2.68,0,0,1,2.69,2.69V96.94A6.94,6.94,0,0,0,161.06,90Z"/><circle class="cls-8" cx="65.5" cy="78.5" r="11.5"/><circle class="cls-9" cx="84" cy="76" r="14"/><circle class="cls-8" cx="123.5" cy="80.5" r="9.5"/><path class="cls-10" d="M102.92,51h.15A5.92,5.92,0,0,1,109,56.92V83.5a0,0,0,0,1,0,0H97a0,0,0,0,1,0,0V56.92A5.92,5.92,0,0,1,102.92,51Z"/><rect class="cls-11" x="97" y="57.5" width="12" height="6.5"/><rect class="cls-11" x="97" y="70.5" width="12" height="6.5"/><rect class="cls-11" x="97" y="83.5" width="12" height="6.5"/><path class="cls-4" d="M114.46,27.27H116a.61.61,0,0,1,.61.61v1.51A17.91,17.91,0,0,1,98.66,47.29h0a2.11,2.11,0,0,1-2.11-2.11v0A17.91,17.91,0,0,1,114.46,27.27Z" transform="translate(-4.36 58.28) rotate(-30)"/><path class="cls-12" d="M111,34.31h1.06a.43.43,0,0,1,.43.43v1.06A12.59,12.59,0,0,1,99.92,48.38h0a1.49,1.49,0,0,1-1.49-1.49v0A12.59,12.59,0,0,1,111,34.31Z" transform="matrix(0.87, -0.5, 0.5, 0.87, -6.54, 58.28)"/></g></g></svg>