<svg xmlns="http://www.w3.org/2000/svg" viewBox="0 0 192 192"><defs><style>.cls-1{fill:#fff;}.cls-2{fill:#06c167;}.cls-3{fill:#276ef1;}.cls-4{fill:#03703c;}.cls-5{fill:#a0bff8;}.cls-6{fill:#05944f;}.cls-7{fill:#ffb749;}.cls-8{fill:#bb032a;}.cls-9{fill:#fc823a;}.cls-10{fill:#e65300;}.cls-11{fill:#f83446;}.cls-12{fill:#ffbd59;}.cls-13{fill:#6496f4;opacity:0.4;}</style></defs><g id="Layer_2" data-name="Layer 2"><g id="Layer_2-2" data-name="Layer 2"><rect class="cls-1" width="192" height="192"/><rect class="cls-2" x="57.28" y="142.25" width="8.52" height="25.56" rx="4.26" transform="translate(43.6 -10.8) rotate(15.48)"/><rect class="cls-2" x="44.42" y="140.35" width="8.52" height="25.56" rx="4.26" transform="translate(117.51 7.94) rotate(43)"/><rect class="cls-2" x="39.01" y="126.92" width="8.52" height="25.56" rx="4.26" transform="translate(159.74 51.26) rotate(70)"/><path class="cls-3" d="M97.69,94.17l26.53,14.4L111.85,82.44a7.15,7.15,0,0,0-4.57-3.84l-28.1-7.71Z"/><rect class="cls-2" x="85.01" y="55.25" width="5.66" height="36.82" rx="2.83" transform="translate(22.84 -20.77) rotate(15.48)"/><rect class="cls-2" x="119.4" y="84.04" width="6.74" height="34.11" rx="3.37" transform="translate(185.88 -44.89) rotate(73.91)"/><rect class="cls-2" x="94.6" y="59.21" width="6.53" height="36.82" rx="3.27" transform="translate(58.51 -40.93) rotate(33.22)"/><path class="cls-4" d="M132.56,99.6c1.87,0,4.27,4.44,4.12,11.34a17.12,17.12,0,0,1-4,10.4.84.84,0,0,1-1.32,0,17,17,0,0,1-3.48-10.57C128.09,103.84,130.69,99.56,132.56,99.6Z"/><rect class="cls-2" x="106.45" y="71.18" width="7.43" height="42.36" rx="3.72" transform="translate(129.29 -50.12) rotate(57.67)"/><path class="cls-5" d="M47.85,133.29l4,12.11a4.86,4.86,0,0,0,3.94,3.3l12.61,1.79a4.29,4.29,0,0,0,3-.67l54.29-35.66a3.73,3.73,0,0,0,.35-6L99.16,94.58a4.67,4.67,0,0,1-1.59-1.34L79.51,69.18a3.72,3.72,0,0,0-5.82,1.38L48,130.21A4.36,4.36,0,0,0,47.85,133.29Z"/><path class="cls-6" d="M132.75,99.1c1.86,1.47.92,7.75-4.5,14.61a21.62,21.62,0,0,1-12,7.49,1.06,1.06,0,0,1-1.3-1,21.56,21.56,0,0,1,4.56-13.34C125,100,130.89,97.62,132.75,99.1Z"/><path class="cls-7" d="M152.86,79.53h0a4.94,4.94,0,0,0,4,3.5h0a4.93,4.93,0,0,1,3.26,7.71h0a4.92,4.92,0,0,0-.26,5.28h0a4.93,4.93,0,0,1-4,7.36h0a4.92,4.92,0,0,0-4.29,3.09h0a4.93,4.93,0,0,1-8.25,1.46h0a4.93,4.93,0,0,0-5.09-1.43h0a4.92,4.92,0,0,1-6.28-5.54h0a4.92,4.92,0,0,0-2.06-4.87h0a4.93,4.93,0,0,1,.41-8.36h0a4.92,4.92,0,0,0,2.53-4.65h0a4.93,4.93,0,0,1,6.79-4.89h0a4.93,4.93,0,0,0,5.21-.92h0A4.92,4.92,0,0,1,152.86,79.53Z"/><circle class="cls-8" cx="144.67" cy="92.9" r="5.69"/><path class="cls-9" d="M126.88,41h0a6.33,6.33,0,0,0,3.75,5.68h0a6.35,6.35,0,0,1,1.45,10.69h0A6.36,6.36,0,0,0,130,63.86h0a6.35,6.35,0,0,1-7.45,7.8h0a6.33,6.33,0,0,0-6.38,2.39h0a6.35,6.35,0,0,1-10.75-1h0a6.33,6.33,0,0,0-5.85-3.49h0a6.35,6.35,0,0,1-5.94-9h0a6.36,6.36,0,0,0-.91-6.76h0A6.35,6.35,0,0,1,96,43.57h0a6.33,6.33,0,0,0,4.71-4.92h0a6.35,6.35,0,0,1,10.1-3.79h0a6.36,6.36,0,0,0,6.79.61h0A6.35,6.35,0,0,1,126.88,41Z"/><circle class="cls-10" cx="112.17" cy="54.86" r="7.33"/><path class="cls-4" d="M90.27,62.33c-1.51-1.58-7.17-.17-13,5.39a19.81,19.81,0,0,0-5.8,11.57,1,1,0,0,0,1.06,1.11,19.9,19.9,0,0,0,11.79-5.34C90.15,69.5,91.78,63.9,90.27,62.33Z"/><path class="cls-6" d="M89.49,63.89c.11-1.87-4.07-4.62-11-5a17.11,17.11,0,0,0-10.7,3.08.85.85,0,0,0-.08,1.32A17.11,17.11,0,0,0,78,67.58C84.89,68,89.38,65.76,89.49,63.89Z"/><path class="cls-11" d="M140.42,55.05h0a5.88,5.88,0,0,0,5.79,2.54h0a5.89,5.89,0,0,1,6.51,7.6h0a5.91,5.91,0,0,0,1.62,6.12h0a5.89,5.89,0,0,1-1.89,9.83h0a5.89,5.89,0,0,0-3.76,5.08h0a5.9,5.9,0,0,1-8.87,4.65h0a5.9,5.9,0,0,0-6.32.22h0a5.89,5.89,0,0,1-9.16-4h0a5.9,5.9,0,0,0-4.11-4.81h0a5.88,5.88,0,0,1-2.57-9.67h0a5.9,5.9,0,0,0,1.19-6.21h0a5.89,5.89,0,0,1,6-8h0a5.88,5.88,0,0,0,5.59-2.94h0A5.89,5.89,0,0,1,140.42,55.05Z"/><circle class="cls-8" cx="135.93" cy="73.25" r="6.81"/><path class="cls-12" d="M110.93,34.44h0a6,6,0,0,0,2.63,5.81h0a6,6,0,0,1-.25,10.1h0A5.94,5.94,0,0,0,110.4,56h0a5.94,5.94,0,0,1-8.05,6.09h0a6,6,0,0,0-6.26,1.27h0a5.94,5.94,0,0,1-9.78-2.49h0a6,6,0,0,0-4.89-4.11h0a5.94,5.94,0,0,1-4.16-9.2h0a5.94,5.94,0,0,0,.16-6.38h0a6,6,0,0,1,4.61-9h0a5.94,5.94,0,0,0,5.09-3.85h0a5.94,5.94,0,0,1,9.9-2h0A5.94,5.94,0,0,0,103.2,28h0A5.93,5.93,0,0,1,110.93,34.44Z"/><circle class="cls-10" cx="96.05" cy="45.21" r="6.88"/><path class="cls-13" d="M115,120.17a21.65,21.65,0,0,1,4.57-13.34c.37-.47.74-.92,1.12-1.34l-17.7-9c1.86,6.29,2.92,15.11-3,20.81C90,127,66,143,60,143c-3.74,0-7.62-1.81-10-3.18l1.82,5.58a4.86,4.86,0,0,0,3.94,3.3l12.61,1.79a4.29,4.29,0,0,0,3-.67l44-28.88A1.09,1.09,0,0,1,115,120.17Z"/></g></g></svg>