<svg xmlns="http://www.w3.org/2000/svg" xmlns:xlink="http://www.w3.org/1999/xlink" viewBox="0 0 192 191"><defs><style>.cls-1{fill:none;}.cls-2{fill:#fff;}.cls-3{fill:#ffb749;}.cls-4{clip-path:url(#clip-path);}.cls-5{fill:#e65300;}</style><clipPath id="clip-path"><polygon class="cls-1" points="37.14 167.5 144.35 167.5 154.86 60.29 47.65 60.29 37.14 167.5"/></clipPath></defs><g id="Layer_2" data-name="Layer 2"><g id="Layer_3" data-name="Layer 3"><rect class="cls-2" width="192" height="191"/><path class="cls-3" d="M45.14,167.5h92.63A7.24,7.24,0,0,0,145,161l9.09-92.71a7.25,7.25,0,0,0-7.22-8H54.23A7.24,7.24,0,0,0,47,66.83l-9.09,92.71A7.25,7.25,0,0,0,45.14,167.5Z"/><g class="cls-4"><polygon class="cls-5" points="38.12 124.41 151.84 124.41 152.76 107.59 39.04 107.59 38.12 124.41"/></g><polygon class="cls-5" points="82.34 167.5 99.15 167.5 109.66 60.29 92.85 60.29 82.34 167.5"/><path class="cls-5" d="M80.21,23.5c-19.57,0-16.07,18.39-5.56,27.15a42.65,42.65,0,0,0,26.25,9.64S99.78,23.5,80.21,23.5Z"/><path class="cls-5" d="M119.8,27.17c-17.62,0-18.63,33.12-18.63,33.12a38.36,38.36,0,0,0,23.63-8.67C134.26,43.73,137.41,27.17,119.8,27.17Z"/></g></g></svg>