<svg xmlns="http://www.w3.org/2000/svg" xmlns:xlink="http://www.w3.org/1999/xlink" viewBox="0 0 192 191"><defs><style>.cls-1{fill:none;}.cls-2{fill:#fff;}.cls-3{fill:#ffb749;}.cls-4{clip-path:url(#clip-path);}.cls-5{fill:#e65300;}.cls-6{fill:#843005;}.cls-7{fill:#f8792f;}</style><clipPath id="clip-path"><polygon class="cls-1" points="37.14 167.5 144.35 167.5 154.86 60.29 47.65 60.29 37.14 167.5"/></clipPath></defs><g id="Layer_2" data-name="Layer 2"><g id="Layer_3" data-name="Layer 3"><rect class="cls-2" width="192" height="191"/><path class="cls-3" d="M45.14,167.5h92.63A7.24,7.24,0,0,0,145,161l9.09-92.71a7.25,7.25,0,0,0-7.22-8H54.23A7.24,7.24,0,0,0,47,66.83l-9.09,92.71A7.25,7.25,0,0,0,45.14,167.5Z"/><g class="cls-4"><polygon class="cls-5" points="38.12 124.41 151.84 124.41 152.76 107.59 39.04 107.59 38.12 124.41"/></g><polygon class="cls-5" points="82.34 167.5 99.15 167.5 109.66 60.29 92.85 60.29 82.34 167.5"/><path class="cls-5" d="M80.21,23.5c-19.57,0-16.07,18.39-5.56,27.15a42.65,42.65,0,0,0,26.25,9.64S99.78,23.5,80.21,23.5Z"/><path class="cls-5" d="M119.8,27.17c-17.62,0-18.63,33.12-18.63,33.12a38.36,38.36,0,0,0,23.63-8.67C134.26,43.73,137.41,27.17,119.8,27.17Z"/><path class="cls-6" d="M119.8,27.17a13.61,13.61,0,0,0-2.06.18c14.27,1.78,11,16.85,2.06,24.27a38.42,38.42,0,0,1-18.61,8.26c0,.26,0,.41,0,.41a38.36,38.36,0,0,0,23.63-8.67C134.26,43.73,137.41,27.17,119.8,27.17Z"/><path class="cls-7" d="M146.86,60.29h-10a7.25,7.25,0,0,1,7.22,8L135,161a7.24,7.24,0,0,1-7.22,6.54h10A7.24,7.24,0,0,0,145,161l9.09-92.71A7.25,7.25,0,0,0,146.86,60.29Z"/><polygon class="cls-6" points="148.57 124.41 150.22 107.59 140.22 107.59 138.57 124.41 148.57 124.41"/></g></g></svg>