<svg xmlns="http://www.w3.org/2000/svg" viewBox="0 0 192 191"><defs><style>.cls-1{fill:#fff;}.cls-2,.cls-5{fill:none;stroke-linecap:round;stroke-linejoin:round;stroke-width:6px;}.cls-2{stroke:#e65300;}.cls-3{fill:#ffb749;}.cls-4{fill:#ffd5a1;}.cls-5{stroke:#05944f;}.cls-6{fill:#06c167;}.cls-7{fill:#7fd99a;}.cls-8{fill:#fc7f79;}.cls-9{fill:#276ef1;}</style></defs><g id="Layer_2" data-name="Layer 2"><g id="Layer_4" data-name="Layer 4"><rect class="cls-1" width="192" height="191"/><path class="cls-2" d="M128.33,73.52s7.34,26.34-2.67,48.38a66.17,66.17,0,0,0-5.27,33.15"/><path class="cls-3" d="M144,27.73a29.57,29.57,0,0,0-34.54,23.6c-2.59,13.73,7.87,37.32,16.83,45l-7.59,7.6,22,4-4.37-9.82c11.83-3.9,28.7-22.16,31.27-35.81A29.58,29.58,0,0,0,144,27.73Z"/><path class="cls-4" d="M140.58,50.29l2.09,7a.69.69,0,0,0,.46.48l7,2.27a.71.71,0,0,1,.19,1.27l-6.05,4.16a.74.74,0,0,0-.31.59v7.34a.71.71,0,0,1-1.15.57L137,69.54a.69.69,0,0,0-.65-.11l-7,2.26a.72.72,0,0,1-.9-.92l2.44-6.92a.71.71,0,0,0-.09-.66l-4.32-5.93a.72.72,0,0,1,.6-1.14l7.34.18A.72.72,0,0,0,135,56l4.31-5.94A.72.72,0,0,1,140.58,50.29Z"/><path class="cls-5" d="M72.49,163.86s5.58-20.05-2-36.82a50.41,50.41,0,0,1-4-25.23"/><path class="cls-6" d="M91.14,54.77A33.9,33.9,0,0,0,24.51,67.31c2.95,15.64,22.28,36.57,35.84,41L55.66,118.9l22-4-7.39-7.39C80.84,100.36,94.25,71.32,91.14,54.77Z"/><path class="cls-7" d="M55.52,52.13,53,60.54a.86.86,0,0,1-.56.57l-8.34,2.71a.86.86,0,0,0-.22,1.52l7.22,5a.83.83,0,0,1,.37.71v8.76a.86.86,0,0,0,1.38.68l7-5.33a.86.86,0,0,1,.79-.13L69,77.71A.86.86,0,0,0,70,76.61l-2.92-8.27a.86.86,0,0,1,.12-.79l5.15-7.09a.86.86,0,0,0-.72-1.37l-8.76.23a.9.9,0,0,1-.72-.36L57,51.87A.86.86,0,0,0,55.52,52.13Z"/><path class="cls-8" d="M154.19,124l-3.62-1.17,1.18-.55a1.19,1.19,0,0,0,.57-1.57l-.14-.3a1.19,1.19,0,0,0-1.57-.57l-1.54.72,1.31-4a1.67,1.67,0,0,0-1.07-2.1l-.45-.14a1.66,1.66,0,0,0-2.1,1.07L145.59,119l-.55-1.18a1.19,1.19,0,0,0-1.57-.58l-.29.14a1.19,1.19,0,0,0-.58,1.57l.72,1.54-4-1.31a1.67,1.67,0,0,0-2.1,1.08l-.14.44a1.65,1.65,0,0,0,1.07,2.1l3.63,1.17-1.18.55a1.18,1.18,0,0,0-.57,1.57l.14.3a1.17,1.17,0,0,0,1.56.57l1.54-.72-1.3,4a1.65,1.65,0,0,0,1.07,2.1l.44.14a1.65,1.65,0,0,0,2.1-1.07l1.18-3.62.54,1.17a1.19,1.19,0,0,0,1.57.58l.3-.14a1.19,1.19,0,0,0,.57-1.57l-.72-1.54,4,1.31a1.67,1.67,0,0,0,2.1-1.07l.15-.45A1.68,1.68,0,0,0,154.19,124Z"/><path class="cls-3" d="M54.34,138.05,52,136a1.05,1.05,0,0,0,.69-1v-.29a1.05,1.05,0,0,0-1.06-1.05H50.26l3.44-4a1.66,1.66,0,0,0-.18-2.35l-.36-.31a1.67,1.67,0,0,0-2.35.18l-3,3.45V130a1.05,1.05,0,0,0-1.06-1h-.29a1,1,0,0,0-1,1v.48l-3-2.58a1.66,1.66,0,0,0-2.35.18l-.31.36a1.67,1.67,0,0,0,.18,2.35l3.45,3H41.71a1,1,0,0,0-1.05,1.05V135a1.06,1.06,0,0,0,1.05,1.06H43.2l-2.59,3a1.68,1.68,0,0,0,.18,2.35l.36.31a1.66,1.66,0,0,0,2.35-.18l2-2.28v.54a1.06,1.06,0,0,0,1,1.06h.29a1.06,1.06,0,0,0,1.06-1.06V137.5l4,3.44a1.67,1.67,0,0,0,2.35-.18l.3-.36A1.66,1.66,0,0,0,54.34,138.05Z"/><path class="cls-9" d="M106.44,44.84l-3.23-2.61,1.21-.13a1.11,1.11,0,0,0,1-1.21l0-.3a1.09,1.09,0,0,0-1.2-1l-1.22.13,2.62-3.24a1.66,1.66,0,0,0-.25-2.34l-.36-.3a1.66,1.66,0,0,0-2.34.25L100,37.35l-.13-1.22a1.09,1.09,0,0,0-1.21-1l-.3,0a1.09,1.09,0,0,0-1,1.21l.13,1.21L94.26,35a1.66,1.66,0,0,0-2.34.25l-.3.36A1.69,1.69,0,0,0,91.87,38l3.24,2.61-1.22.13a1.1,1.1,0,0,0-1,1.21l0,.31a1.09,1.09,0,0,0,1.21,1l1.21-.13-2.62,3.24A1.66,1.66,0,0,0,93,48.63l.36.3a1.67,1.67,0,0,0,2.35-.25l2.62-3.24.12,1.22a1.1,1.1,0,0,0,1.21,1l.31,0a1.08,1.08,0,0,0,1-1.2l-.12-1.22,3.23,2.62a1.67,1.67,0,0,0,2.35-.25l.29-.36A1.67,1.67,0,0,0,106.44,44.84Z"/></g></g></svg>