<svg xmlns="http://www.w3.org/2000/svg" viewBox="0 0 192 192"><defs><style>.cls-1{fill:#fff;}.cls-2{fill:#823006;}.cls-3{fill:#03703c;}.cls-4{fill:#dd6019;}.cls-5{fill:#853106;}.cls-6{fill:#05944f;}.cls-7{fill:#a0bff8;}.cls-8{fill:#276ef1;}</style></defs><g id="Layer_2" data-name="Layer 2"><g id="Layer_9" data-name="Layer 9"><rect class="cls-1" width="192" height="192"/><path class="cls-2" d="M119.74,113.29C116,103.94,106,97.24,94.15,97.24s-21.85,6.7-25.58,16.05Z"/><rect class="cls-3" x="107.02" y="55.2" width="4.33" height="64.2" rx="2.17" transform="translate(27.98 -26.49) rotate(15.85)"/><rect class="cls-3" x="79.5" y="64.37" width="4.33" height="64.2" rx="2.17" transform="translate(186.58 166.98) rotate(164.15)"/><path class="cls-4" d="M76.14,169.08h35.52a6.28,6.28,0,0,0,6.23-5.51L124,114.22a6.27,6.27,0,0,0-6.22-7H70a6.28,6.28,0,0,0-6.23,7l6.1,49.35A6.28,6.28,0,0,0,76.14,169.08Z"/><path class="cls-5" d="M117.76,107.17H70a6.28,6.28,0,0,0-6.23,7l1,8.24H123l1-8.24A6.27,6.27,0,0,0,117.76,107.17Z"/><rect class="cls-4" x="58.74" y="103.35" width="70.32" height="15.29" rx="7.64"/><path class="cls-6" d="M74.78,69.25c-1.93-1-2.17-7,1.52-14.52a21.59,21.59,0,0,1,9.44-9.62.94.94,0,0,1,1.36.66,21.61,21.61,0,0,1-1.79,13.36C81.61,66.69,76.71,70.19,74.78,69.25Z"/><path class="cls-6" d="M76.44,83.44c.78-2.29-3.83-7.25-12.78-10.28a24.28,24.28,0,0,0-15.15-.07,1,1,0,0,0-.54,1.6A24.19,24.19,0,0,0,60,83.83C69,86.86,75.67,85.72,76.44,83.44Z"/><path class="cls-6" d="M76.63,83.24C75.57,82,71.08,83,66.2,87.13a16.43,16.43,0,0,0-5.3,8.8.71.71,0,0,0,.75.88,16.46,16.46,0,0,0,9.52-3.87C76.05,88.77,77.7,84.48,76.63,83.24Z"/><path class="cls-6" d="M113.87,74c-1.43,1.95,1.45,8.07,9.06,13.67a24.28,24.28,0,0,0,14.41,4.66,1,1,0,0,0,1-1.37,24.29,24.29,0,0,0-8.74-12.37C122,73,115.3,72.07,113.87,74Z"/><path class="cls-6" d="M115.82,59.09c.64,1.47-2.11,5-7.85,7.55a16.06,16.06,0,0,1-10,.94.69.69,0,0,1-.45-1A16,16,0,0,1,105,59.8C110.7,57.26,115.17,57.63,115.82,59.09Z"/><path class="cls-6" d="M113.82,74.41c.64,1.51,5.21,2,11.12-.54a16.53,16.53,0,0,0,7.73-6.79.72.72,0,0,0-.45-1.06,16.53,16.53,0,0,0-10.25.8C116.06,69.32,113.18,72.9,113.82,74.41Z"/><path class="cls-7" d="M57.6,43.78,57.06,49s-2.22,13.94,3.87,17.19,12.62-.12,16.05-.85,8.84-7.54,9.44-8.9-2.34-4.39-3-7.84-6.58-4.12-8.36-7.08S68,37.71,62.6,39.6,57.6,43.78,57.6,43.78Z"/><path class="cls-8" d="M88.82,51l-.37,1.12c-.36,1.12-2.3,2.67-5.56,5.6s-3,8.63-3,8.63,1.31-1.38,6.5-5.86S88.82,51,88.82,51Z"/><path class="cls-8" d="M78.26,59.3s-5.14,3.46-8.31,3-2.17-4.15-5.83-5.16-3.73,0-3.12,2.21,5.15,6.37,10,5.37,6-1.65,6.88-3.26S78.26,59.3,78.26,59.3Z"/><path class="cls-8" d="M74.16,40.8c1,1.09,1.44,4,2.87,4.28s3.64-.33,4.46,3.85S79.05,56,79.05,56a7.57,7.57,0,0,0,3.34-2.62c1.77-2.18,3.45-4.68,3.2-8s-3.07-2.53-5.39-3.58-1.94-4.55-4.75-6.14S68,38.11,68,38.11a4.14,4.14,0,0,1,2.78.24A13.19,13.19,0,0,1,74.16,40.8Z"/><path class="cls-8" d="M63.63,50.49c-1.69-1.23-1.66.12-1.05,2.32s2.27,2.08,3.88,2.58,2.35,2.81,3.77,3.09,4-1.45,4-1.45a11.55,11.55,0,0,0,2-2.59c.92-1.61,1.69-4.87.08-5.78s-2.71,2.45-5.45,3.55S65.32,51.71,63.63,50.49Z"/><path class="cls-8" d="M69.16,48.75c.59-.63.86-1.21,2-1.11s3.06-.39,3.11-1.44-1.48-1.64-2.59-2a1.69,1.69,0,0,0-1.66.12s-3.86.73-4.11,3.51S68.57,49.38,69.16,48.75Z"/><path class="cls-8" d="M63.88,47.71s1.29,1,1.17-.66.5-3.66,2.49-4.14,2.84-1.06,2-1.52-4-.24-5.92,1.64S63.88,47.71,63.88,47.71Z"/><path class="cls-8" d="M58.14,52.69s1.7,1.22,1.93.82-3.15-5.23-1.33-8.44,2.37-3.7,4.08-4.85,2.11-.93,2-1.24-6.23-1-9.22,2.55-.72,7.32.29,8.9A7.39,7.39,0,0,0,58.14,52.69Z"/><path class="cls-8" d="M61.91,63.83c-.09-.31-2.79-1.29-3.84-3.35s.09-4.07-.4-4.62-2.5-1.67-3.56-3.07-1-3.46-1.73-2.57S52,53.71,53,54.8s.84,1.8.33,3.63.56,4.46,1.6,5.76,4.27.74,4.27.74S62,64.15,61.91,63.83Z"/><path class="cls-7" d="M138,33.68l.58,5.58s2.38,14.94-4.15,18.42-13.52-.12-17.2-.9-9.47-8.09-10.11-9.54,2.5-4.7,3.18-8.4,7-4.42,9-7.59,7.57-4.06,13.38-2.05S138,33.68,138,33.68Z"/><path class="cls-8" d="M127.76,58.34c2.64-.36,8.8,1,8.8,1s-4.34,3.87-9.68,3.48a17.46,17.46,0,0,1-9.15-3.62,18,18,0,0,0,3.1.59C121.91,59.81,125.12,58.7,127.76,58.34Z"/><path class="cls-8" d="M104.52,41.38l.39,1.2c.39,1.2,2.47,2.86,6,6s3.24,9.25,3.24,9.25-1.4-1.48-7-6.29S104.52,41.38,104.52,41.38Z"/><path class="cls-8" d="M115.83,50.32s5.5,3.7,8.91,3.19S127.06,49.07,131,48s4,0,3.33,2.37-5.51,6.82-10.66,5.76-6.41-1.78-7.38-3.5S115.83,50.32,115.83,50.32Z"/><path class="cls-8" d="M120.23,30.49c-1,1.16-1.55,4.29-3.08,4.59s-3.9-.35-4.77,4.12,2.6,7.62,2.6,7.62A8.07,8.07,0,0,1,111.41,44c-1.9-2.33-3.7-5-3.44-8.57s3.3-2.71,5.78-3.84,2.08-4.87,5.09-6.57,8,2.57,8,2.57a4.47,4.47,0,0,0-3,.27A13.75,13.75,0,0,0,120.23,30.49Z"/><path class="cls-8" d="M131.51,40.87c1.81-1.31,1.78.13,1.12,2.49s-2.43,2.23-4.15,2.76-2.53,3-4,3.32-4.31-1.56-4.31-1.56A12.45,12.45,0,0,1,118,45.11c-1-1.72-1.8-5.22-.08-6.19s2.9,2.62,5.84,3.79S129.69,42.18,131.51,40.87Z"/><path class="cls-8" d="M125.59,39c-.64-.68-.93-1.29-2.18-1.19s-3.28-.41-3.33-1.54,1.58-1.76,2.77-2.16a1.83,1.83,0,0,1,1.78.13S128.77,35,129,38,126.22,39.69,125.59,39Z"/><path class="cls-8" d="M131.24,37.9S129.86,39,130,37.19s-.54-3.92-2.67-4.44-3-1.14-2.18-1.62,4.29-.27,6.34,1.75S131.24,37.9,131.24,37.9Z"/><path class="cls-8" d="M137.39,43.23s-1.82,1.31-2.06.88,3.36-5.6,1.41-9-2.53-4-4.36-5.2-2.27-1-2.17-1.33,6.67-1.06,9.87,2.73.78,7.85-.31,9.54A7.74,7.74,0,0,1,137.39,43.23Z"/><path class="cls-8" d="M133.35,55.17c.1-.33,3-1.38,4.12-3.59s-.1-4.37.42-4.95,2.68-1.8,3.82-3.29,1-3.71,1.85-2.76.42,3.75-.63,4.91-.9,1.93-.35,3.89-.6,4.78-1.71,6.17-4.58.8-4.58.8S133.26,55.51,133.35,55.17Z"/><path class="cls-6" d="M115.34,58.41c1.38-1.21.24-6.2-4.47-11.59A18.31,18.31,0,0,0,101,41a.79.79,0,0,0-1,.84,18.42,18.42,0,0,0,4.44,10.58C109.16,57.82,114,59.61,115.34,58.41Z"/><path class="cls-6" d="M73.48,69.41c.41-1.46-2.64-4.43-8.37-6.06a15.23,15.23,0,0,0-9.53.43.66.66,0,0,0-.29,1,15.34,15.34,0,0,0,7.89,5.37C68.9,71.8,73.06,70.87,73.48,69.41Z"/><path class="cls-6" d="M73.37,68.36c-.55,1.33,2,4.46,7.21,6.62a14.47,14.47,0,0,0,9,.64.63.63,0,0,0,.39-.94,14.47,14.47,0,0,0-6.83-5.91C77.94,66.61,73.92,67,73.37,68.36Z"/></g></g></svg>