<svg xmlns="http://www.w3.org/2000/svg" viewBox="0 0 192 192"><defs><style>.cls-1{fill:#fff;}.cls-2{fill:red;}.cls-3{fill:none;stroke:#05944f;stroke-linecap:round;stroke-linejoin:round;stroke-width:3px;}.cls-4{fill:#ffb749;}.cls-5{fill:#ffb2ab;}.cls-6{fill:#f83446;}.cls-7{fill:#05944f;}.cls-8{fill:#e65300;opacity:0.5;}.cls-9{fill:#ffd5a1;}</style></defs><g id="Layer_2" data-name="Layer 2"><g id="Layer_7" data-name="Layer 7"><rect class="cls-1" width="192" height="192"/><line class="cls-2" x1="73" y1="168" x2="119" y2="168"/><path class="cls-3" d="M73.23,53.25s8.15,5.9,12.46,11.83S91,75,91,75h3.58s1.65-25.15,2.75-28.33c2.67-7.67,4.25-9.8,4.25-9.8"/><path class="cls-3" d="M97.5,75.5s12-11,20-16,8.88-6,8.88-6"/><path class="cls-4" d="M122.78,113.93,115,84.13A3.68,3.68,0,0,0,111.41,81h-.48V78a3.7,3.7,0,0,1,1.14-2.62v-.1A2.89,2.89,0,0,0,113.22,73,3.12,3.12,0,0,0,110,70H82a3.12,3.12,0,0,0-3.23,3,2.89,2.89,0,0,0,1.15,2.28v.1A3.7,3.7,0,0,1,81.07,78v3h-.48a3.68,3.68,0,0,0-3.54,3.13l-7.83,29.8a128.33,128.33,0,0,0-3.9,41.69l.56,7.82A3.78,3.78,0,0,0,69.42,168h53.16a3.78,3.78,0,0,0,3.54-4.56l.56-7.82A128.33,128.33,0,0,0,122.78,113.93Z"/><path class="cls-5" d="M78.38,52.39l-.46-10.46s-2.65-2.16-4.28-3.54.59-2.68-2.53-3a15.18,15.18,0,0,0-8.62,1.37C60,38,57.88,38.45,56.44,43.22s1.28,13.51,6.42,14.64S76,56,77,54,78.38,52.39,78.38,52.39Z"/><path class="cls-6" d="M66.44,57.87c-2-.07-6.42,1.36-6.42,1.36s3.49,2.55,7.39,1.87a13,13,0,0,0,6.49-3.33,13.39,13.39,0,0,1-2.24.66C70.86,58.53,68.41,57.94,66.44,57.87Z"/><path class="cls-6" d="M82.35,43.67l-.2.92c-.2.91-1.62,2.29-4,4.86s-1.72,7-1.72,7,.93-1.19,4.68-5.14S82.35,43.67,82.35,43.67Z"/><path class="cls-6" d="M74.66,51.09s-3.79,3.13-6.34,3-2-3.11-5-3.62-2.94.3-2.29,2,4.56,4.63,8.28,3.47,4.6-1.77,5.19-3.11S74.66,51.09,74.66,51.09Z"/><path class="cls-6" d="M70,36.78c.86.78,1.46,3,2.61,3.16s2.85-.54,3.82,2.7A6.48,6.48,0,0,1,75,48.44a5.88,5.88,0,0,0,2.43-2.32c1.23-1.87,2.36-4,1.91-6.57s-2.62-1.77-4.54-2.42S73,33.69,70.6,32.65s-5.71,2.48-5.71,2.48a3.34,3.34,0,0,1,2.22,0A10.21,10.21,0,0,1,70,36.78Z"/><path class="cls-6" d="M62.41,45.26c-1.43-.84-1.3.22-.65,1.91s2,1.47,3.26,1.74,2.08,2,3.22,2.15,3.07-1.46,3.07-1.46a9.14,9.14,0,0,0,1.38-2.2c.6-1.34,1-4-.39-4.57s-2,2.14-4,3.22S63.84,46.09,62.41,45.26Z"/><path class="cls-6" d="M66.64,43.45c.42-.54.59-1,1.52-1s2.39-.55,2.34-1.38-1.29-1.19-2.2-1.39a1.36,1.36,0,0,0-1.3.22s-3,.88-3,3.1S66.22,44,66.64,43.45Z"/><path class="cls-6" d="M62.39,43s1.1.69.87-.61A2.94,2.94,0,0,1,64.91,39c1.53-.54,2.16-1.06,1.49-1.35s-3.19.11-4.55,1.75S62.39,43,62.39,43Z"/><path class="cls-6" d="M58.24,47.42s1.44.84,1.59.5-2.89-3.89-1.7-6.57S59.7,38.25,61,37.2s1.6-.89,1.5-1.13-5-.3-7.08,2.73,0,5.84.92,7A5.87,5.87,0,0,0,58.24,47.42Z"/><path class="cls-6" d="M62.09,55.94c-.1-.24-2.31-.81-3.3-2.36s-.25-3.22-.67-3.61a20.49,20.49,0,0,1-3.06-2.16c-1-1-1-2.66-1.56-1.89s0,2.79.82,3.57.8,1.36.54,2.84a6,6,0,0,0,1.71,4.43c.92,1,3.43.26,3.43.26S62.18,56.18,62.09,55.94Z"/><path class="cls-5" d="M109,29l1.25,4.3s4,11.38-.63,15S99,50.17,96,50.09s-8.59-5-9.29-6S88,40,88,37s4.9-4.47,6-7.24,5.36-4.26,10.2-3.51S109,29,109,29Z"/><path class="cls-6" d="M104.51,49.8c2-.65,7-.48,7-.48s-2.85,3.66-7.09,4.12a13.93,13.93,0,0,1-7.7-1.54,14.4,14.4,0,0,0,2.51,0C100.13,51.79,102.49,50.46,104.51,49.8Z"/><path class="cls-6" d="M83.85,39.82l.48.88c.48.88,2.35,1.89,5.53,3.86s3.87,6.79,3.87,6.79-1.32-1-6.37-3.94S83.85,39.82,83.85,39.82Z"/><path class="cls-6" d="M94,45.21s4.85,2.12,7.45,1.24,1.18-3.82,4.11-5.23,3.13-.56,3,1.39-3.36,6.13-7.55,6-5.28-.47-6.29-1.68S94,45.21,94,45.21Z"/><path class="cls-6" d="M94.63,29c-.66,1.06-.61,3.58-1.77,4s-3.11.28-3.15,3.91a7,7,0,0,0,3.13,5.61,6.47,6.47,0,0,1-3.21-1.69c-1.82-1.57-3.61-3.41-3.91-6.24s2.19-2.6,4-3.84.94-4.11,3-5.88,6.65.88,6.65.88a3.59,3.59,0,0,0-2.3.63A10.83,10.83,0,0,0,94.63,29Z"/><path class="cls-6" d="M105,35.56c1.24-1.28,1.42-.15,1.24,1.8s-1.59,2.09-2.86,2.76-1.55,2.72-2.7,3.17-3.6-.6-3.6-.6A9.91,9.91,0,0,1,95,40.82c-1-1.21-2.16-3.84-1-4.85s2.65,1.64,5.12,2.15S103.72,36.85,105,35.56Z"/><path class="cls-6" d="M100,35c-.59-.44-.91-.88-1.87-.63s-2.64.15-2.84-.73,1-1.61,1.87-2.09a1.46,1.46,0,0,1,1.42-.15s3.35,0,4,2.32S100.64,35.39,100,35Z"/><path class="cls-6" d="M104.32,33.27s-.93,1-1.08-.38-1-3-2.73-3.1-2.55-.46-2-1,3.34-.82,5.23.47S104.32,33.27,104.32,33.27Z"/><path class="cls-6" d="M109.9,36.57s-1.23,1.29-1.49,1,1.85-4.88-.18-7.3-2.55-2.75-4.16-3.46-1.92-.45-1.9-.73,5.09-1.78,8.14.74,1.73,6,1.12,7.52A6.25,6.25,0,0,1,109.9,36.57Z"/><path class="cls-6" d="M108.44,46.52c0-.28,2.15-1.51,2.72-3.41s-.7-3.41-.37-3.94A22.34,22.34,0,0,0,113.31,36c.68-1.34.28-3.06,1.06-2.42s.86,2.87.2,3.93-.42,1.65.28,3.11.22,3.84-.46,5.09S110.92,47,110.92,47,108.42,46.8,108.44,46.52Z"/><path class="cls-5" d="M130.48,60.83a35.44,35.44,0,0,0-7.11-2.25C120,58,116,51,117,48s7.59-5.39,7.8-6.69,9.74-1.15,12,3.27-1.29,5.12-1,6.77-1.64,8.31-3.19,9.48S130.48,60.83,130.48,60.83Z"/><path class="cls-6" d="M119.21,53.83a23.59,23.59,0,0,0-3.44-4.22,9,9,0,0,0,1.42,6.17,10.74,10.74,0,0,0,4.93,3.52,11.87,11.87,0,0,1-1.34-1.4C120.4,57.35,119.91,55.32,119.21,53.83Z"/><path class="cls-6" d="M135.74,60.19l-.75.19c-.75.2-2.31-.32-5.09-1.07S124,60.72,124,60.72s1.24.23,5.58,1.5S135.74,60.19,135.74,60.19Z"/><path class="cls-6" d="M127.34,57.32s-3.75-1.61-4.62-3.54,1.52-2.68.77-5.08-1.34-2.05-2.34-.93a6.34,6.34,0,0,0,.58,7.44c2.27,2.31,3.06,2.72,4.27,2.65S127.34,57.32,127.34,57.32Z"/><path class="cls-6" d="M136.12,48.43c-.25.93-1.7,2.23-1.34,3.12s1.48,1.9-.54,3.85a5.4,5.4,0,0,1-4.81,1.19,4.93,4.93,0,0,0,2.65.91c1.84.2,3.82.24,5.58-1.08s.3-2.61.05-4.28,1.83-2.69,1.7-4.82-4-3.27-4-3.27a2.74,2.74,0,0,1,.86,1.62A8.57,8.57,0,0,1,136.12,48.43Z"/><path class="cls-6" d="M127,46.06c.07-1.37-.66-.87-1.66.25s-.34,2,0,3.07-.71,2.31-.37,3.2,2.25,1.7,2.25,1.7a7.63,7.63,0,0,0,2.15.19c1.22-.07,3.3-.81,3.23-2s-2.33-.63-3.92-1.76S126.92,47.44,127,46.06Z"/><path class="cls-6" d="M129.93,48.5c.56.1,1,0,1.34.73s1.31,1.56,1.91,1.21.39-1.41.19-2.16-.66-.87-.66-.87-1.79-1.88-3.41-1S129.37,48.4,129.93,48.5Z"/><path class="cls-6" d="M128.62,45.2s-.09,1.08.78.42a2.44,2.44,0,0,1,3.19-.11c1,.93,1.6,1.2,1.57.59a4.31,4.31,0,0,0-3-2.69C129.41,43,128.62,45.2,128.62,45.2Z"/><path class="cls-6" d="M123.81,43.81s-.07,1.37.23,1.36,1.77-3.61,4.21-3.75,2.89,0,4.14.52,1.27.84,1.41.68-1.68-3.81-4.71-4.2-4.31,2.22-4.82,3.35A4.81,4.81,0,0,0,123.81,43.81Z"/><path class="cls-6" d="M119,49.88c.15-.16-.28-2,.49-3.33s2.29-1.4,2.41-1.87a18.39,18.39,0,0,1,.43-3.07c.4-1.09,1.58-1.77.81-1.88s-2.08,1-2.33,2-.7,1.1-1.89,1.48a5,5,0,0,0-2.62,2.94c-.35,1,1.11,2.63,1.11,2.63S118.84,50,119,49.88Z"/><path class="cls-7" d="M82.85,60.79c-1.45-1.42-6.91.27-12.48,6a20.47,20.47,0,0,0-5.59,11.49.88.88,0,0,0,1,1,20.48,20.48,0,0,0,11.37-5.84C82.74,67.71,84.31,62.22,82.85,60.79Z"/><path class="cls-7" d="M113.81,62.22c-.5,1.47,2.46,4.66,8.21,6.6a15.58,15.58,0,0,0,9.73.05.67.67,0,0,0,.35-1A15.62,15.62,0,0,0,124.34,62C118.59,60,114.31,60.76,113.81,62.22Z"/><path class="cls-8" d="M122.78,113.93,115,84.13A3.68,3.68,0,0,0,111.41,81h-.48V78a3.7,3.7,0,0,1,1.14-2.62v-.1A2.89,2.89,0,0,0,113.22,73,3.12,3.12,0,0,0,110,70H96c7.75,10.88,13.94,25.5,17.09,42.13,4,21.41,2.21,41.58-4,55.87h13.47a3.78,3.78,0,0,0,3.54-4.56l.56-7.82A128.33,128.33,0,0,0,122.78,113.93Z"/><path class="cls-9" d="M165.31,88h-7.48V80.49a2.49,2.49,0,0,0-5,0V88h-7.48a2.49,2.49,0,1,0,0,5h7.48v7.48a2.49,2.49,0,1,0,5,0V93h7.48a2.49,2.49,0,1,0,0-5Z"/><path class="cls-9" d="M145.51,104.86h-4.57v-4.57a1.53,1.53,0,0,0-3.05,0v4.57h-4.57a1.53,1.53,0,0,0,0,3h4.57v4.57a1.53,1.53,0,0,0,3.05,0v-4.57h4.57a1.53,1.53,0,0,0,0-3Z"/><path class="cls-9" d="M49.62,90.72H43.08V84.18a2.18,2.18,0,0,0-4.36,0v6.54H32.18a2.18,2.18,0,0,0,0,4.36h6.54v6.54a2.18,2.18,0,0,0,4.36,0V95.08h6.54a2.18,2.18,0,0,0,0-4.36Z"/></g></g></svg>