<svg xmlns="http://www.w3.org/2000/svg" viewBox="0 0 192 192"><defs><style>.cls-1{fill:#fff;}.cls-2{fill:red;}.cls-3{fill:#fdbc43;}.cls-4,.cls-9{fill:none;stroke-linecap:round;stroke-linejoin:round;stroke-width:4px;}.cls-4{stroke:#166c3b;}.cls-5{fill:#fc823a;opacity:0.6;}.cls-6{fill:#ffcac7;}.cls-7{fill:#f83446;}.cls-8{opacity:0.8;}.cls-9{stroke:#fff;}</style></defs><g id="Layer_2" data-name="Layer 2"><g id="vase"><rect class="cls-1" width="192" height="192"/><line class="cls-2" x1="73" y1="168" x2="119" y2="168"/><path class="cls-3" d="M137.14,112.28c-.07-.23-.14-.45-.2-.69a29.57,29.57,0,0,0-3.33-7.08l-.45-.67-.11-.16h0c-3.73-5.7-6.89-13.81-4.92-22.71.23-1.08.52-2.13.85-3.17a2.7,2.7,0,0,0-2.27-3.68h-60a2.7,2.7,0,0,0-2.26,3.68c.33,1,.61,2.09.85,3.17,2.16,9.8-1.88,18.66-6.08,24.37v0c-1.68,2.75-4,12.27-4.22,13a76.49,76.49,0,0,0-1.14,13.18,70.73,70.73,0,0,0,8.33,34,4.64,4.64,0,0,0,4,2.52h61a4.64,4.64,0,0,0,4-2.52,70.73,70.73,0,0,0,8.33-34,75.09,75.09,0,0,0-2.38-18.9A2.81,2.81,0,0,1,137.14,112.28Z"/><path class="cls-4" d="M96.75,157.1s1.36-25.52-3-51S74.1,49,74.1,49"/><path class="cls-4" d="M85.52,155.25s5-37,13.69-60.1a287.3,287.3,0,0,1,19.65-41.29"/><path class="cls-5" d="M131.27,165.48a70.73,70.73,0,0,0,8.33-34c0-.86,0-1.71,0-2.56l-80-24c-.11.14-.2.29-.31.42v0c-1.68,2.75-4,12.27-4.22,13a76.49,76.49,0,0,0-1.14,13.18,70.73,70.73,0,0,0,8.33,34,4.64,4.64,0,0,0,4,2.52h61A4.64,4.64,0,0,0,131.27,165.48Z"/><path class="cls-3" d="M76.49,78.11h48.22c-.18.66-.35,1.33-.49,2-1.84,8.33.07,17.41,5.36,25.57a2.25,2.25,0,0,0,.24.36l0,.07.08.12.34.51a25,25,0,0,1,2.82,6l.08.25c0,.21.11.41.17.61v.07c4.38,15.71,2,36.66-5.55,49.83a.16.16,0,0,0,0,.07c-.17.3-.39.44-.52.44h-61c-.13,0-.35-.14-.52-.44l0-.06c-6.79-11.87-9.5-29.67-6.75-44.34,1.13-4.56,2.77-10,3.66-11.63,3.7-5.08,9.32-15.25,6.64-27.44-.15-.65-.31-1.32-.5-2h7.74m0-4H66.75a2.7,2.7,0,0,0-2.26,3.68c.33,1,.61,2.09.85,3.17,2.16,9.8-1.88,18.66-6.08,24.37-1.68,2.75-4,12.28-4.22,13-2.95,15.6-.08,34.48,7.19,47.17a4.64,4.64,0,0,0,4,2.52h61a4.64,4.64,0,0,0,4-2.52c8.22-14.24,10.62-36.1,5.95-52.89-.09-.34-.19-.66-.28-1a29.57,29.57,0,0,0-3.33-7.08l-.45-.67-.11-.16h0c-3.73-5.7-6.89-13.81-4.92-22.71.23-1.08.52-2.13.85-3.17a2.7,2.7,0,0,0-2.27-3.68H76.49Z"/><path class="cls-6" d="M65.2,44.07l-.58,5.6s-2.39,15,4.15,18.45S82.32,68,86,67.22s9.49-8.1,10.13-9.56S93.63,53,93,49.24s-7.07-4.42-9-7.61-7.58-4.07-13.4-2.05S65.2,44.07,65.2,44.07Z"/><path class="cls-7" d="M98.72,51.79,98.33,53c-.4,1.2-2.48,2.87-6,6s-3.26,9.27-3.26,9.27,1.41-1.48,7-6.3S98.72,51.79,98.72,51.79Z"/><path class="cls-7" d="M87.38,60.74s-5.51,3.71-8.93,3.2-2.32-4.44-6.26-5.53-4,0-3.34,2.38,5.53,6.83,10.69,5.76,6.42-1.77,7.39-3.5S87.38,60.74,87.38,60.74Z"/><path class="cls-7" d="M83,40.88c1,1.16,1.56,4.29,3.09,4.6s3.91-.36,4.78,4.13-2.61,7.63-2.61,7.63a8.11,8.11,0,0,0,3.59-2.81c1.89-2.35,3.69-5,3.44-8.59S92,43.12,89.46,42s-2.08-4.88-5.09-6.59-8,2.58-8,2.58a4.47,4.47,0,0,1,3,.27A13.57,13.57,0,0,1,83,40.88Z"/><path class="cls-7" d="M71.67,51.28c-1.81-1.32-1.78.13-1.12,2.49S73,56,74.71,56.54s2.53,3,4.05,3.32,4.31-1.56,4.31-1.56a12.24,12.24,0,0,0,2.16-2.78c1-1.72,1.81-5.22.08-6.2s-2.91,2.62-5.85,3.8S73.49,52.59,71.67,51.28Z"/><path class="cls-7" d="M77.61,49.41c.63-.68.92-1.29,2.17-1.19s3.29-.42,3.35-1.54-1.58-1.77-2.79-2.17a1.83,1.83,0,0,0-1.78.13s-4.14.79-4.41,3.77S77,50.09,77.61,49.41Z"/><path class="cls-7" d="M71.94,48.3s1.39,1.07,1.26-.71.54-3.93,2.67-4.45,3-1.14,2.19-1.63-4.31-.26-6.36,1.76S71.94,48.3,71.94,48.3Z"/><path class="cls-7" d="M65.78,53.64s1.82,1.31,2.07.88-3.38-5.61-1.42-9.06,2.53-4,4.37-5.21,2.27-1,2.18-1.33-6.69-1.06-9.89,2.74-.78,7.86.31,9.55A7.86,7.86,0,0,0,65.78,53.64Z"/><path class="cls-7" d="M69.82,65.61c-.09-.34-3-1.39-4.12-3.61s.1-4.37-.43-5-2.68-1.8-3.82-3.3S60.42,50,59.6,51s-.42,3.75.63,4.91.9,1.94.35,3.9.6,4.8,1.72,6.19,4.58.8,4.58.8S69.92,65.94,69.82,65.61Z"/><path class="cls-6" d="M137.21,34.23l.6,5.89s2.52,15.76-4.37,19.43-14.27-.12-18.15-.95-10-8.53-10.67-10.06,2.64-5,3.35-8.87,7.44-4.66,9.46-8,8-4.29,14.12-2.16S137.21,34.23,137.21,34.23Z"/><path class="cls-7" d="M126.43,60.25c2.78-.38,9.28,1,9.28,1S131.13,65.38,125.5,65a18.55,18.55,0,0,1-9.66-3.82,19.11,19.11,0,0,0,3.28.62C120.26,61.8,123.64,60.63,126.43,60.25Z"/><path class="cls-7" d="M101.9,42.35l.42,1.27c.41,1.26,2.61,3,6.28,6.33S112,59.71,112,59.71s-1.48-1.56-7.35-6.63S101.9,42.35,101.9,42.35Z"/><path class="cls-7" d="M113.84,51.79s5.81,3.9,9.41,3.37,2.44-4.69,6.59-5.84,4.21,0,3.52,2.51S127.53,59,122.1,57.9s-6.75-1.87-7.78-3.69S113.84,51.79,113.84,51.79Z"/><path class="cls-7" d="M118.49,30.86c-1.11,1.23-1.64,4.53-3.26,4.85s-4.11-.38-5,4.35,2.75,8,2.75,8a8.48,8.48,0,0,1-3.78-3c-2-2.46-3.89-5.29-3.62-9s3.48-2.87,6.1-4.05,2.19-5.14,5.37-6.94,8.44,2.72,8.44,2.72a4.62,4.62,0,0,0-3.14.28A14.3,14.3,0,0,0,118.49,30.86Z"/><path class="cls-7" d="M130.39,41.82c1.91-1.39,1.87.13,1.18,2.62s-2.56,2.36-4.38,2.92-2.66,3.17-4.26,3.5-4.55-1.65-4.55-1.65a13.09,13.09,0,0,1-2.27-2.92c-1-1.82-1.9-5.51-.09-6.54s3.07,2.77,6.17,4S128.47,43.2,130.39,41.82Z"/><path class="cls-7" d="M124.14,39.85c-.67-.71-1-1.36-2.3-1.25s-3.46-.44-3.51-1.63,1.66-1.86,2.92-2.28a1.94,1.94,0,0,1,1.88.14s4.37.83,4.65,4S124.8,40.56,124.14,39.85Z"/><path class="cls-7" d="M130.11,38.68s-1.46,1.12-1.33-.75-.57-4.14-2.81-4.68-3.22-1.2-2.31-1.72,4.54-.27,6.69,1.86S130.11,38.68,130.11,38.68Z"/><path class="cls-7" d="M136.59,44.3s-1.92,1.39-2.17.93,3.55-5.91,1.49-9.54-2.67-4.19-4.61-5.49-2.39-1-2.29-1.4,7-1.11,10.42,2.89.82,8.28-.33,10.06A8.18,8.18,0,0,1,136.59,44.3Z"/><path class="cls-7" d="M132.33,56.91c.1-.36,3.16-1.46,4.34-3.8s-.1-4.6.46-5.21,2.82-1.9,4-3.48,1.09-3.92,2-2.91.43,4-.67,5.18-.95,2-.37,4.11-.64,5-1.81,6.51-4.83.84-4.83.84S132.23,57.26,132.33,56.91Z"/><g class="cls-8"><path class="cls-9" d="M118.32,87.85A39.43,39.43,0,0,0,121.4,108c4.6,10,7.18,18.87,6.39,24.92"/><circle class="cls-9" cx="126.5" cy="142.5" r="0.5"/></g></g></g></svg>