<svg width="110" height="117" viewBox="0 0 110 117" fill="none" xmlns="http://www.w3.org/2000/svg">
<path d="M110 58.3165C110 88.7698 85.3757 113.457 55 113.457C24.6243 113.457 0 88.7698 0 58.3165C0 27.8632 24.6243 3.1759 55 3.1759C85.3757 3.1759 110 27.8632 110 58.3165Z" fill="#EAF9E4"/>
<path d="M73.5749 11.6772C73.5663 11.6946 73.5573 11.7115 73.548 11.7279C73.438 11.92 73.2722 12.0473 73.1063 12.1746C73.1146 11.9565 73.1229 11.7384 73.2433 11.4766C73.2529 11.4772 73.2622 11.4779 73.2711 11.4789C73.4109 11.4934 73.4612 11.5487 73.5749 11.6772Z" fill="#00AD2E"/>
<path d="M46.5176 10.6923C46.5723 10.6987 46.6215 10.7081 46.6653 10.7202C46.965 10.8033 47.0164 11.0165 46.8438 11.2963C46.8345 11.3113 46.5863 11.177 46.3713 11.0225C46.3575 10.9529 46.3619 10.9045 46.3844 10.8579C46.4084 10.8082 46.4529 10.7608 46.5176 10.6923Z" fill="#00AD2E"/>
<path d="M88.0259 46.4954C88.2122 46.9218 88.1442 47.1555 87.8015 46.9411C87.474 46.7362 87.6786 46.5244 88.0259 46.4954Z" fill="#00AD2E"/>
<path d="M48.0825 29.4979C47.5812 28.4745 47.9546 27.7849 48.6018 27.1981C49.604 26.2893 50.6123 25.3858 51.6476 24.5155C52.4675 23.8263 52.6484 23.2885 51.5007 22.7476C50.4513 22.253 49.5683 21.512 50.1992 20.2042C50.8659 18.8223 52.2952 18.8631 53.1504 19.5873C55.6765 21.7264 57.8187 20.5965 60.0483 19.2002C60.5045 18.9145 61.0146 18.708 61.5159 18.5053C62.2641 18.2028 62.2779 17.8567 61.6654 17.3675C60.7377 16.6267 60.4777 15.6896 61.1637 14.6809C61.9119 13.5806 63.0016 13.8578 63.8905 14.3718C66.0718 15.6331 68.2139 16.6723 70.8937 16.4655C72.3716 16.3514 73.0001 18.1254 71.8859 19.2382C70.8622 20.2607 71.2182 20.9657 71.8637 21.8561C72.2211 22.349 72.6177 22.8564 72.8078 23.4215C73.8071 26.3929 75.4326 28.4193 78.9319 28.2733C80.2221 28.2194 80.8945 29.2013 80.6136 30.5076C80.3468 31.7482 79.3616 32.1304 78.2611 31.791C76.3112 31.1896 76.1525 32.0145 76.6388 33.5877C76.9192 34.4948 77.152 35.4268 77.0193 36.3991C76.8937 37.3194 76.3964 37.8906 75.4649 38.011C74.5085 38.1345 73.8688 37.6544 73.618 36.7781C73.2824 35.6051 73.0636 34.3984 72.7902 33.2071C72.5413 32.1222 71.9273 31.7213 70.859 32.1683C70.6724 32.2464 70.4711 32.2879 70.2788 32.3531C66.107 33.7689 66.1059 33.7693 66.9117 38.027C67.0001 38.4943 67.1491 38.9531 67.2024 39.4235C67.2988 40.2739 66.9067 40.9042 66.1307 41.1912C65.2964 41.4999 64.4973 41.3397 63.9736 40.5592C63.7159 40.1751 63.5718 39.7014 63.4342 39.2503C62.5043 36.2022 62.5098 36.2012 60.2327 38.4004C59.5985 39.0128 58.9944 39.663 58.3157 40.2209C57.4079 40.9671 56.4965 41.0412 55.655 40.0471C54.8837 39.1358 55.0104 38.285 55.829 37.5364C57.2771 36.2122 58.722 34.8767 60.2586 33.6617C61.0143 33.0641 61.0611 32.6436 60.6181 31.8128C59.6165 29.9343 58.247 28.3429 56.9631 26.6811C56.3529 25.8913 55.7292 25.7848 54.932 26.5227C53.6914 27.6711 52.3726 28.7338 51.0872 29.8331C50.0451 30.7244 49.0563 30.8718 48.0825 29.4979Z" fill="#803400"/>
<path d="M69.6027 25.1198C71.1108 28.0953 71.1108 28.0953 68.1349 29.2636C64.3889 30.7344 64.3904 30.7333 62.1207 27.3675C61.7801 26.8626 61.446 26.3486 61.0588 25.8807C59.2341 23.6754 59.2279 23.6806 61.7376 22.4405C66.4634 20.1052 66.6918 20.1798 69.6027 25.1198Z" fill="#D55700"/>
<path d="M51.8009 54.9279C51.7792 55.0127 51.7141 55.1787 51.6689 55.2692C51.5137 55.5376 51.4257 55.7428 51.3034 56.0278L51.2588 56.1318C50.7129 57.0357 50.1611 57.768 49.3855 58.4938C49.1286 58.6827 48.9669 58.7615 48.6642 58.8378C48.4751 58.86 48.3854 58.8638 48.2214 58.8486L48.2092 58.8602L48.193 58.8458L48.1486 58.8412C48.1164 58.8563 48.0844 58.8716 48.0526 58.8871C48.0558 58.9067 48.0625 58.9325 48.0744 58.9658C45.9685 63.5676 44.9521 68.3099 45.4136 73.2049C45.847 77.8027 46.6305 82.3799 48.0133 86.8236C48.5624 88.5883 48.9372 90.4078 49.4755 92.5347C46.5132 90.5341 43.4669 89.554 40.3566 88.3598C39.6679 89.1289 38.9283 88.8557 38.1987 88.5862C38.0947 88.5477 37.9908 88.5094 37.8873 88.4741C33.9161 87.1212 30.4387 84.9682 27.4215 82.0274C27.2978 81.9069 27.1695 81.7575 27.0361 81.6019C26.4688 80.9409 25.8067 80.1695 24.9979 81.0354C24.2297 81.858 24.9935 82.511 25.6563 83.0777C25.8178 83.2157 25.9732 83.3487 26.0991 83.4777C28.5434 85.9827 31.4525 87.8219 34.6224 89.2675C34.7772 89.3381 34.936 89.4042 35.0954 89.4707C35.9906 89.8437 36.9035 90.2242 37.2215 91.4335L37.1244 91.4875C37.1938 91.5259 37.2631 91.5646 37.3324 91.6036C38.5428 92.0448 39.5944 92.4741 40.6613 92.8603C44.7713 94.3477 48.4087 96.3473 50.7351 100.382C53.2207 104.694 53.7385 109.356 53.8659 114.149C53.9037 115.573 53.818 116.965 55.8188 116.999C57.9347 117.036 57.9068 115.517 57.9367 114.065C58.0177 110.128 57.2975 106.296 56.4286 102.482C54.1821 92.6213 50.4399 83.1089 49.5128 72.9476C49.1944 69.4578 49.4883 65.984 51.2971 62.6571C50.1037 60.996 50.537 59.3897 50.9635 57.8082C51.0738 57.3992 51.1837 56.9918 51.2648 56.5856C51.2908 56.4558 51.3516 56.331 51.4189 56.1927C51.5093 56.0072 51.6116 55.7973 51.6573 55.5186C51.6799 55.4264 51.6999 55.3466 51.7182 55.2739C51.7503 55.1461 51.776 55.0405 51.8009 54.9279Z" fill="#085b45"/>
<path fill-rule="evenodd" clip-rule="evenodd" d="M81.1108 9.7662C78.1249 8.89644 75.8656 10.0328 73.548 11.7279C73.438 11.92 73.2722 12.0473 73.1063 12.1746C73.1146 11.9565 73.1229 11.7384 73.2433 11.4766C73.2529 11.4772 73.2622 11.4779 73.2711 11.4789C73.2914 11.4233 73.3242 11.3494 73.3703 11.2477C73.3863 10.1114 73.4154 9.15935 73.3836 8.20935C73.2793 5.0873 71.1936 2.82768 67.7588 2.08394C65.061 1.49981 62.2362 2.92611 60.8934 5.41389C60.3829 6.35979 60.5967 7.57589 59.7428 8.42301C59.262 7.54001 58.8431 6.7175 58.3767 5.92327C56.318 2.41749 53.6821 -0.214531 49.2457 0.0137989C46.4537 0.157497 44.9956 1.79219 44.9151 4.56127C44.8507 6.78034 45.9989 8.60793 46.6743 10.7042C46.6714 10.7097 46.6685 10.715 46.6653 10.7202C46.965 10.8033 47.0164 11.0165 46.8438 11.2963C46.8345 11.3113 46.5863 11.177 46.3713 11.0225C46.3575 10.9529 46.3619 10.9045 46.3844 10.8579C46.3267 10.8588 46.2609 10.8517 46.1863 10.8366C42.2921 8.37687 38.3341 6.46532 33.745 6.57928C31.936 6.62421 30.1071 6.98927 29.321 8.98701C28.5425 10.9652 29.5761 12.4443 30.8242 13.8353C33.0291 16.2926 35.9346 17.7744 38.6491 19.5753C36.8006 19.0211 34.921 19.3692 33.0771 19.204C31.7636 19.0863 30.5747 19.5871 29.3063 19.6603C26.54 19.8198 24.0528 20.8164 21.9152 22.5816C20.1209 24.0632 20.0857 26.7042 21.6865 28.3685C23.1297 29.8691 24.9784 30.639 26.8996 31.05C29.7956 31.6695 32.7527 31.9998 35.9809 32.499C32.0132 33.8828 28.3116 35.0653 25.9432 38.5252C24.5225 40.6005 24.098 42.8338 24.9746 45.1414C25.8724 47.5046 27.9418 47.8872 30.2344 47.9013C32.6693 47.9162 34.9071 47.3623 37.1841 46.5335C38.8591 45.9239 40.2179 44.6184 42.4499 44.135C39.8022 47.5457 37.7835 50.8006 36.9394 54.5979C36.4972 56.5867 36.4098 58.8546 38.0728 60.2685C39.9028 61.8246 42.1697 62.1302 44.5223 60.9945C45.7503 60.4017 46.7627 59.5141 48.0526 58.8871C48.0415 58.8187 48.0729 58.8247 48.0781 58.8437C48.1086 58.8366 48.136 58.8273 48.161 58.8158C47.8001 58.4643 48.244 58.3759 48.5122 58.1853C48.5205 58.2308 48.5232 58.2754 48.5205 58.3193C48.5325 58.2993 48.5451 58.2792 48.5587 58.2589C49.3005 57.4318 49.9341 56.654 50.6273 55.7503C50.6671 55.7101 50.7054 55.672 50.7424 55.6352C50.7787 55.599 50.8139 55.564 50.848 55.5295C50.8914 55.3111 51.0483 55.0837 51.2933 54.8291C51.3152 54.8504 51.3355 54.871 51.3541 54.8909C51.3895 54.8325 51.4127 54.8176 51.4221 54.8116C51.4278 54.808 51.4284 54.8075 51.4238 54.8027C51.447 54.7803 51.471 54.76 51.4963 54.7421C51.4284 54.3528 51.4889 54.0494 51.893 53.7934C51.9657 53.7595 52.029 53.7339 52.0842 53.7202C52.1672 53.4108 52.3108 53.1694 52.4543 52.928C52.8231 53.2292 52.6354 53.5782 52.4208 53.9772L52.4176 53.983C52.3833 53.9838 52.3537 53.9821 52.3274 53.978C52.2897 54.2498 52.2838 54.4038 52.2686 54.6479C52.2192 54.6945 52.1705 54.7348 52.1209 54.7687C52.1337 55.9581 51.9479 57.1137 51.7602 58.2812C51.5427 59.6343 51.3226 61.0035 51.406 62.4603C51.3691 62.5258 51.3328 62.5915 51.2971 62.6571C51.3333 62.7076 51.371 62.758 51.4103 62.8085C51.6242 64.5099 51.8982 66.0206 53.2654 67.0109C56.6823 69.4861 59.5702 67.694 61.2975 64.7626C63.4217 61.1575 64.186 57.101 65.135 53.0856C65.2869 55.1234 65.1565 57.154 65.6603 59.1389C66.4068 62.0796 66.8158 65.1466 69.3134 67.3148C71.5907 69.2917 76.487 68.4718 77.4082 65.7847C78.1124 63.7307 78.5258 61.6659 77.9971 59.3411C77.6211 57.6879 77.2701 55.9267 77.0872 54.145C77.2743 54.1901 77.3675 54.1836 77.4013 54.2256C77.5641 54.4278 77.7184 54.6379 77.8621 54.8543C79.9267 57.9639 81.9131 61.1306 85.3437 62.986C87.0224 63.8939 88.6353 64.1411 90.4222 63.2771C92.7946 62.1298 93.9348 59.2959 92.7045 55.2488C91.7935 52.252 90.0075 49.7122 88.1902 47.1976C88.8117 46.8371 89.1334 47.1944 89.4987 47.5102C91.2172 48.9959 93.1641 50.0203 95.3758 50.5838C99.1042 51.5337 102.479 48.8992 102.223 45.0273C101.983 41.4105 99.4794 39.2185 96.8443 37.229C94.2074 35.238 91.1585 34.0967 87.9659 33.2825C89.8691 33.0662 91.7378 33.2664 93.5813 32.7491C96.3459 31.9733 98.4745 29.2971 97.7302 27.0029C96.7294 23.9179 94.6045 21.8547 91.4528 20.8558C88.9384 20.0589 86.5346 20.6757 83.9452 21.3846C84.5012 20.2309 84.9672 19.3494 85.3592 18.4357C87.0422 14.512 85.1776 10.9508 81.1108 9.7662ZM84.4085 36.0536C85.2261 30.8314 84.1344 26.0499 81.3833 21.4441C74.3949 10.4463 57.5913 7.80633 47.1976 14.2242C37.7146 20.0796 35.9483 31.2741 43.7545 39.1873C50.9533 46.4848 59.9512 50.0254 70.2306 49.4119C77.9952 48.9486 83.205 43.7399 84.4085 36.0536ZM88.0259 46.4954C88.2122 46.9218 88.1442 47.1555 87.8015 46.9411C87.474 46.7362 87.6786 46.5244 88.0259 46.4954Z" fill="#FFA800"/>
<path d="M49.3855 58.4938C50.1611 57.768 50.7129 57.0357 51.2588 56.1318L51.3034 56.0278C51.4257 55.7428 51.5137 55.5376 51.6689 55.2692C51.7141 55.1787 51.7792 55.0127 51.8009 54.9279L51.8077 54.8966C51.7245 54.9104 51.6333 54.9122 51.5298 54.9022C51.5167 54.8473 51.5054 54.7939 51.4963 54.7421C51.471 54.76 51.447 54.7803 51.4238 54.8027C51.4284 54.8075 51.4278 54.808 51.4221 54.8116C51.4127 54.8176 51.3895 54.8325 51.3541 54.8909C51.8084 55.3758 51.295 55.4415 50.8367 55.6161C50.8384 55.5873 50.8422 55.5585 50.848 55.5295C50.8139 55.564 50.7787 55.599 50.7424 55.6352C50.7054 55.672 50.6671 55.7101 50.6273 55.7503C49.9341 56.654 49.3005 57.4318 48.5587 58.2589C48.5451 58.2792 48.5325 58.2993 48.5205 58.3193C48.5092 58.5018 48.4045 58.6729 48.2214 58.8486C48.3854 58.8638 48.4751 58.86 48.6642 58.8378C48.9669 58.7615 49.1286 58.6827 49.3855 58.4938Z" fill="#085b45"/>
<path d="M51.2971 62.6571C51.3328 62.5915 51.3691 62.5258 51.406 62.4603C51.3226 61.0035 51.5427 59.6343 51.7602 58.2812C51.9479 57.1137 52.1337 55.9581 52.1209 54.7687C52.024 54.835 51.9236 54.8775 51.8077 54.8966L51.8043 54.9134L51.8009 54.9279C51.776 55.0405 51.7503 55.1461 51.7182 55.2739C51.6999 55.3466 51.6799 55.4264 51.6573 55.5186C51.6116 55.7973 51.5093 56.0072 51.4189 56.1927C51.3516 56.331 51.2908 56.4558 51.2648 56.5856C51.1837 56.9918 51.0738 57.3992 50.9635 57.8082C50.537 59.3897 50.1037 60.996 51.2971 62.6571Z" fill="#085b45"/>
<path fill-rule="evenodd" clip-rule="evenodd" d="M48.2214 58.8486C48.4045 58.6729 48.5092 58.5018 48.5205 58.3193C48.485 58.3784 48.4558 58.4361 48.4283 58.4904C48.3554 58.6344 48.2945 58.7546 48.161 58.8158C48.171 58.8256 48.1817 58.8356 48.193 58.8458L48.2092 58.8602L48.2214 58.8486Z" fill="#00AD2E"/>
<path d="M48.5205 58.3193C48.5232 58.2754 48.5205 58.2308 48.5122 58.1853C48.244 58.3759 47.8001 58.4643 48.161 58.8158C48.2945 58.7546 48.3554 58.6344 48.4283 58.4904C48.4558 58.4361 48.485 58.3784 48.5205 58.3193Z" fill="#FFA800"/>
<path d="M50.8367 55.6161C51.295 55.4415 51.8084 55.3758 51.3541 54.8909C51.3494 54.8986 51.3445 54.9071 51.3394 54.9164C51.1812 55.1784 51.0288 55.3467 50.848 55.5295C50.8422 55.5585 50.8384 55.5873 50.8367 55.6161Z" fill="#085b45"/>
<path d="M51.4963 54.7421C51.6395 54.6403 51.8221 54.6128 52.1199 54.6959L52.1209 54.7687C52.1705 54.7348 52.2192 54.6945 52.2686 54.6479C52.2838 54.4038 52.2897 54.2498 52.3274 53.978C52.2214 53.9613 52.1681 53.9037 52.0664 53.7917C52.072 53.7674 52.0779 53.7436 52.0842 53.7202C52.029 53.7339 51.9657 53.7595 51.893 53.7934C51.4889 54.0494 51.4284 54.3528 51.4963 54.7421Z" fill="#FFA800"/>
<path d="M52.4543 52.928C52.3108 53.1694 52.1672 53.4108 52.0842 53.7202C52.2065 53.6897 52.2892 53.7172 52.3476 53.8404L52.3383 53.902L52.3274 53.978C52.3537 53.9821 52.3833 53.9838 52.4176 53.983L52.4208 53.9772C52.6354 53.5782 52.8231 53.2292 52.4543 52.928Z" fill="#FFA800"/>
<path d="M52.0664 53.7917C52.1681 53.9037 52.2214 53.9613 52.3274 53.978L52.3383 53.902L52.3476 53.8404C52.2892 53.7172 52.2065 53.6897 52.0842 53.7202C52.0779 53.7436 52.072 53.7674 52.0664 53.7917Z" fill="#FFA800"/>
<path d="M51.5298 54.9022C51.6333 54.9122 51.7245 54.9104 51.8077 54.8966C51.813 54.8691 51.8173 54.8387 51.8213 54.81C51.8287 54.7581 51.8352 54.712 51.8449 54.6998C51.8534 54.6892 51.8519 54.6947 51.8472 54.712C51.8428 54.7281 51.8357 54.7546 51.8313 54.7879C51.8261 54.8137 51.8206 54.8387 51.8151 54.8632L51.8077 54.8966C51.9236 54.8775 52.024 54.835 52.1209 54.7687L52.1199 54.6959C51.8221 54.6128 51.6395 54.6403 51.4963 54.7421C51.5054 54.7939 51.5167 54.8473 51.5298 54.9022Z" fill="#FFA800"/>
<path d="M50.848 55.5295C51.0288 55.3467 51.1812 55.1784 51.3394 54.9164C51.3445 54.9071 51.3494 54.8986 51.3541 54.8909C51.3355 54.871 51.3152 54.8504 51.2933 54.8291C51.0483 55.0837 50.8914 55.3111 50.848 55.5295Z" fill="#FFA800"/>
<path fill-rule="evenodd" clip-rule="evenodd" d="M19.3221 93.2091C25.4422 95.5987 31.3891 94.6645 37.1244 91.4875C36.1225 90.933 35.1028 90.4353 34.0911 89.9415C31.7825 88.8145 29.5159 87.7081 27.5997 85.9952C26.5435 85.051 25.4979 84.0929 24.486 83.1012C23.5732 82.2066 23.0895 81.1763 24.1944 80.1092C25.309 79.0328 26.317 79.617 27.1654 80.5359C30.7513 84.4197 35.1577 86.9028 40.3403 88.3536L40.3566 88.3598C40.4014 88.3099 40.4459 88.2555 40.4902 88.1965C41.4659 85.6616 41.6325 83.2322 40.9255 80.7631C39.6954 76.4678 36.6293 73.99 32.6879 72.3755C30.3972 71.4373 28.0235 70.9388 25.5706 70.6061C21.4092 70.0415 17.7951 68.1164 14.4126 65.6687C12.8275 64.5217 11.5903 65.1239 11.6289 67.0264C11.6655 68.8305 11.6294 70.6367 11.5933 72.4429C11.5183 76.1961 11.4433 79.9492 12.0205 83.6829C12.717 88.1887 15.097 91.5594 19.3221 93.2091Z" fill="#00AD2E"/>
<path d="M27.4215 82.0274C30.4387 84.9682 33.9161 87.1212 37.8873 88.4741C37.9908 88.5094 38.0947 88.5477 38.1987 88.5862C38.9283 88.8557 39.6679 89.1289 40.3566 88.3598L40.3403 88.3536C35.1577 86.9028 30.7513 84.4197 27.1654 80.5359C26.317 79.617 25.309 79.0328 24.1944 80.1092C23.0895 81.1763 23.5732 82.2066 24.486 83.1012C25.4979 84.0929 26.5435 85.051 27.5997 85.9952C29.5159 87.7081 31.7825 88.8145 34.0911 89.9415C35.1028 90.4353 36.1225 90.933 37.1244 91.4875L37.2215 91.4335C36.9035 90.2242 35.9906 89.8437 35.0954 89.4707C34.936 89.4042 34.7772 89.3381 34.6224 89.2675C31.4525 87.8219 28.5434 85.9827 26.0991 83.4777C25.9732 83.3487 25.8178 83.2157 25.6563 83.0777C24.9935 82.511 24.2297 81.858 24.9979 81.0354C25.8067 80.1695 26.4688 80.9409 27.0361 81.6019C27.1695 81.7575 27.2978 81.9069 27.4215 82.0274Z" fill="#085b45"/>
<path d="M57.8745 82.6673C57.8719 82.6622 57.8693 82.6571 57.8667 82.6521C57.4346 81.8032 57.6367 80.9383 57.6659 80.113C57.7299 78.3024 58.139 76.5526 59.1573 75.0298C60.7029 72.7186 63.0058 71.5613 65.5678 70.8092C67.1521 70.3441 68.8176 70.2182 70.3628 69.5985C72.1726 68.8726 73.5874 67.6518 74.6721 66.0289C74.8706 65.7319 75.0477 65.4608 75.4502 65.5163C75.8755 65.575 75.8206 65.922 75.8843 66.226C76.2864 68.1466 76.45 70.1007 76.7191 72.0402C76.9196 73.4847 76.9226 74.9304 76.8578 76.3697C76.6825 80.2674 74.884 83.2493 71.5517 85.143C68.1655 87.0673 64.6315 86.7234 61.1272 85.3985C60.3281 85.0964 59.5652 84.6957 58.7246 84.3274C58.7069 84.3003 58.691 84.2739 58.6767 84.248C58.4006 83.7488 58.7368 83.4684 59.0352 83.2195C59.073 83.188 59.1102 83.157 59.1455 83.1262C60.6728 81.7883 62.2747 80.5491 64.0184 79.5078C64.9111 78.9747 65.7987 78.4324 66.6751 77.8719C66.6809 77.8682 66.6868 77.8645 66.6926 77.8607C66.9531 77.6944 67.271 77.4913 67.0731 77.1475C66.8759 76.805 66.5854 76.9839 66.3373 77.1367C66.3144 77.1507 66.2919 77.1646 66.2699 77.1778C66.092 77.2844 65.9139 77.3908 65.7358 77.4972C63.3331 78.9331 60.9303 80.3689 58.8708 82.3153C58.8597 82.3257 58.8486 82.3363 58.8375 82.3468C58.5848 82.5867 58.3212 82.8371 57.8745 82.6673Z" fill="#00AD2E"/>
<path d="M59.1455 83.1262C60.6728 81.7883 62.2747 80.5491 64.0184 79.5078C64.9111 78.9747 65.7987 78.4324 66.6751 77.8719L66.6926 77.8607C66.9531 77.6944 67.271 77.4913 67.0731 77.1475C66.8759 76.805 66.5854 76.9839 66.3373 77.1367C66.3144 77.1507 66.2919 77.1646 66.2699 77.1778C66.092 77.2844 65.9139 77.3908 65.7358 77.4972C63.3331 78.9331 60.9303 80.3689 58.8708 82.3153L58.8375 82.3468C58.5848 82.5867 58.3212 82.8371 57.8745 82.6673L57.8667 82.6521C57.847 82.6606 57.827 82.6689 57.8068 82.6768C56.3738 84.0691 53.2941 88.2794 52.2213 89.9227C51.7467 92.7662 51.7428 92.2485 51.5899 95.1194C51.4708 97.3562 51.6746 95.7116 51.8879 97.9456C52.1943 101.154 53.3683 101.225 54.2961 104.297C54.5777 105.229 55.036 105.585 55.6299 105.288C56.3215 104.941 56.1288 104.328 55.9489 103.755L55.9427 103.735C55.9259 103.681 55.885 103.636 55.8681 103.582C54.5955 99.5579 53.4992 102.341 53.2636 98.1381C53.1323 95.7958 53.5538 93.5246 54.2961 91.3181C55.199 88.6343 56.6247 86.2742 58.6738 84.2584L58.6767 84.248C58.4006 83.7488 58.7368 83.4684 59.0352 83.2195C59.073 83.188 59.1102 83.157 59.1455 83.1262Z" fill="#085b45"/>
<path fill-rule="evenodd" clip-rule="evenodd" d="M81.3833 21.4441C84.1344 26.0499 85.2261 30.8314 84.4085 36.0536C83.205 43.7399 77.9952 48.9486 70.2306 49.4119C59.9512 50.0254 50.9533 46.4848 43.7545 39.1873C35.9483 31.2741 37.7146 20.0796 47.1976 14.2242C57.5913 7.80633 74.3949 10.4463 81.3833 21.4441ZM48.6018 27.1981C47.9546 27.7849 47.5812 28.4745 48.0825 29.4979C49.0563 30.8718 50.0451 30.7244 51.0872 29.8331C51.4722 29.5038 51.8603 29.1778 52.2483 28.8517C53.1557 28.0894 54.063 27.3271 54.932 26.5227C55.7292 25.7848 56.3529 25.8913 56.9631 26.6811C57.2094 27 57.459 27.3163 57.7085 27.6326C58.7591 28.9643 59.8087 30.2948 60.6181 31.8128C61.0611 32.6436 61.0143 33.0641 60.2586 33.6617C58.8213 34.7981 57.4643 36.0399 56.1099 37.2794L55.829 37.5364C55.0104 38.285 54.8837 39.1358 55.655 40.0471C56.4965 41.0412 57.4079 40.9671 58.3157 40.2209C58.7984 39.8241 59.2433 39.3807 59.6882 38.9373C59.8689 38.7573 60.0495 38.5773 60.2327 38.4004L60.2402 38.3931C61.3716 37.3005 61.9378 36.7536 62.3363 36.857C62.7357 36.9605 62.9665 37.7172 63.4287 39.2322L63.4342 39.2503L63.4353 39.2539C63.5726 39.7039 63.7166 40.1762 63.9736 40.5592C64.4973 41.3397 65.2964 41.4999 66.1307 41.1912C66.9067 40.9042 67.2988 40.2739 67.2024 39.4235C67.1698 39.1359 67.1015 38.8526 67.0331 38.5691C66.9896 38.3889 66.946 38.2086 66.9117 38.027C66.1059 33.7693 66.107 33.7689 70.2788 32.3531C70.3542 32.3276 70.431 32.3056 70.5077 32.2837C70.6267 32.2497 70.7456 32.2158 70.859 32.1683C71.9273 31.7213 72.5413 32.1222 72.7902 33.2071C72.8771 33.5859 72.9586 33.9662 73.04 34.3465C73.2146 35.1623 73.3891 35.9781 73.618 36.7781C73.8688 37.6544 74.5085 38.1345 75.4649 38.011C76.3964 37.8906 76.8937 37.3194 77.0193 36.3991C77.152 35.4268 76.9192 34.4948 76.6388 33.5877C76.1525 32.0145 76.3112 31.1896 78.2611 31.791C79.3616 32.1304 80.3468 31.7482 80.6136 30.5076C80.8945 29.2013 80.2221 28.2194 78.9319 28.2733C75.4326 28.4193 73.8071 26.3929 72.8078 23.4215C72.6373 22.9147 72.3008 22.4544 71.9754 22.0093C71.938 21.958 71.9006 21.907 71.8637 21.8561C71.2182 20.9657 70.8622 20.2607 71.8859 19.2382C73.0001 18.1254 72.3716 16.3514 70.8937 16.4655C68.2139 16.6723 66.0718 15.6331 63.8905 14.3718C63.0016 13.8578 61.9119 13.5806 61.1637 14.6809C60.4777 15.6896 60.7377 16.6267 61.6654 17.3675C62.2779 17.8567 62.2641 18.2028 61.5159 18.5053C61.0146 18.708 60.5045 18.9145 60.0483 19.2002C57.8187 20.5965 55.6765 21.7264 53.1504 19.5873C52.2952 18.8631 50.8659 18.8223 50.1992 20.2042C49.5683 21.512 50.4513 22.253 51.5007 22.7476C52.6484 23.2885 52.4675 23.8263 51.6476 24.5155C50.6123 25.3858 49.604 26.2893 48.6018 27.1981Z" fill="#D55700"/>
<path d="M60.2811 79.7504C57.1677 82.5248 53.7354 86.618 52.5176 88.4494L51.1476 89.823L52.061 95.775C52.3654 95.9276 53.157 95.6834 53.8877 93.4858C54.6183 91.2881 58.4544 86.4655 60.2811 84.3289C66.2179 77.9191 69.1537 79.2927 68.5013 77.0033C67.8489 74.714 64.3912 76.0878 60.2811 79.7504Z" fill="#085b45"/>
</svg>
