<svg width="142" height="27" viewBox="0 0 142 27" fill="none" xmlns="http://www.w3.org/2000/svg">
<path d="M13.1135 4.74725H4.12224V9.34615H11.9186V13.2033H4.12224V21.3626H0V0.890109H13.1135V4.74725Z" fill="#085B45"/>
<path d="M20.8229 21.3626C17.537 21.3626 15.8344 19.8198 15.8344 16.8824V0H19.7176V16.2593C19.7176 17.2385 20.3151 17.8319 21.3904 17.8319H22.3164V21.3626H20.8229Z" fill="#085B45"/>
<path d="M31.5819 21.7187C26.922 21.7187 23.3972 18.3066 23.3972 13.7967C23.3972 9.28681 26.922 5.87473 31.5819 5.87473C36.2418 5.87473 39.7666 9.28681 39.7666 13.7967C39.7666 18.3066 36.2418 21.7187 31.5819 21.7187ZM31.5819 17.9802C34.0015 17.9802 35.7639 16.1703 35.7639 13.7967C35.7639 11.4231 34.0015 9.61319 31.5819 9.61319C29.1922 9.61319 27.3999 11.4231 27.3999 13.7967C27.3999 16.1703 29.1922 17.9802 31.5819 17.9802Z" fill="#085B45"/>
<path d="M82.3274 13.8264C82.3274 14.2121 82.2975 14.7758 82.2079 15.1319H70.11C70.6179 17.0604 72.1712 18.3066 74.2621 18.3066C75.8453 18.3066 77.2194 17.6242 77.8766 16.6451H82.0884C80.9235 19.6714 77.9065 21.7187 74.2024 21.7187C69.4827 21.7187 65.9579 18.3066 65.9579 13.7967C65.9579 9.28681 69.4827 5.87473 74.1427 5.87473C78.8026 5.87473 82.3274 9.28681 82.3274 13.8264ZM74.1427 9.25714C72.201 9.25714 70.6776 10.4736 70.1698 12.3132H78.1454C77.6376 10.4736 76.0544 9.25714 74.1427 9.25714Z" fill="#085B45"/>
<path d="M88.9409 8.54505C90.1357 6.94286 91.7786 5.99341 93.78 5.99341V9.96923C90.6734 9.96923 88.9409 11.6011 88.9409 14.1527V21.3626H85.0576V6.23077H88.9409V8.54505Z" fill="#085B45"/>
<path d="M105.101 5.87473C109.343 5.87473 112.509 9.28681 112.509 13.7967C112.509 18.3066 109.343 21.7187 105.101 21.7187C103.04 21.7187 101.337 20.8286 100.143 19.3747V27H96.2593V6.23077H100.143V8.21868C101.337 6.76484 103.04 5.87473 105.101 5.87473ZM104.325 17.9802C106.744 17.9802 108.507 16.1703 108.507 13.7967C108.507 11.4231 106.744 9.61319 104.325 9.61319C101.935 9.61319 100.143 11.4231 100.143 13.7967C100.143 16.1703 101.935 17.9802 104.325 17.9802Z" fill="#085B45"/>
<path d="M130.661 17.6242H130.959V21.3626H129.854C127.763 21.3626 126.389 20.5912 125.821 19.1077C124.656 20.7989 122.954 21.7187 120.863 21.7187C117.428 21.7187 115.127 19.4341 115.127 15.933V6.23077H119.011V14.8055C119.011 16.7341 120.265 17.9802 122.147 17.9802C124.149 17.9802 125.493 16.7044 125.493 14.7462V6.23077H129.376V16.3484C129.376 17.1495 129.854 17.6242 130.661 17.6242Z" fill="#085B45"/>
<path d="M137.161 8.54505C138.356 6.94286 139.999 5.99341 142 5.99341V9.96923C138.893 9.96923 137.161 11.6011 137.161 14.1527V21.3626H133.278V6.23077H137.161V8.54505Z" fill="#085B45"/>
<path d="M63.3965 12.7286L60.26 21.3626H56.2572L52.9116 10.8593L49.5661 21.3626H45.5633L40.067 6.23077H44.5178L47.6543 16.4967L50.97 6.23077H54.9429L58.2586 16.4967L59.7522 11.8978L60.238 10.1512L63.9433 10.9884L63.3965 12.7286Z" fill="#085B45"/>
<path d="M58.2265 7.01163L58.9676 3.8721C60.4228 3.87214 61.9319 3.97673 63.2023 5.7558C64.4727 7.53487 64.3668 9.62791 63.8375 11.3023L60.1321 10.4651C60.8732 7.74419 59.2852 6.90698 58.2265 7.01163Z" fill="#085B45"/>
</svg>
